G04 #@! TF.FileFunction,Legend,Bot*
%FSLAX46Y46*%
G04 Gerber Fmt 4.6, Leading zero omitted, Abs format (unit mm)*
G04 Created by KiCad (PCBNEW 4.0.5) date 02/22/17 23:16:55*
%MOMM*%
%LPD*%
G01*
G04 APERTURE LIST*
%ADD10C,0.100000*%
%ADD11C,0.300000*%
%ADD12C,0.150000*%
%ADD13C,0.002540*%
%ADD14C,2.400000*%
%ADD15C,2.000000*%
%ADD16O,2.599640X1.924000*%
%ADD17O,2.597100X1.924000*%
G04 APERTURE END LIST*
D10*
D11*
X96896856Y-128186571D02*
X97396856Y-127472286D01*
X97753999Y-128186571D02*
X97753999Y-126686571D01*
X97182571Y-126686571D01*
X97039713Y-126758000D01*
X96968285Y-126829429D01*
X96896856Y-126972286D01*
X96896856Y-127186571D01*
X96968285Y-127329429D01*
X97039713Y-127400857D01*
X97182571Y-127472286D01*
X97753999Y-127472286D01*
X95682571Y-128115143D02*
X95825428Y-128186571D01*
X96111142Y-128186571D01*
X96253999Y-128115143D01*
X96325428Y-127972286D01*
X96325428Y-127400857D01*
X96253999Y-127258000D01*
X96111142Y-127186571D01*
X95825428Y-127186571D01*
X95682571Y-127258000D01*
X95611142Y-127400857D01*
X95611142Y-127543714D01*
X96325428Y-127686571D01*
X95111142Y-127186571D02*
X94753999Y-128186571D01*
X94396857Y-127186571D01*
X93896857Y-127758000D02*
X93182571Y-127758000D01*
X94039714Y-128186571D02*
X93539714Y-126686571D01*
X93039714Y-128186571D01*
X60368571Y-65508143D02*
X58868571Y-65508143D01*
X60368571Y-66151000D02*
X59582857Y-66151000D01*
X59440000Y-66079571D01*
X59368571Y-65936714D01*
X59368571Y-65722429D01*
X59440000Y-65579571D01*
X59511429Y-65508143D01*
X59368571Y-66651000D02*
X59368571Y-67222429D01*
X58868571Y-66865286D02*
X60154286Y-66865286D01*
X60297143Y-66936714D01*
X60368571Y-67079572D01*
X60368571Y-67222429D01*
X59368571Y-67508143D02*
X59368571Y-68079572D01*
X58868571Y-67722429D02*
X60154286Y-67722429D01*
X60297143Y-67793857D01*
X60368571Y-67936715D01*
X60368571Y-68079572D01*
X59368571Y-68579572D02*
X60868571Y-68579572D01*
X59440000Y-68579572D02*
X59368571Y-68722429D01*
X59368571Y-69008143D01*
X59440000Y-69151000D01*
X59511429Y-69222429D01*
X59654286Y-69293858D01*
X60082857Y-69293858D01*
X60225714Y-69222429D01*
X60297143Y-69151000D01*
X60368571Y-69008143D01*
X60368571Y-68722429D01*
X60297143Y-68579572D01*
X60225714Y-69936715D02*
X60297143Y-70008143D01*
X60368571Y-69936715D01*
X60297143Y-69865286D01*
X60225714Y-69936715D01*
X60368571Y-69936715D01*
X59440000Y-69936715D02*
X59511429Y-70008143D01*
X59582857Y-69936715D01*
X59511429Y-69865286D01*
X59440000Y-69936715D01*
X59582857Y-69936715D01*
X58797143Y-71722429D02*
X60725714Y-70436715D01*
X58797143Y-73293858D02*
X60725714Y-72008144D01*
X60368571Y-73793859D02*
X58868571Y-73793859D01*
X60368571Y-74436716D02*
X59582857Y-74436716D01*
X59440000Y-74365287D01*
X59368571Y-74222430D01*
X59368571Y-74008145D01*
X59440000Y-73865287D01*
X59511429Y-73793859D01*
X60368571Y-75365288D02*
X60297143Y-75222430D01*
X60225714Y-75151002D01*
X60082857Y-75079573D01*
X59654286Y-75079573D01*
X59511429Y-75151002D01*
X59440000Y-75222430D01*
X59368571Y-75365288D01*
X59368571Y-75579573D01*
X59440000Y-75722430D01*
X59511429Y-75793859D01*
X59654286Y-75865288D01*
X60082857Y-75865288D01*
X60225714Y-75793859D01*
X60297143Y-75722430D01*
X60368571Y-75579573D01*
X60368571Y-75365288D01*
X59368571Y-76293859D02*
X59368571Y-76865288D01*
X58868571Y-76508145D02*
X60154286Y-76508145D01*
X60297143Y-76579573D01*
X60368571Y-76722431D01*
X60368571Y-76865288D01*
X59368571Y-77222431D02*
X60368571Y-77508145D01*
X59654286Y-77793859D01*
X60368571Y-78079574D01*
X59368571Y-78365288D01*
X60368571Y-79151003D02*
X60297143Y-79008145D01*
X60225714Y-78936717D01*
X60082857Y-78865288D01*
X59654286Y-78865288D01*
X59511429Y-78936717D01*
X59440000Y-79008145D01*
X59368571Y-79151003D01*
X59368571Y-79365288D01*
X59440000Y-79508145D01*
X59511429Y-79579574D01*
X59654286Y-79651003D01*
X60082857Y-79651003D01*
X60225714Y-79579574D01*
X60297143Y-79508145D01*
X60368571Y-79365288D01*
X60368571Y-79151003D01*
X60368571Y-80508146D02*
X60297143Y-80365288D01*
X60154286Y-80293860D01*
X58868571Y-80293860D01*
X59368571Y-80865288D02*
X59368571Y-81436717D01*
X60368571Y-81079574D02*
X59082857Y-81079574D01*
X58940000Y-81151002D01*
X58868571Y-81293860D01*
X58868571Y-81436717D01*
X60225714Y-81936717D02*
X60297143Y-82008145D01*
X60368571Y-81936717D01*
X60297143Y-81865288D01*
X60225714Y-81936717D01*
X60368571Y-81936717D01*
X59368571Y-83293860D02*
X60582857Y-83293860D01*
X60725714Y-83222431D01*
X60797143Y-83151003D01*
X60868571Y-83008146D01*
X60868571Y-82793860D01*
X60797143Y-82651003D01*
X60297143Y-83293860D02*
X60368571Y-83151003D01*
X60368571Y-82865289D01*
X60297143Y-82722431D01*
X60225714Y-82651003D01*
X60082857Y-82579574D01*
X59654286Y-82579574D01*
X59511429Y-82651003D01*
X59440000Y-82722431D01*
X59368571Y-82865289D01*
X59368571Y-83151003D01*
X59440000Y-83293860D01*
X60368571Y-84008146D02*
X59368571Y-84008146D01*
X58868571Y-84008146D02*
X58940000Y-83936717D01*
X59011429Y-84008146D01*
X58940000Y-84079574D01*
X58868571Y-84008146D01*
X59011429Y-84008146D01*
X59368571Y-84508146D02*
X59368571Y-85079575D01*
X58868571Y-84722432D02*
X60154286Y-84722432D01*
X60297143Y-84793860D01*
X60368571Y-84936718D01*
X60368571Y-85079575D01*
X60368571Y-85579575D02*
X58868571Y-85579575D01*
X60368571Y-86222432D02*
X59582857Y-86222432D01*
X59440000Y-86151003D01*
X59368571Y-86008146D01*
X59368571Y-85793861D01*
X59440000Y-85651003D01*
X59511429Y-85579575D01*
X59368571Y-87579575D02*
X60368571Y-87579575D01*
X59368571Y-86936718D02*
X60154286Y-86936718D01*
X60297143Y-87008146D01*
X60368571Y-87151004D01*
X60368571Y-87365289D01*
X60297143Y-87508146D01*
X60225714Y-87579575D01*
X60368571Y-88293861D02*
X58868571Y-88293861D01*
X59440000Y-88293861D02*
X59368571Y-88436718D01*
X59368571Y-88722432D01*
X59440000Y-88865289D01*
X59511429Y-88936718D01*
X59654286Y-89008147D01*
X60082857Y-89008147D01*
X60225714Y-88936718D01*
X60297143Y-88865289D01*
X60368571Y-88722432D01*
X60368571Y-88436718D01*
X60297143Y-88293861D01*
X60225714Y-89651004D02*
X60297143Y-89722432D01*
X60368571Y-89651004D01*
X60297143Y-89579575D01*
X60225714Y-89651004D01*
X60368571Y-89651004D01*
X60368571Y-90365290D02*
X59368571Y-90365290D01*
X58868571Y-90365290D02*
X58940000Y-90293861D01*
X59011429Y-90365290D01*
X58940000Y-90436718D01*
X58868571Y-90365290D01*
X59011429Y-90365290D01*
X60368571Y-91293862D02*
X60297143Y-91151004D01*
X60225714Y-91079576D01*
X60082857Y-91008147D01*
X59654286Y-91008147D01*
X59511429Y-91079576D01*
X59440000Y-91151004D01*
X59368571Y-91293862D01*
X59368571Y-91508147D01*
X59440000Y-91651004D01*
X59511429Y-91722433D01*
X59654286Y-91793862D01*
X60082857Y-91793862D01*
X60225714Y-91722433D01*
X60297143Y-91651004D01*
X60368571Y-91508147D01*
X60368571Y-91293862D01*
X58797143Y-93508147D02*
X60725714Y-92222433D01*
X58868571Y-93793862D02*
X58868571Y-94651005D01*
X60368571Y-94222434D02*
X58868571Y-94222434D01*
X60368571Y-95151005D02*
X59368571Y-95151005D01*
X58868571Y-95151005D02*
X58940000Y-95079576D01*
X59011429Y-95151005D01*
X58940000Y-95222433D01*
X58868571Y-95151005D01*
X59011429Y-95151005D01*
X60297143Y-96508148D02*
X60368571Y-96365291D01*
X60368571Y-96079577D01*
X60297143Y-95936719D01*
X60225714Y-95865291D01*
X60082857Y-95793862D01*
X59654286Y-95793862D01*
X59511429Y-95865291D01*
X59440000Y-95936719D01*
X59368571Y-96079577D01*
X59368571Y-96365291D01*
X59440000Y-96508148D01*
X58868571Y-96936719D02*
X58868571Y-97793862D01*
X60368571Y-97365291D02*
X58868571Y-97365291D01*
X60368571Y-98936719D02*
X59582857Y-98936719D01*
X59440000Y-98865290D01*
X59368571Y-98722433D01*
X59368571Y-98436719D01*
X59440000Y-98293862D01*
X60297143Y-98936719D02*
X60368571Y-98793862D01*
X60368571Y-98436719D01*
X60297143Y-98293862D01*
X60154286Y-98222433D01*
X60011429Y-98222433D01*
X59868571Y-98293862D01*
X59797143Y-98436719D01*
X59797143Y-98793862D01*
X59725714Y-98936719D01*
X60297143Y-100293862D02*
X60368571Y-100151005D01*
X60368571Y-99865291D01*
X60297143Y-99722433D01*
X60225714Y-99651005D01*
X60082857Y-99579576D01*
X59654286Y-99579576D01*
X59511429Y-99651005D01*
X59440000Y-99722433D01*
X59368571Y-99865291D01*
X59368571Y-100151005D01*
X59440000Y-100293862D01*
X58868571Y-100722433D02*
X58868571Y-101579576D01*
X60368571Y-101151005D02*
X58868571Y-101151005D01*
X60368571Y-102293862D02*
X60297143Y-102151004D01*
X60225714Y-102079576D01*
X60082857Y-102008147D01*
X59654286Y-102008147D01*
X59511429Y-102079576D01*
X59440000Y-102151004D01*
X59368571Y-102293862D01*
X59368571Y-102508147D01*
X59440000Y-102651004D01*
X59511429Y-102722433D01*
X59654286Y-102793862D01*
X60082857Y-102793862D01*
X60225714Y-102722433D01*
X60297143Y-102651004D01*
X60368571Y-102508147D01*
X60368571Y-102293862D01*
X60297143Y-104008147D02*
X60368571Y-103865290D01*
X60368571Y-103579576D01*
X60297143Y-103436719D01*
X60154286Y-103365290D01*
X59582857Y-103365290D01*
X59440000Y-103436719D01*
X59368571Y-103579576D01*
X59368571Y-103865290D01*
X59440000Y-104008147D01*
X59582857Y-104079576D01*
X59725714Y-104079576D01*
X59868571Y-103365290D01*
X55201429Y-77184572D02*
X55130000Y-77256001D01*
X55058571Y-77398858D01*
X55058571Y-77756001D01*
X55130000Y-77898858D01*
X55201429Y-77970287D01*
X55344286Y-78041715D01*
X55487143Y-78041715D01*
X55701429Y-77970287D01*
X56558571Y-77113144D01*
X56558571Y-78041715D01*
X55058571Y-78970286D02*
X55058571Y-79113143D01*
X55130000Y-79256000D01*
X55201429Y-79327429D01*
X55344286Y-79398858D01*
X55630000Y-79470286D01*
X55987143Y-79470286D01*
X56272857Y-79398858D01*
X56415714Y-79327429D01*
X56487143Y-79256000D01*
X56558571Y-79113143D01*
X56558571Y-78970286D01*
X56487143Y-78827429D01*
X56415714Y-78756000D01*
X56272857Y-78684572D01*
X55987143Y-78613143D01*
X55630000Y-78613143D01*
X55344286Y-78684572D01*
X55201429Y-78756000D01*
X55130000Y-78827429D01*
X55058571Y-78970286D01*
X56558571Y-80898857D02*
X56558571Y-80041714D01*
X56558571Y-80470286D02*
X55058571Y-80470286D01*
X55272857Y-80327429D01*
X55415714Y-80184571D01*
X55487143Y-80041714D01*
X55058571Y-81398857D02*
X55058571Y-82398857D01*
X56558571Y-81756000D01*
X52884286Y-65452571D02*
X51084286Y-65452571D01*
X51084286Y-65881143D01*
X51170000Y-66138286D01*
X51341429Y-66309714D01*
X51512857Y-66395429D01*
X51855714Y-66481143D01*
X52112857Y-66481143D01*
X52455714Y-66395429D01*
X52627143Y-66309714D01*
X52798571Y-66138286D01*
X52884286Y-65881143D01*
X52884286Y-65452571D01*
X52884286Y-67252571D02*
X51684286Y-67252571D01*
X51084286Y-67252571D02*
X51170000Y-67166857D01*
X51255714Y-67252571D01*
X51170000Y-67338286D01*
X51084286Y-67252571D01*
X51255714Y-67252571D01*
X52884286Y-68109714D02*
X51684286Y-68109714D01*
X52027143Y-68109714D02*
X51855714Y-68195429D01*
X51770000Y-68281143D01*
X51684286Y-68452572D01*
X51684286Y-68624000D01*
X52884286Y-69224000D02*
X51084286Y-69224000D01*
X52198571Y-69395429D02*
X52884286Y-69909715D01*
X51684286Y-69909715D02*
X52370000Y-69224000D01*
X52884286Y-72052572D02*
X51084286Y-72052572D01*
X51941429Y-72052572D02*
X51941429Y-73081144D01*
X52884286Y-73081144D02*
X51084286Y-73081144D01*
X52798571Y-74624001D02*
X52884286Y-74452572D01*
X52884286Y-74109715D01*
X52798571Y-73938286D01*
X52627143Y-73852572D01*
X51941429Y-73852572D01*
X51770000Y-73938286D01*
X51684286Y-74109715D01*
X51684286Y-74452572D01*
X51770000Y-74624001D01*
X51941429Y-74709715D01*
X52112857Y-74709715D01*
X52284286Y-73852572D01*
X52884286Y-75481143D02*
X51684286Y-75481143D01*
X51084286Y-75481143D02*
X51170000Y-75395429D01*
X51255714Y-75481143D01*
X51170000Y-75566858D01*
X51084286Y-75481143D01*
X51255714Y-75481143D01*
X52798571Y-76252572D02*
X52884286Y-76424001D01*
X52884286Y-76766858D01*
X52798571Y-76938286D01*
X52627143Y-77024001D01*
X52541429Y-77024001D01*
X52370000Y-76938286D01*
X52284286Y-76766858D01*
X52284286Y-76509715D01*
X52198571Y-76338286D01*
X52027143Y-76252572D01*
X51941429Y-76252572D01*
X51770000Y-76338286D01*
X51684286Y-76509715D01*
X51684286Y-76766858D01*
X51770000Y-76938286D01*
X52798571Y-77709715D02*
X52884286Y-77881144D01*
X52884286Y-78224001D01*
X52798571Y-78395429D01*
X52627143Y-78481144D01*
X52541429Y-78481144D01*
X52370000Y-78395429D01*
X52284286Y-78224001D01*
X52284286Y-77966858D01*
X52198571Y-77795429D01*
X52027143Y-77709715D01*
X51941429Y-77709715D01*
X51770000Y-77795429D01*
X51684286Y-77966858D01*
X51684286Y-78224001D01*
X51770000Y-78395429D01*
X51684286Y-79081144D02*
X52884286Y-79424001D01*
X52027143Y-79766858D01*
X52884286Y-80109715D01*
X51684286Y-80452572D01*
X52884286Y-81395429D02*
X52798571Y-81224001D01*
X52712857Y-81138286D01*
X52541429Y-81052572D01*
X52027143Y-81052572D01*
X51855714Y-81138286D01*
X51770000Y-81224001D01*
X51684286Y-81395429D01*
X51684286Y-81652572D01*
X51770000Y-81824001D01*
X51855714Y-81909715D01*
X52027143Y-81995429D01*
X52541429Y-81995429D01*
X52712857Y-81909715D01*
X52798571Y-81824001D01*
X52884286Y-81652572D01*
X52884286Y-81395429D01*
X52884286Y-83024000D02*
X52798571Y-82852572D01*
X52627143Y-82766857D01*
X51084286Y-82766857D01*
X51684286Y-83452572D02*
X51684286Y-84138286D01*
X52884286Y-83709714D02*
X51341429Y-83709714D01*
X51170000Y-83795429D01*
X51084286Y-83966857D01*
X51084286Y-84138286D01*
D12*
X102870000Y-128270000D02*
X102870000Y-64770000D01*
X49530000Y-64770000D02*
X49530000Y-128270000D01*
X54610000Y-132080000D02*
X87630000Y-132080000D01*
X54610000Y-132080000D02*
X52070000Y-129540000D01*
X52070000Y-129540000D02*
X50800000Y-129540000D01*
X101600000Y-129540000D02*
X90170000Y-129540000D01*
X90170000Y-129540000D02*
X87630000Y-132080000D01*
X102870000Y-128270000D02*
X101600000Y-129540000D01*
X102870000Y-64770000D02*
G75*
G03X101600000Y-63500000I-1270000J0D01*
G01*
X50800000Y-63500000D02*
X101600000Y-63500000D01*
X50800000Y-63500000D02*
G75*
G03X49530000Y-64770000I0J-1270000D01*
G01*
X49530000Y-128270000D02*
G75*
G03X50800000Y-129540000I1270000J0D01*
G01*
D13*
G36*
X58112660Y-75364340D02*
X58112660Y-75250040D01*
X56771540Y-75250040D01*
X55305960Y-75250040D01*
X53835300Y-75250040D01*
X53797200Y-75211940D01*
X53761640Y-75173840D01*
X53761640Y-70363080D01*
X53761640Y-65554860D01*
X53797200Y-65516760D01*
X53835300Y-65478660D01*
X55305960Y-65478660D01*
X56771540Y-65481200D01*
X56774080Y-65707260D01*
X56774080Y-65933320D01*
X56903620Y-66017140D01*
X57071260Y-66139060D01*
X57223660Y-66281300D01*
X57360820Y-66441320D01*
X57480200Y-66616580D01*
X57579260Y-66804540D01*
X57658000Y-67002660D01*
X57713880Y-67208400D01*
X57741820Y-67373500D01*
X57749440Y-67459860D01*
X57751980Y-67561460D01*
X57749440Y-67673220D01*
X57741820Y-67782440D01*
X57729120Y-67881500D01*
X57718960Y-67942460D01*
X57663080Y-68158360D01*
X57584340Y-68361560D01*
X57487820Y-68549520D01*
X57365900Y-68727320D01*
X57221120Y-68892420D01*
X57152540Y-68961000D01*
X57091580Y-69016880D01*
X57020460Y-69072760D01*
X56949340Y-69126100D01*
X56903620Y-69159120D01*
X56774080Y-69240400D01*
X56774080Y-72242680D01*
X56771540Y-75250040D01*
X58112660Y-75250040D01*
X58112660Y-75234800D01*
X58011060Y-75234800D01*
X57449720Y-75234800D01*
X56888380Y-75234800D01*
X56888380Y-72278240D01*
X56888380Y-69324220D01*
X57005220Y-69245480D01*
X57142380Y-69148960D01*
X57261760Y-69052440D01*
X57360820Y-68953380D01*
X57449720Y-68849240D01*
X57528460Y-68732400D01*
X57579260Y-68646040D01*
X57650380Y-68506340D01*
X57708800Y-68381880D01*
X57757060Y-68265040D01*
X57795160Y-68145660D01*
X57825640Y-68021200D01*
X57825640Y-68016120D01*
X57861200Y-67833240D01*
X57876440Y-67660520D01*
X57876440Y-67495420D01*
X57858660Y-67327780D01*
X57825640Y-67157600D01*
X57767220Y-66962020D01*
X57685940Y-66766440D01*
X57576720Y-66565780D01*
X57444640Y-66365120D01*
X57396380Y-66296540D01*
X57353200Y-66245740D01*
X57294780Y-66184780D01*
X57228740Y-66121280D01*
X57160160Y-66055240D01*
X57086500Y-65991740D01*
X57020460Y-65938400D01*
X56962040Y-65895220D01*
X56926480Y-65872360D01*
X56888380Y-65852040D01*
X56888380Y-65659000D01*
X56888380Y-65465960D01*
X57449720Y-65465960D01*
X58011060Y-65465960D01*
X58011060Y-70352920D01*
X58011060Y-75234800D01*
X58112660Y-75234800D01*
X58112660Y-70370700D01*
X58112660Y-65379600D01*
X57932320Y-65371980D01*
X57894220Y-65369440D01*
X57835800Y-65369440D01*
X57754520Y-65369440D01*
X57655460Y-65369440D01*
X57538620Y-65366900D01*
X57406540Y-65366900D01*
X57259220Y-65366900D01*
X57099200Y-65366900D01*
X56929020Y-65366900D01*
X56748680Y-65366900D01*
X56560720Y-65366900D01*
X56367680Y-65366900D01*
X56169560Y-65366900D01*
X55968900Y-65366900D01*
X55768240Y-65366900D01*
X55565040Y-65366900D01*
X55364380Y-65369440D01*
X55168800Y-65369440D01*
X54975760Y-65369440D01*
X54790340Y-65369440D01*
X54615080Y-65371980D01*
X54447440Y-65371980D01*
X54292500Y-65374520D01*
X54150260Y-65374520D01*
X54023260Y-65374520D01*
X53914040Y-65377060D01*
X53820060Y-65377060D01*
X53748940Y-65379600D01*
X53695600Y-65379600D01*
X53667660Y-65382140D01*
X53662580Y-65382140D01*
X53662580Y-65394840D01*
X53662580Y-65432940D01*
X53660040Y-65493900D01*
X53660040Y-65577720D01*
X53660040Y-65681860D01*
X53660040Y-65808860D01*
X53657500Y-65951100D01*
X53657500Y-66113660D01*
X53657500Y-66294000D01*
X53657500Y-66489580D01*
X53654960Y-66700400D01*
X53654960Y-66923920D01*
X53654960Y-67162680D01*
X53654960Y-67411600D01*
X53654960Y-67670680D01*
X53652420Y-67939920D01*
X53652420Y-68216780D01*
X53652420Y-68503800D01*
X53652420Y-68793360D01*
X53652420Y-69090540D01*
X53652420Y-69392800D01*
X53649880Y-69697600D01*
X53649880Y-70004940D01*
X53649880Y-70314820D01*
X53649880Y-70619620D01*
X53649880Y-70926960D01*
X53649880Y-71231760D01*
X53649880Y-71534020D01*
X53649880Y-71833740D01*
X53649880Y-72125840D01*
X53649880Y-72412860D01*
X53649880Y-72692260D01*
X53649880Y-72964040D01*
X53649880Y-73225660D01*
X53649880Y-73477120D01*
X53649880Y-73715880D01*
X53649880Y-73941940D01*
X53649880Y-74155300D01*
X53649880Y-74353420D01*
X53649880Y-74536300D01*
X53649880Y-74703940D01*
X53652420Y-74851260D01*
X53652420Y-74980800D01*
X53652420Y-75087480D01*
X53652420Y-75176380D01*
X53654960Y-75242420D01*
X53654960Y-75285600D01*
X53654960Y-75303380D01*
X53662580Y-75364340D01*
X55887620Y-75364340D01*
X58112660Y-75364340D01*
X58112660Y-75364340D01*
X58112660Y-75364340D01*
G37*
X58112660Y-75364340D02*
X58112660Y-75250040D01*
X56771540Y-75250040D01*
X55305960Y-75250040D01*
X53835300Y-75250040D01*
X53797200Y-75211940D01*
X53761640Y-75173840D01*
X53761640Y-70363080D01*
X53761640Y-65554860D01*
X53797200Y-65516760D01*
X53835300Y-65478660D01*
X55305960Y-65478660D01*
X56771540Y-65481200D01*
X56774080Y-65707260D01*
X56774080Y-65933320D01*
X56903620Y-66017140D01*
X57071260Y-66139060D01*
X57223660Y-66281300D01*
X57360820Y-66441320D01*
X57480200Y-66616580D01*
X57579260Y-66804540D01*
X57658000Y-67002660D01*
X57713880Y-67208400D01*
X57741820Y-67373500D01*
X57749440Y-67459860D01*
X57751980Y-67561460D01*
X57749440Y-67673220D01*
X57741820Y-67782440D01*
X57729120Y-67881500D01*
X57718960Y-67942460D01*
X57663080Y-68158360D01*
X57584340Y-68361560D01*
X57487820Y-68549520D01*
X57365900Y-68727320D01*
X57221120Y-68892420D01*
X57152540Y-68961000D01*
X57091580Y-69016880D01*
X57020460Y-69072760D01*
X56949340Y-69126100D01*
X56903620Y-69159120D01*
X56774080Y-69240400D01*
X56774080Y-72242680D01*
X56771540Y-75250040D01*
X58112660Y-75250040D01*
X58112660Y-75234800D01*
X58011060Y-75234800D01*
X57449720Y-75234800D01*
X56888380Y-75234800D01*
X56888380Y-72278240D01*
X56888380Y-69324220D01*
X57005220Y-69245480D01*
X57142380Y-69148960D01*
X57261760Y-69052440D01*
X57360820Y-68953380D01*
X57449720Y-68849240D01*
X57528460Y-68732400D01*
X57579260Y-68646040D01*
X57650380Y-68506340D01*
X57708800Y-68381880D01*
X57757060Y-68265040D01*
X57795160Y-68145660D01*
X57825640Y-68021200D01*
X57825640Y-68016120D01*
X57861200Y-67833240D01*
X57876440Y-67660520D01*
X57876440Y-67495420D01*
X57858660Y-67327780D01*
X57825640Y-67157600D01*
X57767220Y-66962020D01*
X57685940Y-66766440D01*
X57576720Y-66565780D01*
X57444640Y-66365120D01*
X57396380Y-66296540D01*
X57353200Y-66245740D01*
X57294780Y-66184780D01*
X57228740Y-66121280D01*
X57160160Y-66055240D01*
X57086500Y-65991740D01*
X57020460Y-65938400D01*
X56962040Y-65895220D01*
X56926480Y-65872360D01*
X56888380Y-65852040D01*
X56888380Y-65659000D01*
X56888380Y-65465960D01*
X57449720Y-65465960D01*
X58011060Y-65465960D01*
X58011060Y-70352920D01*
X58011060Y-75234800D01*
X58112660Y-75234800D01*
X58112660Y-70370700D01*
X58112660Y-65379600D01*
X57932320Y-65371980D01*
X57894220Y-65369440D01*
X57835800Y-65369440D01*
X57754520Y-65369440D01*
X57655460Y-65369440D01*
X57538620Y-65366900D01*
X57406540Y-65366900D01*
X57259220Y-65366900D01*
X57099200Y-65366900D01*
X56929020Y-65366900D01*
X56748680Y-65366900D01*
X56560720Y-65366900D01*
X56367680Y-65366900D01*
X56169560Y-65366900D01*
X55968900Y-65366900D01*
X55768240Y-65366900D01*
X55565040Y-65366900D01*
X55364380Y-65369440D01*
X55168800Y-65369440D01*
X54975760Y-65369440D01*
X54790340Y-65369440D01*
X54615080Y-65371980D01*
X54447440Y-65371980D01*
X54292500Y-65374520D01*
X54150260Y-65374520D01*
X54023260Y-65374520D01*
X53914040Y-65377060D01*
X53820060Y-65377060D01*
X53748940Y-65379600D01*
X53695600Y-65379600D01*
X53667660Y-65382140D01*
X53662580Y-65382140D01*
X53662580Y-65394840D01*
X53662580Y-65432940D01*
X53660040Y-65493900D01*
X53660040Y-65577720D01*
X53660040Y-65681860D01*
X53660040Y-65808860D01*
X53657500Y-65951100D01*
X53657500Y-66113660D01*
X53657500Y-66294000D01*
X53657500Y-66489580D01*
X53654960Y-66700400D01*
X53654960Y-66923920D01*
X53654960Y-67162680D01*
X53654960Y-67411600D01*
X53654960Y-67670680D01*
X53652420Y-67939920D01*
X53652420Y-68216780D01*
X53652420Y-68503800D01*
X53652420Y-68793360D01*
X53652420Y-69090540D01*
X53652420Y-69392800D01*
X53649880Y-69697600D01*
X53649880Y-70004940D01*
X53649880Y-70314820D01*
X53649880Y-70619620D01*
X53649880Y-70926960D01*
X53649880Y-71231760D01*
X53649880Y-71534020D01*
X53649880Y-71833740D01*
X53649880Y-72125840D01*
X53649880Y-72412860D01*
X53649880Y-72692260D01*
X53649880Y-72964040D01*
X53649880Y-73225660D01*
X53649880Y-73477120D01*
X53649880Y-73715880D01*
X53649880Y-73941940D01*
X53649880Y-74155300D01*
X53649880Y-74353420D01*
X53649880Y-74536300D01*
X53649880Y-74703940D01*
X53652420Y-74851260D01*
X53652420Y-74980800D01*
X53652420Y-75087480D01*
X53652420Y-75176380D01*
X53654960Y-75242420D01*
X53654960Y-75285600D01*
X53654960Y-75303380D01*
X53662580Y-75364340D01*
X55887620Y-75364340D01*
X58112660Y-75364340D01*
X58112660Y-75364340D01*
G36*
X57655460Y-73497440D02*
X57703720Y-73484740D01*
X57749440Y-73456800D01*
X57762140Y-73446640D01*
X57802780Y-73395840D01*
X57833260Y-73327260D01*
X57848500Y-73248520D01*
X57851040Y-73169780D01*
X57848500Y-73159620D01*
X57828180Y-73070720D01*
X57790080Y-72999600D01*
X57739280Y-72946260D01*
X57673240Y-72913240D01*
X57665620Y-72910700D01*
X57627520Y-72903080D01*
X57604660Y-72910700D01*
X57591960Y-72933560D01*
X57591960Y-72976740D01*
X57591960Y-72986900D01*
X57597040Y-73027540D01*
X57604660Y-73050400D01*
X57619900Y-73060560D01*
X57640220Y-73068180D01*
X57685940Y-73096120D01*
X57713880Y-73139300D01*
X57729120Y-73192640D01*
X57724040Y-73253600D01*
X57711340Y-73289160D01*
X57688480Y-73327260D01*
X57660540Y-73342500D01*
X57624980Y-73339960D01*
X57607200Y-73332340D01*
X57589420Y-73314560D01*
X57574180Y-73281540D01*
X57553860Y-73233280D01*
X57533540Y-73164700D01*
X57520840Y-73126600D01*
X57500520Y-73068180D01*
X57482740Y-73025000D01*
X57462420Y-72994520D01*
X57444640Y-72976740D01*
X57386220Y-72941180D01*
X57330340Y-72928480D01*
X57271920Y-72933560D01*
X57221120Y-72958960D01*
X57175400Y-73002140D01*
X57139840Y-73055480D01*
X57116980Y-73121520D01*
X57109360Y-73195180D01*
X57116980Y-73266300D01*
X57139840Y-73350120D01*
X57177940Y-73411080D01*
X57228740Y-73449180D01*
X57292240Y-73469500D01*
X57294780Y-73469500D01*
X57348120Y-73477120D01*
X57348120Y-73403460D01*
X57345580Y-73362820D01*
X57340500Y-73339960D01*
X57330340Y-73327260D01*
X57307480Y-73317100D01*
X57269380Y-73291700D01*
X57243980Y-73251060D01*
X57233820Y-73202800D01*
X57238900Y-73154540D01*
X57261760Y-73111360D01*
X57264300Y-73108820D01*
X57292240Y-73083420D01*
X57312560Y-73080880D01*
X57337960Y-73093580D01*
X57345580Y-73098660D01*
X57363360Y-73126600D01*
X57386220Y-73179940D01*
X57409080Y-73256140D01*
X57409080Y-73261220D01*
X57437020Y-73347580D01*
X57464960Y-73408540D01*
X57495440Y-73451720D01*
X57536080Y-73479660D01*
X57584340Y-73494900D01*
X57594500Y-73494900D01*
X57655460Y-73497440D01*
X57655460Y-73497440D01*
X57655460Y-73497440D01*
G37*
X57655460Y-73497440D02*
X57703720Y-73484740D01*
X57749440Y-73456800D01*
X57762140Y-73446640D01*
X57802780Y-73395840D01*
X57833260Y-73327260D01*
X57848500Y-73248520D01*
X57851040Y-73169780D01*
X57848500Y-73159620D01*
X57828180Y-73070720D01*
X57790080Y-72999600D01*
X57739280Y-72946260D01*
X57673240Y-72913240D01*
X57665620Y-72910700D01*
X57627520Y-72903080D01*
X57604660Y-72910700D01*
X57591960Y-72933560D01*
X57591960Y-72976740D01*
X57591960Y-72986900D01*
X57597040Y-73027540D01*
X57604660Y-73050400D01*
X57619900Y-73060560D01*
X57640220Y-73068180D01*
X57685940Y-73096120D01*
X57713880Y-73139300D01*
X57729120Y-73192640D01*
X57724040Y-73253600D01*
X57711340Y-73289160D01*
X57688480Y-73327260D01*
X57660540Y-73342500D01*
X57624980Y-73339960D01*
X57607200Y-73332340D01*
X57589420Y-73314560D01*
X57574180Y-73281540D01*
X57553860Y-73233280D01*
X57533540Y-73164700D01*
X57520840Y-73126600D01*
X57500520Y-73068180D01*
X57482740Y-73025000D01*
X57462420Y-72994520D01*
X57444640Y-72976740D01*
X57386220Y-72941180D01*
X57330340Y-72928480D01*
X57271920Y-72933560D01*
X57221120Y-72958960D01*
X57175400Y-73002140D01*
X57139840Y-73055480D01*
X57116980Y-73121520D01*
X57109360Y-73195180D01*
X57116980Y-73266300D01*
X57139840Y-73350120D01*
X57177940Y-73411080D01*
X57228740Y-73449180D01*
X57292240Y-73469500D01*
X57294780Y-73469500D01*
X57348120Y-73477120D01*
X57348120Y-73403460D01*
X57345580Y-73362820D01*
X57340500Y-73339960D01*
X57330340Y-73327260D01*
X57307480Y-73317100D01*
X57269380Y-73291700D01*
X57243980Y-73251060D01*
X57233820Y-73202800D01*
X57238900Y-73154540D01*
X57261760Y-73111360D01*
X57264300Y-73108820D01*
X57292240Y-73083420D01*
X57312560Y-73080880D01*
X57337960Y-73093580D01*
X57345580Y-73098660D01*
X57363360Y-73126600D01*
X57386220Y-73179940D01*
X57409080Y-73256140D01*
X57409080Y-73261220D01*
X57437020Y-73347580D01*
X57464960Y-73408540D01*
X57495440Y-73451720D01*
X57536080Y-73479660D01*
X57584340Y-73494900D01*
X57594500Y-73494900D01*
X57655460Y-73497440D01*
X57655460Y-73497440D01*
G36*
X57655460Y-70774560D02*
X57721500Y-70754240D01*
X57774840Y-70713600D01*
X57807860Y-70657720D01*
X57818020Y-70634860D01*
X57823100Y-70612000D01*
X57614820Y-70612000D01*
X57576720Y-70606920D01*
X57551320Y-70591680D01*
X57548780Y-70586600D01*
X57322720Y-70586600D01*
X57287160Y-70573900D01*
X57277000Y-70566280D01*
X57266840Y-70545960D01*
X57261760Y-70512940D01*
X57259220Y-70457060D01*
X57259220Y-70446900D01*
X57259220Y-70350380D01*
X57299860Y-70345300D01*
X57340500Y-70342760D01*
X57376060Y-70342760D01*
X57393840Y-70347840D01*
X57404000Y-70355460D01*
X57409080Y-70370700D01*
X57411620Y-70406260D01*
X57411620Y-70436740D01*
X57409080Y-70502780D01*
X57398920Y-70545960D01*
X57391300Y-70558660D01*
X57360820Y-70581520D01*
X57322720Y-70586600D01*
X57548780Y-70586600D01*
X57536080Y-70561200D01*
X57528460Y-70510400D01*
X57525920Y-70449440D01*
X57525920Y-70347840D01*
X57614820Y-70347840D01*
X57706260Y-70347840D01*
X57706260Y-70454520D01*
X57703720Y-70515480D01*
X57698640Y-70553580D01*
X57691020Y-70578980D01*
X57683400Y-70589140D01*
X57650380Y-70606920D01*
X57614820Y-70612000D01*
X57823100Y-70612000D01*
X57823100Y-70606920D01*
X57828180Y-70571360D01*
X57830720Y-70520560D01*
X57833260Y-70454520D01*
X57833260Y-70391020D01*
X57833260Y-70180200D01*
X57482740Y-70180200D01*
X57129680Y-70180200D01*
X57129680Y-70388480D01*
X57132220Y-70482460D01*
X57134760Y-70551040D01*
X57139840Y-70604380D01*
X57150000Y-70642480D01*
X57162700Y-70672960D01*
X57183020Y-70695820D01*
X57190640Y-70705980D01*
X57226200Y-70723760D01*
X57277000Y-70736460D01*
X57327800Y-70739000D01*
X57353200Y-70733920D01*
X57386220Y-70718680D01*
X57419240Y-70693280D01*
X57421780Y-70690740D01*
X57442100Y-70670420D01*
X57454800Y-70667880D01*
X57459880Y-70675500D01*
X57482740Y-70711060D01*
X57520840Y-70744080D01*
X57564020Y-70766940D01*
X57581800Y-70772020D01*
X57655460Y-70774560D01*
X57655460Y-70774560D01*
X57655460Y-70774560D01*
G37*
X57655460Y-70774560D02*
X57721500Y-70754240D01*
X57774840Y-70713600D01*
X57807860Y-70657720D01*
X57818020Y-70634860D01*
X57823100Y-70612000D01*
X57614820Y-70612000D01*
X57576720Y-70606920D01*
X57551320Y-70591680D01*
X57548780Y-70586600D01*
X57322720Y-70586600D01*
X57287160Y-70573900D01*
X57277000Y-70566280D01*
X57266840Y-70545960D01*
X57261760Y-70512940D01*
X57259220Y-70457060D01*
X57259220Y-70446900D01*
X57259220Y-70350380D01*
X57299860Y-70345300D01*
X57340500Y-70342760D01*
X57376060Y-70342760D01*
X57393840Y-70347840D01*
X57404000Y-70355460D01*
X57409080Y-70370700D01*
X57411620Y-70406260D01*
X57411620Y-70436740D01*
X57409080Y-70502780D01*
X57398920Y-70545960D01*
X57391300Y-70558660D01*
X57360820Y-70581520D01*
X57322720Y-70586600D01*
X57548780Y-70586600D01*
X57536080Y-70561200D01*
X57528460Y-70510400D01*
X57525920Y-70449440D01*
X57525920Y-70347840D01*
X57614820Y-70347840D01*
X57706260Y-70347840D01*
X57706260Y-70454520D01*
X57703720Y-70515480D01*
X57698640Y-70553580D01*
X57691020Y-70578980D01*
X57683400Y-70589140D01*
X57650380Y-70606920D01*
X57614820Y-70612000D01*
X57823100Y-70612000D01*
X57823100Y-70606920D01*
X57828180Y-70571360D01*
X57830720Y-70520560D01*
X57833260Y-70454520D01*
X57833260Y-70391020D01*
X57833260Y-70180200D01*
X57482740Y-70180200D01*
X57129680Y-70180200D01*
X57129680Y-70388480D01*
X57132220Y-70482460D01*
X57134760Y-70551040D01*
X57139840Y-70604380D01*
X57150000Y-70642480D01*
X57162700Y-70672960D01*
X57183020Y-70695820D01*
X57190640Y-70705980D01*
X57226200Y-70723760D01*
X57277000Y-70736460D01*
X57327800Y-70739000D01*
X57353200Y-70733920D01*
X57386220Y-70718680D01*
X57419240Y-70693280D01*
X57421780Y-70690740D01*
X57442100Y-70670420D01*
X57454800Y-70667880D01*
X57459880Y-70675500D01*
X57482740Y-70711060D01*
X57520840Y-70744080D01*
X57564020Y-70766940D01*
X57581800Y-70772020D01*
X57655460Y-70774560D01*
X57655460Y-70774560D01*
G36*
X57129680Y-71480680D02*
X57353200Y-71346060D01*
X57576720Y-71211440D01*
X57703720Y-71211440D01*
X57833260Y-71211440D01*
X57833260Y-71135240D01*
X57833260Y-71059040D01*
X57698640Y-71059040D01*
X57561480Y-71059040D01*
X57355740Y-70934580D01*
X57289700Y-70896480D01*
X57231280Y-70863460D01*
X57185560Y-70835520D01*
X57155080Y-70815200D01*
X57139840Y-70807580D01*
X57134760Y-70817740D01*
X57132220Y-70845680D01*
X57129680Y-70886320D01*
X57129680Y-70891400D01*
X57129680Y-70980300D01*
X57266840Y-71059040D01*
X57327800Y-71097140D01*
X57365900Y-71122540D01*
X57386220Y-71140320D01*
X57383680Y-71150480D01*
X57365900Y-71160640D01*
X57332880Y-71180960D01*
X57287160Y-71206360D01*
X57251600Y-71229220D01*
X57137300Y-71295260D01*
X57132220Y-71386700D01*
X57129680Y-71480680D01*
X57129680Y-71480680D01*
X57129680Y-71480680D01*
G37*
X57129680Y-71480680D02*
X57353200Y-71346060D01*
X57576720Y-71211440D01*
X57703720Y-71211440D01*
X57833260Y-71211440D01*
X57833260Y-71135240D01*
X57833260Y-71059040D01*
X57698640Y-71059040D01*
X57561480Y-71059040D01*
X57355740Y-70934580D01*
X57289700Y-70896480D01*
X57231280Y-70863460D01*
X57185560Y-70835520D01*
X57155080Y-70815200D01*
X57139840Y-70807580D01*
X57134760Y-70817740D01*
X57132220Y-70845680D01*
X57129680Y-70886320D01*
X57129680Y-70891400D01*
X57129680Y-70980300D01*
X57266840Y-71059040D01*
X57327800Y-71097140D01*
X57365900Y-71122540D01*
X57386220Y-71140320D01*
X57383680Y-71150480D01*
X57365900Y-71160640D01*
X57332880Y-71180960D01*
X57287160Y-71206360D01*
X57251600Y-71229220D01*
X57137300Y-71295260D01*
X57132220Y-71386700D01*
X57129680Y-71480680D01*
X57129680Y-71480680D01*
G36*
X57823100Y-74201020D02*
X57828180Y-74190860D01*
X57830720Y-74157840D01*
X57833260Y-74119740D01*
X57833260Y-74038460D01*
X57757060Y-74015600D01*
X57680860Y-73992740D01*
X57680860Y-73944480D01*
X57551320Y-73944480D01*
X57437020Y-73903840D01*
X57388760Y-73888600D01*
X57350660Y-73870820D01*
X57332880Y-73860660D01*
X57330340Y-73858120D01*
X57345580Y-73847960D01*
X57378600Y-73835260D01*
X57421780Y-73820020D01*
X57467500Y-73804780D01*
X57508140Y-73789540D01*
X57536080Y-73781920D01*
X57543700Y-73779380D01*
X57548780Y-73792080D01*
X57551320Y-73822560D01*
X57551320Y-73860660D01*
X57551320Y-73944480D01*
X57680860Y-73944480D01*
X57680860Y-73860660D01*
X57680860Y-73731120D01*
X57757060Y-73703180D01*
X57833260Y-73675240D01*
X57833260Y-73593960D01*
X57833260Y-73515220D01*
X57485280Y-73647300D01*
X57137300Y-73776840D01*
X57137300Y-73863200D01*
X57137300Y-73947020D01*
X57475120Y-74074020D01*
X57564020Y-74107040D01*
X57642760Y-74137520D01*
X57711340Y-74162920D01*
X57767220Y-74180700D01*
X57805320Y-74195940D01*
X57823100Y-74201020D01*
X57823100Y-74201020D01*
X57823100Y-74201020D01*
X57823100Y-74201020D01*
G37*
X57823100Y-74201020D02*
X57828180Y-74190860D01*
X57830720Y-74157840D01*
X57833260Y-74119740D01*
X57833260Y-74038460D01*
X57757060Y-74015600D01*
X57680860Y-73992740D01*
X57680860Y-73944480D01*
X57551320Y-73944480D01*
X57437020Y-73903840D01*
X57388760Y-73888600D01*
X57350660Y-73870820D01*
X57332880Y-73860660D01*
X57330340Y-73858120D01*
X57345580Y-73847960D01*
X57378600Y-73835260D01*
X57421780Y-73820020D01*
X57467500Y-73804780D01*
X57508140Y-73789540D01*
X57536080Y-73781920D01*
X57543700Y-73779380D01*
X57548780Y-73792080D01*
X57551320Y-73822560D01*
X57551320Y-73860660D01*
X57551320Y-73944480D01*
X57680860Y-73944480D01*
X57680860Y-73860660D01*
X57680860Y-73731120D01*
X57757060Y-73703180D01*
X57833260Y-73675240D01*
X57833260Y-73593960D01*
X57833260Y-73515220D01*
X57485280Y-73647300D01*
X57137300Y-73776840D01*
X57137300Y-73863200D01*
X57137300Y-73947020D01*
X57475120Y-74074020D01*
X57564020Y-74107040D01*
X57642760Y-74137520D01*
X57711340Y-74162920D01*
X57767220Y-74180700D01*
X57805320Y-74195940D01*
X57823100Y-74201020D01*
X57823100Y-74201020D01*
X57823100Y-74201020D01*
G36*
X55704740Y-69245480D02*
X55796180Y-69245480D01*
X55918100Y-69240400D01*
X56024780Y-69230240D01*
X56118760Y-69212460D01*
X56210200Y-69189600D01*
X56304180Y-69159120D01*
X56370220Y-69133720D01*
X56535320Y-69054980D01*
X56692800Y-68953380D01*
X56695340Y-68950840D01*
X55704740Y-68950840D01*
X55526940Y-68938140D01*
X55354220Y-68900040D01*
X55186580Y-68841620D01*
X55029100Y-68762880D01*
X54884320Y-68661280D01*
X54749700Y-68541900D01*
X54630320Y-68402200D01*
X54528720Y-68244720D01*
X54523640Y-68237100D01*
X54452520Y-68084700D01*
X54401720Y-67919600D01*
X54373780Y-67749420D01*
X54363620Y-67574160D01*
X54376320Y-67401440D01*
X54409340Y-67231260D01*
X54465220Y-67068700D01*
X54513480Y-66964560D01*
X54604920Y-66819780D01*
X54716680Y-66685160D01*
X54843680Y-66560700D01*
X54983380Y-66454020D01*
X55133240Y-66367660D01*
X55288180Y-66299080D01*
X55377080Y-66273680D01*
X55562500Y-66235580D01*
X55742840Y-66225420D01*
X55920640Y-66238120D01*
X56093360Y-66278760D01*
X56261000Y-66339720D01*
X56421020Y-66426080D01*
X56570880Y-66532760D01*
X56708040Y-66662300D01*
X56829960Y-66807080D01*
X56929020Y-66962020D01*
X57002680Y-67122040D01*
X57053480Y-67292220D01*
X57078880Y-67470020D01*
X57081420Y-67655440D01*
X57063640Y-67823080D01*
X57028080Y-67980560D01*
X56969660Y-68132960D01*
X56890920Y-68282820D01*
X56794400Y-68422520D01*
X56685180Y-68549520D01*
X56560720Y-68663820D01*
X56428640Y-68760340D01*
X56288940Y-68834000D01*
X56245760Y-68851780D01*
X56065420Y-68910200D01*
X55882540Y-68943220D01*
X55704740Y-68950840D01*
X56695340Y-68950840D01*
X56837580Y-68834000D01*
X56969660Y-68699380D01*
X57086500Y-68549520D01*
X57188100Y-68389500D01*
X57269380Y-68221860D01*
X57330340Y-68046600D01*
X57368440Y-67871340D01*
X57378600Y-67784980D01*
X57386220Y-67703700D01*
X57388760Y-67640200D01*
X57391300Y-67586860D01*
X57391300Y-67536060D01*
X57388760Y-67485260D01*
X57386220Y-67439540D01*
X57358280Y-67243960D01*
X57310020Y-67058540D01*
X57236360Y-66883280D01*
X57142380Y-66713100D01*
X57023000Y-66553080D01*
X56878220Y-66395600D01*
X56873140Y-66393060D01*
X56718200Y-66255900D01*
X56558180Y-66144140D01*
X56390540Y-66057780D01*
X56215280Y-65991740D01*
X56027320Y-65951100D01*
X55831740Y-65930780D01*
X55727600Y-65925700D01*
X55544720Y-65935860D01*
X55374540Y-65958720D01*
X55214520Y-65999360D01*
X55057040Y-66060320D01*
X54960520Y-66108580D01*
X54785260Y-66212720D01*
X54627780Y-66334640D01*
X54485540Y-66474340D01*
X54361080Y-66629280D01*
X54256940Y-66794380D01*
X54170580Y-66972180D01*
X54109620Y-67157600D01*
X54084220Y-67274440D01*
X54071520Y-67358260D01*
X54066440Y-67459860D01*
X54063900Y-67571620D01*
X54063900Y-67683380D01*
X54071520Y-67787520D01*
X54081680Y-67878960D01*
X54084220Y-67899280D01*
X54132480Y-68092320D01*
X54201060Y-68277740D01*
X54292500Y-68453000D01*
X54404260Y-68613020D01*
X54533800Y-68760340D01*
X54678580Y-68892420D01*
X54838600Y-69006720D01*
X55011320Y-69100700D01*
X55196740Y-69174360D01*
X55242460Y-69189600D01*
X55331360Y-69212460D01*
X55415180Y-69227700D01*
X55501540Y-69240400D01*
X55595520Y-69245480D01*
X55704740Y-69245480D01*
X55704740Y-69245480D01*
X55704740Y-69245480D01*
G37*
X55704740Y-69245480D02*
X55796180Y-69245480D01*
X55918100Y-69240400D01*
X56024780Y-69230240D01*
X56118760Y-69212460D01*
X56210200Y-69189600D01*
X56304180Y-69159120D01*
X56370220Y-69133720D01*
X56535320Y-69054980D01*
X56692800Y-68953380D01*
X56695340Y-68950840D01*
X55704740Y-68950840D01*
X55526940Y-68938140D01*
X55354220Y-68900040D01*
X55186580Y-68841620D01*
X55029100Y-68762880D01*
X54884320Y-68661280D01*
X54749700Y-68541900D01*
X54630320Y-68402200D01*
X54528720Y-68244720D01*
X54523640Y-68237100D01*
X54452520Y-68084700D01*
X54401720Y-67919600D01*
X54373780Y-67749420D01*
X54363620Y-67574160D01*
X54376320Y-67401440D01*
X54409340Y-67231260D01*
X54465220Y-67068700D01*
X54513480Y-66964560D01*
X54604920Y-66819780D01*
X54716680Y-66685160D01*
X54843680Y-66560700D01*
X54983380Y-66454020D01*
X55133240Y-66367660D01*
X55288180Y-66299080D01*
X55377080Y-66273680D01*
X55562500Y-66235580D01*
X55742840Y-66225420D01*
X55920640Y-66238120D01*
X56093360Y-66278760D01*
X56261000Y-66339720D01*
X56421020Y-66426080D01*
X56570880Y-66532760D01*
X56708040Y-66662300D01*
X56829960Y-66807080D01*
X56929020Y-66962020D01*
X57002680Y-67122040D01*
X57053480Y-67292220D01*
X57078880Y-67470020D01*
X57081420Y-67655440D01*
X57063640Y-67823080D01*
X57028080Y-67980560D01*
X56969660Y-68132960D01*
X56890920Y-68282820D01*
X56794400Y-68422520D01*
X56685180Y-68549520D01*
X56560720Y-68663820D01*
X56428640Y-68760340D01*
X56288940Y-68834000D01*
X56245760Y-68851780D01*
X56065420Y-68910200D01*
X55882540Y-68943220D01*
X55704740Y-68950840D01*
X56695340Y-68950840D01*
X56837580Y-68834000D01*
X56969660Y-68699380D01*
X57086500Y-68549520D01*
X57188100Y-68389500D01*
X57269380Y-68221860D01*
X57330340Y-68046600D01*
X57368440Y-67871340D01*
X57378600Y-67784980D01*
X57386220Y-67703700D01*
X57388760Y-67640200D01*
X57391300Y-67586860D01*
X57391300Y-67536060D01*
X57388760Y-67485260D01*
X57386220Y-67439540D01*
X57358280Y-67243960D01*
X57310020Y-67058540D01*
X57236360Y-66883280D01*
X57142380Y-66713100D01*
X57023000Y-66553080D01*
X56878220Y-66395600D01*
X56873140Y-66393060D01*
X56718200Y-66255900D01*
X56558180Y-66144140D01*
X56390540Y-66057780D01*
X56215280Y-65991740D01*
X56027320Y-65951100D01*
X55831740Y-65930780D01*
X55727600Y-65925700D01*
X55544720Y-65935860D01*
X55374540Y-65958720D01*
X55214520Y-65999360D01*
X55057040Y-66060320D01*
X54960520Y-66108580D01*
X54785260Y-66212720D01*
X54627780Y-66334640D01*
X54485540Y-66474340D01*
X54361080Y-66629280D01*
X54256940Y-66794380D01*
X54170580Y-66972180D01*
X54109620Y-67157600D01*
X54084220Y-67274440D01*
X54071520Y-67358260D01*
X54066440Y-67459860D01*
X54063900Y-67571620D01*
X54063900Y-67683380D01*
X54071520Y-67787520D01*
X54081680Y-67878960D01*
X54084220Y-67899280D01*
X54132480Y-68092320D01*
X54201060Y-68277740D01*
X54292500Y-68453000D01*
X54404260Y-68613020D01*
X54533800Y-68760340D01*
X54678580Y-68892420D01*
X54838600Y-69006720D01*
X55011320Y-69100700D01*
X55196740Y-69174360D01*
X55242460Y-69189600D01*
X55331360Y-69212460D01*
X55415180Y-69227700D01*
X55501540Y-69240400D01*
X55595520Y-69245480D01*
X55704740Y-69245480D01*
X55704740Y-69245480D01*
G36*
X55242460Y-72110600D02*
X55415180Y-72100440D01*
X55572660Y-72072500D01*
X55717440Y-72024240D01*
X55854600Y-71955660D01*
X55963820Y-71876920D01*
X55242460Y-71876920D01*
X55105300Y-71869300D01*
X54983380Y-71848980D01*
X54866540Y-71810880D01*
X54803040Y-71782940D01*
X54676040Y-71709280D01*
X54559200Y-71612760D01*
X54455060Y-71501000D01*
X54366160Y-71376540D01*
X54300120Y-71241920D01*
X54269640Y-71160640D01*
X54256940Y-71120000D01*
X54249320Y-71079360D01*
X54244240Y-71033640D01*
X54241700Y-70980300D01*
X54239160Y-70909180D01*
X54239160Y-70873620D01*
X54241700Y-70794880D01*
X54241700Y-70733920D01*
X54246780Y-70685660D01*
X54254400Y-70645020D01*
X54264560Y-70604380D01*
X54269640Y-70586600D01*
X54328060Y-70439280D01*
X54409340Y-70307200D01*
X54508400Y-70185280D01*
X54625240Y-70078600D01*
X54757320Y-69989700D01*
X54902100Y-69923660D01*
X54983380Y-69895720D01*
X55064660Y-69880480D01*
X55161180Y-69870320D01*
X55262780Y-69867780D01*
X55361840Y-69872860D01*
X55450740Y-69883020D01*
X55483760Y-69890640D01*
X55633620Y-69946520D01*
X55773320Y-70022720D01*
X55900320Y-70119240D01*
X56012080Y-70233540D01*
X56062880Y-70302120D01*
X56144160Y-70434200D01*
X56202580Y-70578980D01*
X56238140Y-70731380D01*
X56245760Y-70888860D01*
X56235600Y-71018400D01*
X56210200Y-71135240D01*
X56169560Y-71254620D01*
X56116220Y-71366380D01*
X56100980Y-71394320D01*
X56073040Y-71434960D01*
X56032400Y-71485760D01*
X55981600Y-71541640D01*
X55930800Y-71594980D01*
X55930800Y-71594980D01*
X55874920Y-71653400D01*
X55824120Y-71696580D01*
X55778400Y-71729600D01*
X55730140Y-71757540D01*
X55702200Y-71772780D01*
X55590440Y-71821040D01*
X55478680Y-71854060D01*
X55364380Y-71871840D01*
X55242460Y-71876920D01*
X55963820Y-71876920D01*
X55981600Y-71866760D01*
X56090820Y-71767700D01*
X56212740Y-71630540D01*
X56311800Y-71488300D01*
X56388000Y-71335900D01*
X56438800Y-71175880D01*
X56441340Y-71173340D01*
X56454040Y-71097140D01*
X56464200Y-71008240D01*
X56471820Y-70911720D01*
X56474360Y-70817740D01*
X56471820Y-70736460D01*
X56466740Y-70683120D01*
X56426100Y-70515480D01*
X56362600Y-70355460D01*
X56276240Y-70205600D01*
X56169560Y-70063360D01*
X56111140Y-70002400D01*
X55973980Y-69883020D01*
X55831740Y-69786500D01*
X55674260Y-69712840D01*
X55549800Y-69672200D01*
X55493920Y-69659500D01*
X55440580Y-69649340D01*
X55387240Y-69644260D01*
X55323740Y-69641720D01*
X55250080Y-69639180D01*
X55130700Y-69644260D01*
X55034180Y-69651880D01*
X54978300Y-69662040D01*
X54813200Y-69710300D01*
X54658260Y-69781420D01*
X54516020Y-69872860D01*
X54383940Y-69982080D01*
X54269640Y-70106540D01*
X54173120Y-70243700D01*
X54096920Y-70391020D01*
X54041040Y-70551040D01*
X54033420Y-70581520D01*
X54020720Y-70660260D01*
X54013100Y-70756780D01*
X54010560Y-70858380D01*
X54010560Y-70965060D01*
X54018180Y-71064120D01*
X54030880Y-71150480D01*
X54041040Y-71193660D01*
X54096920Y-71358760D01*
X54178200Y-71513700D01*
X54282340Y-71658480D01*
X54406800Y-71788020D01*
X54549040Y-71902320D01*
X54564280Y-71915020D01*
X54686200Y-71988680D01*
X54805580Y-72042020D01*
X54932580Y-72080120D01*
X55072280Y-72102980D01*
X55227220Y-72110600D01*
X55242460Y-72110600D01*
X55242460Y-72110600D01*
X55242460Y-72110600D01*
G37*
X55242460Y-72110600D02*
X55415180Y-72100440D01*
X55572660Y-72072500D01*
X55717440Y-72024240D01*
X55854600Y-71955660D01*
X55963820Y-71876920D01*
X55242460Y-71876920D01*
X55105300Y-71869300D01*
X54983380Y-71848980D01*
X54866540Y-71810880D01*
X54803040Y-71782940D01*
X54676040Y-71709280D01*
X54559200Y-71612760D01*
X54455060Y-71501000D01*
X54366160Y-71376540D01*
X54300120Y-71241920D01*
X54269640Y-71160640D01*
X54256940Y-71120000D01*
X54249320Y-71079360D01*
X54244240Y-71033640D01*
X54241700Y-70980300D01*
X54239160Y-70909180D01*
X54239160Y-70873620D01*
X54241700Y-70794880D01*
X54241700Y-70733920D01*
X54246780Y-70685660D01*
X54254400Y-70645020D01*
X54264560Y-70604380D01*
X54269640Y-70586600D01*
X54328060Y-70439280D01*
X54409340Y-70307200D01*
X54508400Y-70185280D01*
X54625240Y-70078600D01*
X54757320Y-69989700D01*
X54902100Y-69923660D01*
X54983380Y-69895720D01*
X55064660Y-69880480D01*
X55161180Y-69870320D01*
X55262780Y-69867780D01*
X55361840Y-69872860D01*
X55450740Y-69883020D01*
X55483760Y-69890640D01*
X55633620Y-69946520D01*
X55773320Y-70022720D01*
X55900320Y-70119240D01*
X56012080Y-70233540D01*
X56062880Y-70302120D01*
X56144160Y-70434200D01*
X56202580Y-70578980D01*
X56238140Y-70731380D01*
X56245760Y-70888860D01*
X56235600Y-71018400D01*
X56210200Y-71135240D01*
X56169560Y-71254620D01*
X56116220Y-71366380D01*
X56100980Y-71394320D01*
X56073040Y-71434960D01*
X56032400Y-71485760D01*
X55981600Y-71541640D01*
X55930800Y-71594980D01*
X55930800Y-71594980D01*
X55874920Y-71653400D01*
X55824120Y-71696580D01*
X55778400Y-71729600D01*
X55730140Y-71757540D01*
X55702200Y-71772780D01*
X55590440Y-71821040D01*
X55478680Y-71854060D01*
X55364380Y-71871840D01*
X55242460Y-71876920D01*
X55963820Y-71876920D01*
X55981600Y-71866760D01*
X56090820Y-71767700D01*
X56212740Y-71630540D01*
X56311800Y-71488300D01*
X56388000Y-71335900D01*
X56438800Y-71175880D01*
X56441340Y-71173340D01*
X56454040Y-71097140D01*
X56464200Y-71008240D01*
X56471820Y-70911720D01*
X56474360Y-70817740D01*
X56471820Y-70736460D01*
X56466740Y-70683120D01*
X56426100Y-70515480D01*
X56362600Y-70355460D01*
X56276240Y-70205600D01*
X56169560Y-70063360D01*
X56111140Y-70002400D01*
X55973980Y-69883020D01*
X55831740Y-69786500D01*
X55674260Y-69712840D01*
X55549800Y-69672200D01*
X55493920Y-69659500D01*
X55440580Y-69649340D01*
X55387240Y-69644260D01*
X55323740Y-69641720D01*
X55250080Y-69639180D01*
X55130700Y-69644260D01*
X55034180Y-69651880D01*
X54978300Y-69662040D01*
X54813200Y-69710300D01*
X54658260Y-69781420D01*
X54516020Y-69872860D01*
X54383940Y-69982080D01*
X54269640Y-70106540D01*
X54173120Y-70243700D01*
X54096920Y-70391020D01*
X54041040Y-70551040D01*
X54033420Y-70581520D01*
X54020720Y-70660260D01*
X54013100Y-70756780D01*
X54010560Y-70858380D01*
X54010560Y-70965060D01*
X54018180Y-71064120D01*
X54030880Y-71150480D01*
X54041040Y-71193660D01*
X54096920Y-71358760D01*
X54178200Y-71513700D01*
X54282340Y-71658480D01*
X54406800Y-71788020D01*
X54549040Y-71902320D01*
X54564280Y-71915020D01*
X54686200Y-71988680D01*
X54805580Y-72042020D01*
X54932580Y-72080120D01*
X55072280Y-72102980D01*
X55227220Y-72110600D01*
X55242460Y-72110600D01*
X55242460Y-72110600D01*
G36*
X55270400Y-74884280D02*
X55369460Y-74881740D01*
X55458360Y-74874120D01*
X55529480Y-74863960D01*
X55539640Y-74861420D01*
X55707280Y-74808080D01*
X55862220Y-74729340D01*
X55963820Y-74658220D01*
X55280560Y-74658220D01*
X55204360Y-74658220D01*
X55100220Y-74650600D01*
X55013860Y-74637900D01*
X54935120Y-74620120D01*
X54856380Y-74589640D01*
X54790340Y-74559160D01*
X54660800Y-74480420D01*
X54543960Y-74383900D01*
X54439820Y-74267060D01*
X54353460Y-74140060D01*
X54289960Y-74002900D01*
X54274720Y-73959720D01*
X54251860Y-73870820D01*
X54239160Y-73766680D01*
X54234080Y-73654920D01*
X54236620Y-73545700D01*
X54249320Y-73449180D01*
X54251860Y-73439020D01*
X54297580Y-73291700D01*
X54366160Y-73154540D01*
X54452520Y-73027540D01*
X54559200Y-72915780D01*
X54683660Y-72819260D01*
X54820820Y-72740520D01*
X54935120Y-72692260D01*
X54985920Y-72674480D01*
X55029100Y-72664320D01*
X55067200Y-72656700D01*
X55110380Y-72651620D01*
X55166260Y-72649080D01*
X55237380Y-72649080D01*
X55346600Y-72651620D01*
X55440580Y-72661780D01*
X55524400Y-72682100D01*
X55605680Y-72710040D01*
X55669180Y-72740520D01*
X55770780Y-72801480D01*
X55872380Y-72877680D01*
X55963820Y-72966580D01*
X56047640Y-73060560D01*
X56106060Y-73146920D01*
X56172100Y-73279000D01*
X56215280Y-73421240D01*
X56240680Y-73571100D01*
X56243220Y-73723500D01*
X56222900Y-73870820D01*
X56210200Y-73919080D01*
X56161940Y-74053700D01*
X56090820Y-74185780D01*
X56004460Y-74305160D01*
X55900320Y-74414380D01*
X55791100Y-74503280D01*
X55671720Y-74571860D01*
X55656480Y-74579480D01*
X55537100Y-74622660D01*
X55415180Y-74648060D01*
X55280560Y-74658220D01*
X55963820Y-74658220D01*
X56004460Y-74630280D01*
X56134000Y-74510900D01*
X56225440Y-74401680D01*
X56321960Y-74251820D01*
X56395620Y-74094340D01*
X56446420Y-73926700D01*
X56471820Y-73753980D01*
X56474360Y-73576180D01*
X56459120Y-73446640D01*
X56421020Y-73284080D01*
X56360060Y-73129140D01*
X56273700Y-72981820D01*
X56167020Y-72842120D01*
X56040020Y-72717660D01*
X56019700Y-72699880D01*
X55880000Y-72595740D01*
X55730140Y-72517000D01*
X55570120Y-72458580D01*
X55405020Y-72425560D01*
X55237380Y-72415400D01*
X55067200Y-72428100D01*
X54899560Y-72463660D01*
X54734460Y-72524620D01*
X54698900Y-72542400D01*
X54551580Y-72626220D01*
X54414420Y-72732900D01*
X54295040Y-72854820D01*
X54193440Y-72991980D01*
X54109620Y-73139300D01*
X54051200Y-73296780D01*
X54038500Y-73332340D01*
X54028340Y-73378060D01*
X54020720Y-73421240D01*
X54015640Y-73466960D01*
X54013100Y-73522840D01*
X54010560Y-73593960D01*
X54010560Y-73657460D01*
X54013100Y-73746360D01*
X54015640Y-73812400D01*
X54018180Y-73865740D01*
X54025800Y-73911460D01*
X54033420Y-73954640D01*
X54041040Y-73977500D01*
X54074060Y-74081640D01*
X54122320Y-74190860D01*
X54175660Y-74295000D01*
X54226460Y-74373740D01*
X54269640Y-74427080D01*
X54328060Y-74490580D01*
X54391560Y-74556620D01*
X54457600Y-74617580D01*
X54516020Y-74665840D01*
X54543960Y-74683620D01*
X54620160Y-74731880D01*
X54711600Y-74777600D01*
X54805580Y-74818240D01*
X54897020Y-74848720D01*
X54917340Y-74853800D01*
X54985920Y-74869040D01*
X55072280Y-74876660D01*
X55168800Y-74884280D01*
X55270400Y-74884280D01*
X55270400Y-74884280D01*
X55270400Y-74884280D01*
G37*
X55270400Y-74884280D02*
X55369460Y-74881740D01*
X55458360Y-74874120D01*
X55529480Y-74863960D01*
X55539640Y-74861420D01*
X55707280Y-74808080D01*
X55862220Y-74729340D01*
X55963820Y-74658220D01*
X55280560Y-74658220D01*
X55204360Y-74658220D01*
X55100220Y-74650600D01*
X55013860Y-74637900D01*
X54935120Y-74620120D01*
X54856380Y-74589640D01*
X54790340Y-74559160D01*
X54660800Y-74480420D01*
X54543960Y-74383900D01*
X54439820Y-74267060D01*
X54353460Y-74140060D01*
X54289960Y-74002900D01*
X54274720Y-73959720D01*
X54251860Y-73870820D01*
X54239160Y-73766680D01*
X54234080Y-73654920D01*
X54236620Y-73545700D01*
X54249320Y-73449180D01*
X54251860Y-73439020D01*
X54297580Y-73291700D01*
X54366160Y-73154540D01*
X54452520Y-73027540D01*
X54559200Y-72915780D01*
X54683660Y-72819260D01*
X54820820Y-72740520D01*
X54935120Y-72692260D01*
X54985920Y-72674480D01*
X55029100Y-72664320D01*
X55067200Y-72656700D01*
X55110380Y-72651620D01*
X55166260Y-72649080D01*
X55237380Y-72649080D01*
X55346600Y-72651620D01*
X55440580Y-72661780D01*
X55524400Y-72682100D01*
X55605680Y-72710040D01*
X55669180Y-72740520D01*
X55770780Y-72801480D01*
X55872380Y-72877680D01*
X55963820Y-72966580D01*
X56047640Y-73060560D01*
X56106060Y-73146920D01*
X56172100Y-73279000D01*
X56215280Y-73421240D01*
X56240680Y-73571100D01*
X56243220Y-73723500D01*
X56222900Y-73870820D01*
X56210200Y-73919080D01*
X56161940Y-74053700D01*
X56090820Y-74185780D01*
X56004460Y-74305160D01*
X55900320Y-74414380D01*
X55791100Y-74503280D01*
X55671720Y-74571860D01*
X55656480Y-74579480D01*
X55537100Y-74622660D01*
X55415180Y-74648060D01*
X55280560Y-74658220D01*
X55963820Y-74658220D01*
X56004460Y-74630280D01*
X56134000Y-74510900D01*
X56225440Y-74401680D01*
X56321960Y-74251820D01*
X56395620Y-74094340D01*
X56446420Y-73926700D01*
X56471820Y-73753980D01*
X56474360Y-73576180D01*
X56459120Y-73446640D01*
X56421020Y-73284080D01*
X56360060Y-73129140D01*
X56273700Y-72981820D01*
X56167020Y-72842120D01*
X56040020Y-72717660D01*
X56019700Y-72699880D01*
X55880000Y-72595740D01*
X55730140Y-72517000D01*
X55570120Y-72458580D01*
X55405020Y-72425560D01*
X55237380Y-72415400D01*
X55067200Y-72428100D01*
X54899560Y-72463660D01*
X54734460Y-72524620D01*
X54698900Y-72542400D01*
X54551580Y-72626220D01*
X54414420Y-72732900D01*
X54295040Y-72854820D01*
X54193440Y-72991980D01*
X54109620Y-73139300D01*
X54051200Y-73296780D01*
X54038500Y-73332340D01*
X54028340Y-73378060D01*
X54020720Y-73421240D01*
X54015640Y-73466960D01*
X54013100Y-73522840D01*
X54010560Y-73593960D01*
X54010560Y-73657460D01*
X54013100Y-73746360D01*
X54015640Y-73812400D01*
X54018180Y-73865740D01*
X54025800Y-73911460D01*
X54033420Y-73954640D01*
X54041040Y-73977500D01*
X54074060Y-74081640D01*
X54122320Y-74190860D01*
X54175660Y-74295000D01*
X54226460Y-74373740D01*
X54269640Y-74427080D01*
X54328060Y-74490580D01*
X54391560Y-74556620D01*
X54457600Y-74617580D01*
X54516020Y-74665840D01*
X54543960Y-74683620D01*
X54620160Y-74731880D01*
X54711600Y-74777600D01*
X54805580Y-74818240D01*
X54897020Y-74848720D01*
X54917340Y-74853800D01*
X54985920Y-74869040D01*
X55072280Y-74876660D01*
X55168800Y-74884280D01*
X55270400Y-74884280D01*
X55270400Y-74884280D01*
G36*
X55984140Y-67574160D02*
X56022240Y-67551300D01*
X56067960Y-67518280D01*
X56116220Y-67467480D01*
X56161940Y-67414140D01*
X56194960Y-67360800D01*
X56200040Y-67348100D01*
X56227980Y-67256660D01*
X56238140Y-67149980D01*
X56235600Y-67068700D01*
X56212740Y-66959480D01*
X56172100Y-66865500D01*
X56111140Y-66786760D01*
X56032400Y-66723260D01*
X55938420Y-66677540D01*
X55834280Y-66649600D01*
X55712360Y-66644520D01*
X55679340Y-66647060D01*
X55567580Y-66662300D01*
X55473600Y-66697860D01*
X55389780Y-66751200D01*
X55364380Y-66771520D01*
X55293260Y-66852800D01*
X55242460Y-66949320D01*
X55214520Y-67053460D01*
X55211980Y-67167760D01*
X55217060Y-67218560D01*
X55229760Y-67276980D01*
X55245000Y-67337940D01*
X55262780Y-67378580D01*
X55285640Y-67416680D01*
X55318660Y-67459860D01*
X55356760Y-67500500D01*
X55392320Y-67533520D01*
X55425340Y-67556380D01*
X55440580Y-67561460D01*
X55455820Y-67551300D01*
X55476140Y-67523360D01*
X55499000Y-67480180D01*
X55511700Y-67459860D01*
X55562500Y-67358260D01*
X55499000Y-67297300D01*
X55463440Y-67261740D01*
X55445660Y-67236340D01*
X55435500Y-67213480D01*
X55432960Y-67180460D01*
X55432960Y-67162680D01*
X55445660Y-67091560D01*
X55476140Y-67033140D01*
X55529480Y-66984880D01*
X55537100Y-66982340D01*
X55580280Y-66964560D01*
X55643780Y-66954400D01*
X55712360Y-66949320D01*
X55786020Y-66951860D01*
X55849520Y-66959480D01*
X55880000Y-66967100D01*
X55940960Y-66997580D01*
X55984140Y-67040760D01*
X56007000Y-67099180D01*
X56012080Y-67160140D01*
X56007000Y-67228720D01*
X55986680Y-67276980D01*
X55946040Y-67320160D01*
X55920640Y-67337940D01*
X55892700Y-67358260D01*
X55880000Y-67373500D01*
X55880000Y-67373500D01*
X55885080Y-67388740D01*
X55900320Y-67421760D01*
X55923180Y-67462400D01*
X55930800Y-67480180D01*
X55984140Y-67574160D01*
X55984140Y-67574160D01*
X55984140Y-67574160D01*
G37*
X55984140Y-67574160D02*
X56022240Y-67551300D01*
X56067960Y-67518280D01*
X56116220Y-67467480D01*
X56161940Y-67414140D01*
X56194960Y-67360800D01*
X56200040Y-67348100D01*
X56227980Y-67256660D01*
X56238140Y-67149980D01*
X56235600Y-67068700D01*
X56212740Y-66959480D01*
X56172100Y-66865500D01*
X56111140Y-66786760D01*
X56032400Y-66723260D01*
X55938420Y-66677540D01*
X55834280Y-66649600D01*
X55712360Y-66644520D01*
X55679340Y-66647060D01*
X55567580Y-66662300D01*
X55473600Y-66697860D01*
X55389780Y-66751200D01*
X55364380Y-66771520D01*
X55293260Y-66852800D01*
X55242460Y-66949320D01*
X55214520Y-67053460D01*
X55211980Y-67167760D01*
X55217060Y-67218560D01*
X55229760Y-67276980D01*
X55245000Y-67337940D01*
X55262780Y-67378580D01*
X55285640Y-67416680D01*
X55318660Y-67459860D01*
X55356760Y-67500500D01*
X55392320Y-67533520D01*
X55425340Y-67556380D01*
X55440580Y-67561460D01*
X55455820Y-67551300D01*
X55476140Y-67523360D01*
X55499000Y-67480180D01*
X55511700Y-67459860D01*
X55562500Y-67358260D01*
X55499000Y-67297300D01*
X55463440Y-67261740D01*
X55445660Y-67236340D01*
X55435500Y-67213480D01*
X55432960Y-67180460D01*
X55432960Y-67162680D01*
X55445660Y-67091560D01*
X55476140Y-67033140D01*
X55529480Y-66984880D01*
X55537100Y-66982340D01*
X55580280Y-66964560D01*
X55643780Y-66954400D01*
X55712360Y-66949320D01*
X55786020Y-66951860D01*
X55849520Y-66959480D01*
X55880000Y-66967100D01*
X55940960Y-66997580D01*
X55984140Y-67040760D01*
X56007000Y-67099180D01*
X56012080Y-67160140D01*
X56007000Y-67228720D01*
X55986680Y-67276980D01*
X55946040Y-67320160D01*
X55920640Y-67337940D01*
X55892700Y-67358260D01*
X55880000Y-67373500D01*
X55880000Y-67373500D01*
X55885080Y-67388740D01*
X55900320Y-67421760D01*
X55923180Y-67462400D01*
X55930800Y-67480180D01*
X55984140Y-67574160D01*
X55984140Y-67574160D01*
G36*
X55981600Y-68524120D02*
X55996840Y-68524120D01*
X56024780Y-68508880D01*
X56047640Y-68493640D01*
X56128920Y-68419980D01*
X56184800Y-68338700D01*
X56222900Y-68247260D01*
X56238140Y-68143120D01*
X56235600Y-68026280D01*
X56217820Y-67929760D01*
X56182260Y-67845940D01*
X56128920Y-67769740D01*
X56116220Y-67757040D01*
X56037480Y-67691000D01*
X55946040Y-67642740D01*
X55839360Y-67614800D01*
X55819040Y-67612260D01*
X55699660Y-67607180D01*
X55590440Y-67619880D01*
X55486300Y-67652900D01*
X55397400Y-67703700D01*
X55323740Y-67769740D01*
X55265320Y-67851020D01*
X55242460Y-67899280D01*
X55219600Y-67998340D01*
X55211980Y-68105020D01*
X55222140Y-68211700D01*
X55250080Y-68310760D01*
X55255160Y-68323460D01*
X55280560Y-68369180D01*
X55318660Y-68419980D01*
X55361840Y-68465700D01*
X55402480Y-68501260D01*
X55420260Y-68513960D01*
X55438040Y-68521580D01*
X55450740Y-68521580D01*
X55460900Y-68508880D01*
X55476140Y-68483480D01*
X55499000Y-68440300D01*
X55509160Y-68422520D01*
X55562500Y-68315840D01*
X55499000Y-68254880D01*
X55463440Y-68219320D01*
X55445660Y-68196460D01*
X55435500Y-68171060D01*
X55432960Y-68138040D01*
X55432960Y-68122800D01*
X55443120Y-68051680D01*
X55471060Y-67995800D01*
X55521860Y-67952620D01*
X55554880Y-67932300D01*
X55620920Y-67911980D01*
X55699660Y-67901820D01*
X55783480Y-67901820D01*
X55859680Y-67917060D01*
X55895240Y-67929760D01*
X55953660Y-67967860D01*
X55994300Y-68018660D01*
X56014620Y-68079620D01*
X56017160Y-68145660D01*
X55996840Y-68209160D01*
X55956200Y-68265040D01*
X55925720Y-68292980D01*
X55900320Y-68313300D01*
X55890160Y-68318380D01*
X55885080Y-68326000D01*
X55885080Y-68343780D01*
X55897780Y-68374260D01*
X55923180Y-68419980D01*
X55946040Y-68463160D01*
X55966360Y-68501260D01*
X55979060Y-68521580D01*
X55981600Y-68524120D01*
X55981600Y-68524120D01*
X55981600Y-68524120D01*
G37*
X55981600Y-68524120D02*
X55996840Y-68524120D01*
X56024780Y-68508880D01*
X56047640Y-68493640D01*
X56128920Y-68419980D01*
X56184800Y-68338700D01*
X56222900Y-68247260D01*
X56238140Y-68143120D01*
X56235600Y-68026280D01*
X56217820Y-67929760D01*
X56182260Y-67845940D01*
X56128920Y-67769740D01*
X56116220Y-67757040D01*
X56037480Y-67691000D01*
X55946040Y-67642740D01*
X55839360Y-67614800D01*
X55819040Y-67612260D01*
X55699660Y-67607180D01*
X55590440Y-67619880D01*
X55486300Y-67652900D01*
X55397400Y-67703700D01*
X55323740Y-67769740D01*
X55265320Y-67851020D01*
X55242460Y-67899280D01*
X55219600Y-67998340D01*
X55211980Y-68105020D01*
X55222140Y-68211700D01*
X55250080Y-68310760D01*
X55255160Y-68323460D01*
X55280560Y-68369180D01*
X55318660Y-68419980D01*
X55361840Y-68465700D01*
X55402480Y-68501260D01*
X55420260Y-68513960D01*
X55438040Y-68521580D01*
X55450740Y-68521580D01*
X55460900Y-68508880D01*
X55476140Y-68483480D01*
X55499000Y-68440300D01*
X55509160Y-68422520D01*
X55562500Y-68315840D01*
X55499000Y-68254880D01*
X55463440Y-68219320D01*
X55445660Y-68196460D01*
X55435500Y-68171060D01*
X55432960Y-68138040D01*
X55432960Y-68122800D01*
X55443120Y-68051680D01*
X55471060Y-67995800D01*
X55521860Y-67952620D01*
X55554880Y-67932300D01*
X55620920Y-67911980D01*
X55699660Y-67901820D01*
X55783480Y-67901820D01*
X55859680Y-67917060D01*
X55895240Y-67929760D01*
X55953660Y-67967860D01*
X55994300Y-68018660D01*
X56014620Y-68079620D01*
X56017160Y-68145660D01*
X55996840Y-68209160D01*
X55956200Y-68265040D01*
X55925720Y-68292980D01*
X55900320Y-68313300D01*
X55890160Y-68318380D01*
X55885080Y-68326000D01*
X55885080Y-68343780D01*
X55897780Y-68374260D01*
X55923180Y-68419980D01*
X55946040Y-68463160D01*
X55966360Y-68501260D01*
X55979060Y-68521580D01*
X55981600Y-68524120D01*
X55981600Y-68524120D01*
G36*
X54973220Y-71203820D02*
X55013860Y-71201280D01*
X55069740Y-71201280D01*
X55138320Y-71201280D01*
X55204360Y-71201280D01*
X55432960Y-71198740D01*
X55438040Y-71132700D01*
X55440580Y-71066660D01*
X55737760Y-71061580D01*
X56032400Y-71059040D01*
X56032400Y-70868540D01*
X56032400Y-70675500D01*
X55732680Y-70675500D01*
X55432960Y-70675500D01*
X55435500Y-70622160D01*
X55435500Y-70584060D01*
X55435500Y-70556120D01*
X55435500Y-70551040D01*
X55427880Y-70545960D01*
X55407560Y-70540880D01*
X55372000Y-70538340D01*
X55316120Y-70535800D01*
X55239920Y-70535800D01*
X55173880Y-70535800D01*
X55084980Y-70535800D01*
X55013860Y-70535800D01*
X54963060Y-70538340D01*
X54930040Y-70543420D01*
X54904640Y-70545960D01*
X54889400Y-70553580D01*
X54886860Y-70556120D01*
X54879240Y-70563740D01*
X54871620Y-70571360D01*
X54866540Y-70586600D01*
X54864000Y-70609460D01*
X54861460Y-70642480D01*
X54858920Y-70693280D01*
X54858920Y-70761860D01*
X54858920Y-70853300D01*
X54858920Y-70868540D01*
X54858920Y-70967600D01*
X54861460Y-71046340D01*
X54864000Y-71104760D01*
X54869080Y-71147940D01*
X54876700Y-71175880D01*
X54889400Y-71191120D01*
X54907180Y-71198740D01*
X54930040Y-71201280D01*
X54955440Y-71203820D01*
X54973220Y-71203820D01*
X54973220Y-71203820D01*
X54973220Y-71203820D01*
G37*
X54973220Y-71203820D02*
X55013860Y-71201280D01*
X55069740Y-71201280D01*
X55138320Y-71201280D01*
X55204360Y-71201280D01*
X55432960Y-71198740D01*
X55438040Y-71132700D01*
X55440580Y-71066660D01*
X55737760Y-71061580D01*
X56032400Y-71059040D01*
X56032400Y-70868540D01*
X56032400Y-70675500D01*
X55732680Y-70675500D01*
X55432960Y-70675500D01*
X55435500Y-70622160D01*
X55435500Y-70584060D01*
X55435500Y-70556120D01*
X55435500Y-70551040D01*
X55427880Y-70545960D01*
X55407560Y-70540880D01*
X55372000Y-70538340D01*
X55316120Y-70535800D01*
X55239920Y-70535800D01*
X55173880Y-70535800D01*
X55084980Y-70535800D01*
X55013860Y-70535800D01*
X54963060Y-70538340D01*
X54930040Y-70543420D01*
X54904640Y-70545960D01*
X54889400Y-70553580D01*
X54886860Y-70556120D01*
X54879240Y-70563740D01*
X54871620Y-70571360D01*
X54866540Y-70586600D01*
X54864000Y-70609460D01*
X54861460Y-70642480D01*
X54858920Y-70693280D01*
X54858920Y-70761860D01*
X54858920Y-70853300D01*
X54858920Y-70868540D01*
X54858920Y-70967600D01*
X54861460Y-71046340D01*
X54864000Y-71104760D01*
X54869080Y-71147940D01*
X54876700Y-71175880D01*
X54889400Y-71191120D01*
X54907180Y-71198740D01*
X54930040Y-71201280D01*
X54955440Y-71203820D01*
X54973220Y-71203820D01*
X54973220Y-71203820D01*
G36*
X54630320Y-71041260D02*
X54681120Y-71031100D01*
X54726840Y-71003160D01*
X54764940Y-70962520D01*
X54787800Y-70904100D01*
X54787800Y-70899020D01*
X54787800Y-70863460D01*
X54780180Y-70820280D01*
X54775100Y-70810120D01*
X54764940Y-70777100D01*
X54757320Y-70759320D01*
X54757320Y-70756780D01*
X54747160Y-70749160D01*
X54724300Y-70733920D01*
X54714140Y-70728840D01*
X54653180Y-70703440D01*
X54592220Y-70700900D01*
X54538880Y-70718680D01*
X54493160Y-70754240D01*
X54460140Y-70805040D01*
X54447440Y-70866000D01*
X54447440Y-70876160D01*
X54457600Y-70937120D01*
X54488080Y-70985380D01*
X54528720Y-71018400D01*
X54576980Y-71036180D01*
X54630320Y-71041260D01*
X54630320Y-71041260D01*
X54630320Y-71041260D01*
G37*
X54630320Y-71041260D02*
X54681120Y-71031100D01*
X54726840Y-71003160D01*
X54764940Y-70962520D01*
X54787800Y-70904100D01*
X54787800Y-70899020D01*
X54787800Y-70863460D01*
X54780180Y-70820280D01*
X54775100Y-70810120D01*
X54764940Y-70777100D01*
X54757320Y-70759320D01*
X54757320Y-70756780D01*
X54747160Y-70749160D01*
X54724300Y-70733920D01*
X54714140Y-70728840D01*
X54653180Y-70703440D01*
X54592220Y-70700900D01*
X54538880Y-70718680D01*
X54493160Y-70754240D01*
X54460140Y-70805040D01*
X54447440Y-70866000D01*
X54447440Y-70876160D01*
X54457600Y-70937120D01*
X54488080Y-70985380D01*
X54528720Y-71018400D01*
X54576980Y-71036180D01*
X54630320Y-71041260D01*
X54630320Y-71041260D01*
G36*
X55234840Y-74279760D02*
X55356760Y-74272140D01*
X55476140Y-74246740D01*
X55587900Y-74206100D01*
X55631080Y-74178160D01*
X55681880Y-74140060D01*
X55730140Y-74099420D01*
X55735220Y-74094340D01*
X55813960Y-73997820D01*
X55872380Y-73888600D01*
X55902860Y-73771760D01*
X55915560Y-73647300D01*
X55905400Y-73520300D01*
X55902860Y-73512680D01*
X55872380Y-73406000D01*
X55816500Y-73309480D01*
X55742840Y-73230740D01*
X55648860Y-73164700D01*
X55537100Y-73116440D01*
X55468520Y-73098660D01*
X55432960Y-73088500D01*
X55432960Y-73248520D01*
X55432960Y-73408540D01*
X55486300Y-73416160D01*
X55539640Y-73433940D01*
X55587900Y-73466960D01*
X55623460Y-73507600D01*
X55626000Y-73512680D01*
X55636160Y-73540620D01*
X55646320Y-73581260D01*
X55651400Y-73611740D01*
X55656480Y-73698100D01*
X55636160Y-73774300D01*
X55595520Y-73840340D01*
X55532020Y-73893680D01*
X55448200Y-73931780D01*
X55344060Y-73957180D01*
X55344060Y-73957180D01*
X55252620Y-73964800D01*
X55158640Y-73959720D01*
X55069740Y-73944480D01*
X54993540Y-73916540D01*
X54985920Y-73914000D01*
X54927500Y-73870820D01*
X54881780Y-73812400D01*
X54858920Y-73751440D01*
X54848760Y-73672700D01*
X54858920Y-73593960D01*
X54886860Y-73525380D01*
X54930040Y-73469500D01*
X54978300Y-73436480D01*
X55021480Y-73416160D01*
X55046880Y-73411080D01*
X55059580Y-73421240D01*
X55064660Y-73446640D01*
X55064660Y-73456800D01*
X55064660Y-73505060D01*
X55189120Y-73380600D01*
X55313580Y-73256140D01*
X55189120Y-73131680D01*
X55064660Y-73007220D01*
X55064660Y-73052940D01*
X55057040Y-73091040D01*
X55036720Y-73111360D01*
X55001160Y-73116440D01*
X54970680Y-73121520D01*
X54924960Y-73141840D01*
X54871620Y-73169780D01*
X54818280Y-73200260D01*
X54772560Y-73233280D01*
X54739540Y-73261220D01*
X54673500Y-73345040D01*
X54625240Y-73441560D01*
X54597300Y-73548240D01*
X54589680Y-73662540D01*
X54599840Y-73779380D01*
X54632860Y-73893680D01*
X54663340Y-73959720D01*
X54721760Y-74051160D01*
X54800500Y-74127360D01*
X54894480Y-74190860D01*
X55001160Y-74236580D01*
X55115460Y-74267060D01*
X55234840Y-74279760D01*
X55234840Y-74279760D01*
X55234840Y-74279760D01*
G37*
X55234840Y-74279760D02*
X55356760Y-74272140D01*
X55476140Y-74246740D01*
X55587900Y-74206100D01*
X55631080Y-74178160D01*
X55681880Y-74140060D01*
X55730140Y-74099420D01*
X55735220Y-74094340D01*
X55813960Y-73997820D01*
X55872380Y-73888600D01*
X55902860Y-73771760D01*
X55915560Y-73647300D01*
X55905400Y-73520300D01*
X55902860Y-73512680D01*
X55872380Y-73406000D01*
X55816500Y-73309480D01*
X55742840Y-73230740D01*
X55648860Y-73164700D01*
X55537100Y-73116440D01*
X55468520Y-73098660D01*
X55432960Y-73088500D01*
X55432960Y-73248520D01*
X55432960Y-73408540D01*
X55486300Y-73416160D01*
X55539640Y-73433940D01*
X55587900Y-73466960D01*
X55623460Y-73507600D01*
X55626000Y-73512680D01*
X55636160Y-73540620D01*
X55646320Y-73581260D01*
X55651400Y-73611740D01*
X55656480Y-73698100D01*
X55636160Y-73774300D01*
X55595520Y-73840340D01*
X55532020Y-73893680D01*
X55448200Y-73931780D01*
X55344060Y-73957180D01*
X55344060Y-73957180D01*
X55252620Y-73964800D01*
X55158640Y-73959720D01*
X55069740Y-73944480D01*
X54993540Y-73916540D01*
X54985920Y-73914000D01*
X54927500Y-73870820D01*
X54881780Y-73812400D01*
X54858920Y-73751440D01*
X54848760Y-73672700D01*
X54858920Y-73593960D01*
X54886860Y-73525380D01*
X54930040Y-73469500D01*
X54978300Y-73436480D01*
X55021480Y-73416160D01*
X55046880Y-73411080D01*
X55059580Y-73421240D01*
X55064660Y-73446640D01*
X55064660Y-73456800D01*
X55064660Y-73505060D01*
X55189120Y-73380600D01*
X55313580Y-73256140D01*
X55189120Y-73131680D01*
X55064660Y-73007220D01*
X55064660Y-73052940D01*
X55057040Y-73091040D01*
X55036720Y-73111360D01*
X55001160Y-73116440D01*
X54970680Y-73121520D01*
X54924960Y-73141840D01*
X54871620Y-73169780D01*
X54818280Y-73200260D01*
X54772560Y-73233280D01*
X54739540Y-73261220D01*
X54673500Y-73345040D01*
X54625240Y-73441560D01*
X54597300Y-73548240D01*
X54589680Y-73662540D01*
X54599840Y-73779380D01*
X54632860Y-73893680D01*
X54663340Y-73959720D01*
X54721760Y-74051160D01*
X54800500Y-74127360D01*
X54894480Y-74190860D01*
X55001160Y-74236580D01*
X55115460Y-74267060D01*
X55234840Y-74279760D01*
X55234840Y-74279760D01*
D12*
X67297303Y-70951641D02*
X67330975Y-70850626D01*
X67431990Y-70749611D01*
X67566677Y-70682267D01*
X67701364Y-70682267D01*
X67802379Y-70715939D01*
X67970738Y-70816954D01*
X68071754Y-70917970D01*
X68172769Y-71086328D01*
X68206441Y-71187343D01*
X68206441Y-71322030D01*
X68139096Y-71456718D01*
X68071753Y-71524061D01*
X67937066Y-71591405D01*
X67869723Y-71591405D01*
X67634021Y-71355703D01*
X67768708Y-71221016D01*
X66141015Y-73454799D02*
X66040000Y-72882379D01*
X66545076Y-73050738D02*
X65837970Y-72343631D01*
X65568595Y-72613006D01*
X65534924Y-72714021D01*
X65534924Y-72781364D01*
X65568595Y-72882379D01*
X65669610Y-72983394D01*
X65770626Y-73017066D01*
X65837969Y-73017066D01*
X65938984Y-72983394D01*
X66208359Y-72714020D01*
X77457303Y-70951641D02*
X77490975Y-70850626D01*
X77591990Y-70749611D01*
X77726677Y-70682267D01*
X77861364Y-70682267D01*
X77962379Y-70715939D01*
X78130738Y-70816954D01*
X78231754Y-70917970D01*
X78332769Y-71086328D01*
X78366441Y-71187343D01*
X78366441Y-71322030D01*
X78299096Y-71456718D01*
X78231753Y-71524061D01*
X78097066Y-71591405D01*
X78029723Y-71591405D01*
X77794021Y-71355703D01*
X77928708Y-71221016D01*
X76301015Y-73454799D02*
X76200000Y-72882379D01*
X76705076Y-73050738D02*
X75997970Y-72343631D01*
X75728595Y-72613006D01*
X75694924Y-72714021D01*
X75694924Y-72781364D01*
X75728595Y-72882379D01*
X75829610Y-72983394D01*
X75930626Y-73017066D01*
X75997969Y-73017066D01*
X76098984Y-72983394D01*
X76368359Y-72714020D01*
X87617303Y-70951641D02*
X87650975Y-70850626D01*
X87751990Y-70749611D01*
X87886677Y-70682267D01*
X88021364Y-70682267D01*
X88122379Y-70715939D01*
X88290738Y-70816954D01*
X88391754Y-70917970D01*
X88492769Y-71086328D01*
X88526441Y-71187343D01*
X88526441Y-71322030D01*
X88459096Y-71456718D01*
X88391753Y-71524061D01*
X88257066Y-71591405D01*
X88189723Y-71591405D01*
X87954021Y-71355703D01*
X88088708Y-71221016D01*
X86461015Y-73454799D02*
X86360000Y-72882379D01*
X86865076Y-73050738D02*
X86157970Y-72343631D01*
X85888595Y-72613006D01*
X85854924Y-72714021D01*
X85854924Y-72781364D01*
X85888595Y-72882379D01*
X85989610Y-72983394D01*
X86090626Y-73017066D01*
X86157969Y-73017066D01*
X86258984Y-72983394D01*
X86528359Y-72714020D01*
X67297303Y-81111641D02*
X67330975Y-81010626D01*
X67431990Y-80909611D01*
X67566677Y-80842267D01*
X67701364Y-80842267D01*
X67802379Y-80875939D01*
X67970738Y-80976954D01*
X68071754Y-81077970D01*
X68172769Y-81246328D01*
X68206441Y-81347343D01*
X68206441Y-81482030D01*
X68139096Y-81616718D01*
X68071753Y-81684061D01*
X67937066Y-81751405D01*
X67869723Y-81751405D01*
X67634021Y-81515703D01*
X67768708Y-81381016D01*
X66141015Y-83614799D02*
X66040000Y-83042379D01*
X66545076Y-83210738D02*
X65837970Y-82503631D01*
X65568595Y-82773006D01*
X65534924Y-82874021D01*
X65534924Y-82941364D01*
X65568595Y-83042379D01*
X65669610Y-83143394D01*
X65770626Y-83177066D01*
X65837969Y-83177066D01*
X65938984Y-83143394D01*
X66208359Y-82874020D01*
X77457303Y-81111641D02*
X77490975Y-81010626D01*
X77591990Y-80909611D01*
X77726677Y-80842267D01*
X77861364Y-80842267D01*
X77962379Y-80875939D01*
X78130738Y-80976954D01*
X78231754Y-81077970D01*
X78332769Y-81246328D01*
X78366441Y-81347343D01*
X78366441Y-81482030D01*
X78299096Y-81616718D01*
X78231753Y-81684061D01*
X78097066Y-81751405D01*
X78029723Y-81751405D01*
X77794021Y-81515703D01*
X77928708Y-81381016D01*
X76301015Y-83614799D02*
X76200000Y-83042379D01*
X76705076Y-83210738D02*
X75997970Y-82503631D01*
X75728595Y-82773006D01*
X75694924Y-82874021D01*
X75694924Y-82941364D01*
X75728595Y-83042379D01*
X75829610Y-83143394D01*
X75930626Y-83177066D01*
X75997969Y-83177066D01*
X76098984Y-83143394D01*
X76368359Y-82874020D01*
X87617303Y-81111641D02*
X87650975Y-81010626D01*
X87751990Y-80909611D01*
X87886677Y-80842267D01*
X88021364Y-80842267D01*
X88122379Y-80875939D01*
X88290738Y-80976954D01*
X88391754Y-81077970D01*
X88492769Y-81246328D01*
X88526441Y-81347343D01*
X88526441Y-81482030D01*
X88459096Y-81616718D01*
X88391753Y-81684061D01*
X88257066Y-81751405D01*
X88189723Y-81751405D01*
X87954021Y-81515703D01*
X88088708Y-81381016D01*
X86461015Y-83614799D02*
X86360000Y-83042379D01*
X86865076Y-83210738D02*
X86157970Y-82503631D01*
X85888595Y-82773006D01*
X85854924Y-82874021D01*
X85854924Y-82941364D01*
X85888595Y-83042379D01*
X85989610Y-83143394D01*
X86090626Y-83177066D01*
X86157969Y-83177066D01*
X86258984Y-83143394D01*
X86528359Y-82874020D01*
X67297303Y-91271641D02*
X67330975Y-91170626D01*
X67431990Y-91069611D01*
X67566677Y-91002267D01*
X67701364Y-91002267D01*
X67802379Y-91035939D01*
X67970738Y-91136954D01*
X68071754Y-91237970D01*
X68172769Y-91406328D01*
X68206441Y-91507343D01*
X68206441Y-91642030D01*
X68139096Y-91776718D01*
X68071753Y-91844061D01*
X67937066Y-91911405D01*
X67869723Y-91911405D01*
X67634021Y-91675703D01*
X67768708Y-91541016D01*
X66141015Y-93774799D02*
X66040000Y-93202379D01*
X66545076Y-93370738D02*
X65837970Y-92663631D01*
X65568595Y-92933006D01*
X65534924Y-93034021D01*
X65534924Y-93101364D01*
X65568595Y-93202379D01*
X65669610Y-93303394D01*
X65770626Y-93337066D01*
X65837969Y-93337066D01*
X65938984Y-93303394D01*
X66208359Y-93034020D01*
X77457303Y-91271641D02*
X77490975Y-91170626D01*
X77591990Y-91069611D01*
X77726677Y-91002267D01*
X77861364Y-91002267D01*
X77962379Y-91035939D01*
X78130738Y-91136954D01*
X78231754Y-91237970D01*
X78332769Y-91406328D01*
X78366441Y-91507343D01*
X78366441Y-91642030D01*
X78299096Y-91776718D01*
X78231753Y-91844061D01*
X78097066Y-91911405D01*
X78029723Y-91911405D01*
X77794021Y-91675703D01*
X77928708Y-91541016D01*
X76301015Y-93774799D02*
X76200000Y-93202379D01*
X76705076Y-93370738D02*
X75997970Y-92663631D01*
X75728595Y-92933006D01*
X75694924Y-93034021D01*
X75694924Y-93101364D01*
X75728595Y-93202379D01*
X75829610Y-93303394D01*
X75930626Y-93337066D01*
X75997969Y-93337066D01*
X76098984Y-93303394D01*
X76368359Y-93034020D01*
X87617303Y-91271641D02*
X87650975Y-91170626D01*
X87751990Y-91069611D01*
X87886677Y-91002267D01*
X88021364Y-91002267D01*
X88122379Y-91035939D01*
X88290738Y-91136954D01*
X88391754Y-91237970D01*
X88492769Y-91406328D01*
X88526441Y-91507343D01*
X88526441Y-91642030D01*
X88459096Y-91776718D01*
X88391753Y-91844061D01*
X88257066Y-91911405D01*
X88189723Y-91911405D01*
X87954021Y-91675703D01*
X88088708Y-91541016D01*
X86461015Y-93774799D02*
X86360000Y-93202379D01*
X86865076Y-93370738D02*
X86157970Y-92663631D01*
X85888595Y-92933006D01*
X85854924Y-93034021D01*
X85854924Y-93101364D01*
X85888595Y-93202379D01*
X85989610Y-93303394D01*
X86090626Y-93337066D01*
X86157969Y-93337066D01*
X86258984Y-93303394D01*
X86528359Y-93034020D01*
%LPC*%
D14*
X66040000Y-71120000D03*
X64243949Y-72916051D03*
X67836051Y-69323949D03*
X76200000Y-71120000D03*
X74403949Y-72916051D03*
X77996051Y-69323949D03*
X86360000Y-71120000D03*
X84563949Y-72916051D03*
X88156051Y-69323949D03*
X66040000Y-81280000D03*
X64243949Y-83076051D03*
X67836051Y-79483949D03*
X76200000Y-81280000D03*
X74403949Y-83076051D03*
X77996051Y-79483949D03*
X86360000Y-81280000D03*
X84563949Y-83076051D03*
X88156051Y-79483949D03*
X66040000Y-91440000D03*
X64243949Y-93236051D03*
X67836051Y-89643949D03*
X76200000Y-91440000D03*
X74403949Y-93236051D03*
X77996051Y-89643949D03*
X86360000Y-91440000D03*
X84563949Y-93236051D03*
X88156051Y-89643949D03*
X95250000Y-81280000D03*
X95250000Y-71120000D03*
X95250000Y-96520000D03*
X95250000Y-86360000D03*
X95250000Y-111760000D03*
X95250000Y-101600000D03*
X79450000Y-99350000D03*
X72950000Y-103850000D03*
X79450000Y-103850000D03*
X72950000Y-99350000D03*
D15*
X76200000Y-104140000D03*
X76200000Y-99060000D03*
D14*
X69290000Y-99350000D03*
X62790000Y-103850000D03*
X69290000Y-103850000D03*
X62790000Y-99350000D03*
D15*
X66040000Y-104140000D03*
X66040000Y-99060000D03*
D14*
X89610000Y-99350000D03*
X83110000Y-103850000D03*
X89610000Y-103850000D03*
X83110000Y-99350000D03*
D15*
X86360000Y-104140000D03*
X86360000Y-99060000D03*
D14*
X69290000Y-109510000D03*
X62790000Y-114010000D03*
X69290000Y-114010000D03*
X62790000Y-109510000D03*
D15*
X66040000Y-114300000D03*
X66040000Y-109220000D03*
D14*
X79450000Y-109510000D03*
X72950000Y-114010000D03*
X79450000Y-114010000D03*
X72950000Y-109510000D03*
D15*
X76200000Y-114300000D03*
X76200000Y-109220000D03*
D14*
X89610000Y-109510000D03*
X83110000Y-114010000D03*
X89610000Y-114010000D03*
X83110000Y-109510000D03*
D15*
X86360000Y-114300000D03*
X86360000Y-109220000D03*
D14*
X69290000Y-119670000D03*
X62790000Y-124170000D03*
X69290000Y-124170000D03*
X62790000Y-119670000D03*
D15*
X66040000Y-124460000D03*
X66040000Y-119380000D03*
D14*
X79450000Y-119670000D03*
X72950000Y-124170000D03*
X79450000Y-124170000D03*
X72950000Y-119670000D03*
D15*
X76200000Y-124460000D03*
X76200000Y-119380000D03*
D14*
X89610000Y-119670000D03*
X83110000Y-124170000D03*
X89610000Y-124170000D03*
X83110000Y-119670000D03*
D15*
X86360000Y-124460000D03*
X86360000Y-119380000D03*
D16*
X52070000Y-91440000D03*
X52070000Y-93980000D03*
X52070000Y-96520000D03*
X52070000Y-99060000D03*
X52070000Y-101600000D03*
X52070000Y-104140000D03*
X52070000Y-106680000D03*
X52070000Y-109220000D03*
X52070000Y-114300000D03*
X52070000Y-116840000D03*
X52070000Y-119380000D03*
X52070000Y-121920000D03*
X52070000Y-124460000D03*
X52070000Y-127000000D03*
D17*
X100330000Y-127000000D03*
X100330000Y-124460000D03*
X100330000Y-121920000D03*
X100330000Y-119380000D03*
X100330000Y-116840000D03*
X100330000Y-114300000D03*
X100330000Y-111760000D03*
X100330000Y-109220000D03*
X100330000Y-105156000D03*
X100330000Y-102616000D03*
X100330000Y-100076000D03*
X100330000Y-97536000D03*
X100330000Y-94996000D03*
X100330000Y-92456000D03*
X100330000Y-89916000D03*
X100330000Y-87378540D03*
X100330000Y-84836000D03*
X100330000Y-82296000D03*
M02*
