M48
;DRILL file {KiCad 4.0.5} date 02/22/17 18:08:39
;FORMAT={-:-/ absolute / inch / decimal}
FMAT,2
INCH,TZ
T1C0.012
T2C0.031
T3C0.039
T4C0.039
T5C0.039
%
G90
G05
M72
T1
X1.995Y-2.545
X1.995Y-5.055
X2.17Y-5.155
X2.19Y-4.275
X2.435Y-3.68
X2.48Y-4.005
X2.6Y-4.005
X2.6Y-4.23
X2.6Y-4.405
X2.6Y-4.63
X2.74Y-4.81
X2.8Y-3.9
X2.86Y-4.81
X2.87Y-3.54
X2.88Y-4.005
X2.88Y-4.23
X2.88Y-4.405
X2.88Y-4.63
X3.Y-4.005
X3.Y-4.23
X3.Y-4.405
X3.Y-4.63
X3.165Y-4.825
X3.2Y-3.9
X3.275Y-3.54
X3.28Y-4.
X3.28Y-4.23
X3.28Y-4.4
X3.285Y-4.635
X3.335Y-3.85
X3.4Y-4.
X3.4Y-4.23
X3.4Y-4.4
X3.4Y-4.63
X3.43Y-5.155
X3.45Y-3.735
X3.53Y-2.86
X3.53Y-3.645
X3.675Y-3.79
X3.695Y-4.355
X3.76Y-3.32
X3.76Y-3.48
X3.83Y-4.005
X3.88Y-4.36
X3.885Y-3.79
X3.89Y-4.65
X3.98Y-5.06
X4.005Y-2.545
T2
X2.6Y-3.9
X2.6Y-4.1
X2.6Y-4.3
X2.6Y-4.5
X2.6Y-4.7
X2.6Y-4.9
X3.Y-3.9
X3.Y-4.1
X3.Y-4.3
X3.Y-4.5
X3.Y-4.7
X3.Y-4.9
X3.4Y-3.9
X3.4Y-4.1
X3.4Y-4.3
X3.4Y-4.5
X3.4Y-4.7
X3.4Y-4.9
T3
X3.95Y-3.24
X3.95Y-3.34
X3.95Y-3.4401
X3.95Y-3.54
X3.95Y-3.64
X3.95Y-3.74
X3.95Y-3.84
X3.95Y-3.94
X3.95Y-4.04
X3.95Y-4.14
X3.95Y-4.3
X3.95Y-4.4
X3.95Y-4.5
X3.95Y-4.6
X3.95Y-4.7
X3.95Y-4.8
X3.95Y-4.9
X3.95Y-5.
T4
X2.472Y-3.9114
X2.472Y-4.0886
X2.472Y-4.3114
X2.472Y-4.4886
X2.472Y-4.7114
X2.472Y-4.8886
X2.5293Y-2.8707
X2.5293Y-3.2707
X2.5293Y-3.6707
X2.6Y-2.8
X2.6Y-3.2
X2.6Y-3.6
X2.6707Y-2.7293
X2.6707Y-3.1293
X2.6707Y-3.5293
X2.728Y-3.9114
X2.728Y-4.0886
X2.728Y-4.3114
X2.728Y-4.4886
X2.728Y-4.7114
X2.728Y-4.8886
X2.872Y-3.9114
X2.872Y-4.0886
X2.872Y-4.3114
X2.872Y-4.4886
X2.872Y-4.7114
X2.872Y-4.8886
X2.9293Y-2.8707
X2.9293Y-3.2707
X2.9293Y-3.6707
X3.Y-2.8
X3.Y-3.2
X3.Y-3.6
X3.0707Y-2.7293
X3.0707Y-3.1293
X3.0707Y-3.5293
X3.128Y-3.9114
X3.128Y-4.0886
X3.128Y-4.3114
X3.128Y-4.4886
X3.128Y-4.7114
X3.128Y-4.8886
X3.272Y-3.9114
X3.272Y-4.0886
X3.272Y-4.3114
X3.272Y-4.4886
X3.272Y-4.7114
X3.272Y-4.8886
X3.3293Y-2.8707
X3.3293Y-3.2707
X3.3293Y-3.6707
X3.4Y-2.8
X3.4Y-3.2
X3.4Y-3.6
X3.4707Y-2.7293
X3.4707Y-3.1293
X3.4707Y-3.5293
X3.528Y-3.9114
X3.528Y-4.0886
X3.528Y-4.3114
X3.528Y-4.4886
X3.528Y-4.7114
X3.528Y-4.8886
X3.75Y-2.8
X3.75Y-3.2
X3.75Y-3.4
X3.75Y-3.8
X3.75Y-4.
X3.75Y-4.4
T5
X2.05Y-3.6
X2.05Y-3.7
X2.05Y-3.8
X2.05Y-3.9
X2.05Y-4.
X2.05Y-4.1
X2.05Y-4.2
X2.05Y-4.3
X2.05Y-4.5
X2.05Y-4.6
X2.05Y-4.7
X2.05Y-4.8
X2.05Y-4.9
X2.05Y-5.
T0
M30
