G04 #@! TF.FileFunction,Copper,L2,Bot,Signal*
%FSLAX46Y46*%
G04 Gerber Fmt 4.6, Leading zero omitted, Abs format (unit mm)*
G04 Created by KiCad (PCBNEW 4.0.5) date 02/22/17 23:16:55*
%MOMM*%
%LPD*%
G01*
G04 APERTURE LIST*
%ADD10C,0.100000*%
%ADD11C,0.150000*%
%ADD12C,0.620000*%
%ADD13C,2.000000*%
%ADD14C,1.600000*%
%ADD15O,2.199640X1.524000*%
%ADD16O,2.197100X1.524000*%
%ADD17C,0.950000*%
%ADD18C,0.254000*%
G04 APERTURE END LIST*
D10*
D11*
X102870000Y-128270000D02*
X102870000Y-64770000D01*
X49530000Y-64770000D02*
X49530000Y-128270000D01*
X54610000Y-132080000D02*
X87630000Y-132080000D01*
X54610000Y-132080000D02*
X52070000Y-129540000D01*
X52070000Y-129540000D02*
X50800000Y-129540000D01*
X101600000Y-129540000D02*
X90170000Y-129540000D01*
X90170000Y-129540000D02*
X87630000Y-132080000D01*
X102870000Y-128270000D02*
X101600000Y-129540000D01*
X102870000Y-64770000D02*
G75*
G03X101600000Y-63500000I-1270000J0D01*
G01*
X50800000Y-63500000D02*
X101600000Y-63500000D01*
X50800000Y-63500000D02*
G75*
G03X49530000Y-64770000I0J-1270000D01*
G01*
X49530000Y-128270000D02*
G75*
G03X50800000Y-129540000I1270000J0D01*
G01*
D12*
X87122000Y-130937000D03*
X76200000Y-117602000D03*
X95504000Y-88392000D03*
X97282000Y-101727000D03*
X87630000Y-94869000D03*
X89662000Y-92583000D03*
X73152000Y-117602000D03*
X76200000Y-101727000D03*
X73152000Y-101727000D03*
X55118000Y-130937000D03*
X101092000Y-128524000D03*
X72644000Y-122174000D03*
X66040000Y-111887000D03*
X69596000Y-122174000D03*
X61849000Y-93472000D03*
X50673000Y-64643000D03*
X83185000Y-89916000D03*
X72898000Y-89916000D03*
X55626000Y-108585000D03*
X50673000Y-128397000D03*
X76200000Y-107442000D03*
X66040000Y-107442000D03*
X73152000Y-111887000D03*
X83312000Y-107442000D03*
X73152000Y-107442000D03*
X98806000Y-118110000D03*
X86360000Y-107442000D03*
X86360000Y-101600000D03*
X83312000Y-101600000D03*
X101727000Y-64643000D03*
X95504000Y-84328000D03*
X86360000Y-111760000D03*
X89662000Y-72644000D03*
X83312000Y-111760000D03*
X93853000Y-110617000D03*
X86360000Y-117602000D03*
X76200000Y-111887000D03*
X66040000Y-117602000D03*
X71120000Y-99060000D03*
X66040000Y-101727000D03*
X62992000Y-101727000D03*
X98679000Y-96266000D03*
X93345000Y-96266000D03*
X84709000Y-97790000D03*
X81280000Y-99060000D03*
X98552000Y-110744000D03*
X80391000Y-122555000D03*
D13*
X66040000Y-71120000D03*
X64243949Y-72916051D03*
X67836051Y-69323949D03*
X76200000Y-71120000D03*
X74403949Y-72916051D03*
X77996051Y-69323949D03*
X86360000Y-71120000D03*
X84563949Y-72916051D03*
X88156051Y-69323949D03*
X66040000Y-81280000D03*
X64243949Y-83076051D03*
X67836051Y-79483949D03*
X76200000Y-81280000D03*
X74403949Y-83076051D03*
X77996051Y-79483949D03*
X86360000Y-81280000D03*
X84563949Y-83076051D03*
X88156051Y-79483949D03*
X66040000Y-91440000D03*
X64243949Y-93236051D03*
X67836051Y-89643949D03*
X76200000Y-91440000D03*
X74403949Y-93236051D03*
X77996051Y-89643949D03*
X86360000Y-91440000D03*
X84563949Y-93236051D03*
X88156051Y-89643949D03*
X95250000Y-81280000D03*
X95250000Y-71120000D03*
X95250000Y-96520000D03*
X95250000Y-86360000D03*
X95250000Y-111760000D03*
X95250000Y-101600000D03*
X79450000Y-99350000D03*
X72950000Y-103850000D03*
X79450000Y-103850000D03*
X72950000Y-99350000D03*
D14*
X76200000Y-104140000D03*
X76200000Y-99060000D03*
D13*
X69290000Y-99350000D03*
X62790000Y-103850000D03*
X69290000Y-103850000D03*
X62790000Y-99350000D03*
D14*
X66040000Y-104140000D03*
X66040000Y-99060000D03*
D13*
X89610000Y-99350000D03*
X83110000Y-103850000D03*
X89610000Y-103850000D03*
X83110000Y-99350000D03*
D14*
X86360000Y-104140000D03*
X86360000Y-99060000D03*
D13*
X69290000Y-109510000D03*
X62790000Y-114010000D03*
X69290000Y-114010000D03*
X62790000Y-109510000D03*
D14*
X66040000Y-114300000D03*
X66040000Y-109220000D03*
D13*
X79450000Y-109510000D03*
X72950000Y-114010000D03*
X79450000Y-114010000D03*
X72950000Y-109510000D03*
D14*
X76200000Y-114300000D03*
X76200000Y-109220000D03*
D13*
X89610000Y-109510000D03*
X83110000Y-114010000D03*
X89610000Y-114010000D03*
X83110000Y-109510000D03*
D14*
X86360000Y-114300000D03*
X86360000Y-109220000D03*
D13*
X69290000Y-119670000D03*
X62790000Y-124170000D03*
X69290000Y-124170000D03*
X62790000Y-119670000D03*
D14*
X66040000Y-124460000D03*
X66040000Y-119380000D03*
D13*
X79450000Y-119670000D03*
X72950000Y-124170000D03*
X79450000Y-124170000D03*
X72950000Y-119670000D03*
D14*
X76200000Y-124460000D03*
X76200000Y-119380000D03*
D13*
X89610000Y-119670000D03*
X83110000Y-124170000D03*
X89610000Y-124170000D03*
X83110000Y-119670000D03*
D14*
X86360000Y-124460000D03*
X86360000Y-119380000D03*
D15*
X52070000Y-91440000D03*
X52070000Y-93980000D03*
X52070000Y-96520000D03*
X52070000Y-99060000D03*
X52070000Y-101600000D03*
X52070000Y-104140000D03*
X52070000Y-106680000D03*
X52070000Y-109220000D03*
X52070000Y-114300000D03*
X52070000Y-116840000D03*
X52070000Y-119380000D03*
X52070000Y-121920000D03*
X52070000Y-124460000D03*
X52070000Y-127000000D03*
D16*
X100330000Y-127000000D03*
X100330000Y-124460000D03*
X100330000Y-121920000D03*
X100330000Y-119380000D03*
X100330000Y-116840000D03*
X100330000Y-114300000D03*
X100330000Y-111760000D03*
X100330000Y-109220000D03*
X100330000Y-105156000D03*
X100330000Y-102616000D03*
X100330000Y-100076000D03*
X100330000Y-97536000D03*
X100330000Y-94996000D03*
X100330000Y-92456000D03*
X100330000Y-89916000D03*
X100330000Y-87378540D03*
X100330000Y-84836000D03*
X100330000Y-82296000D03*
D12*
X83439000Y-117729000D03*
D17*
X64243949Y-83076051D02*
X64243949Y-93236051D01*
X64243949Y-72916051D02*
X64243949Y-83076051D01*
X57150000Y-111760000D02*
X52070000Y-116840000D01*
X57150000Y-98967880D02*
X57150000Y-111760000D01*
X60981884Y-95135996D02*
X57150000Y-98967880D01*
X65138004Y-95135996D02*
X60981884Y-95135996D01*
X67836051Y-92437949D02*
X65138004Y-95135996D01*
X67836051Y-89643949D02*
X67836051Y-92437949D01*
X67836051Y-79483949D02*
X67836051Y-89643949D01*
X67836051Y-69323949D02*
X67836051Y-79483949D01*
X74403949Y-83076051D02*
X74403949Y-93236051D01*
X74403949Y-72916051D02*
X74403949Y-83076051D01*
X61478942Y-96335998D02*
X58420000Y-99394940D01*
X74098002Y-96335998D02*
X61478942Y-96335998D01*
X74422000Y-96012000D02*
X74098002Y-96335998D01*
X58420000Y-115570000D02*
X52070000Y-121920000D01*
X58420000Y-99394940D02*
X58420000Y-115570000D01*
X77996051Y-89643949D02*
X77996051Y-92437949D01*
X77996051Y-92437949D02*
X74422000Y-96012000D01*
X74422000Y-96012000D02*
X74352002Y-96081998D01*
X77996051Y-79483949D02*
X77996051Y-89643949D01*
X77996051Y-69323949D02*
X77996051Y-79483949D01*
X84563949Y-83076051D02*
X84563949Y-93236051D01*
X84563949Y-72916051D02*
X84563949Y-83076051D01*
X61976000Y-97536000D02*
X59690000Y-99822000D01*
X82804000Y-97536000D02*
X61976000Y-97536000D01*
X88156051Y-92183949D02*
X83058000Y-97282000D01*
X88156051Y-89643949D02*
X88156051Y-92183949D01*
X83058000Y-97282000D02*
X82804000Y-97536000D01*
X59690000Y-119380000D02*
X52070000Y-127000000D01*
X59690000Y-99822000D02*
X59690000Y-119380000D01*
X88156051Y-79483949D02*
X88156051Y-89643949D01*
X88156051Y-69323949D02*
X88156051Y-79483949D01*
X100330000Y-114300000D02*
X91694000Y-122936000D01*
X90424000Y-126238000D02*
X91440000Y-125222000D01*
X72390000Y-126238000D02*
X90424000Y-126238000D01*
X71120000Y-124968000D02*
X72390000Y-126238000D01*
X71120000Y-121500000D02*
X71120000Y-124968000D01*
X71120000Y-121500000D02*
X69290000Y-119670000D01*
X91694000Y-124968000D02*
X91694000Y-122936000D01*
X91440000Y-125222000D02*
X91694000Y-124968000D01*
X64516000Y-109474000D02*
X64516000Y-119670000D01*
X64516000Y-119670000D02*
X64516000Y-119380000D01*
X64516000Y-119380000D02*
X64516000Y-119670000D01*
X62790000Y-119670000D02*
X64516000Y-119670000D01*
X64516000Y-119670000D02*
X65750000Y-119670000D01*
X65750000Y-119670000D02*
X69290000Y-119670000D01*
X64516000Y-99350000D02*
X64516000Y-109510000D01*
X64516000Y-109510000D02*
X64516000Y-109474000D01*
X64516000Y-109474000D02*
X64516000Y-109510000D01*
X62790000Y-109510000D02*
X64516000Y-109510000D01*
X64516000Y-109510000D02*
X65750000Y-109510000D01*
X65750000Y-109510000D02*
X69290000Y-109510000D01*
X62790000Y-99350000D02*
X64516000Y-99350000D01*
X64516000Y-99350000D02*
X65750000Y-99350000D01*
X65750000Y-99350000D02*
X69290000Y-99350000D01*
X72950000Y-99350000D02*
X74676000Y-99350000D01*
X79450000Y-119670000D02*
X81700000Y-121920000D01*
X90170000Y-121920000D02*
X100330000Y-111760000D01*
X81700000Y-121920000D02*
X90170000Y-121920000D01*
X74676000Y-109474000D02*
X74676000Y-119670000D01*
X74676000Y-119670000D02*
X74676000Y-119380000D01*
X74676000Y-119380000D02*
X74676000Y-119670000D01*
X72950000Y-119670000D02*
X74676000Y-119670000D01*
X74676000Y-119670000D02*
X75910000Y-119670000D01*
X75910000Y-119670000D02*
X79450000Y-119670000D01*
X74676000Y-99350000D02*
X74676000Y-109474000D01*
X74676000Y-109474000D02*
X74676000Y-109510000D01*
X74676000Y-109510000D02*
X74676000Y-109220000D01*
X74676000Y-109220000D02*
X74676000Y-109510000D01*
X72950000Y-109510000D02*
X74676000Y-109510000D01*
X74676000Y-109510000D02*
X75910000Y-109510000D01*
X75910000Y-109510000D02*
X79450000Y-109510000D01*
X74676000Y-99350000D02*
X75910000Y-99350000D01*
X75910000Y-99350000D02*
X79450000Y-99350000D01*
X100330000Y-109220000D02*
X89900000Y-109220000D01*
X89900000Y-109220000D02*
X89610000Y-109510000D01*
X84836000Y-109474000D02*
X84836000Y-119670000D01*
X84836000Y-119670000D02*
X84836000Y-119634000D01*
X84836000Y-119634000D02*
X84836000Y-119670000D01*
X83110000Y-119670000D02*
X84836000Y-119670000D01*
X84836000Y-119670000D02*
X86070000Y-119670000D01*
X86070000Y-119670000D02*
X89610000Y-119670000D01*
X84836000Y-99350000D02*
X84836000Y-109510000D01*
X84836000Y-109510000D02*
X84836000Y-109474000D01*
X84836000Y-109474000D02*
X84836000Y-109510000D01*
X83110000Y-109510000D02*
X84836000Y-109510000D01*
X84836000Y-109510000D02*
X86070000Y-109510000D01*
X86070000Y-109510000D02*
X89610000Y-109510000D01*
X83110000Y-99350000D02*
X84836000Y-99350000D01*
X84836000Y-99350000D02*
X86070000Y-99350000D01*
X86070000Y-99350000D02*
X89610000Y-99350000D01*
D18*
G36*
X101808979Y-64265478D02*
X101986145Y-64383856D01*
X102104521Y-64561019D01*
X102160000Y-64839931D01*
X102160000Y-127975908D01*
X101305908Y-128830000D01*
X90170000Y-128830000D01*
X89898295Y-128884046D01*
X89667954Y-129037954D01*
X89667952Y-129037957D01*
X87335908Y-131370000D01*
X54904091Y-131370000D01*
X52572046Y-129037954D01*
X52341705Y-128884046D01*
X52070000Y-128830000D01*
X50869931Y-128830000D01*
X50591019Y-128774521D01*
X50413856Y-128656145D01*
X50295478Y-128478979D01*
X50240000Y-128200070D01*
X50240000Y-114300000D01*
X50301193Y-114300000D01*
X50407533Y-114834609D01*
X50710365Y-115287828D01*
X51132664Y-115570000D01*
X50710365Y-115852172D01*
X50407533Y-116305391D01*
X50301193Y-116840000D01*
X50407533Y-117374609D01*
X50710365Y-117827828D01*
X51132664Y-118110000D01*
X50710365Y-118392172D01*
X50407533Y-118845391D01*
X50301193Y-119380000D01*
X50407533Y-119914609D01*
X50710365Y-120367828D01*
X51132664Y-120650000D01*
X50710365Y-120932172D01*
X50407533Y-121385391D01*
X50301193Y-121920000D01*
X50407533Y-122454609D01*
X50710365Y-122907828D01*
X51132664Y-123190000D01*
X50710365Y-123472172D01*
X50407533Y-123925391D01*
X50301193Y-124460000D01*
X50407533Y-124994609D01*
X50710365Y-125447828D01*
X51132664Y-125730000D01*
X50710365Y-126012172D01*
X50407533Y-126465391D01*
X50301193Y-127000000D01*
X50407533Y-127534609D01*
X50710365Y-127987828D01*
X51163584Y-128290660D01*
X51698193Y-128397000D01*
X52441807Y-128397000D01*
X52976416Y-128290660D01*
X53429635Y-127987828D01*
X53732467Y-127534609D01*
X53838807Y-127000000D01*
X53805786Y-126833992D01*
X56145982Y-124493795D01*
X61154716Y-124493795D01*
X61403106Y-125094943D01*
X61862637Y-125555278D01*
X62463352Y-125804716D01*
X63113795Y-125805284D01*
X63714943Y-125556894D01*
X64175278Y-125097363D01*
X64321929Y-124744187D01*
X64604752Y-124744187D01*
X64822757Y-125271800D01*
X65226077Y-125675824D01*
X65753309Y-125894750D01*
X66324187Y-125895248D01*
X66851800Y-125677243D01*
X67255824Y-125273923D01*
X67474750Y-124746691D01*
X67475248Y-124175813D01*
X67257243Y-123648200D01*
X66853923Y-123244176D01*
X66326691Y-123025250D01*
X65755813Y-123024752D01*
X65228200Y-123242757D01*
X64824176Y-123646077D01*
X64605250Y-124173309D01*
X64604752Y-124744187D01*
X64321929Y-124744187D01*
X64424716Y-124496648D01*
X64425284Y-123846205D01*
X64176894Y-123245057D01*
X63717363Y-122784722D01*
X63116648Y-122535284D01*
X62466205Y-122534716D01*
X61865057Y-122783106D01*
X61404722Y-123242637D01*
X61155284Y-123843352D01*
X61154716Y-124493795D01*
X56145982Y-124493795D01*
X60474886Y-120164891D01*
X60474889Y-120164889D01*
X60715506Y-119804779D01*
X60800000Y-119380000D01*
X60800000Y-100281778D01*
X61228767Y-99853011D01*
X61403106Y-100274943D01*
X61862637Y-100735278D01*
X62463352Y-100984716D01*
X63113795Y-100985284D01*
X63406000Y-100864547D01*
X63406000Y-102335433D01*
X63116648Y-102215284D01*
X62466205Y-102214716D01*
X61865057Y-102463106D01*
X61404722Y-102922637D01*
X61155284Y-103523352D01*
X61154716Y-104173795D01*
X61403106Y-104774943D01*
X61862637Y-105235278D01*
X62463352Y-105484716D01*
X63113795Y-105485284D01*
X63406000Y-105364547D01*
X63406000Y-107995433D01*
X63116648Y-107875284D01*
X62466205Y-107874716D01*
X61865057Y-108123106D01*
X61404722Y-108582637D01*
X61155284Y-109183352D01*
X61154716Y-109833795D01*
X61403106Y-110434943D01*
X61862637Y-110895278D01*
X62463352Y-111144716D01*
X63113795Y-111145284D01*
X63406000Y-111024547D01*
X63406000Y-112495433D01*
X63116648Y-112375284D01*
X62466205Y-112374716D01*
X61865057Y-112623106D01*
X61404722Y-113082637D01*
X61155284Y-113683352D01*
X61154716Y-114333795D01*
X61403106Y-114934943D01*
X61862637Y-115395278D01*
X62463352Y-115644716D01*
X63113795Y-115645284D01*
X63406000Y-115524547D01*
X63406000Y-118155433D01*
X63116648Y-118035284D01*
X62466205Y-118034716D01*
X61865057Y-118283106D01*
X61404722Y-118742637D01*
X61155284Y-119343352D01*
X61154716Y-119993795D01*
X61403106Y-120594943D01*
X61862637Y-121055278D01*
X62463352Y-121304716D01*
X63113795Y-121305284D01*
X63714943Y-121056894D01*
X63992321Y-120780000D01*
X65669622Y-120780000D01*
X65753309Y-120814750D01*
X66324187Y-120815248D01*
X66409494Y-120780000D01*
X68087840Y-120780000D01*
X68362637Y-121055278D01*
X68963352Y-121304716D01*
X69355281Y-121305058D01*
X70010000Y-121959777D01*
X70010000Y-122698618D01*
X69616648Y-122535284D01*
X68966205Y-122534716D01*
X68365057Y-122783106D01*
X67904722Y-123242637D01*
X67655284Y-123843352D01*
X67654716Y-124493795D01*
X67903106Y-125094943D01*
X68362637Y-125555278D01*
X68963352Y-125804716D01*
X69613795Y-125805284D01*
X70206487Y-125560388D01*
X70335111Y-125752889D01*
X71605109Y-127022886D01*
X71605111Y-127022889D01*
X71965221Y-127263506D01*
X72035697Y-127277525D01*
X72390000Y-127348001D01*
X72390005Y-127348000D01*
X90423995Y-127348000D01*
X90424000Y-127348001D01*
X90778303Y-127277525D01*
X90848779Y-127263506D01*
X91208889Y-127022889D01*
X92224889Y-126006889D01*
X92478886Y-125752891D01*
X92478889Y-125752889D01*
X92719506Y-125392779D01*
X92804000Y-124968000D01*
X92804000Y-123395778D01*
X98731449Y-117468328D01*
X98971660Y-117827828D01*
X99393959Y-118110000D01*
X98971660Y-118392172D01*
X98668828Y-118845391D01*
X98562488Y-119380000D01*
X98668828Y-119914609D01*
X98971660Y-120367828D01*
X99393959Y-120650000D01*
X98971660Y-120932172D01*
X98668828Y-121385391D01*
X98562488Y-121920000D01*
X98668828Y-122454609D01*
X98971660Y-122907828D01*
X99393959Y-123190000D01*
X98971660Y-123472172D01*
X98668828Y-123925391D01*
X98562488Y-124460000D01*
X98668828Y-124994609D01*
X98971660Y-125447828D01*
X99393959Y-125730000D01*
X98971660Y-126012172D01*
X98668828Y-126465391D01*
X98562488Y-127000000D01*
X98668828Y-127534609D01*
X98971660Y-127987828D01*
X99424879Y-128290660D01*
X99959488Y-128397000D01*
X100700512Y-128397000D01*
X101235121Y-128290660D01*
X101688340Y-127987828D01*
X101991172Y-127534609D01*
X102097512Y-127000000D01*
X101991172Y-126465391D01*
X101688340Y-126012172D01*
X101266041Y-125730000D01*
X101688340Y-125447828D01*
X101991172Y-124994609D01*
X102097512Y-124460000D01*
X101991172Y-123925391D01*
X101688340Y-123472172D01*
X101266041Y-123190000D01*
X101688340Y-122907828D01*
X101991172Y-122454609D01*
X102097512Y-121920000D01*
X101991172Y-121385391D01*
X101688340Y-120932172D01*
X101266041Y-120650000D01*
X101688340Y-120367828D01*
X101991172Y-119914609D01*
X102097512Y-119380000D01*
X101991172Y-118845391D01*
X101688340Y-118392172D01*
X101266041Y-118110000D01*
X101688340Y-117827828D01*
X101991172Y-117374609D01*
X102097512Y-116840000D01*
X101991172Y-116305391D01*
X101688340Y-115852172D01*
X101266041Y-115570000D01*
X101688340Y-115287828D01*
X101991172Y-114834609D01*
X102097512Y-114300000D01*
X101991172Y-113765391D01*
X101688340Y-113312172D01*
X101266041Y-113030000D01*
X101688340Y-112747828D01*
X101991172Y-112294609D01*
X102097512Y-111760000D01*
X101991172Y-111225391D01*
X101688340Y-110772172D01*
X101266041Y-110490000D01*
X101688340Y-110207828D01*
X101991172Y-109754609D01*
X102097512Y-109220000D01*
X101991172Y-108685391D01*
X101688340Y-108232172D01*
X101235121Y-107929340D01*
X100700512Y-107823000D01*
X99959488Y-107823000D01*
X99424879Y-107929340D01*
X99154503Y-108110000D01*
X90501908Y-108110000D01*
X89936648Y-107875284D01*
X89286205Y-107874716D01*
X88685057Y-108123106D01*
X88407679Y-108400000D01*
X87569057Y-108400000D01*
X87173923Y-108004176D01*
X86646691Y-107785250D01*
X86075813Y-107784752D01*
X85946000Y-107838390D01*
X85946000Y-105521887D01*
X86073309Y-105574750D01*
X86644187Y-105575248D01*
X87171800Y-105357243D01*
X87575824Y-104953923D01*
X87794750Y-104426691D01*
X87794970Y-104173795D01*
X87974716Y-104173795D01*
X88223106Y-104774943D01*
X88682637Y-105235278D01*
X89283352Y-105484716D01*
X89933795Y-105485284D01*
X90534943Y-105236894D01*
X90995278Y-104777363D01*
X91244716Y-104176648D01*
X91245284Y-103526205D01*
X90996894Y-102925057D01*
X90537363Y-102464722D01*
X89936648Y-102215284D01*
X89286205Y-102214716D01*
X88685057Y-102463106D01*
X88224722Y-102922637D01*
X87975284Y-103523352D01*
X87974716Y-104173795D01*
X87794970Y-104173795D01*
X87795248Y-103855813D01*
X87577243Y-103328200D01*
X87173923Y-102924176D01*
X86646691Y-102705250D01*
X86075813Y-102704752D01*
X85946000Y-102758390D01*
X85946000Y-101923795D01*
X93614716Y-101923795D01*
X93863106Y-102524943D01*
X94322637Y-102985278D01*
X94923352Y-103234716D01*
X95573795Y-103235284D01*
X96174943Y-102986894D01*
X96635278Y-102527363D01*
X96884716Y-101926648D01*
X96885284Y-101276205D01*
X96636894Y-100675057D01*
X96177363Y-100214722D01*
X95576648Y-99965284D01*
X94926205Y-99964716D01*
X94325057Y-100213106D01*
X93864722Y-100672637D01*
X93615284Y-101273352D01*
X93614716Y-101923795D01*
X85946000Y-101923795D01*
X85946000Y-100460000D01*
X85989622Y-100460000D01*
X86073309Y-100494750D01*
X86644187Y-100495248D01*
X86729494Y-100460000D01*
X88407840Y-100460000D01*
X88682637Y-100735278D01*
X89283352Y-100984716D01*
X89933795Y-100985284D01*
X90534943Y-100736894D01*
X90995278Y-100277363D01*
X91244716Y-99676648D01*
X91245284Y-99026205D01*
X90996894Y-98425057D01*
X90537363Y-97964722D01*
X89936648Y-97715284D01*
X89286205Y-97714716D01*
X88685057Y-97963106D01*
X88407679Y-98240000D01*
X87569057Y-98240000D01*
X87173923Y-97844176D01*
X86646691Y-97625250D01*
X86075813Y-97624752D01*
X85548200Y-97842757D01*
X85150264Y-98240000D01*
X84312160Y-98240000D01*
X84037363Y-97964722D01*
X83972139Y-97937639D01*
X85065982Y-96843795D01*
X93614716Y-96843795D01*
X93863106Y-97444943D01*
X94322637Y-97905278D01*
X94923352Y-98154716D01*
X95573795Y-98155284D01*
X96174943Y-97906894D01*
X96635278Y-97447363D01*
X96884716Y-96846648D01*
X96885284Y-96196205D01*
X96636894Y-95595057D01*
X96177363Y-95134722D01*
X95576648Y-94885284D01*
X94926205Y-94884716D01*
X94325057Y-95133106D01*
X93864722Y-95592637D01*
X93615284Y-96193352D01*
X93614716Y-96843795D01*
X85065982Y-96843795D01*
X88940937Y-92968840D01*
X88940940Y-92968838D01*
X89181557Y-92608728D01*
X89215527Y-92437949D01*
X89266052Y-92183949D01*
X89266051Y-92183944D01*
X89266051Y-90846109D01*
X89541329Y-90571312D01*
X89790767Y-89970597D01*
X89791335Y-89320154D01*
X89542945Y-88719006D01*
X89266051Y-88441628D01*
X89266051Y-86683795D01*
X93614716Y-86683795D01*
X93863106Y-87284943D01*
X94322637Y-87745278D01*
X94923352Y-87994716D01*
X95573795Y-87995284D01*
X96174943Y-87746894D01*
X96635278Y-87287363D01*
X96884716Y-86686648D01*
X96885284Y-86036205D01*
X96636894Y-85435057D01*
X96177363Y-84974722D01*
X95576648Y-84725284D01*
X94926205Y-84724716D01*
X94325057Y-84973106D01*
X93864722Y-85432637D01*
X93615284Y-86033352D01*
X93614716Y-86683795D01*
X89266051Y-86683795D01*
X89266051Y-81603795D01*
X93614716Y-81603795D01*
X93863106Y-82204943D01*
X94322637Y-82665278D01*
X94923352Y-82914716D01*
X95573795Y-82915284D01*
X96174943Y-82666894D01*
X96546485Y-82296000D01*
X98562488Y-82296000D01*
X98668828Y-82830609D01*
X98971660Y-83283828D01*
X99393959Y-83566000D01*
X98971660Y-83848172D01*
X98668828Y-84301391D01*
X98562488Y-84836000D01*
X98668828Y-85370609D01*
X98971660Y-85823828D01*
X99395860Y-86107270D01*
X98971660Y-86390712D01*
X98668828Y-86843931D01*
X98562488Y-87378540D01*
X98668828Y-87913149D01*
X98971660Y-88366368D01*
X99392059Y-88647270D01*
X98971660Y-88928172D01*
X98668828Y-89381391D01*
X98562488Y-89916000D01*
X98668828Y-90450609D01*
X98971660Y-90903828D01*
X99393959Y-91186000D01*
X98971660Y-91468172D01*
X98668828Y-91921391D01*
X98562488Y-92456000D01*
X98668828Y-92990609D01*
X98971660Y-93443828D01*
X99393959Y-93726000D01*
X98971660Y-94008172D01*
X98668828Y-94461391D01*
X98562488Y-94996000D01*
X98668828Y-95530609D01*
X98971660Y-95983828D01*
X99393959Y-96266000D01*
X98971660Y-96548172D01*
X98668828Y-97001391D01*
X98562488Y-97536000D01*
X98668828Y-98070609D01*
X98971660Y-98523828D01*
X99393959Y-98806000D01*
X98971660Y-99088172D01*
X98668828Y-99541391D01*
X98562488Y-100076000D01*
X98668828Y-100610609D01*
X98971660Y-101063828D01*
X99393959Y-101346000D01*
X98971660Y-101628172D01*
X98668828Y-102081391D01*
X98562488Y-102616000D01*
X98668828Y-103150609D01*
X98971660Y-103603828D01*
X99393959Y-103886000D01*
X98971660Y-104168172D01*
X98668828Y-104621391D01*
X98562488Y-105156000D01*
X98668828Y-105690609D01*
X98971660Y-106143828D01*
X99424879Y-106446660D01*
X99959488Y-106553000D01*
X100700512Y-106553000D01*
X101235121Y-106446660D01*
X101688340Y-106143828D01*
X101991172Y-105690609D01*
X102097512Y-105156000D01*
X101991172Y-104621391D01*
X101688340Y-104168172D01*
X101266041Y-103886000D01*
X101688340Y-103603828D01*
X101991172Y-103150609D01*
X102097512Y-102616000D01*
X101991172Y-102081391D01*
X101688340Y-101628172D01*
X101266041Y-101346000D01*
X101688340Y-101063828D01*
X101991172Y-100610609D01*
X102097512Y-100076000D01*
X101991172Y-99541391D01*
X101688340Y-99088172D01*
X101266041Y-98806000D01*
X101688340Y-98523828D01*
X101991172Y-98070609D01*
X102097512Y-97536000D01*
X101991172Y-97001391D01*
X101688340Y-96548172D01*
X101266041Y-96266000D01*
X101688340Y-95983828D01*
X101991172Y-95530609D01*
X102097512Y-94996000D01*
X101991172Y-94461391D01*
X101688340Y-94008172D01*
X101266041Y-93726000D01*
X101688340Y-93443828D01*
X101991172Y-92990609D01*
X102097512Y-92456000D01*
X101991172Y-91921391D01*
X101688340Y-91468172D01*
X101266041Y-91186000D01*
X101688340Y-90903828D01*
X101991172Y-90450609D01*
X102097512Y-89916000D01*
X101991172Y-89381391D01*
X101688340Y-88928172D01*
X101267941Y-88647270D01*
X101688340Y-88366368D01*
X101991172Y-87913149D01*
X102097512Y-87378540D01*
X101991172Y-86843931D01*
X101688340Y-86390712D01*
X101264140Y-86107270D01*
X101688340Y-85823828D01*
X101991172Y-85370609D01*
X102097512Y-84836000D01*
X101991172Y-84301391D01*
X101688340Y-83848172D01*
X101266041Y-83566000D01*
X101688340Y-83283828D01*
X101991172Y-82830609D01*
X102097512Y-82296000D01*
X101991172Y-81761391D01*
X101688340Y-81308172D01*
X101235121Y-81005340D01*
X100700512Y-80899000D01*
X99959488Y-80899000D01*
X99424879Y-81005340D01*
X98971660Y-81308172D01*
X98668828Y-81761391D01*
X98562488Y-82296000D01*
X96546485Y-82296000D01*
X96635278Y-82207363D01*
X96884716Y-81606648D01*
X96885284Y-80956205D01*
X96636894Y-80355057D01*
X96177363Y-79894722D01*
X95576648Y-79645284D01*
X94926205Y-79644716D01*
X94325057Y-79893106D01*
X93864722Y-80352637D01*
X93615284Y-80953352D01*
X93614716Y-81603795D01*
X89266051Y-81603795D01*
X89266051Y-80686109D01*
X89541329Y-80411312D01*
X89790767Y-79810597D01*
X89791335Y-79160154D01*
X89542945Y-78559006D01*
X89266051Y-78281628D01*
X89266051Y-71443795D01*
X93614716Y-71443795D01*
X93863106Y-72044943D01*
X94322637Y-72505278D01*
X94923352Y-72754716D01*
X95573795Y-72755284D01*
X96174943Y-72506894D01*
X96635278Y-72047363D01*
X96884716Y-71446648D01*
X96885284Y-70796205D01*
X96636894Y-70195057D01*
X96177363Y-69734722D01*
X95576648Y-69485284D01*
X94926205Y-69484716D01*
X94325057Y-69733106D01*
X93864722Y-70192637D01*
X93615284Y-70793352D01*
X93614716Y-71443795D01*
X89266051Y-71443795D01*
X89266051Y-70526109D01*
X89541329Y-70251312D01*
X89790767Y-69650597D01*
X89791335Y-69000154D01*
X89542945Y-68399006D01*
X89083414Y-67938671D01*
X88482699Y-67689233D01*
X87832256Y-67688665D01*
X87231108Y-67937055D01*
X86770773Y-68396586D01*
X86521335Y-68997301D01*
X86520909Y-69485139D01*
X86036205Y-69484716D01*
X85435057Y-69733106D01*
X84974722Y-70192637D01*
X84725284Y-70793352D01*
X84724858Y-71281190D01*
X84240154Y-71280767D01*
X83639006Y-71529157D01*
X83178671Y-71988688D01*
X82929233Y-72589403D01*
X82928665Y-73239846D01*
X83177055Y-73840994D01*
X83453949Y-74118372D01*
X83453949Y-81873891D01*
X83178671Y-82148688D01*
X82929233Y-82749403D01*
X82928665Y-83399846D01*
X83177055Y-84000994D01*
X83453949Y-84278372D01*
X83453949Y-92033891D01*
X83178671Y-92308688D01*
X82929233Y-92909403D01*
X82928665Y-93559846D01*
X83177055Y-94160994D01*
X83636586Y-94621329D01*
X83998580Y-94771642D01*
X82344222Y-96426000D01*
X75577778Y-96426000D01*
X78780937Y-93222840D01*
X78780940Y-93222838D01*
X79021557Y-92862728D01*
X79106051Y-92437949D01*
X79106051Y-90846109D01*
X79381329Y-90571312D01*
X79630767Y-89970597D01*
X79631335Y-89320154D01*
X79382945Y-88719006D01*
X79106051Y-88441628D01*
X79106051Y-80686109D01*
X79381329Y-80411312D01*
X79630767Y-79810597D01*
X79631335Y-79160154D01*
X79382945Y-78559006D01*
X79106051Y-78281628D01*
X79106051Y-70526109D01*
X79381329Y-70251312D01*
X79630767Y-69650597D01*
X79631335Y-69000154D01*
X79382945Y-68399006D01*
X78923414Y-67938671D01*
X78322699Y-67689233D01*
X77672256Y-67688665D01*
X77071108Y-67937055D01*
X76610773Y-68396586D01*
X76361335Y-68997301D01*
X76360909Y-69485139D01*
X75876205Y-69484716D01*
X75275057Y-69733106D01*
X74814722Y-70192637D01*
X74565284Y-70793352D01*
X74564858Y-71281190D01*
X74080154Y-71280767D01*
X73479006Y-71529157D01*
X73018671Y-71988688D01*
X72769233Y-72589403D01*
X72768665Y-73239846D01*
X73017055Y-73840994D01*
X73293949Y-74118372D01*
X73293949Y-81873891D01*
X73018671Y-82148688D01*
X72769233Y-82749403D01*
X72768665Y-83399846D01*
X73017055Y-84000994D01*
X73293949Y-84278372D01*
X73293949Y-92033891D01*
X73018671Y-92308688D01*
X72769233Y-92909403D01*
X72768665Y-93559846D01*
X73017055Y-94160994D01*
X73476586Y-94621329D01*
X74018056Y-94846166D01*
X73638224Y-95225998D01*
X66617780Y-95225998D01*
X68620937Y-93222840D01*
X68620940Y-93222838D01*
X68790657Y-92968838D01*
X68861558Y-92862727D01*
X68946052Y-92437949D01*
X68946051Y-92437944D01*
X68946051Y-90846109D01*
X69221329Y-90571312D01*
X69470767Y-89970597D01*
X69471335Y-89320154D01*
X69222945Y-88719006D01*
X68946051Y-88441628D01*
X68946051Y-80686109D01*
X69221329Y-80411312D01*
X69470767Y-79810597D01*
X69471335Y-79160154D01*
X69222945Y-78559006D01*
X68946051Y-78281628D01*
X68946051Y-70526109D01*
X69221329Y-70251312D01*
X69470767Y-69650597D01*
X69471335Y-69000154D01*
X69222945Y-68399006D01*
X68763414Y-67938671D01*
X68162699Y-67689233D01*
X67512256Y-67688665D01*
X66911108Y-67937055D01*
X66450773Y-68396586D01*
X66201335Y-68997301D01*
X66200909Y-69485139D01*
X65716205Y-69484716D01*
X65115057Y-69733106D01*
X64654722Y-70192637D01*
X64405284Y-70793352D01*
X64404858Y-71281190D01*
X63920154Y-71280767D01*
X63319006Y-71529157D01*
X62858671Y-71988688D01*
X62609233Y-72589403D01*
X62608665Y-73239846D01*
X62857055Y-73840994D01*
X63133949Y-74118372D01*
X63133949Y-81873891D01*
X62858671Y-82148688D01*
X62609233Y-82749403D01*
X62608665Y-83399846D01*
X62857055Y-84000994D01*
X63133949Y-84278372D01*
X63133949Y-92033891D01*
X62858671Y-92308688D01*
X62609233Y-92909403D01*
X62608665Y-93559846D01*
X62801275Y-94025996D01*
X60981884Y-94025996D01*
X60557105Y-94110490D01*
X60196995Y-94351107D01*
X60196993Y-94351110D01*
X56365111Y-98182991D01*
X56124494Y-98543101D01*
X56124494Y-98543102D01*
X56039999Y-98967880D01*
X56040000Y-98967885D01*
X56040000Y-111300223D01*
X53669327Y-113670895D01*
X53429635Y-113312172D01*
X52976416Y-113009340D01*
X52441807Y-112903000D01*
X51698193Y-112903000D01*
X51163584Y-113009340D01*
X50710365Y-113312172D01*
X50407533Y-113765391D01*
X50301193Y-114300000D01*
X50240000Y-114300000D01*
X50240000Y-109220000D01*
X50301193Y-109220000D01*
X50407533Y-109754609D01*
X50710365Y-110207828D01*
X51163584Y-110510660D01*
X51698193Y-110617000D01*
X52441807Y-110617000D01*
X52976416Y-110510660D01*
X53429635Y-110207828D01*
X53732467Y-109754609D01*
X53838807Y-109220000D01*
X53732467Y-108685391D01*
X53429635Y-108232172D01*
X52994394Y-107941353D01*
X53059761Y-107922059D01*
X53485450Y-107578026D01*
X53747080Y-107097277D01*
X53762040Y-107023070D01*
X53639540Y-106807000D01*
X52197000Y-106807000D01*
X52197000Y-106827000D01*
X51943000Y-106827000D01*
X51943000Y-106807000D01*
X50500460Y-106807000D01*
X50377960Y-107023070D01*
X50392920Y-107097277D01*
X50654550Y-107578026D01*
X51080239Y-107922059D01*
X51145606Y-107941353D01*
X50710365Y-108232172D01*
X50407533Y-108685391D01*
X50301193Y-109220000D01*
X50240000Y-109220000D01*
X50240000Y-104483070D01*
X50377960Y-104483070D01*
X50392920Y-104557277D01*
X50654550Y-105038026D01*
X51080239Y-105382059D01*
X51174903Y-105410000D01*
X51080239Y-105437941D01*
X50654550Y-105781974D01*
X50392920Y-106262723D01*
X50377960Y-106336930D01*
X50500460Y-106553000D01*
X51943000Y-106553000D01*
X51943000Y-104267000D01*
X52197000Y-104267000D01*
X52197000Y-106553000D01*
X53639540Y-106553000D01*
X53762040Y-106336930D01*
X53747080Y-106262723D01*
X53485450Y-105781974D01*
X53059761Y-105437941D01*
X52965097Y-105410000D01*
X53059761Y-105382059D01*
X53485450Y-105038026D01*
X53747080Y-104557277D01*
X53762040Y-104483070D01*
X53639540Y-104267000D01*
X52197000Y-104267000D01*
X51943000Y-104267000D01*
X50500460Y-104267000D01*
X50377960Y-104483070D01*
X50240000Y-104483070D01*
X50240000Y-91440000D01*
X50301193Y-91440000D01*
X50407533Y-91974609D01*
X50710365Y-92427828D01*
X51132664Y-92710000D01*
X50710365Y-92992172D01*
X50407533Y-93445391D01*
X50301193Y-93980000D01*
X50407533Y-94514609D01*
X50710365Y-94967828D01*
X51132664Y-95250000D01*
X50710365Y-95532172D01*
X50407533Y-95985391D01*
X50301193Y-96520000D01*
X50407533Y-97054609D01*
X50710365Y-97507828D01*
X51132664Y-97790000D01*
X50710365Y-98072172D01*
X50407533Y-98525391D01*
X50301193Y-99060000D01*
X50407533Y-99594609D01*
X50710365Y-100047828D01*
X51132664Y-100330000D01*
X50710365Y-100612172D01*
X50407533Y-101065391D01*
X50301193Y-101600000D01*
X50407533Y-102134609D01*
X50710365Y-102587828D01*
X51145606Y-102878647D01*
X51080239Y-102897941D01*
X50654550Y-103241974D01*
X50392920Y-103722723D01*
X50377960Y-103796930D01*
X50500460Y-104013000D01*
X51943000Y-104013000D01*
X51943000Y-103993000D01*
X52197000Y-103993000D01*
X52197000Y-104013000D01*
X53639540Y-104013000D01*
X53762040Y-103796930D01*
X53747080Y-103722723D01*
X53485450Y-103241974D01*
X53059761Y-102897941D01*
X52994394Y-102878647D01*
X53429635Y-102587828D01*
X53732467Y-102134609D01*
X53838807Y-101600000D01*
X53732467Y-101065391D01*
X53429635Y-100612172D01*
X53007336Y-100330000D01*
X53429635Y-100047828D01*
X53732467Y-99594609D01*
X53838807Y-99060000D01*
X53732467Y-98525391D01*
X53429635Y-98072172D01*
X53007336Y-97790000D01*
X53429635Y-97507828D01*
X53732467Y-97054609D01*
X53838807Y-96520000D01*
X53732467Y-95985391D01*
X53429635Y-95532172D01*
X53007336Y-95250000D01*
X53429635Y-94967828D01*
X53732467Y-94514609D01*
X53838807Y-93980000D01*
X53732467Y-93445391D01*
X53429635Y-92992172D01*
X53007336Y-92710000D01*
X53429635Y-92427828D01*
X53732467Y-91974609D01*
X53838807Y-91440000D01*
X53732467Y-90905391D01*
X53429635Y-90452172D01*
X52976416Y-90149340D01*
X52441807Y-90043000D01*
X51698193Y-90043000D01*
X51163584Y-90149340D01*
X50710365Y-90452172D01*
X50407533Y-90905391D01*
X50301193Y-91440000D01*
X50240000Y-91440000D01*
X50240000Y-64839930D01*
X50295478Y-64561021D01*
X50413856Y-64383855D01*
X50591019Y-64265479D01*
X50869931Y-64210000D01*
X101530070Y-64210000D01*
X101808979Y-64265478D01*
X101808979Y-64265478D01*
G37*
X101808979Y-64265478D02*
X101986145Y-64383856D01*
X102104521Y-64561019D01*
X102160000Y-64839931D01*
X102160000Y-127975908D01*
X101305908Y-128830000D01*
X90170000Y-128830000D01*
X89898295Y-128884046D01*
X89667954Y-129037954D01*
X89667952Y-129037957D01*
X87335908Y-131370000D01*
X54904091Y-131370000D01*
X52572046Y-129037954D01*
X52341705Y-128884046D01*
X52070000Y-128830000D01*
X50869931Y-128830000D01*
X50591019Y-128774521D01*
X50413856Y-128656145D01*
X50295478Y-128478979D01*
X50240000Y-128200070D01*
X50240000Y-114300000D01*
X50301193Y-114300000D01*
X50407533Y-114834609D01*
X50710365Y-115287828D01*
X51132664Y-115570000D01*
X50710365Y-115852172D01*
X50407533Y-116305391D01*
X50301193Y-116840000D01*
X50407533Y-117374609D01*
X50710365Y-117827828D01*
X51132664Y-118110000D01*
X50710365Y-118392172D01*
X50407533Y-118845391D01*
X50301193Y-119380000D01*
X50407533Y-119914609D01*
X50710365Y-120367828D01*
X51132664Y-120650000D01*
X50710365Y-120932172D01*
X50407533Y-121385391D01*
X50301193Y-121920000D01*
X50407533Y-122454609D01*
X50710365Y-122907828D01*
X51132664Y-123190000D01*
X50710365Y-123472172D01*
X50407533Y-123925391D01*
X50301193Y-124460000D01*
X50407533Y-124994609D01*
X50710365Y-125447828D01*
X51132664Y-125730000D01*
X50710365Y-126012172D01*
X50407533Y-126465391D01*
X50301193Y-127000000D01*
X50407533Y-127534609D01*
X50710365Y-127987828D01*
X51163584Y-128290660D01*
X51698193Y-128397000D01*
X52441807Y-128397000D01*
X52976416Y-128290660D01*
X53429635Y-127987828D01*
X53732467Y-127534609D01*
X53838807Y-127000000D01*
X53805786Y-126833992D01*
X56145982Y-124493795D01*
X61154716Y-124493795D01*
X61403106Y-125094943D01*
X61862637Y-125555278D01*
X62463352Y-125804716D01*
X63113795Y-125805284D01*
X63714943Y-125556894D01*
X64175278Y-125097363D01*
X64321929Y-124744187D01*
X64604752Y-124744187D01*
X64822757Y-125271800D01*
X65226077Y-125675824D01*
X65753309Y-125894750D01*
X66324187Y-125895248D01*
X66851800Y-125677243D01*
X67255824Y-125273923D01*
X67474750Y-124746691D01*
X67475248Y-124175813D01*
X67257243Y-123648200D01*
X66853923Y-123244176D01*
X66326691Y-123025250D01*
X65755813Y-123024752D01*
X65228200Y-123242757D01*
X64824176Y-123646077D01*
X64605250Y-124173309D01*
X64604752Y-124744187D01*
X64321929Y-124744187D01*
X64424716Y-124496648D01*
X64425284Y-123846205D01*
X64176894Y-123245057D01*
X63717363Y-122784722D01*
X63116648Y-122535284D01*
X62466205Y-122534716D01*
X61865057Y-122783106D01*
X61404722Y-123242637D01*
X61155284Y-123843352D01*
X61154716Y-124493795D01*
X56145982Y-124493795D01*
X60474886Y-120164891D01*
X60474889Y-120164889D01*
X60715506Y-119804779D01*
X60800000Y-119380000D01*
X60800000Y-100281778D01*
X61228767Y-99853011D01*
X61403106Y-100274943D01*
X61862637Y-100735278D01*
X62463352Y-100984716D01*
X63113795Y-100985284D01*
X63406000Y-100864547D01*
X63406000Y-102335433D01*
X63116648Y-102215284D01*
X62466205Y-102214716D01*
X61865057Y-102463106D01*
X61404722Y-102922637D01*
X61155284Y-103523352D01*
X61154716Y-104173795D01*
X61403106Y-104774943D01*
X61862637Y-105235278D01*
X62463352Y-105484716D01*
X63113795Y-105485284D01*
X63406000Y-105364547D01*
X63406000Y-107995433D01*
X63116648Y-107875284D01*
X62466205Y-107874716D01*
X61865057Y-108123106D01*
X61404722Y-108582637D01*
X61155284Y-109183352D01*
X61154716Y-109833795D01*
X61403106Y-110434943D01*
X61862637Y-110895278D01*
X62463352Y-111144716D01*
X63113795Y-111145284D01*
X63406000Y-111024547D01*
X63406000Y-112495433D01*
X63116648Y-112375284D01*
X62466205Y-112374716D01*
X61865057Y-112623106D01*
X61404722Y-113082637D01*
X61155284Y-113683352D01*
X61154716Y-114333795D01*
X61403106Y-114934943D01*
X61862637Y-115395278D01*
X62463352Y-115644716D01*
X63113795Y-115645284D01*
X63406000Y-115524547D01*
X63406000Y-118155433D01*
X63116648Y-118035284D01*
X62466205Y-118034716D01*
X61865057Y-118283106D01*
X61404722Y-118742637D01*
X61155284Y-119343352D01*
X61154716Y-119993795D01*
X61403106Y-120594943D01*
X61862637Y-121055278D01*
X62463352Y-121304716D01*
X63113795Y-121305284D01*
X63714943Y-121056894D01*
X63992321Y-120780000D01*
X65669622Y-120780000D01*
X65753309Y-120814750D01*
X66324187Y-120815248D01*
X66409494Y-120780000D01*
X68087840Y-120780000D01*
X68362637Y-121055278D01*
X68963352Y-121304716D01*
X69355281Y-121305058D01*
X70010000Y-121959777D01*
X70010000Y-122698618D01*
X69616648Y-122535284D01*
X68966205Y-122534716D01*
X68365057Y-122783106D01*
X67904722Y-123242637D01*
X67655284Y-123843352D01*
X67654716Y-124493795D01*
X67903106Y-125094943D01*
X68362637Y-125555278D01*
X68963352Y-125804716D01*
X69613795Y-125805284D01*
X70206487Y-125560388D01*
X70335111Y-125752889D01*
X71605109Y-127022886D01*
X71605111Y-127022889D01*
X71965221Y-127263506D01*
X72035697Y-127277525D01*
X72390000Y-127348001D01*
X72390005Y-127348000D01*
X90423995Y-127348000D01*
X90424000Y-127348001D01*
X90778303Y-127277525D01*
X90848779Y-127263506D01*
X91208889Y-127022889D01*
X92224889Y-126006889D01*
X92478886Y-125752891D01*
X92478889Y-125752889D01*
X92719506Y-125392779D01*
X92804000Y-124968000D01*
X92804000Y-123395778D01*
X98731449Y-117468328D01*
X98971660Y-117827828D01*
X99393959Y-118110000D01*
X98971660Y-118392172D01*
X98668828Y-118845391D01*
X98562488Y-119380000D01*
X98668828Y-119914609D01*
X98971660Y-120367828D01*
X99393959Y-120650000D01*
X98971660Y-120932172D01*
X98668828Y-121385391D01*
X98562488Y-121920000D01*
X98668828Y-122454609D01*
X98971660Y-122907828D01*
X99393959Y-123190000D01*
X98971660Y-123472172D01*
X98668828Y-123925391D01*
X98562488Y-124460000D01*
X98668828Y-124994609D01*
X98971660Y-125447828D01*
X99393959Y-125730000D01*
X98971660Y-126012172D01*
X98668828Y-126465391D01*
X98562488Y-127000000D01*
X98668828Y-127534609D01*
X98971660Y-127987828D01*
X99424879Y-128290660D01*
X99959488Y-128397000D01*
X100700512Y-128397000D01*
X101235121Y-128290660D01*
X101688340Y-127987828D01*
X101991172Y-127534609D01*
X102097512Y-127000000D01*
X101991172Y-126465391D01*
X101688340Y-126012172D01*
X101266041Y-125730000D01*
X101688340Y-125447828D01*
X101991172Y-124994609D01*
X102097512Y-124460000D01*
X101991172Y-123925391D01*
X101688340Y-123472172D01*
X101266041Y-123190000D01*
X101688340Y-122907828D01*
X101991172Y-122454609D01*
X102097512Y-121920000D01*
X101991172Y-121385391D01*
X101688340Y-120932172D01*
X101266041Y-120650000D01*
X101688340Y-120367828D01*
X101991172Y-119914609D01*
X102097512Y-119380000D01*
X101991172Y-118845391D01*
X101688340Y-118392172D01*
X101266041Y-118110000D01*
X101688340Y-117827828D01*
X101991172Y-117374609D01*
X102097512Y-116840000D01*
X101991172Y-116305391D01*
X101688340Y-115852172D01*
X101266041Y-115570000D01*
X101688340Y-115287828D01*
X101991172Y-114834609D01*
X102097512Y-114300000D01*
X101991172Y-113765391D01*
X101688340Y-113312172D01*
X101266041Y-113030000D01*
X101688340Y-112747828D01*
X101991172Y-112294609D01*
X102097512Y-111760000D01*
X101991172Y-111225391D01*
X101688340Y-110772172D01*
X101266041Y-110490000D01*
X101688340Y-110207828D01*
X101991172Y-109754609D01*
X102097512Y-109220000D01*
X101991172Y-108685391D01*
X101688340Y-108232172D01*
X101235121Y-107929340D01*
X100700512Y-107823000D01*
X99959488Y-107823000D01*
X99424879Y-107929340D01*
X99154503Y-108110000D01*
X90501908Y-108110000D01*
X89936648Y-107875284D01*
X89286205Y-107874716D01*
X88685057Y-108123106D01*
X88407679Y-108400000D01*
X87569057Y-108400000D01*
X87173923Y-108004176D01*
X86646691Y-107785250D01*
X86075813Y-107784752D01*
X85946000Y-107838390D01*
X85946000Y-105521887D01*
X86073309Y-105574750D01*
X86644187Y-105575248D01*
X87171800Y-105357243D01*
X87575824Y-104953923D01*
X87794750Y-104426691D01*
X87794970Y-104173795D01*
X87974716Y-104173795D01*
X88223106Y-104774943D01*
X88682637Y-105235278D01*
X89283352Y-105484716D01*
X89933795Y-105485284D01*
X90534943Y-105236894D01*
X90995278Y-104777363D01*
X91244716Y-104176648D01*
X91245284Y-103526205D01*
X90996894Y-102925057D01*
X90537363Y-102464722D01*
X89936648Y-102215284D01*
X89286205Y-102214716D01*
X88685057Y-102463106D01*
X88224722Y-102922637D01*
X87975284Y-103523352D01*
X87974716Y-104173795D01*
X87794970Y-104173795D01*
X87795248Y-103855813D01*
X87577243Y-103328200D01*
X87173923Y-102924176D01*
X86646691Y-102705250D01*
X86075813Y-102704752D01*
X85946000Y-102758390D01*
X85946000Y-101923795D01*
X93614716Y-101923795D01*
X93863106Y-102524943D01*
X94322637Y-102985278D01*
X94923352Y-103234716D01*
X95573795Y-103235284D01*
X96174943Y-102986894D01*
X96635278Y-102527363D01*
X96884716Y-101926648D01*
X96885284Y-101276205D01*
X96636894Y-100675057D01*
X96177363Y-100214722D01*
X95576648Y-99965284D01*
X94926205Y-99964716D01*
X94325057Y-100213106D01*
X93864722Y-100672637D01*
X93615284Y-101273352D01*
X93614716Y-101923795D01*
X85946000Y-101923795D01*
X85946000Y-100460000D01*
X85989622Y-100460000D01*
X86073309Y-100494750D01*
X86644187Y-100495248D01*
X86729494Y-100460000D01*
X88407840Y-100460000D01*
X88682637Y-100735278D01*
X89283352Y-100984716D01*
X89933795Y-100985284D01*
X90534943Y-100736894D01*
X90995278Y-100277363D01*
X91244716Y-99676648D01*
X91245284Y-99026205D01*
X90996894Y-98425057D01*
X90537363Y-97964722D01*
X89936648Y-97715284D01*
X89286205Y-97714716D01*
X88685057Y-97963106D01*
X88407679Y-98240000D01*
X87569057Y-98240000D01*
X87173923Y-97844176D01*
X86646691Y-97625250D01*
X86075813Y-97624752D01*
X85548200Y-97842757D01*
X85150264Y-98240000D01*
X84312160Y-98240000D01*
X84037363Y-97964722D01*
X83972139Y-97937639D01*
X85065982Y-96843795D01*
X93614716Y-96843795D01*
X93863106Y-97444943D01*
X94322637Y-97905278D01*
X94923352Y-98154716D01*
X95573795Y-98155284D01*
X96174943Y-97906894D01*
X96635278Y-97447363D01*
X96884716Y-96846648D01*
X96885284Y-96196205D01*
X96636894Y-95595057D01*
X96177363Y-95134722D01*
X95576648Y-94885284D01*
X94926205Y-94884716D01*
X94325057Y-95133106D01*
X93864722Y-95592637D01*
X93615284Y-96193352D01*
X93614716Y-96843795D01*
X85065982Y-96843795D01*
X88940937Y-92968840D01*
X88940940Y-92968838D01*
X89181557Y-92608728D01*
X89215527Y-92437949D01*
X89266052Y-92183949D01*
X89266051Y-92183944D01*
X89266051Y-90846109D01*
X89541329Y-90571312D01*
X89790767Y-89970597D01*
X89791335Y-89320154D01*
X89542945Y-88719006D01*
X89266051Y-88441628D01*
X89266051Y-86683795D01*
X93614716Y-86683795D01*
X93863106Y-87284943D01*
X94322637Y-87745278D01*
X94923352Y-87994716D01*
X95573795Y-87995284D01*
X96174943Y-87746894D01*
X96635278Y-87287363D01*
X96884716Y-86686648D01*
X96885284Y-86036205D01*
X96636894Y-85435057D01*
X96177363Y-84974722D01*
X95576648Y-84725284D01*
X94926205Y-84724716D01*
X94325057Y-84973106D01*
X93864722Y-85432637D01*
X93615284Y-86033352D01*
X93614716Y-86683795D01*
X89266051Y-86683795D01*
X89266051Y-81603795D01*
X93614716Y-81603795D01*
X93863106Y-82204943D01*
X94322637Y-82665278D01*
X94923352Y-82914716D01*
X95573795Y-82915284D01*
X96174943Y-82666894D01*
X96546485Y-82296000D01*
X98562488Y-82296000D01*
X98668828Y-82830609D01*
X98971660Y-83283828D01*
X99393959Y-83566000D01*
X98971660Y-83848172D01*
X98668828Y-84301391D01*
X98562488Y-84836000D01*
X98668828Y-85370609D01*
X98971660Y-85823828D01*
X99395860Y-86107270D01*
X98971660Y-86390712D01*
X98668828Y-86843931D01*
X98562488Y-87378540D01*
X98668828Y-87913149D01*
X98971660Y-88366368D01*
X99392059Y-88647270D01*
X98971660Y-88928172D01*
X98668828Y-89381391D01*
X98562488Y-89916000D01*
X98668828Y-90450609D01*
X98971660Y-90903828D01*
X99393959Y-91186000D01*
X98971660Y-91468172D01*
X98668828Y-91921391D01*
X98562488Y-92456000D01*
X98668828Y-92990609D01*
X98971660Y-93443828D01*
X99393959Y-93726000D01*
X98971660Y-94008172D01*
X98668828Y-94461391D01*
X98562488Y-94996000D01*
X98668828Y-95530609D01*
X98971660Y-95983828D01*
X99393959Y-96266000D01*
X98971660Y-96548172D01*
X98668828Y-97001391D01*
X98562488Y-97536000D01*
X98668828Y-98070609D01*
X98971660Y-98523828D01*
X99393959Y-98806000D01*
X98971660Y-99088172D01*
X98668828Y-99541391D01*
X98562488Y-100076000D01*
X98668828Y-100610609D01*
X98971660Y-101063828D01*
X99393959Y-101346000D01*
X98971660Y-101628172D01*
X98668828Y-102081391D01*
X98562488Y-102616000D01*
X98668828Y-103150609D01*
X98971660Y-103603828D01*
X99393959Y-103886000D01*
X98971660Y-104168172D01*
X98668828Y-104621391D01*
X98562488Y-105156000D01*
X98668828Y-105690609D01*
X98971660Y-106143828D01*
X99424879Y-106446660D01*
X99959488Y-106553000D01*
X100700512Y-106553000D01*
X101235121Y-106446660D01*
X101688340Y-106143828D01*
X101991172Y-105690609D01*
X102097512Y-105156000D01*
X101991172Y-104621391D01*
X101688340Y-104168172D01*
X101266041Y-103886000D01*
X101688340Y-103603828D01*
X101991172Y-103150609D01*
X102097512Y-102616000D01*
X101991172Y-102081391D01*
X101688340Y-101628172D01*
X101266041Y-101346000D01*
X101688340Y-101063828D01*
X101991172Y-100610609D01*
X102097512Y-100076000D01*
X101991172Y-99541391D01*
X101688340Y-99088172D01*
X101266041Y-98806000D01*
X101688340Y-98523828D01*
X101991172Y-98070609D01*
X102097512Y-97536000D01*
X101991172Y-97001391D01*
X101688340Y-96548172D01*
X101266041Y-96266000D01*
X101688340Y-95983828D01*
X101991172Y-95530609D01*
X102097512Y-94996000D01*
X101991172Y-94461391D01*
X101688340Y-94008172D01*
X101266041Y-93726000D01*
X101688340Y-93443828D01*
X101991172Y-92990609D01*
X102097512Y-92456000D01*
X101991172Y-91921391D01*
X101688340Y-91468172D01*
X101266041Y-91186000D01*
X101688340Y-90903828D01*
X101991172Y-90450609D01*
X102097512Y-89916000D01*
X101991172Y-89381391D01*
X101688340Y-88928172D01*
X101267941Y-88647270D01*
X101688340Y-88366368D01*
X101991172Y-87913149D01*
X102097512Y-87378540D01*
X101991172Y-86843931D01*
X101688340Y-86390712D01*
X101264140Y-86107270D01*
X101688340Y-85823828D01*
X101991172Y-85370609D01*
X102097512Y-84836000D01*
X101991172Y-84301391D01*
X101688340Y-83848172D01*
X101266041Y-83566000D01*
X101688340Y-83283828D01*
X101991172Y-82830609D01*
X102097512Y-82296000D01*
X101991172Y-81761391D01*
X101688340Y-81308172D01*
X101235121Y-81005340D01*
X100700512Y-80899000D01*
X99959488Y-80899000D01*
X99424879Y-81005340D01*
X98971660Y-81308172D01*
X98668828Y-81761391D01*
X98562488Y-82296000D01*
X96546485Y-82296000D01*
X96635278Y-82207363D01*
X96884716Y-81606648D01*
X96885284Y-80956205D01*
X96636894Y-80355057D01*
X96177363Y-79894722D01*
X95576648Y-79645284D01*
X94926205Y-79644716D01*
X94325057Y-79893106D01*
X93864722Y-80352637D01*
X93615284Y-80953352D01*
X93614716Y-81603795D01*
X89266051Y-81603795D01*
X89266051Y-80686109D01*
X89541329Y-80411312D01*
X89790767Y-79810597D01*
X89791335Y-79160154D01*
X89542945Y-78559006D01*
X89266051Y-78281628D01*
X89266051Y-71443795D01*
X93614716Y-71443795D01*
X93863106Y-72044943D01*
X94322637Y-72505278D01*
X94923352Y-72754716D01*
X95573795Y-72755284D01*
X96174943Y-72506894D01*
X96635278Y-72047363D01*
X96884716Y-71446648D01*
X96885284Y-70796205D01*
X96636894Y-70195057D01*
X96177363Y-69734722D01*
X95576648Y-69485284D01*
X94926205Y-69484716D01*
X94325057Y-69733106D01*
X93864722Y-70192637D01*
X93615284Y-70793352D01*
X93614716Y-71443795D01*
X89266051Y-71443795D01*
X89266051Y-70526109D01*
X89541329Y-70251312D01*
X89790767Y-69650597D01*
X89791335Y-69000154D01*
X89542945Y-68399006D01*
X89083414Y-67938671D01*
X88482699Y-67689233D01*
X87832256Y-67688665D01*
X87231108Y-67937055D01*
X86770773Y-68396586D01*
X86521335Y-68997301D01*
X86520909Y-69485139D01*
X86036205Y-69484716D01*
X85435057Y-69733106D01*
X84974722Y-70192637D01*
X84725284Y-70793352D01*
X84724858Y-71281190D01*
X84240154Y-71280767D01*
X83639006Y-71529157D01*
X83178671Y-71988688D01*
X82929233Y-72589403D01*
X82928665Y-73239846D01*
X83177055Y-73840994D01*
X83453949Y-74118372D01*
X83453949Y-81873891D01*
X83178671Y-82148688D01*
X82929233Y-82749403D01*
X82928665Y-83399846D01*
X83177055Y-84000994D01*
X83453949Y-84278372D01*
X83453949Y-92033891D01*
X83178671Y-92308688D01*
X82929233Y-92909403D01*
X82928665Y-93559846D01*
X83177055Y-94160994D01*
X83636586Y-94621329D01*
X83998580Y-94771642D01*
X82344222Y-96426000D01*
X75577778Y-96426000D01*
X78780937Y-93222840D01*
X78780940Y-93222838D01*
X79021557Y-92862728D01*
X79106051Y-92437949D01*
X79106051Y-90846109D01*
X79381329Y-90571312D01*
X79630767Y-89970597D01*
X79631335Y-89320154D01*
X79382945Y-88719006D01*
X79106051Y-88441628D01*
X79106051Y-80686109D01*
X79381329Y-80411312D01*
X79630767Y-79810597D01*
X79631335Y-79160154D01*
X79382945Y-78559006D01*
X79106051Y-78281628D01*
X79106051Y-70526109D01*
X79381329Y-70251312D01*
X79630767Y-69650597D01*
X79631335Y-69000154D01*
X79382945Y-68399006D01*
X78923414Y-67938671D01*
X78322699Y-67689233D01*
X77672256Y-67688665D01*
X77071108Y-67937055D01*
X76610773Y-68396586D01*
X76361335Y-68997301D01*
X76360909Y-69485139D01*
X75876205Y-69484716D01*
X75275057Y-69733106D01*
X74814722Y-70192637D01*
X74565284Y-70793352D01*
X74564858Y-71281190D01*
X74080154Y-71280767D01*
X73479006Y-71529157D01*
X73018671Y-71988688D01*
X72769233Y-72589403D01*
X72768665Y-73239846D01*
X73017055Y-73840994D01*
X73293949Y-74118372D01*
X73293949Y-81873891D01*
X73018671Y-82148688D01*
X72769233Y-82749403D01*
X72768665Y-83399846D01*
X73017055Y-84000994D01*
X73293949Y-84278372D01*
X73293949Y-92033891D01*
X73018671Y-92308688D01*
X72769233Y-92909403D01*
X72768665Y-93559846D01*
X73017055Y-94160994D01*
X73476586Y-94621329D01*
X74018056Y-94846166D01*
X73638224Y-95225998D01*
X66617780Y-95225998D01*
X68620937Y-93222840D01*
X68620940Y-93222838D01*
X68790657Y-92968838D01*
X68861558Y-92862727D01*
X68946052Y-92437949D01*
X68946051Y-92437944D01*
X68946051Y-90846109D01*
X69221329Y-90571312D01*
X69470767Y-89970597D01*
X69471335Y-89320154D01*
X69222945Y-88719006D01*
X68946051Y-88441628D01*
X68946051Y-80686109D01*
X69221329Y-80411312D01*
X69470767Y-79810597D01*
X69471335Y-79160154D01*
X69222945Y-78559006D01*
X68946051Y-78281628D01*
X68946051Y-70526109D01*
X69221329Y-70251312D01*
X69470767Y-69650597D01*
X69471335Y-69000154D01*
X69222945Y-68399006D01*
X68763414Y-67938671D01*
X68162699Y-67689233D01*
X67512256Y-67688665D01*
X66911108Y-67937055D01*
X66450773Y-68396586D01*
X66201335Y-68997301D01*
X66200909Y-69485139D01*
X65716205Y-69484716D01*
X65115057Y-69733106D01*
X64654722Y-70192637D01*
X64405284Y-70793352D01*
X64404858Y-71281190D01*
X63920154Y-71280767D01*
X63319006Y-71529157D01*
X62858671Y-71988688D01*
X62609233Y-72589403D01*
X62608665Y-73239846D01*
X62857055Y-73840994D01*
X63133949Y-74118372D01*
X63133949Y-81873891D01*
X62858671Y-82148688D01*
X62609233Y-82749403D01*
X62608665Y-83399846D01*
X62857055Y-84000994D01*
X63133949Y-84278372D01*
X63133949Y-92033891D01*
X62858671Y-92308688D01*
X62609233Y-92909403D01*
X62608665Y-93559846D01*
X62801275Y-94025996D01*
X60981884Y-94025996D01*
X60557105Y-94110490D01*
X60196995Y-94351107D01*
X60196993Y-94351110D01*
X56365111Y-98182991D01*
X56124494Y-98543101D01*
X56124494Y-98543102D01*
X56039999Y-98967880D01*
X56040000Y-98967885D01*
X56040000Y-111300223D01*
X53669327Y-113670895D01*
X53429635Y-113312172D01*
X52976416Y-113009340D01*
X52441807Y-112903000D01*
X51698193Y-112903000D01*
X51163584Y-113009340D01*
X50710365Y-113312172D01*
X50407533Y-113765391D01*
X50301193Y-114300000D01*
X50240000Y-114300000D01*
X50240000Y-109220000D01*
X50301193Y-109220000D01*
X50407533Y-109754609D01*
X50710365Y-110207828D01*
X51163584Y-110510660D01*
X51698193Y-110617000D01*
X52441807Y-110617000D01*
X52976416Y-110510660D01*
X53429635Y-110207828D01*
X53732467Y-109754609D01*
X53838807Y-109220000D01*
X53732467Y-108685391D01*
X53429635Y-108232172D01*
X52994394Y-107941353D01*
X53059761Y-107922059D01*
X53485450Y-107578026D01*
X53747080Y-107097277D01*
X53762040Y-107023070D01*
X53639540Y-106807000D01*
X52197000Y-106807000D01*
X52197000Y-106827000D01*
X51943000Y-106827000D01*
X51943000Y-106807000D01*
X50500460Y-106807000D01*
X50377960Y-107023070D01*
X50392920Y-107097277D01*
X50654550Y-107578026D01*
X51080239Y-107922059D01*
X51145606Y-107941353D01*
X50710365Y-108232172D01*
X50407533Y-108685391D01*
X50301193Y-109220000D01*
X50240000Y-109220000D01*
X50240000Y-104483070D01*
X50377960Y-104483070D01*
X50392920Y-104557277D01*
X50654550Y-105038026D01*
X51080239Y-105382059D01*
X51174903Y-105410000D01*
X51080239Y-105437941D01*
X50654550Y-105781974D01*
X50392920Y-106262723D01*
X50377960Y-106336930D01*
X50500460Y-106553000D01*
X51943000Y-106553000D01*
X51943000Y-104267000D01*
X52197000Y-104267000D01*
X52197000Y-106553000D01*
X53639540Y-106553000D01*
X53762040Y-106336930D01*
X53747080Y-106262723D01*
X53485450Y-105781974D01*
X53059761Y-105437941D01*
X52965097Y-105410000D01*
X53059761Y-105382059D01*
X53485450Y-105038026D01*
X53747080Y-104557277D01*
X53762040Y-104483070D01*
X53639540Y-104267000D01*
X52197000Y-104267000D01*
X51943000Y-104267000D01*
X50500460Y-104267000D01*
X50377960Y-104483070D01*
X50240000Y-104483070D01*
X50240000Y-91440000D01*
X50301193Y-91440000D01*
X50407533Y-91974609D01*
X50710365Y-92427828D01*
X51132664Y-92710000D01*
X50710365Y-92992172D01*
X50407533Y-93445391D01*
X50301193Y-93980000D01*
X50407533Y-94514609D01*
X50710365Y-94967828D01*
X51132664Y-95250000D01*
X50710365Y-95532172D01*
X50407533Y-95985391D01*
X50301193Y-96520000D01*
X50407533Y-97054609D01*
X50710365Y-97507828D01*
X51132664Y-97790000D01*
X50710365Y-98072172D01*
X50407533Y-98525391D01*
X50301193Y-99060000D01*
X50407533Y-99594609D01*
X50710365Y-100047828D01*
X51132664Y-100330000D01*
X50710365Y-100612172D01*
X50407533Y-101065391D01*
X50301193Y-101600000D01*
X50407533Y-102134609D01*
X50710365Y-102587828D01*
X51145606Y-102878647D01*
X51080239Y-102897941D01*
X50654550Y-103241974D01*
X50392920Y-103722723D01*
X50377960Y-103796930D01*
X50500460Y-104013000D01*
X51943000Y-104013000D01*
X51943000Y-103993000D01*
X52197000Y-103993000D01*
X52197000Y-104013000D01*
X53639540Y-104013000D01*
X53762040Y-103796930D01*
X53747080Y-103722723D01*
X53485450Y-103241974D01*
X53059761Y-102897941D01*
X52994394Y-102878647D01*
X53429635Y-102587828D01*
X53732467Y-102134609D01*
X53838807Y-101600000D01*
X53732467Y-101065391D01*
X53429635Y-100612172D01*
X53007336Y-100330000D01*
X53429635Y-100047828D01*
X53732467Y-99594609D01*
X53838807Y-99060000D01*
X53732467Y-98525391D01*
X53429635Y-98072172D01*
X53007336Y-97790000D01*
X53429635Y-97507828D01*
X53732467Y-97054609D01*
X53838807Y-96520000D01*
X53732467Y-95985391D01*
X53429635Y-95532172D01*
X53007336Y-95250000D01*
X53429635Y-94967828D01*
X53732467Y-94514609D01*
X53838807Y-93980000D01*
X53732467Y-93445391D01*
X53429635Y-92992172D01*
X53007336Y-92710000D01*
X53429635Y-92427828D01*
X53732467Y-91974609D01*
X53838807Y-91440000D01*
X53732467Y-90905391D01*
X53429635Y-90452172D01*
X52976416Y-90149340D01*
X52441807Y-90043000D01*
X51698193Y-90043000D01*
X51163584Y-90149340D01*
X50710365Y-90452172D01*
X50407533Y-90905391D01*
X50301193Y-91440000D01*
X50240000Y-91440000D01*
X50240000Y-64839930D01*
X50295478Y-64561021D01*
X50413856Y-64383855D01*
X50591019Y-64265479D01*
X50869931Y-64210000D01*
X101530070Y-64210000D01*
X101808979Y-64265478D01*
G36*
X75913309Y-120814750D02*
X76484187Y-120815248D01*
X76569494Y-120780000D01*
X78247840Y-120780000D01*
X78522637Y-121055278D01*
X79123352Y-121304716D01*
X79515281Y-121305058D01*
X80915109Y-122704886D01*
X80915111Y-122704889D01*
X81034590Y-122784722D01*
X81275222Y-122945507D01*
X81700000Y-123030001D01*
X81700005Y-123030000D01*
X81937731Y-123030000D01*
X81724722Y-123242637D01*
X81475284Y-123843352D01*
X81474716Y-124493795D01*
X81723106Y-125094943D01*
X81756105Y-125128000D01*
X80804587Y-125128000D01*
X80835278Y-125097363D01*
X81084716Y-124496648D01*
X81085284Y-123846205D01*
X80836894Y-123245057D01*
X80377363Y-122784722D01*
X79776648Y-122535284D01*
X79126205Y-122534716D01*
X78525057Y-122783106D01*
X78064722Y-123242637D01*
X77815284Y-123843352D01*
X77814716Y-124493795D01*
X78063106Y-125094943D01*
X78096105Y-125128000D01*
X77476417Y-125128000D01*
X77634750Y-124746691D01*
X77635248Y-124175813D01*
X77417243Y-123648200D01*
X77013923Y-123244176D01*
X76486691Y-123025250D01*
X75915813Y-123024752D01*
X75388200Y-123242757D01*
X74984176Y-123646077D01*
X74765250Y-124173309D01*
X74764752Y-124744187D01*
X74923340Y-125128000D01*
X74304587Y-125128000D01*
X74335278Y-125097363D01*
X74584716Y-124496648D01*
X74585284Y-123846205D01*
X74336894Y-123245057D01*
X73877363Y-122784722D01*
X73276648Y-122535284D01*
X72626205Y-122534716D01*
X72230000Y-122698425D01*
X72230000Y-121500005D01*
X72230001Y-121500000D01*
X72152244Y-121109095D01*
X72623352Y-121304716D01*
X73273795Y-121305284D01*
X73874943Y-121056894D01*
X74152321Y-120780000D01*
X75829622Y-120780000D01*
X75913309Y-120814750D01*
X75913309Y-120814750D01*
G37*
X75913309Y-120814750D02*
X76484187Y-120815248D01*
X76569494Y-120780000D01*
X78247840Y-120780000D01*
X78522637Y-121055278D01*
X79123352Y-121304716D01*
X79515281Y-121305058D01*
X80915109Y-122704886D01*
X80915111Y-122704889D01*
X81034590Y-122784722D01*
X81275222Y-122945507D01*
X81700000Y-123030001D01*
X81700005Y-123030000D01*
X81937731Y-123030000D01*
X81724722Y-123242637D01*
X81475284Y-123843352D01*
X81474716Y-124493795D01*
X81723106Y-125094943D01*
X81756105Y-125128000D01*
X80804587Y-125128000D01*
X80835278Y-125097363D01*
X81084716Y-124496648D01*
X81085284Y-123846205D01*
X80836894Y-123245057D01*
X80377363Y-122784722D01*
X79776648Y-122535284D01*
X79126205Y-122534716D01*
X78525057Y-122783106D01*
X78064722Y-123242637D01*
X77815284Y-123843352D01*
X77814716Y-124493795D01*
X78063106Y-125094943D01*
X78096105Y-125128000D01*
X77476417Y-125128000D01*
X77634750Y-124746691D01*
X77635248Y-124175813D01*
X77417243Y-123648200D01*
X77013923Y-123244176D01*
X76486691Y-123025250D01*
X75915813Y-123024752D01*
X75388200Y-123242757D01*
X74984176Y-123646077D01*
X74765250Y-124173309D01*
X74764752Y-124744187D01*
X74923340Y-125128000D01*
X74304587Y-125128000D01*
X74335278Y-125097363D01*
X74584716Y-124496648D01*
X74585284Y-123846205D01*
X74336894Y-123245057D01*
X73877363Y-122784722D01*
X73276648Y-122535284D01*
X72626205Y-122534716D01*
X72230000Y-122698425D01*
X72230000Y-121500005D01*
X72230001Y-121500000D01*
X72152244Y-121109095D01*
X72623352Y-121304716D01*
X73273795Y-121305284D01*
X73874943Y-121056894D01*
X74152321Y-120780000D01*
X75829622Y-120780000D01*
X75913309Y-120814750D01*
G36*
X81475284Y-99023352D02*
X81474716Y-99673795D01*
X81723106Y-100274943D01*
X82182637Y-100735278D01*
X82783352Y-100984716D01*
X83433795Y-100985284D01*
X83726000Y-100864547D01*
X83726000Y-102335433D01*
X83436648Y-102215284D01*
X82786205Y-102214716D01*
X82185057Y-102463106D01*
X81724722Y-102922637D01*
X81475284Y-103523352D01*
X81474716Y-104173795D01*
X81723106Y-104774943D01*
X82182637Y-105235278D01*
X82783352Y-105484716D01*
X83433795Y-105485284D01*
X83726000Y-105364547D01*
X83726000Y-107995433D01*
X83436648Y-107875284D01*
X82786205Y-107874716D01*
X82185057Y-108123106D01*
X81724722Y-108582637D01*
X81475284Y-109183352D01*
X81474716Y-109833795D01*
X81723106Y-110434943D01*
X82182637Y-110895278D01*
X82783352Y-111144716D01*
X83433795Y-111145284D01*
X83726000Y-111024547D01*
X83726000Y-112495433D01*
X83436648Y-112375284D01*
X82786205Y-112374716D01*
X82185057Y-112623106D01*
X81724722Y-113082637D01*
X81475284Y-113683352D01*
X81474716Y-114333795D01*
X81723106Y-114934943D01*
X82182637Y-115395278D01*
X82783352Y-115644716D01*
X83433795Y-115645284D01*
X83726000Y-115524547D01*
X83726000Y-118155433D01*
X83436648Y-118035284D01*
X82786205Y-118034716D01*
X82185057Y-118283106D01*
X81724722Y-118742637D01*
X81475284Y-119343352D01*
X81474716Y-119993795D01*
X81567059Y-120217282D01*
X81084944Y-119735167D01*
X81085284Y-119346205D01*
X80836894Y-118745057D01*
X80377363Y-118284722D01*
X79776648Y-118035284D01*
X79126205Y-118034716D01*
X78525057Y-118283106D01*
X78247679Y-118560000D01*
X77409057Y-118560000D01*
X77013923Y-118164176D01*
X76486691Y-117945250D01*
X75915813Y-117944752D01*
X75786000Y-117998390D01*
X75786000Y-115681887D01*
X75913309Y-115734750D01*
X76484187Y-115735248D01*
X77011800Y-115517243D01*
X77415824Y-115113923D01*
X77634750Y-114586691D01*
X77634970Y-114333795D01*
X77814716Y-114333795D01*
X78063106Y-114934943D01*
X78522637Y-115395278D01*
X79123352Y-115644716D01*
X79773795Y-115645284D01*
X80374943Y-115396894D01*
X80835278Y-114937363D01*
X81084716Y-114336648D01*
X81085284Y-113686205D01*
X80836894Y-113085057D01*
X80377363Y-112624722D01*
X79776648Y-112375284D01*
X79126205Y-112374716D01*
X78525057Y-112623106D01*
X78064722Y-113082637D01*
X77815284Y-113683352D01*
X77814716Y-114333795D01*
X77634970Y-114333795D01*
X77635248Y-114015813D01*
X77417243Y-113488200D01*
X77013923Y-113084176D01*
X76486691Y-112865250D01*
X75915813Y-112864752D01*
X75786000Y-112918390D01*
X75786000Y-110620000D01*
X75829622Y-110620000D01*
X75913309Y-110654750D01*
X76484187Y-110655248D01*
X76569494Y-110620000D01*
X78247840Y-110620000D01*
X78522637Y-110895278D01*
X79123352Y-111144716D01*
X79773795Y-111145284D01*
X80374943Y-110896894D01*
X80835278Y-110437363D01*
X81084716Y-109836648D01*
X81085284Y-109186205D01*
X80836894Y-108585057D01*
X80377363Y-108124722D01*
X79776648Y-107875284D01*
X79126205Y-107874716D01*
X78525057Y-108123106D01*
X78247679Y-108400000D01*
X77409057Y-108400000D01*
X77013923Y-108004176D01*
X76486691Y-107785250D01*
X75915813Y-107784752D01*
X75786000Y-107838390D01*
X75786000Y-105521887D01*
X75913309Y-105574750D01*
X76484187Y-105575248D01*
X77011800Y-105357243D01*
X77415824Y-104953923D01*
X77634750Y-104426691D01*
X77634970Y-104173795D01*
X77814716Y-104173795D01*
X78063106Y-104774943D01*
X78522637Y-105235278D01*
X79123352Y-105484716D01*
X79773795Y-105485284D01*
X80374943Y-105236894D01*
X80835278Y-104777363D01*
X81084716Y-104176648D01*
X81085284Y-103526205D01*
X80836894Y-102925057D01*
X80377363Y-102464722D01*
X79776648Y-102215284D01*
X79126205Y-102214716D01*
X78525057Y-102463106D01*
X78064722Y-102922637D01*
X77815284Y-103523352D01*
X77814716Y-104173795D01*
X77634970Y-104173795D01*
X77635248Y-103855813D01*
X77417243Y-103328200D01*
X77013923Y-102924176D01*
X76486691Y-102705250D01*
X75915813Y-102704752D01*
X75786000Y-102758390D01*
X75786000Y-100460000D01*
X75829622Y-100460000D01*
X75913309Y-100494750D01*
X76484187Y-100495248D01*
X76569494Y-100460000D01*
X78247840Y-100460000D01*
X78522637Y-100735278D01*
X79123352Y-100984716D01*
X79773795Y-100985284D01*
X80374943Y-100736894D01*
X80835278Y-100277363D01*
X81084716Y-99676648D01*
X81085284Y-99026205D01*
X80928186Y-98646000D01*
X81631974Y-98646000D01*
X81475284Y-99023352D01*
X81475284Y-99023352D01*
G37*
X81475284Y-99023352D02*
X81474716Y-99673795D01*
X81723106Y-100274943D01*
X82182637Y-100735278D01*
X82783352Y-100984716D01*
X83433795Y-100985284D01*
X83726000Y-100864547D01*
X83726000Y-102335433D01*
X83436648Y-102215284D01*
X82786205Y-102214716D01*
X82185057Y-102463106D01*
X81724722Y-102922637D01*
X81475284Y-103523352D01*
X81474716Y-104173795D01*
X81723106Y-104774943D01*
X82182637Y-105235278D01*
X82783352Y-105484716D01*
X83433795Y-105485284D01*
X83726000Y-105364547D01*
X83726000Y-107995433D01*
X83436648Y-107875284D01*
X82786205Y-107874716D01*
X82185057Y-108123106D01*
X81724722Y-108582637D01*
X81475284Y-109183352D01*
X81474716Y-109833795D01*
X81723106Y-110434943D01*
X82182637Y-110895278D01*
X82783352Y-111144716D01*
X83433795Y-111145284D01*
X83726000Y-111024547D01*
X83726000Y-112495433D01*
X83436648Y-112375284D01*
X82786205Y-112374716D01*
X82185057Y-112623106D01*
X81724722Y-113082637D01*
X81475284Y-113683352D01*
X81474716Y-114333795D01*
X81723106Y-114934943D01*
X82182637Y-115395278D01*
X82783352Y-115644716D01*
X83433795Y-115645284D01*
X83726000Y-115524547D01*
X83726000Y-118155433D01*
X83436648Y-118035284D01*
X82786205Y-118034716D01*
X82185057Y-118283106D01*
X81724722Y-118742637D01*
X81475284Y-119343352D01*
X81474716Y-119993795D01*
X81567059Y-120217282D01*
X81084944Y-119735167D01*
X81085284Y-119346205D01*
X80836894Y-118745057D01*
X80377363Y-118284722D01*
X79776648Y-118035284D01*
X79126205Y-118034716D01*
X78525057Y-118283106D01*
X78247679Y-118560000D01*
X77409057Y-118560000D01*
X77013923Y-118164176D01*
X76486691Y-117945250D01*
X75915813Y-117944752D01*
X75786000Y-117998390D01*
X75786000Y-115681887D01*
X75913309Y-115734750D01*
X76484187Y-115735248D01*
X77011800Y-115517243D01*
X77415824Y-115113923D01*
X77634750Y-114586691D01*
X77634970Y-114333795D01*
X77814716Y-114333795D01*
X78063106Y-114934943D01*
X78522637Y-115395278D01*
X79123352Y-115644716D01*
X79773795Y-115645284D01*
X80374943Y-115396894D01*
X80835278Y-114937363D01*
X81084716Y-114336648D01*
X81085284Y-113686205D01*
X80836894Y-113085057D01*
X80377363Y-112624722D01*
X79776648Y-112375284D01*
X79126205Y-112374716D01*
X78525057Y-112623106D01*
X78064722Y-113082637D01*
X77815284Y-113683352D01*
X77814716Y-114333795D01*
X77634970Y-114333795D01*
X77635248Y-114015813D01*
X77417243Y-113488200D01*
X77013923Y-113084176D01*
X76486691Y-112865250D01*
X75915813Y-112864752D01*
X75786000Y-112918390D01*
X75786000Y-110620000D01*
X75829622Y-110620000D01*
X75913309Y-110654750D01*
X76484187Y-110655248D01*
X76569494Y-110620000D01*
X78247840Y-110620000D01*
X78522637Y-110895278D01*
X79123352Y-111144716D01*
X79773795Y-111145284D01*
X80374943Y-110896894D01*
X80835278Y-110437363D01*
X81084716Y-109836648D01*
X81085284Y-109186205D01*
X80836894Y-108585057D01*
X80377363Y-108124722D01*
X79776648Y-107875284D01*
X79126205Y-107874716D01*
X78525057Y-108123106D01*
X78247679Y-108400000D01*
X77409057Y-108400000D01*
X77013923Y-108004176D01*
X76486691Y-107785250D01*
X75915813Y-107784752D01*
X75786000Y-107838390D01*
X75786000Y-105521887D01*
X75913309Y-105574750D01*
X76484187Y-105575248D01*
X77011800Y-105357243D01*
X77415824Y-104953923D01*
X77634750Y-104426691D01*
X77634970Y-104173795D01*
X77814716Y-104173795D01*
X78063106Y-104774943D01*
X78522637Y-105235278D01*
X79123352Y-105484716D01*
X79773795Y-105485284D01*
X80374943Y-105236894D01*
X80835278Y-104777363D01*
X81084716Y-104176648D01*
X81085284Y-103526205D01*
X80836894Y-102925057D01*
X80377363Y-102464722D01*
X79776648Y-102215284D01*
X79126205Y-102214716D01*
X78525057Y-102463106D01*
X78064722Y-102922637D01*
X77815284Y-103523352D01*
X77814716Y-104173795D01*
X77634970Y-104173795D01*
X77635248Y-103855813D01*
X77417243Y-103328200D01*
X77013923Y-102924176D01*
X76486691Y-102705250D01*
X75915813Y-102704752D01*
X75786000Y-102758390D01*
X75786000Y-100460000D01*
X75829622Y-100460000D01*
X75913309Y-100494750D01*
X76484187Y-100495248D01*
X76569494Y-100460000D01*
X78247840Y-100460000D01*
X78522637Y-100735278D01*
X79123352Y-100984716D01*
X79773795Y-100985284D01*
X80374943Y-100736894D01*
X80835278Y-100277363D01*
X81084716Y-99676648D01*
X81085284Y-99026205D01*
X80928186Y-98646000D01*
X81631974Y-98646000D01*
X81475284Y-99023352D01*
G36*
X71315284Y-99023352D02*
X71314716Y-99673795D01*
X71563106Y-100274943D01*
X72022637Y-100735278D01*
X72623352Y-100984716D01*
X73273795Y-100985284D01*
X73566000Y-100864547D01*
X73566000Y-102335433D01*
X73276648Y-102215284D01*
X72626205Y-102214716D01*
X72025057Y-102463106D01*
X71564722Y-102922637D01*
X71315284Y-103523352D01*
X71314716Y-104173795D01*
X71563106Y-104774943D01*
X72022637Y-105235278D01*
X72623352Y-105484716D01*
X73273795Y-105485284D01*
X73566000Y-105364547D01*
X73566000Y-107995433D01*
X73276648Y-107875284D01*
X72626205Y-107874716D01*
X72025057Y-108123106D01*
X71564722Y-108582637D01*
X71315284Y-109183352D01*
X71314716Y-109833795D01*
X71563106Y-110434943D01*
X72022637Y-110895278D01*
X72623352Y-111144716D01*
X73273795Y-111145284D01*
X73566000Y-111024547D01*
X73566000Y-112495433D01*
X73276648Y-112375284D01*
X72626205Y-112374716D01*
X72025057Y-112623106D01*
X71564722Y-113082637D01*
X71315284Y-113683352D01*
X71314716Y-114333795D01*
X71563106Y-114934943D01*
X72022637Y-115395278D01*
X72623352Y-115644716D01*
X73273795Y-115645284D01*
X73566000Y-115524547D01*
X73566000Y-118155433D01*
X73276648Y-118035284D01*
X72626205Y-118034716D01*
X72025057Y-118283106D01*
X71564722Y-118742637D01*
X71315284Y-119343352D01*
X71314716Y-119993795D01*
X71407059Y-120217282D01*
X70924944Y-119735167D01*
X70925284Y-119346205D01*
X70676894Y-118745057D01*
X70217363Y-118284722D01*
X69616648Y-118035284D01*
X68966205Y-118034716D01*
X68365057Y-118283106D01*
X68087679Y-118560000D01*
X67249057Y-118560000D01*
X66853923Y-118164176D01*
X66326691Y-117945250D01*
X65755813Y-117944752D01*
X65626000Y-117998390D01*
X65626000Y-115681887D01*
X65753309Y-115734750D01*
X66324187Y-115735248D01*
X66851800Y-115517243D01*
X67255824Y-115113923D01*
X67474750Y-114586691D01*
X67474970Y-114333795D01*
X67654716Y-114333795D01*
X67903106Y-114934943D01*
X68362637Y-115395278D01*
X68963352Y-115644716D01*
X69613795Y-115645284D01*
X70214943Y-115396894D01*
X70675278Y-114937363D01*
X70924716Y-114336648D01*
X70925284Y-113686205D01*
X70676894Y-113085057D01*
X70217363Y-112624722D01*
X69616648Y-112375284D01*
X68966205Y-112374716D01*
X68365057Y-112623106D01*
X67904722Y-113082637D01*
X67655284Y-113683352D01*
X67654716Y-114333795D01*
X67474970Y-114333795D01*
X67475248Y-114015813D01*
X67257243Y-113488200D01*
X66853923Y-113084176D01*
X66326691Y-112865250D01*
X65755813Y-112864752D01*
X65626000Y-112918390D01*
X65626000Y-110620000D01*
X65669622Y-110620000D01*
X65753309Y-110654750D01*
X66324187Y-110655248D01*
X66409494Y-110620000D01*
X68087840Y-110620000D01*
X68362637Y-110895278D01*
X68963352Y-111144716D01*
X69613795Y-111145284D01*
X70214943Y-110896894D01*
X70675278Y-110437363D01*
X70924716Y-109836648D01*
X70925284Y-109186205D01*
X70676894Y-108585057D01*
X70217363Y-108124722D01*
X69616648Y-107875284D01*
X68966205Y-107874716D01*
X68365057Y-108123106D01*
X68087679Y-108400000D01*
X67249057Y-108400000D01*
X66853923Y-108004176D01*
X66326691Y-107785250D01*
X65755813Y-107784752D01*
X65626000Y-107838390D01*
X65626000Y-105521887D01*
X65753309Y-105574750D01*
X66324187Y-105575248D01*
X66851800Y-105357243D01*
X67255824Y-104953923D01*
X67474750Y-104426691D01*
X67474970Y-104173795D01*
X67654716Y-104173795D01*
X67903106Y-104774943D01*
X68362637Y-105235278D01*
X68963352Y-105484716D01*
X69613795Y-105485284D01*
X70214943Y-105236894D01*
X70675278Y-104777363D01*
X70924716Y-104176648D01*
X70925284Y-103526205D01*
X70676894Y-102925057D01*
X70217363Y-102464722D01*
X69616648Y-102215284D01*
X68966205Y-102214716D01*
X68365057Y-102463106D01*
X67904722Y-102922637D01*
X67655284Y-103523352D01*
X67654716Y-104173795D01*
X67474970Y-104173795D01*
X67475248Y-103855813D01*
X67257243Y-103328200D01*
X66853923Y-102924176D01*
X66326691Y-102705250D01*
X65755813Y-102704752D01*
X65626000Y-102758390D01*
X65626000Y-100460000D01*
X65669622Y-100460000D01*
X65753309Y-100494750D01*
X66324187Y-100495248D01*
X66409494Y-100460000D01*
X68087840Y-100460000D01*
X68362637Y-100735278D01*
X68963352Y-100984716D01*
X69613795Y-100985284D01*
X70214943Y-100736894D01*
X70675278Y-100277363D01*
X70924716Y-99676648D01*
X70925284Y-99026205D01*
X70768186Y-98646000D01*
X71471974Y-98646000D01*
X71315284Y-99023352D01*
X71315284Y-99023352D01*
G37*
X71315284Y-99023352D02*
X71314716Y-99673795D01*
X71563106Y-100274943D01*
X72022637Y-100735278D01*
X72623352Y-100984716D01*
X73273795Y-100985284D01*
X73566000Y-100864547D01*
X73566000Y-102335433D01*
X73276648Y-102215284D01*
X72626205Y-102214716D01*
X72025057Y-102463106D01*
X71564722Y-102922637D01*
X71315284Y-103523352D01*
X71314716Y-104173795D01*
X71563106Y-104774943D01*
X72022637Y-105235278D01*
X72623352Y-105484716D01*
X73273795Y-105485284D01*
X73566000Y-105364547D01*
X73566000Y-107995433D01*
X73276648Y-107875284D01*
X72626205Y-107874716D01*
X72025057Y-108123106D01*
X71564722Y-108582637D01*
X71315284Y-109183352D01*
X71314716Y-109833795D01*
X71563106Y-110434943D01*
X72022637Y-110895278D01*
X72623352Y-111144716D01*
X73273795Y-111145284D01*
X73566000Y-111024547D01*
X73566000Y-112495433D01*
X73276648Y-112375284D01*
X72626205Y-112374716D01*
X72025057Y-112623106D01*
X71564722Y-113082637D01*
X71315284Y-113683352D01*
X71314716Y-114333795D01*
X71563106Y-114934943D01*
X72022637Y-115395278D01*
X72623352Y-115644716D01*
X73273795Y-115645284D01*
X73566000Y-115524547D01*
X73566000Y-118155433D01*
X73276648Y-118035284D01*
X72626205Y-118034716D01*
X72025057Y-118283106D01*
X71564722Y-118742637D01*
X71315284Y-119343352D01*
X71314716Y-119993795D01*
X71407059Y-120217282D01*
X70924944Y-119735167D01*
X70925284Y-119346205D01*
X70676894Y-118745057D01*
X70217363Y-118284722D01*
X69616648Y-118035284D01*
X68966205Y-118034716D01*
X68365057Y-118283106D01*
X68087679Y-118560000D01*
X67249057Y-118560000D01*
X66853923Y-118164176D01*
X66326691Y-117945250D01*
X65755813Y-117944752D01*
X65626000Y-117998390D01*
X65626000Y-115681887D01*
X65753309Y-115734750D01*
X66324187Y-115735248D01*
X66851800Y-115517243D01*
X67255824Y-115113923D01*
X67474750Y-114586691D01*
X67474970Y-114333795D01*
X67654716Y-114333795D01*
X67903106Y-114934943D01*
X68362637Y-115395278D01*
X68963352Y-115644716D01*
X69613795Y-115645284D01*
X70214943Y-115396894D01*
X70675278Y-114937363D01*
X70924716Y-114336648D01*
X70925284Y-113686205D01*
X70676894Y-113085057D01*
X70217363Y-112624722D01*
X69616648Y-112375284D01*
X68966205Y-112374716D01*
X68365057Y-112623106D01*
X67904722Y-113082637D01*
X67655284Y-113683352D01*
X67654716Y-114333795D01*
X67474970Y-114333795D01*
X67475248Y-114015813D01*
X67257243Y-113488200D01*
X66853923Y-113084176D01*
X66326691Y-112865250D01*
X65755813Y-112864752D01*
X65626000Y-112918390D01*
X65626000Y-110620000D01*
X65669622Y-110620000D01*
X65753309Y-110654750D01*
X66324187Y-110655248D01*
X66409494Y-110620000D01*
X68087840Y-110620000D01*
X68362637Y-110895278D01*
X68963352Y-111144716D01*
X69613795Y-111145284D01*
X70214943Y-110896894D01*
X70675278Y-110437363D01*
X70924716Y-109836648D01*
X70925284Y-109186205D01*
X70676894Y-108585057D01*
X70217363Y-108124722D01*
X69616648Y-107875284D01*
X68966205Y-107874716D01*
X68365057Y-108123106D01*
X68087679Y-108400000D01*
X67249057Y-108400000D01*
X66853923Y-108004176D01*
X66326691Y-107785250D01*
X65755813Y-107784752D01*
X65626000Y-107838390D01*
X65626000Y-105521887D01*
X65753309Y-105574750D01*
X66324187Y-105575248D01*
X66851800Y-105357243D01*
X67255824Y-104953923D01*
X67474750Y-104426691D01*
X67474970Y-104173795D01*
X67654716Y-104173795D01*
X67903106Y-104774943D01*
X68362637Y-105235278D01*
X68963352Y-105484716D01*
X69613795Y-105485284D01*
X70214943Y-105236894D01*
X70675278Y-104777363D01*
X70924716Y-104176648D01*
X70925284Y-103526205D01*
X70676894Y-102925057D01*
X70217363Y-102464722D01*
X69616648Y-102215284D01*
X68966205Y-102214716D01*
X68365057Y-102463106D01*
X67904722Y-102922637D01*
X67655284Y-103523352D01*
X67654716Y-104173795D01*
X67474970Y-104173795D01*
X67475248Y-103855813D01*
X67257243Y-103328200D01*
X66853923Y-102924176D01*
X66326691Y-102705250D01*
X65755813Y-102704752D01*
X65626000Y-102758390D01*
X65626000Y-100460000D01*
X65669622Y-100460000D01*
X65753309Y-100494750D01*
X66324187Y-100495248D01*
X66409494Y-100460000D01*
X68087840Y-100460000D01*
X68362637Y-100735278D01*
X68963352Y-100984716D01*
X69613795Y-100985284D01*
X70214943Y-100736894D01*
X70675278Y-100277363D01*
X70924716Y-99676648D01*
X70925284Y-99026205D01*
X70768186Y-98646000D01*
X71471974Y-98646000D01*
X71315284Y-99023352D01*
G36*
X94325057Y-110373106D02*
X93864722Y-110832637D01*
X93615284Y-111433352D01*
X93614716Y-112083795D01*
X93863106Y-112684943D01*
X94322637Y-113145278D01*
X94923352Y-113394716D01*
X95573795Y-113395284D01*
X96174943Y-113146894D01*
X96635278Y-112687363D01*
X96884716Y-112086648D01*
X96885284Y-111436205D01*
X96636894Y-110835057D01*
X96177363Y-110374722D01*
X96069660Y-110330000D01*
X99154503Y-110330000D01*
X99393959Y-110490000D01*
X98971660Y-110772172D01*
X98668828Y-111225391D01*
X98562488Y-111760000D01*
X98595294Y-111924929D01*
X91224447Y-119295775D01*
X90996894Y-118745057D01*
X90537363Y-118284722D01*
X89936648Y-118035284D01*
X89286205Y-118034716D01*
X88685057Y-118283106D01*
X88407679Y-118560000D01*
X87569057Y-118560000D01*
X87173923Y-118164176D01*
X86646691Y-117945250D01*
X86075813Y-117944752D01*
X85946000Y-117998390D01*
X85946000Y-115681887D01*
X86073309Y-115734750D01*
X86644187Y-115735248D01*
X87171800Y-115517243D01*
X87575824Y-115113923D01*
X87794750Y-114586691D01*
X87794970Y-114333795D01*
X87974716Y-114333795D01*
X88223106Y-114934943D01*
X88682637Y-115395278D01*
X89283352Y-115644716D01*
X89933795Y-115645284D01*
X90534943Y-115396894D01*
X90995278Y-114937363D01*
X91244716Y-114336648D01*
X91245284Y-113686205D01*
X90996894Y-113085057D01*
X90537363Y-112624722D01*
X89936648Y-112375284D01*
X89286205Y-112374716D01*
X88685057Y-112623106D01*
X88224722Y-113082637D01*
X87975284Y-113683352D01*
X87974716Y-114333795D01*
X87794970Y-114333795D01*
X87795248Y-114015813D01*
X87577243Y-113488200D01*
X87173923Y-113084176D01*
X86646691Y-112865250D01*
X86075813Y-112864752D01*
X85946000Y-112918390D01*
X85946000Y-110620000D01*
X85989622Y-110620000D01*
X86073309Y-110654750D01*
X86644187Y-110655248D01*
X86729494Y-110620000D01*
X88407840Y-110620000D01*
X88682637Y-110895278D01*
X89283352Y-111144716D01*
X89933795Y-111145284D01*
X90534943Y-110896894D01*
X90995278Y-110437363D01*
X91039859Y-110330000D01*
X94429381Y-110330000D01*
X94325057Y-110373106D01*
X94325057Y-110373106D01*
G37*
X94325057Y-110373106D02*
X93864722Y-110832637D01*
X93615284Y-111433352D01*
X93614716Y-112083795D01*
X93863106Y-112684943D01*
X94322637Y-113145278D01*
X94923352Y-113394716D01*
X95573795Y-113395284D01*
X96174943Y-113146894D01*
X96635278Y-112687363D01*
X96884716Y-112086648D01*
X96885284Y-111436205D01*
X96636894Y-110835057D01*
X96177363Y-110374722D01*
X96069660Y-110330000D01*
X99154503Y-110330000D01*
X99393959Y-110490000D01*
X98971660Y-110772172D01*
X98668828Y-111225391D01*
X98562488Y-111760000D01*
X98595294Y-111924929D01*
X91224447Y-119295775D01*
X90996894Y-118745057D01*
X90537363Y-118284722D01*
X89936648Y-118035284D01*
X89286205Y-118034716D01*
X88685057Y-118283106D01*
X88407679Y-118560000D01*
X87569057Y-118560000D01*
X87173923Y-118164176D01*
X86646691Y-117945250D01*
X86075813Y-117944752D01*
X85946000Y-117998390D01*
X85946000Y-115681887D01*
X86073309Y-115734750D01*
X86644187Y-115735248D01*
X87171800Y-115517243D01*
X87575824Y-115113923D01*
X87794750Y-114586691D01*
X87794970Y-114333795D01*
X87974716Y-114333795D01*
X88223106Y-114934943D01*
X88682637Y-115395278D01*
X89283352Y-115644716D01*
X89933795Y-115645284D01*
X90534943Y-115396894D01*
X90995278Y-114937363D01*
X91244716Y-114336648D01*
X91245284Y-113686205D01*
X90996894Y-113085057D01*
X90537363Y-112624722D01*
X89936648Y-112375284D01*
X89286205Y-112374716D01*
X88685057Y-112623106D01*
X88224722Y-113082637D01*
X87975284Y-113683352D01*
X87974716Y-114333795D01*
X87794970Y-114333795D01*
X87795248Y-114015813D01*
X87577243Y-113488200D01*
X87173923Y-113084176D01*
X86646691Y-112865250D01*
X86075813Y-112864752D01*
X85946000Y-112918390D01*
X85946000Y-110620000D01*
X85989622Y-110620000D01*
X86073309Y-110654750D01*
X86644187Y-110655248D01*
X86729494Y-110620000D01*
X88407840Y-110620000D01*
X88682637Y-110895278D01*
X89283352Y-111144716D01*
X89933795Y-111145284D01*
X90534943Y-110896894D01*
X90995278Y-110437363D01*
X91039859Y-110330000D01*
X94429381Y-110330000D01*
X94325057Y-110373106D01*
M02*
