<?xml version="1.0" encoding="UTF-8" standalone="no"?>
<!-- Created with Inkscape (http://www.inkscape.org/) -->

<svg
   xmlns:dc="http://purl.org/dc/elements/1.1/"
   xmlns:cc="http://creativecommons.org/ns#"
   xmlns:rdf="http://www.w3.org/1999/02/22-rdf-syntax-ns#"
   xmlns:svg="http://www.w3.org/2000/svg"
   xmlns="http://www.w3.org/2000/svg"
   xmlns:sodipodi="http://sodipodi.sourceforge.net/DTD/sodipodi-0.dtd"
   xmlns:inkscape="http://www.inkscape.org/namespaces/inkscape"
   width="3.5600042in"
   height="3.0784361in"
   id="svg2"
   version="1.1"
   inkscape:version="0.91 r13725"
   sodipodi:docname="plate_cut.svg"
   inkscape:export-filename="/home/matthew/repo/wnl_svn/website/arduino_uno_drawing_500x351.png"
   inkscape:export-xdpi="264.01001"
   inkscape:export-ydpi="264.01001">
  <defs
     id="defs4">
    <marker
       inkscape:stockid="Arrow1Lend"
       orient="auto"
       refY="0"
       refX="0"
       id="Arrow1Lend"
       style="overflow:visible">
      <path
         id="path4521"
         d="M 0,0 5,-5 -12.5,0 5,5 0,0 Z"
         style="fill-rule:evenodd;stroke:#000000;stroke-width:1pt;marker-start:none"
         transform="matrix(-0.8,0,0,-0.8,-10,0)"
         inkscape:connector-curvature="0" />
    </marker>
  </defs>
  <sodipodi:namedview
     id="base"
     pagecolor="#ffffff"
     bordercolor="#666666"
     borderopacity="1.0"
     inkscape:pageopacity="1"
     inkscape:pageshadow="2"
     inkscape:zoom="2.4480823"
     inkscape:cx="160.20019"
     inkscape:cy="152.82456"
     inkscape:document-units="in"
     inkscape:current-layer="layer1"
     showgrid="true"
     showguides="false"
     inkscape:guide-bbox="true"
     inkscape:window-width="1572"
     inkscape:window-height="798"
     inkscape:window-x="196"
     inkscape:window-y="206"
     inkscape:window-maximized="0"
     inkscape:snap-global="true"
     fit-margin-top="0"
     fit-margin-left="0"
     fit-margin-right="0"
     fit-margin-bottom="0"
     units="in"
     inkscape:snap-bbox="true"
     inkscape:snap-bbox-midpoints="true"
     inkscape:object-paths="true"
     inkscape:snap-intersection-paths="true"
     inkscape:object-nodes="true">
    <sodipodi:guide
       orientation="0,1"
       position="85.5962,57.169198"
       id="guide3069" />
    <sodipodi:guide
       orientation="1,0"
       position="105.29417,405.16673"
       id="guide3071" />
    <sodipodi:guide
       position="261.29417,141.1692"
       orientation="1e-05,-135"
       id="guide3093" />
    <sodipodi:guide
       position="261.29417,63.169198"
       orientation="1e-05,-135"
       id="guide3101" />
    <sodipodi:guide
       position="261.29417,117.1692"
       orientation="1e-05,-135"
       id="guide3105" />
    <sodipodi:guide
       position="261.29417,137.1692"
       orientation="1e-05,-135"
       id="guide3130" />
    <sodipodi:guide
       position="268.6791,121.1692"
       orientation="0,10.01517"
       id="guide4118" />
    <sodipodi:guide
       position="58.2944,113.1692"
       orientation="0,10.015168"
       id="guide4369" />
    <sodipodi:guide
       position="157.29417,173.95229"
       orientation="10.01516,0"
       id="guide4401" />
    <sodipodi:guide
       position="177.29417,50.794318"
       orientation="8.40461,0"
       id="guide4427" />
    <sodipodi:guide
       position="173.29417,50.794318"
       orientation="8.40461,0"
       id="guide4429" />
    <sodipodi:guide
       position="169.29417,142.84796"
       orientation="8.40461,0"
       id="guide4431" />
    <sodipodi:guide
       position="165.29417,50.794318"
       orientation="8.40461,0"
       id="guide4433" />
    <sodipodi:guide
       position="161.29417,50.794318"
       orientation="8.40461,0"
       id="guide4435" />
    <sodipodi:guide
       position="268.6791,61.169198"
       orientation="0,10.01517"
       id="guide4439" />
    <sodipodi:guide
       position="213.29417,55.754598"
       orientation="3.18206,0"
       id="guide4503" />
    <sodipodi:guide
       position="209.29417,55.754598"
       orientation="3.18206,0"
       id="guide4505" />
    <sodipodi:guide
       position="205.29417,144.35798"
       orientation="3.18206,0"
       id="guide4507" />
    <sodipodi:guide
       position="201.29417,55.754598"
       orientation="3.18206,0"
       id="guide4509" />
    <sodipodi:guide
       position="197.29417,55.754598"
       orientation="3.18206,0"
       id="guide4511" />
    <sodipodi:guide
       position="193.29417,55.754598"
       orientation="3.18206,0"
       id="guide4513" />
    <sodipodi:guide
       position="189.29417,55.754598"
       orientation="3.18206,0"
       id="guide4515" />
    <sodipodi:guide
       position="185.29417,55.754598"
       orientation="3.18206,0"
       id="guide4517" />
    <sodipodi:guide
       position="181.29417,147.05027"
       orientation="4.33466,0"
       id="guide5061" />
    <sodipodi:guide
       position="170.89417,174.17724"
       orientation="10.01516,0"
       id="guide5079" />
    <sodipodi:guide
       position="166.89417,174.17724"
       orientation="10.01516,0"
       id="guide5081" />
    <sodipodi:guide
       position="162.89417,174.17724"
       orientation="10.01516,0"
       id="guide5083" />
    <sodipodi:guide
       position="158.89417,174.17724"
       orientation="10.01516,0"
       id="guide5085" />
    <sodipodi:guide
       position="154.89417,174.17724"
       orientation="10.01516,0"
       id="guide5087" />
    <sodipodi:guide
       position="150.89417,174.17724"
       orientation="10.01516,0"
       id="guide5089" />
    <sodipodi:guide
       position="146.89417,174.17724"
       orientation="10.01516,0"
       id="guide5091" />
    <sodipodi:guide
       position="142.89417,174.17724"
       orientation="10.01516,0"
       id="guide5093" />
    <sodipodi:guide
       position="205.49417,53.116678"
       orientation="5.98976,0"
       id="guide5195" />
    <sodipodi:guide
       position="61.39987,105.1692"
       orientation="0,10.015169"
       id="guide5199" />
    <sodipodi:guide
       position="127.29417,57.169198"
       orientation="4.119,0"
       id="guide4551" />
    <sodipodi:guide
       position="123.29417,166.42977"
       orientation="10.01516,0"
       id="guide5176" />
    <sodipodi:guide
       position="120.29417,166.42977"
       orientation="10.01516,0"
       id="guide5178" />
    <sodipodi:guide
       position="102.29417,166.42977"
       orientation="10.01516,0"
       id="guide5194" />
    <sodipodi:guide
       position="95.29417,166.42977"
       orientation="10.01516,0"
       id="guide5196" />
    <sodipodi:guide
       position="80.19444,108.1692"
       orientation="0,10.015169"
       id="guide5222" />
    <sodipodi:guide
       position="80.19444,126.1692"
       orientation="0,10.015169"
       id="guide5224" />
    <sodipodi:guide
       position="80.19444,62.169198"
       orientation="0,10.015169"
       id="guide5230" />
    <sodipodi:guide
       position="80.19444,76.169198"
       orientation="0,10.015169"
       id="guide5232" />
    <sodipodi:guide
       position="144.62559,145.2882"
       orientation="1e-05,-3.462826"
       id="guide4902" />
    <sodipodi:guide
       position="226.69426,126.17678"
       orientation="10.01516,1e-05"
       id="guide4906" />
    <sodipodi:guide
       position="235.63377,65.169198"
       orientation="0,3.68795"
       id="guide4148" />
    <inkscape:grid
       type="xygrid"
       id="grid5927"
       units="in"
       spacingx="0.09"
       spacingy="0.09"
       empspacing="10"
       empcolor="#ff3f00"
       empopacity="0.25098039"
       originx="72"
       originy="44.999548" />
  </sodipodi:namedview>
  <metadata
     id="metadata7">
    <rdf:RDF>
      <cc:Work
         rdf:about="">
        <dc:format>image/svg+xml</dc:format>
        <dc:type
           rdf:resource="http://purl.org/dc/dcmitype/StillImage" />
        <dc:title></dc:title>
      </cc:Work>
    </rdf:RDF>
  </metadata>
  <g
     inkscape:label="Layer 1"
     inkscape:groupmode="layer"
     id="layer1"
     transform="translate(80.040359,-131.42591)">
    <path
       style="color:#000000;clip-rule:nonzero;display:inline;overflow:visible;visibility:visible;opacity:1;isolation:auto;mix-blend-mode:normal;color-interpolation:sRGB;color-interpolation-filters:linearRGB;solid-color:#000000;solid-opacity:1;fill:#666666;fill-opacity:1;fill-rule:nonzero;stroke:none;stroke-width:0.35433072;stroke-linecap:butt;stroke-linejoin:miter;stroke-miterlimit:4;stroke-dasharray:none;stroke-dashoffset:0;stroke-opacity:1;color-rendering:auto;image-rendering:auto;shape-rendering:auto;text-rendering:auto;enable-background:accumulate"
       d="M 7.1992188,15.300781 C 3.2104194,15.300781 0,18.511201 0,22.5 l 0,243 c 0,3.9888 3.2104194,7.19922 7.1992188,7.19922 l 306.0000012,0 c 3.9888,0 7.20117,-3.21042 7.20117,-7.19922 l 0,-243 c 0,-3.988799 -3.21237,-7.199219 -7.20117,-7.199219 l -306.0000012,0 z M 17.476562,59.052734 a 4.4291339,4.4291339 0 0 1 4.427735,4.429688 4.4291339,4.4291339 0 0 1 -4.427735,4.427734 4.4291339,4.4291339 0 0 1 -4.429687,-4.427734 4.4291339,4.4291339 0 0 1 4.429687,-4.429688 z M 133.19922,66.685547 A 5.3149605,5.3149605 0 0 1 138.51562,72 5.3149605,5.3149605 0 0 1 133.19922,77.314453 5.3149605,5.3149605 0 0 1 127.88477,72 a 5.3149605,5.3149605 0 0 1 5.31445,-5.314453 z m 171,4.5 A 5.3149605,5.3149605 0 0 1 309.51562,76.5 5.3149605,5.3149605 0 0 1 304.19922,81.814453 5.3149605,5.3149605 0 0 1 298.88477,76.5 5.3149605,5.3149605 0 0 1 304.19922,71.185547 Z M 104.28711,118.04883 a 4.4291339,4.4291339 0 0 1 4.42773,4.42969 4.4291339,4.4291339 0 0 1 -4.42773,4.42773 4.4291339,4.4291339 0 0 1 -4.429688,-4.42773 4.4291339,4.4291339 0 0 1 4.429688,-4.42969 z m -86.810548,58.99609 a 4.4291339,4.4291339 0 0 1 4.427735,4.42969 4.4291339,4.4291339 0 0 1 -4.427735,4.42773 4.4291339,4.4291339 0 0 1 -4.429687,-4.42773 4.4291339,4.4291339 0 0 1 4.429687,-4.42969 z m 10.458985,47.25781 0,0.81446 c -0.429687,0.10254 -0.644531,0.44433 -0.644531,1.02539 l 0,6.81836 c 0,0.26367 0.03809,0.46582 0.111328,0.60742 0.06347,0.11719 0.197261,0.21777 0.402344,0.30078 l 0,0.82813 c -0.15625,0 -0.299805,-0.0127 -0.431641,-0.0371 -0.126953,-0.0244 -0.298828,-0.0732 -0.513672,-0.14649 -0.512695,-0.17578 -0.975586,-0.44531 -1.390625,-0.80664 -0.415039,-0.36133 -0.756836,-0.79199 -1.025391,-1.29492 -0.415039,-0.78613 -0.623047,-1.7168 -0.623047,-2.79102 0,-1.04004 0.185547,-1.96386 0.556641,-2.76953 0.371094,-0.80566 0.902344,-1.4375 1.595703,-1.89648 0.400391,-0.26856 0.830079,-0.46094 1.289063,-0.57813 0.19043,-0.0488 0.415039,-0.0742 0.673828,-0.0742 z m 3.677734,0 c 0.136719,0 0.231445,0.0391 0.285157,0.11719 0.05859,0.0733 0.08789,0.19922 0.08789,0.375 l 0,2.84766 c 0,0.37109 -0.136719,0.55664 -0.410156,0.55664 -0.136719,0 -0.238281,-0.0361 -0.306641,-0.10938 -0.06348,-0.0732 -0.125003,-0.2168 -0.183593,-0.43164 -0.07324,-0.27344 -0.206055,-0.5918 -0.396485,-0.95312 -0.190429,-0.36622 -0.373047,-0.65332 -0.548828,-0.86328 -0.200195,-0.24414 -0.424805,-0.42285 -0.673828,-0.53516 -0.249023,-0.11719 -0.558594,-0.18555 -0.929688,-0.20508 l 0,-0.79101 c 0.795899,0.0732 1.450196,0.21972 1.962891,0.43945 0.151367,0.0684 0.268555,0.10352 0.351562,0.10352 0.07813,0 0.136719,-0.0185 0.175782,-0.0527 0.04395,-0.0391 0.128908,-0.14356 0.255859,-0.31445 0.08789,-0.12207 0.198242,-0.1836 0.330078,-0.1836 z m 5.638672,0 0,0.81446 c -0.429687,0.10254 -0.644531,0.44433 -0.644531,1.02539 l 0,6.81836 c 0,0.26367 0.03809,0.46582 0.111328,0.60742 0.06347,0.11719 0.197262,0.21777 0.402344,0.30078 l 0,0.82813 c -0.15625,0 -0.299805,-0.0127 -0.431641,-0.0371 -0.126953,-0.0244 -0.298828,-0.0732 -0.513672,-0.14649 -0.512695,-0.17578 -0.975586,-0.44531 -1.390625,-0.80664 -0.415039,-0.36133 -0.756836,-0.79199 -1.02539,-1.29492 -0.415039,-0.78613 -0.623047,-1.7168 -0.623047,-2.79102 0,-1.04004 0.185547,-1.96386 0.55664,-2.76953 0.371094,-0.80566 0.902344,-1.4375 1.595703,-1.89648 0.400391,-0.26856 0.830079,-0.46094 1.289063,-0.57813 0.19043,-0.0488 0.415039,-0.0742 0.673828,-0.0742 z m 3.677735,0 c 0.136718,0 0.231444,0.0391 0.285156,0.11719 0.05859,0.0733 0.08789,0.19922 0.08789,0.375 l 0,2.84766 c 0,0.37109 -0.136719,0.55664 -0.410156,0.55664 -0.136719,0 -0.238281,-0.0361 -0.30664,-0.10938 -0.06348,-0.0732 -0.125004,-0.2168 -0.183594,-0.43164 -0.07324,-0.27344 -0.206055,-0.5918 -0.396485,-0.95312 -0.19043,-0.36622 -0.373046,-0.65332 -0.548828,-0.86328 -0.200195,-0.24414 -0.424805,-0.42285 -0.673828,-0.53516 -0.249023,-0.11719 -0.558593,-0.18555 -0.929687,-0.20508 l 0,-0.79101 c 0.795898,0.0732 1.450195,0.21972 1.96289,0.43945 0.151368,0.0684 0.268555,0.10352 0.351563,0.10352 0.07812,0 0.136718,-0.0185 0.175781,-0.0527 0.04395,-0.0391 0.128908,-0.14356 0.255859,-0.31445 0.08789,-0.12207 0.198242,-0.1836 0.330079,-0.1836 z m -26.015626,0.19922 1.925782,0 0,0.88477 c -0.229492,0.13183 -0.408203,0.30078 -0.535156,0.50586 -0.209962,0.33203 -0.350587,0.72559 -0.423829,1.17969 l -0.07422,0.44726 c -0.02441,0.1416 -0.07715,0.25293 -0.160157,0.33594 -0.07812,0.0781 -0.17871,0.11719 -0.300781,0.11719 -0.126953,0 -0.231446,-0.043 -0.314453,-0.13086 -0.07813,-0.0879 -0.117185,-0.20411 -0.117188,-0.34571 l 0,-2.99414 z m 2.519532,0 3.251953,0 0,8.60547 c 0,0.19043 0.03613,0.32715 0.109375,0.41016 0.03906,0.0489 0.07519,0.0811 0.109375,0.0957 0.03418,0.01 0.147461,0.039 0.337891,0.0879 0.234374,0.0537 0.351562,0.18753 0.351562,0.40235 0,0.12695 -0.06445,0.22851 -0.191406,0.30664 -0.09277,0.0586 -0.249024,0.0879 -0.46875,0.0879 l -0.240235,0 -3.267578,0 -0.242187,0 c -0.214844,0 -0.37793,-0.0303 -0.490235,-0.0937 -0.107421,-0.0684 -0.160156,-0.16894 -0.160156,-0.30078 0,-0.21484 0.117188,-0.34863 0.351563,-0.40235 0.19043,-0.0488 0.301758,-0.0781 0.335937,-0.0879 0.03418,-0.0147 0.06934,-0.0469 0.103516,-0.0957 0.07324,-0.083 0.109375,-0.21973 0.109375,-0.41016 l 0,-8.60547 z m 3.859375,0 1.925781,0 0,2.99414 c 0,0.1416 -0.04004,0.25782 -0.123047,0.34571 -0.07813,0.0879 -0.18164,0.13086 -0.308594,0.13086 -0.12207,0 -0.223632,-0.0391 -0.30664,-0.11719 -0.07813,-0.083 -0.129883,-0.19434 -0.154297,-0.33594 l -0.07422,-0.44726 c -0.07324,-0.4541 -0.213867,-0.84766 -0.423828,-1.17969 -0.131836,-0.20508 -0.310547,-0.37403 -0.535156,-0.50586 l 0,-0.88477 z m 24.396484,0 2.953125,0 2.035156,8.60547 c 0.03906,0.15137 0.08398,0.28516 0.132813,0.40235 0.04395,0.0928 0.141603,0.16796 0.292969,0.22656 0.126953,0.0537 0.214843,0.10842 0.263672,0.16211 0.04883,0.0537 0.07227,0.12599 0.07227,0.21875 0,0.2539 -0.189453,0.38086 -0.570312,0.38086 l -3.65625,0 c -0.146485,0 -0.263672,-0.0332 -0.351563,-0.10157 -0.08789,-0.0732 -0.130859,-0.16797 -0.130859,-0.28515 0,-0.0977 0.01953,-0.17188 0.05859,-0.22071 0.03906,-0.0488 0.126951,-0.11032 0.263672,-0.18359 0.09766,-0.0488 0.166017,-0.10155 0.205078,-0.16015 0.03906,-0.0586 0.05859,-0.13282 0.05859,-0.22071 0,-0.083 -0.0068,-0.15527 -0.02148,-0.21875 l -0.234375,-1.0625 -2.044922,0 0.199219,-0.87109 1.640625,0 -1.347657,-5.95508 0.181641,-0.7168 z m 9.287109,0 2.953126,0 2.035156,8.60547 c 0.03906,0.15137 0.08398,0.28516 0.132812,0.40235 0.04395,0.0928 0.141604,0.16796 0.292969,0.22656 0.126953,0.0537 0.214844,0.10842 0.263672,0.16211 0.04883,0.0537 0.07227,0.12599 0.07227,0.21875 0,0.2539 -0.189452,0.38086 -0.570312,0.38086 l -3.65625,0 c -0.146484,0 -0.263675,-0.0332 -0.351562,-0.10157 -0.08789,-0.0732 -0.13086,-0.16797 -0.13086,-0.28515 0,-0.0977 0.01953,-0.17188 0.05859,-0.22071 0.03906,-0.0488 0.12695,-0.11032 0.263672,-0.18359 0.09766,-0.0488 0.166015,-0.10155 0.205078,-0.16015 0.03906,-0.0586 0.05859,-0.13282 0.05859,-0.22071 0,-0.083 -0.0068,-0.15527 -0.02148,-0.21875 l -0.234375,-1.0625 -2.044922,0 0.199219,-0.87109 1.640625,0 -1.347656,-5.95508 0.18164,-0.7168 z m -9.791015,1.85938 0.373047,1.51562 -1.296875,4.73243 c -0.03906,0.13671 -0.05859,0.26367 -0.05859,0.38085 0,0.30762 0.143555,0.52637 0.431641,0.65821 l 0.257812,0.11718 c 0.161133,0.0732 0.240237,0.19629 0.240234,0.36719 0,0.24414 -0.176757,0.36524 -0.533203,0.36524 l -1.861328,0 c -0.180664,0 -0.324218,-0.0361 -0.43164,-0.10938 -0.102539,-0.0781 -0.154297,-0.18261 -0.154297,-0.31445 0,-0.1416 0.107422,-0.25879 0.322265,-0.35156 0.200196,-0.0879 0.34668,-0.16602 0.439453,-0.23438 0.09766,-0.0733 0.191407,-0.1709 0.279297,-0.29297 0.136719,-0.20019 0.248047,-0.46679 0.335938,-0.79883 l 1.65625,-6.03515 z m 9.287109,0 0.373047,1.51562 -1.296875,4.73243 c -0.03906,0.13671 -0.05859,0.26367 -0.05859,0.38085 0,0.30762 0.143555,0.52637 0.431641,0.65821 l 0.257813,0.11718 c 0.161132,0.0732 0.240234,0.19629 0.240234,0.36719 0,0.24414 -0.176758,0.36524 -0.533203,0.36524 l -1.861328,0 c -0.180664,0 -0.324219,-0.0361 -0.431641,-0.10938 -0.102539,-0.0781 -0.154297,-0.18261 -0.154297,-0.31445 0,-0.1416 0.107422,-0.25879 0.322266,-0.35156 0.200195,-0.0879 0.34668,-0.16602 0.439453,-0.23438 0.09766,-0.0733 0.191406,-0.1709 0.279297,-0.29297 0.136718,-0.20019 0.248047,-0.46679 0.335937,-0.79883 l 1.65625,-6.03515 z m -25.671875,3.06836 0.242188,0 2.679687,0 c 0.219727,0 0.373047,0.0322 0.460938,0.0957 0.09277,0.0586 0.140625,0.16309 0.140625,0.31445 0,0.0928 -0.01953,0.17091 -0.05859,0.23438 -0.03418,0.0586 -0.101563,0.12307 -0.199219,0.1914 -0.09766,0.0684 -0.157226,0.13086 -0.18164,0.18946 -0.02441,0.0586 -0.03711,0.16602 -0.03711,0.32226 l 0,2.49805 c -0.195312,0.19531 -0.456055,0.39648 -0.783203,0.60156 -0.322266,0.2002 -0.627931,0.35743 -0.916015,0.47461 -0.263672,0.10254 -0.556641,0.18652 -0.878907,0.25 -0.317382,0.0635 -0.597656,0.0957 -0.841797,0.0957 l 0,-0.82813 c 0.141602,-0.0342 0.246094,-0.0762 0.314454,-0.125 0.07324,-0.0488 0.134765,-0.11716 0.183593,-0.20508 0.08301,-0.15136 0.123047,-0.34374 0.123047,-0.57812 l 0,-2.13867 c 0,-0.19043 -0.03613,-0.32715 -0.109375,-0.41016 -0.03418,-0.0488 -0.06738,-0.0781 -0.101562,-0.0879 -0.03418,-0.0147 -0.147462,-0.044 -0.337891,-0.0879 -0.234375,-0.0586 -0.351562,-0.19532 -0.351562,-0.41016 0,-0.12695 0.05469,-0.22461 0.162109,-0.29297 0.112305,-0.0684 0.27539,-0.10351 0.490234,-0.10351 z m 9.316407,0 0.242187,0 2.679687,0 c 0.219727,0 0.373047,0.0322 0.460938,0.0957 0.09277,0.0586 0.140625,0.16309 0.140625,0.31445 0,0.0928 -0.01953,0.17091 -0.05859,0.23438 -0.03418,0.0586 -0.101562,0.12307 -0.199219,0.1914 -0.09766,0.0684 -0.157226,0.13086 -0.18164,0.18946 -0.02441,0.0586 -0.03711,0.16602 -0.03711,0.32226 l 0,2.49805 c -0.195312,0.19531 -0.456054,0.39648 -0.783203,0.60156 -0.322266,0.2002 -0.62793,0.35743 -0.916015,0.47461 -0.263672,0.10254 -0.556641,0.18652 -0.878906,0.25 -0.317383,0.0635 -0.597657,0.0957 -0.841797,0.0957 l 0,-0.82813 c 0.141601,-0.0342 0.246093,-0.0762 0.314453,-0.125 0.07324,-0.0488 0.134765,-0.11716 0.183594,-0.20508 0.08301,-0.15136 0.123046,-0.34374 0.123046,-0.57812 l 0,-2.13867 c 0,-0.19043 -0.03613,-0.32715 -0.109375,-0.41016 -0.03418,-0.0488 -0.06738,-0.0781 -0.101562,-0.0879 -0.03418,-0.0147 -0.147461,-0.044 -0.337891,-0.0879 -0.234374,-0.0586 -0.351562,-0.19532 -0.351562,-0.41016 0,-0.12695 0.05469,-0.22461 0.162109,-0.29297 0.112305,-0.0684 0.275391,-0.10351 0.490235,-0.10351 z m 0.6875,7.4707 0,0.79102 c -0.249024,0.0879 -0.424805,0.20605 -0.527344,0.35742 -0.10254,0.15136 -0.152344,0.37499 -0.152344,0.66797 l 0,6.54687 c 0,0.42969 0.05859,0.73242 0.175781,0.90821 0.09277,0.14648 0.259766,0.25097 0.503907,0.31445 l 0,0.80664 c -1.083985,-0.0879 -1.992188,-0.49512 -2.72461,-1.22266 -0.952148,-0.94726 -1.427734,-2.26855 -1.427734,-3.96289 0,-0.8496 0.124023,-1.61719 0.373047,-2.30078 0.253906,-0.68848 0.627929,-1.27149 1.121093,-1.75 0.375977,-0.36621 0.782227,-0.64356 1.216797,-0.83398 0.43457,-0.19044 0.914063,-0.29786 1.441407,-0.32227 z m 0.601562,0 c 0.527343,0.0244 1.008789,0.13182 1.443359,0.32227 0.439454,0.19042 0.846681,0.46777 1.222657,0.83398 0.996094,0.97168 1.49414,2.32227 1.49414,4.05078 0,1.69434 -0.475585,3.01563 -1.427734,3.96289 -0.732421,0.73243 -1.643555,1.13965 -2.732422,1.22266 l 0,-0.80664 c 0.126953,-0.0293 0.224609,-0.0654 0.292969,-0.10938 0.07324,-0.0488 0.138672,-0.11716 0.197265,-0.20507 0.131836,-0.2002 0.197266,-0.50293 0.197266,-0.90821 l 0,-6.54687 c 0,-0.2588 -0.04297,-0.46387 -0.130859,-0.61524 -0.05859,-0.10254 -0.129883,-0.18359 -0.212891,-0.24218 -0.07813,-0.0586 -0.192383,-0.11427 -0.34375,-0.16797 l 0,-0.79102 z m 63.875,0 0,0.8125 c -0.42969,0.10254 -0.64453,0.44434 -0.64453,1.02539 l 0,6.81836 c 0,0.26367 0.0361,0.46582 0.10937,0.60742 0.0635,0.11719 0.19727,0.21778 0.40235,0.30078 l 0,0.82813 c -0.15625,0 -0.29981,-0.0127 -0.43164,-0.0371 -0.12696,-0.0244 -0.29883,-0.0732 -0.51368,-0.14648 -0.51268,-0.17579 -0.97558,-0.44337 -1.39062,-0.80469 -0.41504,-0.36133 -0.75684,-0.79394 -1.025391,-1.29688 -0.415038,-0.78613 -0.623046,-1.71679 -0.623047,-2.79101 0,-1.04004 0.185548,-1.96192 0.556641,-2.76758 0.371097,-0.80567 0.904297,-1.43946 1.597657,-1.89844 0.40039,-0.26856 0.83008,-0.46094 1.28906,-0.57812 0.19043,-0.0488 0.41504,-0.0723 0.67383,-0.0723 z m 3.67578,0 c 0.13672,0 0.23145,0.0391 0.28516,0.11719 0.0586,0.0732 0.0879,0.19727 0.0879,0.37304 l 0,2.84961 c 0,0.3711 -0.13672,0.55665 -0.41016,0.55665 -0.13672,0 -0.23828,-0.0381 -0.30664,-0.11133 -0.0635,-0.0732 -0.125,-0.2168 -0.18359,-0.43164 -0.0732,-0.27344 -0.2041,-0.58984 -0.39453,-0.95118 -0.19043,-0.3662 -0.37501,-0.65527 -0.55078,-0.86523 -0.2002,-0.24414 -0.42481,-0.42285 -0.67383,-0.53516 -0.24903,-0.11718 -0.5586,-0.18554 -0.92969,-0.20507 l 0,-0.79102 c 0.7959,0.0733 1.45019,0.21973 1.96289,0.43945 0.15137,0.0684 0.26855,0.10352 0.35156,0.10352 0.0781,0 0.13672,-0.0166 0.17578,-0.0508 0.044,-0.0391 0.12891,-0.14552 0.25586,-0.31641 0.0879,-0.12207 0.19825,-0.18164 0.33008,-0.18164 z m -55.986327,0.19141 0.263672,0.0293 c 0.19043,0.0537 0.285156,0.17191 0.285156,0.35743 0,0.19531 -0.09766,0.32812 -0.292969,0.39648 l -0.234374,0.0723 c -0.146485,0.0489 -0.21875,0.21097 -0.21875,0.48437 l 0,6.12305 c 0,0.89355 -0.292969,1.57421 -0.878907,2.04297 -0.27832,0.21972 -0.632812,0.3916 -1.0625,0.51367 -0.429687,0.12695 -0.882813,0.18945 -1.361328,0.18945 -0.08301,0 -0.225586,-0.004 -0.425781,-0.0137 l 0,-0.84961 c 0.03418,-0.0244 0.05957,-0.0429 0.07422,-0.0527 0.09766,-0.0732 0.166015,-0.13184 0.205078,-0.17579 0.04395,-0.0488 0.08008,-0.10739 0.109375,-0.17578 0.05859,-0.16113 0.08789,-0.36621 0.08789,-0.61523 l 0,-6.92969 c 0,-0.30274 -0.08789,-0.47266 -0.263672,-0.51172 l -0.285156,-0.0742 c -0.234375,-0.0586 -0.351562,-0.19239 -0.351562,-0.40234 0,-0.13184 0.05273,-0.2295 0.160156,-0.29297 0.112305,-0.0684 0.27539,-0.10156 0.490234,-0.10156 l 0.242188,-0.008 3.259766,0 0.197265,-0.006 z m -35.507812,0.006 0.191406,0 3.257812,0 0,8.60546 c 0,0.19044 0.03809,0.32715 0.111329,0.41016 0.03906,0.0488 0.07519,0.081 0.109374,0.0957 0.03418,0.01 0.145509,0.0391 0.335938,0.0879 0.234375,0.0537 0.351562,0.18751 0.351562,0.40234 0,0.12695 -0.0625,0.23047 -0.189453,0.30859 -0.09277,0.0586 -0.246093,0.0879 -0.460937,0.0879 l -0.25,0 -3.265625,0 -0.191406,0 c -0.175782,0 -0.3125,-0.0322 -0.410157,-0.0957 -0.09277,-0.0684 -0.138672,-0.16308 -0.138672,-0.28516 0,-0.20019 0.09766,-0.33301 0.292969,-0.39648 0.161133,-0.0537 0.25293,-0.086 0.277344,-0.0957 0.0293,-0.0147 0.0586,-0.044 0.08789,-0.0879 0.05859,-0.0781 0.08789,-0.20216 0.08789,-0.37305 l 0,-7.33203 c 0,-0.1709 -0.0293,-0.29493 -0.08789,-0.37305 -0.02929,-0.0439 -0.05859,-0.0703 -0.08789,-0.0801 -0.02441,-0.0147 -0.11621,-0.0498 -0.277344,-0.10351 -0.195312,-0.0635 -0.292966,-0.19433 -0.292969,-0.39453 0,-0.12207 0.0459,-0.21582 0.138672,-0.2793 0.09766,-0.0684 0.234375,-0.10156 0.410157,-0.10156 z m 4.064453,0 c 1.005859,0 1.748046,0.0947 2.226562,0.28515 0.551758,0.21973 0.990234,0.55762 1.3125,1.01172 0.327148,0.46387 0.490235,1.03125 0.490235,1.70508 0,0.75195 -0.166017,1.36718 -0.498047,1.8457 -0.332032,0.47364 -0.796875,0.82422 -1.392578,1.04883 -0.493164,0.18067 -1.203125,0.26953 -2.13086,0.26953 l 0,-0.7832 c 0.209962,-0.0488 0.356446,-0.10056 0.439453,-0.1543 0.08789,-0.0537 0.163086,-0.13574 0.226563,-0.24805 0.102539,-0.19042 0.154297,-0.44726 0.154297,-0.76953 l 0,-2.34375 c 0,-0.22949 -0.0166,-0.39939 -0.05078,-0.51172 -0.03418,-0.1123 -0.10254,-0.21582 -0.205079,-0.30859 -0.141601,-0.13672 -0.333007,-0.22168 -0.572265,-0.25586 l 0,-0.79101 z m 5.486328,0 0.191406,0 3.257813,0 0,8.60546 c 0,0.19044 0.03809,0.32715 0.111328,0.41016 0.03906,0.0488 0.07519,0.081 0.109375,0.0957 0.03418,0.01 0.145508,0.0391 0.335937,0.0879 0.234375,0.0537 0.351563,0.18751 0.351563,0.40234 0,0.12695 -0.0625,0.23047 -0.189453,0.30859 -0.09277,0.0586 -0.246095,0.0879 -0.460938,0.0879 l -0.25,0 -3.265625,0 -0.191406,0 c -0.175781,0 -0.3125,-0.0322 -0.410156,-0.0957 -0.09277,-0.0684 -0.138672,-0.16308 -0.138672,-0.28516 0,-0.20019 0.09766,-0.33301 0.292968,-0.39648 0.161133,-0.0537 0.25293,-0.086 0.277344,-0.0957 0.02929,-0.0147 0.05859,-0.044 0.08789,-0.0879 0.05859,-0.0781 0.08789,-0.20216 0.08789,-0.37305 l 0,-7.33203 c 0,-0.1709 -0.0293,-0.29493 -0.08789,-0.37305 -0.0293,-0.0439 -0.0586,-0.0703 -0.08789,-0.0801 -0.02441,-0.0147 -0.11621,-0.0498 -0.277344,-0.10351 -0.195312,-0.0635 -0.292968,-0.19433 -0.292968,-0.39453 0,-0.12207 0.0459,-0.21582 0.138672,-0.2793 0.09766,-0.0684 0.234375,-0.10156 0.410156,-0.10156 z m 4.029297,0 0.189453,0 c 0.541992,0 1.003906,0.0195 1.384766,0.0586 0.566406,0.0537 1.07129,0.23928 1.515624,0.55664 0.639649,0.4541 0.958985,1.10156 0.958985,1.94141 0,0.68847 -0.214844,1.25195 -0.644531,1.6914 -0.180664,0.18555 -0.392578,0.33594 -0.636719,0.45313 -0.239258,0.11718 -0.604492,0.25 -1.097656,0.39648 0.449218,0.0684 0.791992,0.14355 1.03125,0.22657 0.24414,0.083 0.464843,0.19628 0.660156,0.33789 0.205078,0.15136 0.361328,0.33105 0.46875,0.54101 0.112305,0.20996 0.167969,0.43164 0.167969,0.66602 l 0,1.51758 c 0,0.15624 0.05176,0.23437 0.154296,0.23437 0.03906,0 0.07128,-0.01 0.0957,-0.0293 0.0293,-0.0244 0.06836,-0.0693 0.117187,-0.13281 0.12207,-0.16602 0.246094,-0.24805 0.373047,-0.24805 0.08301,0 0.165039,0.043 0.248047,0.13086 0.08301,0.0879 0.125,0.17579 0.125,0.26367 0,0.15137 -0.07227,0.33692 -0.21875,0.55665 -0.141601,0.21484 -0.320312,0.40722 -0.535156,0.57812 -0.200196,0.16113 -0.417969,0.27734 -0.652344,0.3457 -0.234375,0.0733 -0.510742,0.10938 -0.828125,0.10938 -0.644531,0 -1.146485,-0.18262 -1.507813,-0.54883 -0.361328,-0.37109 -0.542968,-0.88769 -0.542968,-1.54687 l 0,-1.23047 c 0,-0.27344 -9.93e-4,-0.43067 -0.0059,-0.47461 -0.02441,-0.19532 -0.09277,-0.36426 -0.205078,-0.50586 -0.141602,-0.1709 -0.345703,-0.27148 -0.609375,-0.30078 l 0,-0.78321 c 0.263672,-0.0391 0.452149,-0.10742 0.564453,-0.20507 0.09766,-0.0879 0.163087,-0.18848 0.197266,-0.30079 0.03906,-0.1123 0.05859,-0.27832 0.05859,-0.49804 l 0,-1.94141 c 0,-0.30762 -0.05957,-0.53613 -0.181641,-0.6875 -0.117187,-0.15137 -0.332031,-0.27148 -0.644531,-0.35937 l 0,-0.8125 z m 24.037109,0 0.191406,0 3.257813,0 0,9.99804 -3.257813,0 -0.191406,0 c -0.175781,0 -0.3125,-0.0322 -0.410156,-0.0957 -0.09277,-0.0684 -0.138672,-0.16308 -0.138672,-0.28516 0,-0.20019 0.09766,-0.33301 0.292969,-0.39648 0.161132,-0.0537 0.252931,-0.086 0.277343,-0.0957 0.0293,-0.0147 0.0586,-0.044 0.08789,-0.0879 0.05859,-0.0781 0.08789,-0.20216 0.08789,-0.37305 l 0,-7.33203 c 0,-0.1709 -0.0293,-0.29493 -0.08789,-0.37305 -0.02929,-0.0439 -0.05859,-0.0703 -0.08789,-0.0801 -0.02441,-0.0147 -0.11621,-0.0498 -0.277343,-0.10351 -0.195313,-0.0635 -0.292969,-0.19433 -0.292969,-0.39453 0,-0.12207 0.0459,-0.21582 0.138672,-0.2793 0.09766,-0.0684 0.234375,-0.10156 0.410156,-0.10156 z m 4.101563,0 2.951171,0 0,2.59179 c 0,0.15137 -0.0293,0.26172 -0.08789,0.33008 -0.05859,0.0684 -0.150391,0.10352 -0.277344,0.10352 -0.107422,0 -0.185547,-0.0225 -0.234375,-0.0664 -0.04883,-0.0439 -0.09472,-0.13475 -0.138672,-0.27148 -0.185547,-0.56641 -0.458984,-0.99903 -0.820312,-1.29688 -0.356446,-0.29785 -0.82129,-0.47461 -1.392578,-0.5332 l 0,-0.85742 z m 4.871093,0 0.189454,0 3.267578,0 0.189453,0 c 0.175781,0 0.311523,0.0332 0.404297,0.10156 0.09766,0.0635 0.146484,0.15722 0.146484,0.2793 0,0.2002 -0.09766,0.33105 -0.292969,0.39453 -0.161132,0.0537 -0.257812,0.0889 -0.287109,0.10351 -0.02441,0.01 -0.05078,0.0361 -0.08008,0.0801 -0.05859,0.0781 -0.08789,0.20215 -0.08789,0.37305 l 0,7.33203 c 0,0.27343 0.07129,0.43555 0.212891,0.48437 l 0.226562,0.0723 c 0.185548,0.0586 0.279297,0.19142 0.279297,0.39648 0,0.25391 -0.174804,0.38086 -0.521484,0.38086 l -0.189453,0 -3.267578,0 -0.189454,0 c -0.175781,0 -0.3125,-0.0322 -0.410156,-0.0957 -0.09277,-0.0684 -0.138672,-0.16308 -0.138672,-0.28516 0,-0.20019 0.09766,-0.33301 0.292969,-0.39648 0.161133,-0.0537 0.25293,-0.086 0.277344,-0.0957 0.0293,-0.0147 0.0586,-0.044 0.08789,-0.0879 0.05859,-0.0781 0.08789,-0.20216 0.08789,-0.37305 l 0,-7.33203 c 0,-0.1709 -0.0293,-0.29493 -0.08789,-0.37305 -0.02929,-0.0439 -0.05859,-0.0703 -0.08789,-0.0801 -0.02441,-0.0147 -0.11621,-0.0498 -0.277344,-0.10351 -0.195312,-0.0635 -0.292969,-0.19433 -0.292969,-0.39453 0,-0.12207 0.0459,-0.21582 0.138672,-0.2793 0.09766,-0.0684 0.234375,-0.10156 0.410156,-0.10156 z m 5.742188,0 2.607422,0 c 0.170898,0 0.301758,0.0391 0.394531,0.11718 0.09766,0.0733 0.146484,0.17774 0.146484,0.31446 0,0.20508 -0.111328,0.35156 -0.335937,0.43945 l -0.388672,0.1543 c -0.161133,0.0586 -0.366211,0.18946 -0.615234,0.39453 -0.185548,0.15625 -0.414063,0.41895 -0.6875,0.78515 l -0.50586,0.69532 2.210938,5.78515 c 0.05859,0.15625 0.120114,0.27637 0.183594,0.35938 0.06347,0.0781 0.147458,0.13965 0.25,0.18359 0.102539,0.0488 0.167968,0.0849 0.197265,0.10938 0.06836,0.0684 0.101563,0.15917 0.101563,0.27148 0,0.25879 -0.182618,0.38867 -0.548828,0.38867 l -3.683594,0 c -0.175782,0 -0.3125,-0.0381 -0.410156,-0.11132 -0.09278,-0.0732 -0.138672,-0.17774 -0.138672,-0.31446 0,-0.15625 0.08887,-0.27735 0.269531,-0.36523 0.112305,-0.0537 0.189453,-0.0987 0.228515,-0.13281 0.03906,-0.0391 0.05957,-0.0908 0.06445,-0.1543 0,-0.0342 -0.01953,-0.11233 -0.05859,-0.23438 l -0.9375,-2.79687 c -0.08789,-0.2588 -0.13086,-0.4795 -0.13086,-0.66016 0,-0.1709 0.07129,-0.35645 0.212891,-0.55664 l 1.75,-2.4668 c 0.166015,-0.22948 0.248047,-0.46972 0.248047,-0.71875 0,-0.13672 -0.03613,-0.26367 -0.109375,-0.38086 -0.07324,-0.11718 -0.170898,-0.19922 -0.292969,-0.24804 l -0.263672,-0.11133 c -0.166015,-0.0684 -0.248053,-0.18262 -0.248046,-0.34375 0,-0.13184 0.0498,-0.23926 0.152343,-0.32227 0.06836,-0.0537 0.181641,-0.0801 0.337891,-0.0801 z m 4.269531,0 1.925781,0 0,0.88672 c -0.229492,0.13183 -0.40625,0.29882 -0.533203,0.5039 -0.209961,0.33203 -0.352539,0.72558 -0.425781,1.17969 l -0.07227,0.44726 c -0.02441,0.1416 -0.0791,0.25293 -0.162109,0.33594 -0.07813,0.0781 -0.178711,0.11719 -0.300781,0.11719 -0.126953,0 -0.231446,-0.043 -0.314453,-0.13086 -0.07813,-0.0879 -0.117188,-0.20215 -0.117188,-0.34375 l 0,-2.99609 z m 2.519531,0 3.251954,0 0,8.60546 c 0,0.19044 0.03613,0.32715 0.109374,0.41016 0.03906,0.0488 0.07715,0.081 0.111329,0.0957 0.03418,0.01 0.145508,0.0391 0.335937,0.0879 0.234375,0.0537 0.351563,0.18751 0.351563,0.40234 0,0.12695 -0.0625,0.23047 -0.189453,0.30859 -0.09278,0.0586 -0.249024,0.0879 -0.46875,0.0879 l -0.242188,0 -3.267578,0 -0.240234,0 c -0.214844,0 -0.379883,-0.0322 -0.492188,-0.0957 -0.107422,-0.0684 -0.160156,-0.16895 -0.160156,-0.30078 0,-0.21485 0.117187,-0.34863 0.351562,-0.40234 0.19043,-0.0488 0.301758,-0.0781 0.335938,-0.0879 0.03418,-0.0147 0.06934,-0.0469 0.103515,-0.0957 0.07324,-0.083 0.109375,-0.21972 0.109375,-0.41016 l 0,-8.60546 z m 3.859375,0 1.927735,0 0,2.99609 c 0,0.1416 -0.04199,0.25586 -0.125,0.34375 -0.07813,0.0879 -0.181641,0.13086 -0.308594,0.13086 -0.12207,0 -0.223633,-0.0391 -0.306641,-0.11719 -0.07813,-0.083 -0.129882,-0.19434 -0.154297,-0.33594 l -0.07227,-0.44726 c -0.07324,-0.45411 -0.21582,-0.84766 -0.425781,-1.17969 -0.131836,-0.20508 -0.310547,-0.37208 -0.535157,-0.5039 l 0,-0.88672 z m 2.527344,0 1.925781,0 0,0.88672 c -0.229492,0.13183 -0.40625,0.29882 -0.533203,0.5039 -0.209961,0.33203 -0.352539,0.72558 -0.425781,1.17969 l -0.07227,0.44726 c -0.02441,0.1416 -0.0791,0.25293 -0.162109,0.33594 -0.07813,0.0781 -0.178711,0.11719 -0.300781,0.11719 -0.126953,0 -0.231446,-0.043 -0.314453,-0.13086 -0.07813,-0.0879 -0.117188,-0.20215 -0.117188,-0.34375 l 0,-2.99609 z m 2.519531,0 3.251954,0 0,8.60546 c 0,0.19044 0.03613,0.32715 0.109374,0.41016 0.03906,0.0488 0.07715,0.081 0.111329,0.0957 0.03418,0.01 0.145508,0.0391 0.335937,0.0879 0.234375,0.0537 0.351563,0.18751 0.351563,0.40234 0,0.12695 -0.06251,0.23047 -0.189453,0.30859 -0.09278,0.0586 -0.249024,0.0879 -0.46875,0.0879 l -0.242188,0 -3.267578,0 -0.240234,0 c -0.214844,0 -0.379883,-0.0322 -0.492188,-0.0957 -0.107422,-0.0684 -0.160156,-0.16895 -0.160156,-0.30078 0,-0.21485 0.117187,-0.34863 0.351562,-0.40234 0.19043,-0.0488 0.301758,-0.0781 0.335938,-0.0879 0.03418,-0.0147 0.06934,-0.0469 0.103515,-0.0957 0.07324,-0.083 0.109375,-0.21972 0.109375,-0.41016 l 0,-8.60546 z m 3.859375,0 1.927735,0 0,2.99609 c 0,0.1416 -0.04199,0.25586 -0.125,0.34375 -0.07813,0.0879 -0.181641,0.13086 -0.308594,0.13086 -0.12207,0 -0.223633,-0.0391 -0.306641,-0.11719 -0.07813,-0.083 -0.129882,-0.19434 -0.154297,-0.33594 l -0.07227,-0.44726 c -0.07324,-0.45411 -0.21582,-0.84766 -0.425781,-1.17969 -0.131836,-0.20508 -0.310547,-0.37208 -0.535157,-0.5039 l 0,-0.88672 z m 5.765625,0 2.951172,0 2.035156,8.60546 c 0.03906,0.15137 0.08398,0.28516 0.132813,0.40235 0.04395,0.0928 0.141603,0.16992 0.292969,0.22851 0.126952,0.0537 0.214844,0.10647 0.263672,0.16016 0.04883,0.0537 0.07227,0.12796 0.07227,0.2207 0,0.25391 -0.189453,0.38086 -0.570312,0.38086 l -3.654297,0 c -0.146484,0 -0.263672,-0.0351 -0.351563,-0.10351 -0.08789,-0.0732 -0.132812,-0.16797 -0.132812,-0.28516 0,-0.0977 0.01953,-0.17187 0.05859,-0.2207 0.03906,-0.0488 0.126954,-0.10838 0.263671,-0.18164 0.09766,-0.0488 0.166016,-0.10349 0.205079,-0.16211 0.03906,-0.0586 0.05859,-0.13087 0.05859,-0.21875 0,-0.083 -0.0068,-0.15723 -0.02148,-0.22071 l -0.234375,-1.0625 -2.042969,0 0.197266,-0.87109 1.640625,0 -1.347656,-5.95508 0.183593,-0.71679 z m 16.214846,0 0.1914,0 3.25782,0 0,9.99804 -3.25782,0 -0.1914,0 c -0.17578,0 -0.3125,-0.0322 -0.41016,-0.0957 -0.0928,-0.0684 -0.13867,-0.16308 -0.13867,-0.28516 0,-0.20019 0.0977,-0.33301 0.29297,-0.39648 0.16113,-0.0537 0.25293,-0.086 0.27734,-0.0957 0.0293,-0.0147 0.0586,-0.044 0.0879,-0.0879 0.0586,-0.0781 0.0879,-0.20216 0.0879,-0.37305 l 0,-7.33203 c 0,-0.1709 -0.0293,-0.29493 -0.0879,-0.37305 -0.0293,-0.0439 -0.0586,-0.0703 -0.0879,-0.0801 -0.0244,-0.0147 -0.11621,-0.0498 -0.27734,-0.10351 -0.19531,-0.0635 -0.29297,-0.19433 -0.29297,-0.39453 0,-0.12207 0.0459,-0.21582 0.13867,-0.2793 0.0977,-0.0684 0.23438,-0.10156 0.41016,-0.10156 z m 4.10156,0 2.95117,0 0,2.59179 c 0,0.15137 -0.0293,0.26172 -0.0879,0.33008 -0.0586,0.0684 -0.15039,0.10352 -0.27734,0.10352 -0.10742,0 -0.18555,-0.0225 -0.23438,-0.0664 -0.0488,-0.0439 -0.0947,-0.13475 -0.13867,-0.27148 -0.18555,-0.56641 -0.45898,-0.99903 -0.82031,-1.29688 -0.35645,-0.29785 -0.82129,-0.47461 -1.39258,-0.5332 l 0,-0.85742 z m -20.822265,1.85937 0.373047,1.51758 -1.296875,4.73047 c -0.03906,0.13672 -0.05859,0.26367 -0.05859,0.38086 0,0.30762 0.145508,0.52832 0.433594,0.66015 l 0.255859,0.11719 c 0.161133,0.0732 0.242188,0.19434 0.242188,0.36524 0,0.24414 -0.178715,0.36718 -0.535156,0.36718 l -1.861329,0 c -0.180664,0 -0.324218,-0.0381 -0.43164,-0.11132 -0.102539,-0.0781 -0.154297,-0.18262 -0.154297,-0.31446 0,-0.1416 0.107418,-0.25879 0.322266,-0.35156 0.200195,-0.0879 0.346679,-0.16602 0.439453,-0.23438 0.09766,-0.0732 0.191406,-0.17089 0.279297,-0.29296 0.136718,-0.2002 0.248046,-0.4668 0.335937,-0.79883 l 1.65625,-6.03516 z M 58.5,239.99805 c 0.15625,0 0.263672,0.0615 0.322266,0.18359 0.03418,0.0635 0.05078,0.20702 0.05078,0.43164 l 0,2.79102 c 0,0.22949 -0.02636,0.38672 -0.08008,0.47461 -0.04883,0.0879 -0.140623,0.13281 -0.277344,0.13281 -0.112305,0 -0.200196,-0.0352 -0.263672,-0.10352 -0.06347,-0.0684 -0.115231,-0.18261 -0.154297,-0.34375 -0.08301,-0.33691 -0.203125,-0.59472 -0.359375,-0.77539 -0.151366,-0.18066 -0.349609,-0.30078 -0.59375,-0.35937 l 0,-0.84961 c 0.283203,-0.13672 0.494141,-0.28613 0.63086,-0.44727 0.136719,-0.16113 0.237305,-0.37598 0.300781,-0.64453 0.03906,-0.18555 0.08886,-0.3125 0.152344,-0.38086 0.06347,-0.0732 0.154293,-0.10937 0.271484,-0.10937 z m 56.25,0 c 0.15625,0 0.26367,0.0615 0.32227,0.18359 0.0342,0.0635 0.0508,0.20702 0.0508,0.43164 l 0,2.79102 c 0,0.22949 -0.0264,0.38672 -0.0801,0.47461 -0.0488,0.0879 -0.14062,0.13281 -0.27735,0.13281 -0.1123,0 -0.20019,-0.0352 -0.26367,-0.10352 -0.0635,-0.0684 -0.11523,-0.18261 -0.15429,-0.34375 -0.083,-0.33691 -0.20313,-0.59472 -0.35938,-0.77539 -0.15137,-0.18066 -0.34961,-0.30078 -0.59375,-0.35937 l 0,-0.84961 c 0.2832,-0.13672 0.49414,-0.28613 0.63086,-0.44727 0.13672,-0.16113 0.23731,-0.37598 0.30078,-0.64453 0.0391,-0.18555 0.0889,-0.3125 0.15235,-0.38086 0.0635,-0.0732 0.1543,-0.10937 0.27148,-0.10937 z m -10.60547,2.02929 0.24219,0 2.67969,0 c 0.21972,0 0.375,0.0303 0.46289,0.0937 0.0928,0.0586 0.13867,0.16505 0.13867,0.31641 0,0.0928 -0.0195,0.17089 -0.0586,0.23438 -0.0342,0.0586 -0.0996,0.12109 -0.19727,0.18945 -0.0977,0.0684 -0.15918,0.13281 -0.18359,0.1914 -0.0244,0.0586 -0.0371,0.16602 -0.0371,0.32227 l 0,2.49609 c -0.19532,0.19532 -0.45606,0.39649 -0.78321,0.60157 -0.32226,0.2002 -0.62793,0.35937 -0.91601,0.47656 -0.26367,0.10254 -0.55664,0.18457 -0.87891,0.24805 -0.31738,0.0635 -0.59765,0.0957 -0.8418,0.0957 l 0,-0.82813 c 0.14161,-0.0342 0.2461,-0.0762 0.31446,-0.125 0.0732,-0.0488 0.13476,-0.11715 0.18359,-0.20507 0.083,-0.15137 0.125,-0.34376 0.125,-0.57813 l 0,-2.13867 c 0,-0.19043 -0.0381,-0.32715 -0.11133,-0.41016 -0.0342,-0.0488 -0.0674,-0.0781 -0.10156,-0.0879 -0.0342,-0.0147 -0.14746,-0.044 -0.33789,-0.0879 -0.23437,-0.0586 -0.35156,-0.19531 -0.35156,-0.41015 0,-0.12696 0.0547,-0.22461 0.16211,-0.29297 0.1123,-0.0684 0.27539,-0.10157 0.49023,-0.10157 z m -58.718749,1.25196 c 0.405274,0 0.750001,0.14356 1.033203,0.43164 0.288086,0.2832 0.431641,0.625 0.431641,1.02539 0,0.3125 -0.104492,0.60253 -0.314453,0.87109 -0.141601,0.18066 -0.34668,0.33008 -0.615234,0.44727 -0.08789,0.0439 -0.133789,0.0791 -0.138672,0.10351 -0.0049,0.0244 0.01467,0.0547 0.05859,0.0937 0.04883,0.0342 0.107421,0.0664 0.175782,0.0957 0.07324,0.0293 0.183594,0.0585 0.330078,0.0879 l 0,0.80664 c -0.610352,-0.0977 -1.098633,-0.26661 -1.464844,-0.50586 -0.332031,-0.21973 -0.591796,-0.48926 -0.777344,-0.80664 -0.180664,-0.32227 -0.271484,-0.66505 -0.271484,-1.03125 0,-0.44434 0.152343,-0.8252 0.455078,-1.14258 0.307617,-0.31738 0.672852,-0.47656 1.097656,-0.47656 z m 14.44336,0.6875 c 0.136718,0 0.233398,0.042 0.287109,0.125 0.05371,0.0781 0.08008,0.21777 0.08008,0.41797 l 0,2.58593 -3.046875,0 0,-0.79101 c 0.317383,-0.0488 0.578125,-0.11716 0.783203,-0.20508 0.209962,-0.0879 0.420899,-0.22364 0.63086,-0.4043 0.209961,-0.18066 0.375982,-0.36621 0.498046,-0.55664 0.126954,-0.19531 0.245118,-0.45019 0.357422,-0.76758 0.05371,-0.15624 0.111331,-0.26269 0.169922,-0.3164 0.05859,-0.0586 0.137695,-0.0879 0.240235,-0.0879 z m 56.249999,0 c 0.13672,0 0.2334,0.042 0.28711,0.125 0.0537,0.0781 0.0801,0.21777 0.0801,0.41797 l 0,2.58593 -3.04688,0 0,-0.79101 c 0.31739,-0.0488 0.57813,-0.11716 0.78321,-0.20508 0.20996,-0.0879 0.42089,-0.22364 0.63086,-0.4043 0.20996,-0.18066 0.37597,-0.36621 0.49804,-0.55664 0.12696,-0.19531 0.24512,-0.45019 0.35742,-0.76758 0.0537,-0.15624 0.11133,-0.26269 0.16993,-0.3164 0.0586,-0.0586 0.13769,-0.0879 0.24023,-0.0879 z m -29.134765,5.60937 0.197266,0 c 0.507812,0 0.992187,0.0869 1.451171,0.25781 0.463871,0.16602 0.848634,0.39746 1.15625,0.69532 0.517579,0.50292 0.777344,1.13769 0.777344,1.90429 0,0.65918 -0.195312,1.24512 -0.585937,1.75782 -0.385742,0.50781 -0.935547,0.90527 -1.648438,1.19336 l -0.958984,0.38085 c -0.27832,0.11231 -0.671875,0.30762 -1.179688,0.58594 l -0.220703,0.125 c -0.195312,0 -0.381836,0.0263 -0.5625,0.0801 -0.180664,0.0488 -0.443359,0.14646 -0.785156,0.29297 0.175781,-0.23437 0.351562,-0.43652 0.527344,-0.60742 0.180664,-0.1709 0.450195,-0.39551 0.80664,-0.67383 0.458985,-0.35645 0.765625,-0.61329 0.921875,-0.76953 0.161133,-0.16114 0.297852,-0.34668 0.410157,-0.55664 0.112304,-0.21485 0.193359,-0.46582 0.242187,-0.75391 0.05371,-0.29297 0.08008,-0.66113 0.08008,-1.10547 0,-0.78125 -0.06836,-1.3086 -0.205078,-1.58203 -0.05371,-0.10743 -0.112304,-0.19141 -0.175781,-0.25 -0.05859,-0.0586 -0.140625,-0.11719 -0.248047,-0.17578 l 0,-0.79883 z m 8.773437,0 0,0.76172 c -0.136718,0.0439 -0.231444,0.083 -0.285156,0.11719 -0.05371,0.0293 -0.105471,0.0771 -0.154297,0.14062 -0.141602,0.18066 -0.210937,0.44141 -0.210937,0.78321 l 0,6.64257 c 0,0.3418 0.06933,0.60254 0.210937,0.78321 0.04883,0.0635 0.100585,0.1123 0.154297,0.14648 0.05371,0.0293 0.14844,0.0674 0.285156,0.11133 l 0,0.76172 c -0.512695,-0.0635 -0.968749,-0.20897 -1.36914,-0.4336 -0.395508,-0.22948 -0.763672,-0.55858 -1.105469,-0.98828 -0.375977,-0.46874 -0.662109,-1.01855 -0.857422,-1.64843 -0.195312,-0.62989 -0.292969,-1.31446 -0.292969,-2.05664 0,-0.73731 0.09766,-1.42091 0.292969,-2.05079 0.195313,-0.62988 0.481445,-1.17969 0.857422,-1.64843 0.341797,-0.42969 0.709961,-0.75781 1.105469,-0.98243 0.400391,-0.22948 0.856445,-0.37597 1.36914,-0.43945 z m 0.564454,0 c 0.512695,0.0635 0.967774,0.20999 1.363281,0.43945 0.400391,0.22462 0.771484,0.55274 1.113281,0.98243 0.375976,0.46874 0.660156,1.01855 0.855469,1.64843 0.195313,0.62988 0.292969,1.31348 0.292969,2.05079 0,0.74218 -0.09766,1.42675 -0.292969,2.05664 -0.195313,0.62988 -0.479493,1.17969 -0.855469,1.64843 -0.341797,0.4297 -0.71289,0.7588 -1.113281,0.98828 -0.395507,0.22462 -0.850586,0.37013 -1.363281,0.4336 l 0,-0.76172 c 0.136718,-0.0439 0.231445,-0.082 0.285156,-0.11133 0.05371,-0.0342 0.105471,-0.083 0.154297,-0.14648 0.141601,-0.18067 0.21289,-0.44141 0.21289,-0.78321 l 0,-6.64257 c 0,-0.3418 -0.07129,-0.60255 -0.21289,-0.78321 -0.04883,-0.0635 -0.100584,-0.11132 -0.154297,-0.14062 -0.05371,-0.0342 -0.14844,-0.0733 -0.285156,-0.11719 l 0,-0.76172 z m 16.669924,0 c 0.17578,0 0.33203,0.0127 0.46875,0.0371 0.13672,0.0244 0.33496,0.0791 0.59375,0.16211 0.40039,0.12207 0.66796,0.20996 0.80469,0.26367 0.29295,0.1123 0.53027,0.17188 0.71093,0.18164 0.11231,0.005 0.22559,-0.0549 0.33789,-0.18164 l 0.0801,-0.10351 c 0.0781,-0.0879 0.15625,-0.13086 0.23438,-0.13086 0.0684,0 0.12988,0.0293 0.18359,0.0879 0.0537,0.0537 0.0801,0.11623 0.0801,0.18945 0,0.13672 -0.0449,0.32813 -0.13281,0.57227 -0.0879,0.23926 -0.19239,0.46387 -0.31446,0.67382 -0.20019,0.34669 -0.44824,0.60059 -0.74609,0.76172 -0.29297,0.15625 -0.6543,0.23438 -1.08399,0.23438 -0.18554,0 -0.35058,-0.0127 -0.49218,-0.0371 -0.13672,-0.0244 -0.52149,-0.11229 -1.15625,-0.26367 -0.62012,-0.14649 -1.06543,-0.22071 -1.33399,-0.22071 -0.24414,0 -0.42383,0.0772 -0.54101,0.22852 -0.11231,0.15137 -0.16797,0.38574 -0.16797,0.70313 l 0,0.16015 -0.56446,0 0.46094,-3.11914 0.54297,0 -0.11133,0.84961 c 0.38086,-0.37109 0.73828,-0.63769 1.07032,-0.79883 0.33203,-0.16601 0.69042,-0.25 1.07617,-0.25 z m -26.652346,0.0234 0,0.77539 c -0.136719,0.0293 -0.25,0.0713 -0.337891,0.125 -0.08301,0.0537 -0.12207,0.10646 -0.117187,0.16016 0.0098,0.0684 0.07715,0.14257 0.199218,0.2207 0.219727,0.15137 0.376953,0.31445 0.47461,0.49023 0.09766,0.17579 0.146484,0.3877 0.146484,0.63672 0,0.3711 -0.140625,0.69239 -0.423828,0.96094 -0.27832,0.26856 -0.607422,0.40234 -0.988281,0.40234 -0.415039,0 -0.762696,-0.14257 -1.041016,-0.42578 -0.27832,-0.28808 -0.417969,-0.64356 -0.417969,-1.06836 0,-0.40039 0.120118,-0.77441 0.359375,-1.12109 0.244141,-0.34668 0.573243,-0.62012 0.988282,-0.82031 0.263671,-0.12696 0.65039,-0.23828 1.158203,-0.33594 z m 19.730466,0.10156 0,8.60547 c 0,0.19043 0.0381,0.32714 0.11133,0.41016 0.0391,0.0488 0.0752,0.081 0.10938,0.0957 0.0342,0.01 0.1455,0.0391 0.33593,0.0879 0.23438,0.0537 0.35157,0.18752 0.35157,0.40234 0,0.12696 -0.0625,0.23047 -0.18946,0.3086 -0.0928,0.0586 -0.24608,0.0879 -0.46094,0.0879 l -0.25,0 -2.8125,0 -0.24218,0 c -0.21973,0 -0.37305,-0.0293 -0.46094,-0.0879 -0.12695,-0.0781 -0.18945,-0.18164 -0.18945,-0.3086 0,-0.21484 0.11718,-0.34863 0.35156,-0.40234 0.19043,-0.0488 0.30176,-0.0781 0.33594,-0.0879 0.0342,-0.0147 0.0693,-0.0469 0.10351,-0.0957 0.0732,-0.083 0.10938,-0.21973 0.10938,-0.41016 l 0,-6.85547 c 0,-0.2539 -0.0264,-0.43945 -0.0801,-0.55664 -0.0488,-0.11719 -0.12988,-0.18262 -0.24219,-0.19726 l -0.25586,-0.0371 c -0.22949,-0.0342 -0.3457,-0.15139 -0.3457,-0.35157 0,-0.15624 0.0742,-0.27734 0.2207,-0.36523 0.0732,-0.0391 0.22364,-0.0654 0.45313,-0.0801 l 3.04687,-0.16211 z m 45.12891,1.48438 a 5.3149605,5.3149605 0 0 1 5.3164,5.31445 5.3149605,5.3149605 0 0 1 -5.3164,5.31445 5.3149605,5.3149605 0 0 1 -5.31445,-5.31445 5.3149605,5.3149605 0 0 1 5.31445,-5.31445 z m 99,0 a 5.3149605,5.3149605 0 0 1 5.3164,5.31445 5.3149605,5.3149605 0 0 1 -5.3164,5.31445 5.3149605,5.3149605 0 0 1 -5.31445,-5.31445 5.3149605,5.3149605 0 0 1 5.31445,-5.31445 z m -134.83399,1.45312 c -0.31738,0.62012 -0.53906,1.1416 -0.66601,1.56641 -0.19531,0.64941 -0.29297,1.22851 -0.29297,1.73633 0,0.20019 0.0137,0.3916 0.043,0.57226 l 0.14062,0.8125 c 0.044,0.2588 0.0645,0.5127 0.0645,0.76172 0,0.55664 -0.16993,0.99023 -0.51172,1.30273 -0.3125,0.2881 -0.67383,0.4336 -1.08399,0.4336 -0.46875,0 -0.85546,-0.18458 -1.1582,-0.55078 -0.29785,-0.36622 -0.44531,-0.83203 -0.44531,-1.39844 0,-0.58594 0.17285,-1.19141 0.51953,-1.81641 0.10742,-0.20019 0.24121,-0.40527 0.40234,-0.61523 0.16602,-0.20996 0.43653,-0.52637 0.8125,-0.95117 0.39063,-0.43946 0.67383,-0.77442 0.84961,-1.00391 0.18067,-0.22949 0.31055,-0.42773 0.38867,-0.59375 0.26856,-0.0244 0.58106,-0.10936 0.9375,-0.25586 z m -24.857418,3.8086 c 0.107422,-0.005 0.195313,0.0383 0.263672,0.13085 0.07324,0.0928 0.109375,0.21583 0.109375,0.36719 0,0.33692 -0.09082,0.71485 -0.271484,1.13477 -0.175781,0.41504 -0.387695,0.75 -0.636719,1.0039 -0.214843,0.21973 -0.481445,0.39845 -0.798828,0.53516 -0.317383,0.13672 -0.617199,0.20508 -0.90039,0.20508 -0.341797,0 -0.703125,-0.0576 -1.083985,-0.16992 l -0.966797,-0.28516 c -0.541992,-0.15625 -0.893554,-0.23437 -1.054687,-0.23437 -0.214844,0 -0.442383,0.10352 -0.681641,0.30859 -0.151367,0.12695 -0.265625,0.18945 -0.34375,0.18945 -0.112305,0 -0.200195,-0.0361 -0.263672,-0.10937 -0.05859,-0.0732 -0.08789,-0.17774 -0.08789,-0.31446 0,-0.26367 0.06152,-0.5332 0.183593,-0.80664 0.122071,-0.27343 0.288086,-0.51171 0.498047,-0.71679 0.444336,-0.43457 1.049805,-0.65235 1.816406,-0.65235 0.356449,0 0.835938,0.0557 1.441407,0.16797 0.883789,0.16602 1.459961,0.25 1.728515,0.25 0.234375,0 0.40918,-0.0586 0.521485,-0.17578 0.03906,-0.0439 0.06836,-0.0928 0.08789,-0.14648 0.02441,-0.0586 0.05371,-0.16212 0.08789,-0.3086 0.05371,-0.23925 0.1709,-0.36328 0.351562,-0.37304 z"
       transform="translate(-80.040359,135.78595)"
       id="rect5564"
       inkscape:connector-curvature="0" />
    <path
       style="color:#000000;clip-rule:nonzero;display:inline;overflow:visible;visibility:visible;opacity:1;isolation:auto;mix-blend-mode:normal;color-interpolation:sRGB;color-interpolation-filters:linearRGB;solid-color:#000000;solid-opacity:1;fill:#666666;fill-opacity:1;fill-rule:nonzero;stroke:none;stroke-width:0.35433072;stroke-linecap:butt;stroke-linejoin:miter;stroke-miterlimit:4;stroke-dasharray:none;stroke-dashoffset:0;stroke-opacity:1;color-rendering:auto;image-rendering:auto;shape-rendering:auto;text-rendering:auto;enable-background:accumulate"
       d="m -71.182937,131.42736 a 8.8582678,8.8582678 0 0 0 -8.857422,8.85938 8.8582678,8.8582678 0 0 0 8.857422,8.85742 8.8582678,8.8582678 0 0 0 8.859375,-8.85742 8.8582678,8.8582678 0 0 0 -8.859375,-8.85938 z m 0,3.54297 a 5.3149605,5.3149605 0 0 1 5.316406,5.31641 5.3149605,5.3149605 0 0 1 -5.316406,5.31445 5.3149605,5.3149605 0 0 1 -5.314454,-5.31445 5.3149605,5.3149605 0 0 1 5.314454,-5.31641 z"
       id="path6533"
       inkscape:connector-curvature="0" />
    <path
       inkscape:connector-curvature="0"
       id="path6538"
       d="m -49.582937,131.42736 a 8.8582678,8.8582678 0 0 0 -8.857422,8.85938 8.8582678,8.8582678 0 0 0 8.857422,8.85742 8.8582678,8.8582678 0 0 0 8.859375,-8.85742 8.8582678,8.8582678 0 0 0 -8.859375,-8.85938 z m 0,3.54297 a 5.3149605,5.3149605 0 0 1 5.316406,5.31641 5.3149605,5.3149605 0 0 1 -5.316406,5.31445 5.3149605,5.3149605 0 0 1 -5.314454,-5.31445 5.3149605,5.3149605 0 0 1 5.314454,-5.31641 z"
       style="color:#000000;clip-rule:nonzero;display:inline;overflow:visible;visibility:visible;opacity:1;isolation:auto;mix-blend-mode:normal;color-interpolation:sRGB;color-interpolation-filters:linearRGB;solid-color:#000000;solid-opacity:1;fill:#666666;fill-opacity:1;fill-rule:nonzero;stroke:none;stroke-width:0.35433072;stroke-linecap:butt;stroke-linejoin:miter;stroke-miterlimit:4;stroke-dasharray:none;stroke-dashoffset:0;stroke-opacity:1;color-rendering:auto;image-rendering:auto;shape-rendering:auto;text-rendering:auto;enable-background:accumulate" />
    <path
       style="color:#000000;clip-rule:nonzero;display:inline;overflow:visible;visibility:visible;opacity:1;isolation:auto;mix-blend-mode:normal;color-interpolation:sRGB;color-interpolation-filters:linearRGB;solid-color:#000000;solid-opacity:1;fill:#666666;fill-opacity:1;fill-rule:nonzero;stroke:none;stroke-width:0.35433072;stroke-linecap:butt;stroke-linejoin:miter;stroke-miterlimit:4;stroke-dasharray:none;stroke-dashoffset:0;stroke-opacity:1;color-rendering:auto;image-rendering:auto;shape-rendering:auto;text-rendering:auto;enable-background:accumulate"
       d="m -27.982937,131.42591 a 8.8582678,8.8582678 0 0 0 -8.857422,8.85938 8.8582678,8.8582678 0 0 0 8.857422,8.85742 8.8582678,8.8582678 0 0 0 8.859375,-8.85742 8.8582678,8.8582678 0 0 0 -8.859375,-8.85938 z m 0,3.54297 a 5.3149605,5.3149605 0 0 1 5.316406,5.31641 5.3149605,5.3149605 0 0 1 -5.316406,5.31445 5.3149605,5.3149605 0 0 1 -5.314454,-5.31445 5.3149605,5.3149605 0 0 1 5.314454,-5.31641 z"
       id="path6540"
       inkscape:connector-curvature="0" />
    <path
       inkscape:connector-curvature="0"
       id="path6542"
       d="m -6.3829369,131.42591 a 8.8582678,8.8582678 0 0 0 -8.8574221,8.85938 8.8582678,8.8582678 0 0 0 8.8574221,8.85742 8.8582678,8.8582678 0 0 0 8.859375,-8.85742 8.8582678,8.8582678 0 0 0 -8.859375,-8.85938 z m 0,3.54297 a 5.3149605,5.3149605 0 0 1 5.316406,5.31641 5.3149605,5.3149605 0 0 1 -5.316406,5.31445 5.3149605,5.3149605 0 0 1 -5.3144541,-5.31445 5.3149605,5.3149605 0 0 1 5.3144541,-5.31641 z"
       style="color:#000000;clip-rule:nonzero;display:inline;overflow:visible;visibility:visible;opacity:1;isolation:auto;mix-blend-mode:normal;color-interpolation:sRGB;color-interpolation-filters:linearRGB;solid-color:#000000;solid-opacity:1;fill:#666666;fill-opacity:1;fill-rule:nonzero;stroke:none;stroke-width:0.35433072;stroke-linecap:butt;stroke-linejoin:miter;stroke-miterlimit:4;stroke-dasharray:none;stroke-dashoffset:0;stroke-opacity:1;color-rendering:auto;image-rendering:auto;shape-rendering:auto;text-rendering:auto;enable-background:accumulate" />
    <path
       style="color:#000000;clip-rule:nonzero;display:inline;overflow:visible;visibility:visible;opacity:1;isolation:auto;mix-blend-mode:normal;color-interpolation:sRGB;color-interpolation-filters:linearRGB;solid-color:#000000;solid-opacity:1;fill:#666666;fill-opacity:1;fill-rule:nonzero;stroke:none;stroke-width:0.35433072;stroke-linecap:butt;stroke-linejoin:miter;stroke-miterlimit:4;stroke-dasharray:none;stroke-dashoffset:0;stroke-opacity:1;color-rendering:auto;image-rendering:auto;shape-rendering:auto;text-rendering:auto;enable-background:accumulate"
       d="m 15.217063,131.42736 a 8.8582678,8.8582678 0 0 0 -8.8574219,8.85938 8.8582678,8.8582678 0 0 0 8.8574219,8.85742 8.8582678,8.8582678 0 0 0 8.859375,-8.85742 8.8582678,8.8582678 0 0 0 -8.859375,-8.85938 z m 0,3.54297 a 5.3149605,5.3149605 0 0 1 5.316406,5.31641 5.3149605,5.3149605 0 0 1 -5.316406,5.31445 5.3149605,5.3149605 0 0 1 -5.3144539,-5.31445 5.3149605,5.3149605 0 0 1 5.3144539,-5.31641 z"
       id="path6544"
       inkscape:connector-curvature="0" />
    <path
       inkscape:connector-curvature="0"
       id="path6546"
       d="m 36.817063,131.42736 a 8.8582678,8.8582678 0 0 0 -8.857422,8.85938 8.8582678,8.8582678 0 0 0 8.857422,8.85742 8.8582678,8.8582678 0 0 0 8.859375,-8.85742 8.8582678,8.8582678 0 0 0 -8.859375,-8.85938 z m 0,3.54297 a 5.3149605,5.3149605 0 0 1 5.316406,5.31641 5.3149605,5.3149605 0 0 1 -5.316406,5.31445 5.3149605,5.3149605 0 0 1 -5.314454,-5.31445 5.3149605,5.3149605 0 0 1 5.314454,-5.31641 z"
       style="color:#000000;clip-rule:nonzero;display:inline;overflow:visible;visibility:visible;opacity:1;isolation:auto;mix-blend-mode:normal;color-interpolation:sRGB;color-interpolation-filters:linearRGB;solid-color:#000000;solid-opacity:1;fill:#666666;fill-opacity:1;fill-rule:nonzero;stroke:none;stroke-width:0.35433072;stroke-linecap:butt;stroke-linejoin:miter;stroke-miterlimit:4;stroke-dasharray:none;stroke-dashoffset:0;stroke-opacity:1;color-rendering:auto;image-rendering:auto;shape-rendering:auto;text-rendering:auto;enable-background:accumulate" />
    <path
       style="color:#000000;clip-rule:nonzero;display:inline;overflow:visible;visibility:visible;opacity:1;isolation:auto;mix-blend-mode:normal;color-interpolation:sRGB;color-interpolation-filters:linearRGB;solid-color:#000000;solid-opacity:1;fill:#666666;fill-opacity:1;fill-rule:nonzero;stroke:none;stroke-width:0.35433072;stroke-linecap:butt;stroke-linejoin:miter;stroke-miterlimit:4;stroke-dasharray:none;stroke-dashoffset:0;stroke-opacity:1;color-rendering:auto;image-rendering:auto;shape-rendering:auto;text-rendering:auto;enable-background:accumulate"
       d="m 58.417063,131.42591 a 8.8582678,8.8582678 0 0 0 -8.857422,8.85938 8.8582678,8.8582678 0 0 0 8.857422,8.85742 8.8582678,8.8582678 0 0 0 8.859375,-8.85742 8.8582678,8.8582678 0 0 0 -8.859375,-8.85938 z m 0,3.54297 a 5.3149605,5.3149605 0 0 1 5.316406,5.31641 5.3149605,5.3149605 0 0 1 -5.316406,5.31445 5.3149605,5.3149605 0 0 1 -5.314454,-5.31445 5.3149605,5.3149605 0 0 1 5.314454,-5.31641 z"
       id="path6548"
       inkscape:connector-curvature="0" />
    <path
       inkscape:connector-curvature="0"
       id="path6550"
       d="m 80.017063,131.42736 a 8.8582678,8.8582678 0 0 0 -8.857422,8.85938 8.8582678,8.8582678 0 0 0 8.857422,8.85742 8.8582678,8.8582678 0 0 0 8.859375,-8.85742 8.8582678,8.8582678 0 0 0 -8.859375,-8.85938 z m 0,3.54297 a 5.3149605,5.3149605 0 0 1 5.316406,5.31641 5.3149605,5.3149605 0 0 1 -5.316406,5.31445 5.3149605,5.3149605 0 0 1 -5.314454,-5.31445 5.3149605,5.3149605 0 0 1 5.314454,-5.31641 z"
       style="color:#000000;clip-rule:nonzero;display:inline;overflow:visible;visibility:visible;opacity:1;isolation:auto;mix-blend-mode:normal;color-interpolation:sRGB;color-interpolation-filters:linearRGB;solid-color:#000000;solid-opacity:1;fill:#666666;fill-opacity:1;fill-rule:nonzero;stroke:none;stroke-width:0.35433072;stroke-linecap:butt;stroke-linejoin:miter;stroke-miterlimit:4;stroke-dasharray:none;stroke-dashoffset:0;stroke-opacity:1;color-rendering:auto;image-rendering:auto;shape-rendering:auto;text-rendering:auto;enable-background:accumulate" />
    <path
       style="color:#000000;clip-rule:nonzero;display:inline;overflow:visible;visibility:visible;opacity:1;isolation:auto;mix-blend-mode:normal;color-interpolation:sRGB;color-interpolation-filters:linearRGB;solid-color:#000000;solid-opacity:1;fill:#666666;fill-opacity:1;fill-rule:nonzero;stroke:none;stroke-width:0.35433072;stroke-linecap:butt;stroke-linejoin:miter;stroke-miterlimit:4;stroke-dasharray:none;stroke-dashoffset:0;stroke-opacity:1;color-rendering:auto;image-rendering:auto;shape-rendering:auto;text-rendering:auto;enable-background:accumulate"
       d="m 101.61707,131.42736 a 8.8582678,8.8582678 0 0 0 -8.857429,8.85938 8.8582678,8.8582678 0 0 0 8.857429,8.85742 8.8582678,8.8582678 0 0 0 8.85937,-8.85742 8.8582678,8.8582678 0 0 0 -8.85937,-8.85938 z m 0,3.54297 a 5.3149605,5.3149605 0 0 1 5.3164,5.31641 5.3149605,5.3149605 0 0 1 -5.3164,5.31445 5.3149605,5.3149605 0 0 1 -5.314461,-5.31445 5.3149605,5.3149605 0 0 1 5.314461,-5.31641 z"
       id="path6552"
       inkscape:connector-curvature="0" />
    <path
       inkscape:connector-curvature="0"
       id="path6554"
       d="m 123.21707,131.42736 a 8.8582678,8.8582678 0 0 0 -8.85743,8.85938 8.8582678,8.8582678 0 0 0 8.85743,8.85742 8.8582678,8.8582678 0 0 0 8.85937,-8.85742 8.8582678,8.8582678 0 0 0 -8.85937,-8.85938 z m 0,3.54297 a 5.3149605,5.3149605 0 0 1 5.3164,5.31641 5.3149605,5.3149605 0 0 1 -5.3164,5.31445 5.3149605,5.3149605 0 0 1 -5.31446,-5.31445 5.3149605,5.3149605 0 0 1 5.31446,-5.31641 z"
       style="color:#000000;clip-rule:nonzero;display:inline;overflow:visible;visibility:visible;opacity:1;isolation:auto;mix-blend-mode:normal;color-interpolation:sRGB;color-interpolation-filters:linearRGB;solid-color:#000000;solid-opacity:1;fill:#666666;fill-opacity:1;fill-rule:nonzero;stroke:none;stroke-width:0.35433072;stroke-linecap:butt;stroke-linejoin:miter;stroke-miterlimit:4;stroke-dasharray:none;stroke-dashoffset:0;stroke-opacity:1;color-rendering:auto;image-rendering:auto;shape-rendering:auto;text-rendering:auto;enable-background:accumulate" />
    <path
       style="color:#000000;clip-rule:nonzero;display:inline;overflow:visible;visibility:visible;opacity:1;isolation:auto;mix-blend-mode:normal;color-interpolation:sRGB;color-interpolation-filters:linearRGB;solid-color:#000000;solid-opacity:1;fill:#666666;fill-opacity:1;fill-rule:nonzero;stroke:none;stroke-width:0.35433072;stroke-linecap:butt;stroke-linejoin:miter;stroke-miterlimit:4;stroke-dasharray:none;stroke-dashoffset:0;stroke-opacity:1;color-rendering:auto;image-rendering:auto;shape-rendering:auto;text-rendering:auto;enable-background:accumulate"
       d="m 123.21707,131.42736 a 8.8582678,8.8582678 0 0 0 -8.85743,8.85938 8.8582678,8.8582678 0 0 0 8.85743,8.85742 8.8582678,8.8582678 0 0 0 8.85937,-8.85742 8.8582678,8.8582678 0 0 0 -8.85937,-8.85938 z m 0,3.54297 a 5.3149605,5.3149605 0 0 1 5.3164,5.31641 5.3149605,5.3149605 0 0 1 -5.3164,5.31445 5.3149605,5.3149605 0 0 1 -5.31446,-5.31445 5.3149605,5.3149605 0 0 1 5.31446,-5.31641 z"
       id="path6556"
       inkscape:connector-curvature="0" />
    <path
       inkscape:connector-curvature="0"
       id="path6558"
       d="m 144.81707,131.42736 a 8.8582678,8.8582678 0 0 0 -8.85743,8.85938 8.8582678,8.8582678 0 0 0 8.85743,8.85742 8.8582678,8.8582678 0 0 0 8.85937,-8.85742 8.8582678,8.8582678 0 0 0 -8.85937,-8.85938 z m 0,3.54297 a 5.3149605,5.3149605 0 0 1 5.3164,5.31641 5.3149605,5.3149605 0 0 1 -5.3164,5.31445 5.3149605,5.3149605 0 0 1 -5.31446,-5.31445 5.3149605,5.3149605 0 0 1 5.31446,-5.31641 z"
       style="color:#000000;clip-rule:nonzero;display:inline;overflow:visible;visibility:visible;opacity:1;isolation:auto;mix-blend-mode:normal;color-interpolation:sRGB;color-interpolation-filters:linearRGB;solid-color:#000000;solid-opacity:1;fill:#666666;fill-opacity:1;fill-rule:nonzero;stroke:none;stroke-width:0.35433072;stroke-linecap:butt;stroke-linejoin:miter;stroke-miterlimit:4;stroke-dasharray:none;stroke-dashoffset:0;stroke-opacity:1;color-rendering:auto;image-rendering:auto;shape-rendering:auto;text-rendering:auto;enable-background:accumulate" />
    <path
       style="color:#000000;clip-rule:nonzero;display:inline;overflow:visible;visibility:visible;opacity:1;isolation:auto;mix-blend-mode:normal;color-interpolation:sRGB;color-interpolation-filters:linearRGB;solid-color:#000000;solid-opacity:1;fill:#666666;fill-opacity:1;fill-rule:nonzero;stroke:none;stroke-width:0.35433072;stroke-linecap:butt;stroke-linejoin:miter;stroke-miterlimit:4;stroke-dasharray:none;stroke-dashoffset:0;stroke-opacity:1;color-rendering:auto;image-rendering:auto;shape-rendering:auto;text-rendering:auto;enable-background:accumulate"
       d="m 144.81707,131.42736 a 8.8582678,8.8582678 0 0 0 -8.85743,8.85938 8.8582678,8.8582678 0 0 0 8.85743,8.85742 8.8582678,8.8582678 0 0 0 8.85937,-8.85742 8.8582678,8.8582678 0 0 0 -8.85937,-8.85938 z m 0,3.54297 a 5.3149605,5.3149605 0 0 1 5.3164,5.31641 5.3149605,5.3149605 0 0 1 -5.3164,5.31445 5.3149605,5.3149605 0 0 1 -5.31446,-5.31445 5.3149605,5.3149605 0 0 1 5.31446,-5.31641 z"
       id="path6560"
       inkscape:connector-curvature="0" />
    <path
       inkscape:connector-curvature="0"
       id="path6562"
       d="m 166.41707,131.42736 a 8.8582678,8.8582678 0 0 0 -8.85743,8.85938 8.8582678,8.8582678 0 0 0 8.85743,8.85742 8.8582678,8.8582678 0 0 0 8.85937,-8.85742 8.8582678,8.8582678 0 0 0 -8.85937,-8.85938 z m 0,3.54297 a 5.3149605,5.3149605 0 0 1 5.3164,5.31641 5.3149605,5.3149605 0 0 1 -5.3164,5.31445 5.3149605,5.3149605 0 0 1 -5.31446,-5.31445 5.3149605,5.3149605 0 0 1 5.31446,-5.31641 z"
       style="color:#000000;clip-rule:nonzero;display:inline;overflow:visible;visibility:visible;opacity:1;isolation:auto;mix-blend-mode:normal;color-interpolation:sRGB;color-interpolation-filters:linearRGB;solid-color:#000000;solid-opacity:1;fill:#666666;fill-opacity:1;fill-rule:nonzero;stroke:none;stroke-width:0.35433072;stroke-linecap:butt;stroke-linejoin:miter;stroke-miterlimit:4;stroke-dasharray:none;stroke-dashoffset:0;stroke-opacity:1;color-rendering:auto;image-rendering:auto;shape-rendering:auto;text-rendering:auto;enable-background:accumulate" />
    <path
       style="color:#000000;clip-rule:nonzero;display:inline;overflow:visible;visibility:visible;opacity:1;isolation:auto;mix-blend-mode:normal;color-interpolation:sRGB;color-interpolation-filters:linearRGB;solid-color:#000000;solid-opacity:1;fill:#666666;fill-opacity:1;fill-rule:nonzero;stroke:none;stroke-width:0.35433072;stroke-linecap:butt;stroke-linejoin:miter;stroke-miterlimit:4;stroke-dasharray:none;stroke-dashoffset:0;stroke-opacity:1;color-rendering:auto;image-rendering:auto;shape-rendering:auto;text-rendering:auto;enable-background:accumulate"
       d="m 188.01707,131.42736 a 8.8582678,8.8582678 0 0 0 -8.85743,8.85938 8.8582678,8.8582678 0 0 0 8.85743,8.85742 8.8582678,8.8582678 0 0 0 8.85937,-8.85742 8.8582678,8.8582678 0 0 0 -8.85937,-8.85938 z m 0,3.54297 a 5.3149605,5.3149605 0 0 1 5.3164,5.31641 5.3149605,5.3149605 0 0 1 -5.3164,5.31445 5.3149605,5.3149605 0 0 1 -5.31446,-5.31445 5.3149605,5.3149605 0 0 1 5.31446,-5.31641 z"
       id="path6564"
       inkscape:connector-curvature="0" />
    <path
       inkscape:connector-curvature="0"
       id="path6566"
       d="m 209.61707,131.42736 a 8.8582678,8.8582678 0 0 0 -8.85743,8.85938 8.8582678,8.8582678 0 0 0 8.85743,8.85742 8.8582678,8.8582678 0 0 0 8.85937,-8.85742 8.8582678,8.8582678 0 0 0 -8.85937,-8.85938 z m 0,3.54297 a 5.3149605,5.3149605 0 0 1 5.3164,5.31641 5.3149605,5.3149605 0 0 1 -5.3164,5.31445 5.3149605,5.3149605 0 0 1 -5.31446,-5.31445 5.3149605,5.3149605 0 0 1 5.31446,-5.31641 z"
       style="color:#000000;clip-rule:nonzero;display:inline;overflow:visible;visibility:visible;opacity:1;isolation:auto;mix-blend-mode:normal;color-interpolation:sRGB;color-interpolation-filters:linearRGB;solid-color:#000000;solid-opacity:1;fill:#666666;fill-opacity:1;fill-rule:nonzero;stroke:none;stroke-width:0.35433072;stroke-linecap:butt;stroke-linejoin:miter;stroke-miterlimit:4;stroke-dasharray:none;stroke-dashoffset:0;stroke-opacity:1;color-rendering:auto;image-rendering:auto;shape-rendering:auto;text-rendering:auto;enable-background:accumulate" />
    <path
       style="color:#000000;clip-rule:nonzero;display:inline;overflow:visible;visibility:visible;opacity:1;isolation:auto;mix-blend-mode:normal;color-interpolation:sRGB;color-interpolation-filters:linearRGB;solid-color:#000000;solid-opacity:1;fill:#666666;fill-opacity:1;fill-rule:nonzero;stroke:none;stroke-width:0.35433072;stroke-linecap:butt;stroke-linejoin:miter;stroke-miterlimit:4;stroke-dasharray:none;stroke-dashoffset:0;stroke-opacity:1;color-rendering:auto;image-rendering:auto;shape-rendering:auto;text-rendering:auto;enable-background:accumulate"
       d="m 231.21707,131.42736 a 8.8582678,8.8582678 0 0 0 -8.85743,8.85938 8.8582678,8.8582678 0 0 0 8.85743,8.85742 8.8582678,8.8582678 0 0 0 8.85937,-8.85742 8.8582678,8.8582678 0 0 0 -8.85937,-8.85938 z m 0,3.54297 a 5.3149605,5.3149605 0 0 1 5.3164,5.31641 5.3149605,5.3149605 0 0 1 -5.3164,5.31445 5.3149605,5.3149605 0 0 1 -5.31446,-5.31445 5.3149605,5.3149605 0 0 1 5.31446,-5.31641 z"
       id="path6568"
       inkscape:connector-curvature="0" />
  </g>
</svg>
