<?xml version="1.0" encoding="UTF-8" standalone="no"?>
<svg
   xmlns:dc="http://purl.org/dc/elements/1.1/"
   xmlns:cc="http://creativecommons.org/ns#"
   xmlns:rdf="http://www.w3.org/1999/02/22-rdf-syntax-ns#"
   xmlns:svg="http://www.w3.org/2000/svg"
   xmlns="http://www.w3.org/2000/svg"
   version="1.1"
   id="svg2"
   height="78.192062mm"
   width="90.42411mm">
  <defs
     id="defs4">
    <marker
       style="overflow:visible"
       id="Arrow1Lend"
       refX="0"
       refY="0"
       orient="auto">
      <path
         transform="matrix(-0.8,0,0,-0.8,-10,0)"
         style="fill-rule:evenodd;stroke:#000000;stroke-width:1pt;marker-start:none"
         d="M 0,0 5,-5 -12.5,0 5,5 0,0 Z"
         id="path4521" />
    </marker>
  </defs>
  <metadata
     id="metadata7">
    <rdf:RDF>
      <cc:Work
         rdf:about="">
        <dc:format>image/svg+xml</dc:format>
        <dc:type
           rdf:resource="http://purl.org/dc/dcmitype/StillImage" />
        <dc:title></dc:title>
      </cc:Work>
    </rdf:RDF>
  </metadata>
  <g
     transform="translate(80.040359,-131.4267)"
     id="layer1">
    <path
       id="rect5564"
       transform="translate(-80.040359,135.78595)"
       d="M 7.1992188,15.300781 C 3.2104194,15.300781 0,18.511201 0,22.5 l 0,243 c 0,3.9888 3.2104194,7.19922 7.1992188,7.19922 l 306.0000012,0 c 3.9888,0 7.20117,-3.21042 7.20117,-7.19922 l 0,-243 c 0,-3.988799 -3.21237,-7.199219 -7.20117,-7.199219 l -306.0000012,0 z M 133.19922,66.685547 A 5.3149605,5.3149605 0 0 1 138.51562,72 5.3149605,5.3149605 0 0 1 133.19922,77.314453 5.3149605,5.3149605 0 0 1 127.88477,72 a 5.3149605,5.3149605 0 0 1 5.31445,-5.314453 z m 171,4.5 a 5.3149605,5.3149605 0 0 1 5.3164,5.314453 5.3149605,5.3149605 0 0 1 -5.3164,5.314453 5.3149605,5.3149605 0 0 1 -5.31445,-5.314453 5.3149605,5.3149605 0 0 1 5.31445,-5.314453 z m -283.003908,0.0918 a 4.6062994,4.4291339 0 0 1 4.607422,4.429687 4.6062994,4.4291339 0 0 1 -4.607422,4.427735 4.6062994,4.4291339 0 0 1 -4.605468,-4.427735 4.6062994,4.4291339 0 0 1 4.605468,-4.429687 z m 78.839848,49.605463 a 4.4291339,4.4291339 0 0 1 4.42773,4.42969 4.4291339,4.4291339 0 0 1 -4.42773,4.42969 4.4291339,4.4291339 0 0 1 -4.429691,-4.42969 4.4291339,4.4291339 0 0 1 4.429691,-4.42969 z m -78.662113,49.60742 a 4.4291339,4.4291339 0 0 1 4.429687,4.42774 4.4291339,4.4291339 0 0 1 -4.429687,4.42969 4.4291339,4.4291339 0 0 1 -4.429688,-4.42969 4.4291339,4.4291339 0 0 1 4.429688,-4.42774 z m -17.8144532,55.41016 3.28125,0 0,1.01758 c 0,1.25489 -0.2275393,2.11035 -0.6816407,2.56445 -0.371094,0.3711 -0.9638668,0.55664 -1.7792969,0.55664 l -0.8203124,0 0,-4.13867 z m 4.1015624,0 3.9394528,0 0,9.96875 -3.9394528,0 0,-9.96875 z m 4.7382818,0 3.28125,0 0,4.13867 -0.820313,0 c -0.537109,0 -0.931641,-0.0576 -1.185547,-0.16992 -0.253906,-0.11719 -0.455078,-0.24512 -0.601562,-0.38672 -0.141602,-0.14648 -0.262695,-0.33789 -0.365235,-0.57226 -0.205078,-0.47852 -0.308596,-1.14258 -0.308593,-1.99219 l 0,-1.01758 z m 8.6875,0 0.5625,0 0,9.96875 -0.38086,0 c -0.791016,0 -1.494141,-0.29297 -2.109375,-0.87891 -0.541992,-0.51758 -0.96582,-1.20703 -1.273437,-2.0664 -0.283204,-0.79102 -0.425782,-1.5752 -0.425782,-2.35156 0,-1.167 0.289063,-2.20313 0.865235,-3.11133 0.410156,-0.64454 0.950195,-1.09961 1.61914,-1.36328 0.341798,-0.13184 0.722657,-0.19727 1.142579,-0.19727 z m 2.027343,0 3.66211,0 0,3.32422 -1.464844,0 c -0.737305,0 -1.304688,-0.18653 -1.705078,-0.5625 -0.327149,-0.30762 -0.492188,-0.68848 -0.492188,-1.14258 l 0,-1.61914 z m 9.222657,0 0.5625,0 0,9.96875 -0.38086,0 c -0.791016,0 -1.494141,-0.29297 -2.109375,-0.87891 -0.541992,-0.51758 -0.96582,-1.20703 -1.273437,-2.0664 -0.283204,-0.79102 -0.425782,-1.5752 -0.425782,-2.35156 0,-1.167 0.289063,-2.20313 0.865235,-3.11133 0.410156,-0.64454 0.950195,-1.09961 1.61914,-1.36328 0.341798,-0.13184 0.722655,-0.19727 1.142579,-0.19727 z m 2.027343,0 3.66211,0 0,3.32422 -1.464844,0 c -0.737305,0 -1.304688,-0.18653 -1.705078,-0.5625 -0.327149,-0.30762 -0.492188,-0.68848 -0.492188,-1.14258 l 0,-1.61914 z m 20.164063,0 0.660156,0 0,9.96875 -4.050781,0 0,-6.76758 c 0,-1.0791 0.24707,-1.87011 0.740234,-2.37304 0.541992,-0.55176 1.424805,-0.82813 2.650391,-0.82813 z m 2.013672,0 0.660156,0 c 1.796875,0 2.868164,0.6084 3.214844,1.82422 0.117187,0.40039 0.175781,0.85937 0.175781,1.37695 l 0,6.76758 -4.050781,0 0,-9.96875 z m -12.949219,2.49805 0.564453,0 0,7.4707 -0.380859,0 c -1.230469,0 -2.181641,-0.33789 -2.855469,-1.01172 -0.644531,-0.64453 -0.966797,-1.52344 -0.966797,-2.63672 0,-0.53711 0.06934,-1.03516 0.210937,-1.49414 0.141603,-0.46386 0.362305,-0.86816 0.660157,-1.21484 0.644531,-0.74219 1.566406,-1.11328 2.767578,-1.11328 z m 1.648437,0 4.042969,0 0,7.4707 -0.460937,0 c -1.269532,0 -2.183594,-0.22363 -2.740235,-0.66797 -0.561523,-0.44921 -0.841797,-1.1914 -0.841797,-2.22656 l 0,-4.57617 z m -22.507812,2.8125 4.042969,0 0,1.78711 c 0,1.04492 -0.270508,1.78125 -0.8125,2.21093 -0.546875,0.43946 -1.449219,0.66016 -2.708985,0.66016 l -0.521484,0 0,-4.6582 z m 11.25,0 4.042969,0 0,1.78711 c 0,1.04492 -0.270508,1.78125 -0.8125,2.21093 -0.546875,0.43946 -1.449219,0.66016 -2.708985,0.66016 l -0.521484,0 0,-4.6582 z m 5.814453,7.18554 c 0.791015,0 1.375976,0.11427 1.751953,0.34375 0.375977,0.22462 0.5625,0.59864 0.5625,1.1211 0,0.51758 -0.175781,0.89844 -0.527344,1.14258 -0.346679,0.24414 -0.914062,0.36718 -1.705078,0.36718 -1.61621,0 -2.425781,-0.50683 -2.425781,-1.51757 0,-0.51758 0.194336,-0.88867 0.580078,-1.11329 0.385742,-0.22948 0.972656,-0.34375 1.763672,-0.34375 z m 15.287109,1.23829 3.931641,0 0,11.21289 -3.931641,0 0,-11.21289 z m -51.5917965,1.24414 3.9394531,0 0,9.95507 -3.9394531,0 0,-9.95507 z m 5.2578125,0 0.5429688,0 c 1.4501952,0 2.5341802,0.35058 3.2519532,1.04882 0.659179,0.63965 0.988281,1.54493 0.988281,2.7168 0,1.04004 -0.341795,1.87695 -1.025391,2.51172 -0.727537,0.67383 -1.730468,1.01172 -3.0097651,1.01172 l -0.7480469,0 0,-7.28906 z m 60.71875,0.51367 1.097656,0 0,9.45508 -0.570312,0 c -2.416992,0 -3.626953,-1.10352 -3.626953,-3.31055 l 0,-4.11523 3.099609,-2.0293 z m 11.25,0 1.097656,0 0,9.45508 -0.570312,0 c -2.416992,0 -3.626953,-1.10352 -3.626953,-3.31055 l 0,-4.11523 3.099609,-2.0293 z m -18.414062,1.88867 c 0.981445,0 1.648436,0.2666 2,0.79883 0.122067,0.18554 0.183593,0.40723 0.183593,0.66601 0,0.49317 -0.210937,0.87305 -0.630859,1.13672 -0.380859,0.24414 -0.881837,0.36524 -1.501953,0.36524 -0.991212,0 -1.681641,-0.27735 -2.072266,-0.83399 -0.131836,-0.18554 -0.197266,-0.40917 -0.197265,-0.66797 -10e-7,-0.48828 0.224609,-0.86035 0.673828,-1.11914 0.40039,-0.22949 0.915038,-0.3457 1.544922,-0.3457 z m -46.765626,0.0957 4.072266,0 0,7.47071 -4.072266,0 0,-7.47071 z m 7.816407,0 1.02539,0 0,3.73633 -3.714843,0 0,-1.65625 c 0,-1.38672 0.897461,-2.08008 2.689453,-2.08008 z m 6.503906,0 0.5625,0 0,7.47071 -0.380859,0 c -1.23047,0 -2.181641,-0.33594 -2.855469,-1.00977 -0.644531,-0.64453 -0.966797,-1.52344 -0.966797,-2.63672 0,-0.53711 0.07129,-1.03516 0.212891,-1.49414 0.141601,-0.46387 0.360351,-0.87012 0.658203,-1.2168 0.644531,-0.74219 1.568359,-1.11328 2.769531,-1.11328 z m 1.75,0 0.564453,0 c 1.201172,0 2.123047,0.37109 2.767578,1.11328 0.581055,0.67383 0.871094,1.56837 0.871094,2.68165 0,1.1328 -0.322266,2.02148 -0.966797,2.66601 -0.673828,0.67383 -1.625,1.00977 -2.855469,1.00977 l -0.380859,0 0,-7.47071 z m 6.253906,0 3.941407,0 0,7.74219 c 0,1.18164 -0.244141,2.07031 -0.732422,2.66602 -0.556641,0.67871 -1.438477,1.01757 -2.644532,1.01757 l -0.564453,0 0,-11.42578 z m 9.638672,0 0.564453,0 0,7.47071 -0.380859,0 c -1.230469,0 -2.181641,-0.33594 -2.855469,-1.00977 -0.644531,-0.64453 -0.966797,-1.52344 -0.966797,-2.63672 0,-0.53711 0.06934,-1.03516 0.210938,-1.49414 0.141601,-0.46387 0.362305,-0.87012 0.660156,-1.2168 0.644531,-0.74219 1.566406,-1.11328 2.767578,-1.11328 z m 1.648438,0 0.484375,0 c 1.845702,0 2.969726,0.625 3.375,1.875 0.131835,0.41504 0.199218,0.89649 0.199218,1.44336 l 0,0.80469 -4.058593,0 0,-4.12305 z m 22.478515,0 3.507813,0 0,2.45313 -3.507813,0 0,-2.45313 z m 11.25,0 3.507813,0 0,2.45313 -3.507813,0 0,-2.45313 z m 9.63086,0 0.564453,0 0,7.47071 -0.38086,0 c -1.230468,0 -2.183593,-0.33594 -2.857421,-1.00977 -0.644532,-0.64453 -0.966797,-1.52344 -0.966797,-2.63672 0,-0.53711 0.07129,-1.03516 0.21289,-1.49414 0.141602,-0.46387 0.362304,-0.87012 0.660157,-1.2168 0.64453,-0.74219 1.566406,-1.11328 2.767578,-1.11328 z m 1.648437,0 4.042969,0 0,7.47071 -0.460938,0 c -1.26953,0 -2.183593,-0.22168 -2.740234,-0.66602 -0.561524,-0.44922 -0.841797,-1.19141 -0.841797,-2.22656 l 0,-4.57813 z m 9.601567,0 0.56445,0 0,7.47071 -0.38086,0 c -1.23047,0 -2.18359,-0.33594 -2.85742,-1.00977 -0.64453,-0.64453 -0.9668,-1.52344 -0.9668,-2.63672 0,-0.53711 0.0713,-1.03516 0.21289,-1.49414 0.1416,-0.46387 0.36231,-0.87012 0.66016,-1.2168 0.64453,-0.74219 1.5664,-1.11328 2.76758,-1.11328 z m 1.77929,0 3.91211,0 0,7.74219 c 0,0.52246 -0.0322,0.99512 -0.0957,1.41992 -0.0635,0.42481 -0.19726,0.78907 -0.40235,1.0918 -0.42968,0.63477 -1.2373,0.95312 -2.42382,0.95312 l -0.99024,0 0,-11.20703 z m 9.46289,0 0.56446,0 0,7.47071 -0.38086,0 c -1.23047,0 -2.18164,-0.33594 -2.85547,-1.00977 -0.64453,-0.64453 -0.9668,-1.52344 -0.9668,-2.63672 0,-0.53711 0.0693,-1.03516 0.21094,-1.49414 0.1416,-0.46387 0.36229,-0.87012 0.66016,-1.2168 0.64451,-0.74219 1.5664,-1.11328 2.76757,-1.11328 z m 1.64844,0 0.48438,0 c 1.8457,0 2.96972,0.625 3.375,1.875 0.13183,0.41504 0.19921,0.89649 0.19921,1.44336 l 0,0.80469 -4.05859,0 0,-4.12305 z m -56.287109,3.74219 0.660157,0 c 1.796874,0 2.871093,0.6084 3.222656,1.82422 0.112304,0.40039 0.167968,0.85938 0.167968,1.37695 l 0,0.52735 -4.050781,0 0,-3.72852 z m 11.273438,0.60156 4.064453,0 0,0.64453 c 0,0.83008 -0.253906,1.44239 -0.761719,1.83789 -0.551758,0.4297 -1.443359,0.64454 -2.673828,0.64454 l -0.628906,0 0,-3.12696 z m 11.25,0 4.064453,0 0,0.64453 c 0,0.83008 -0.253906,1.44239 -0.761719,1.83789 -0.551758,0.4297 -1.443359,0.64454 -2.673828,0.64454 l -0.628906,0 0,-3.12696 z m -33.736328,1.21485 3.662109,0 0,0.20507 c 0,0.45411 -0.163086,0.8379 -0.490234,1.1504 -0.400391,0.37109 -0.969727,0.55664 -1.707032,0.55664 l -1.464843,0 0,-1.91211 z m 67.499999,0 3.66211,0 0,0.20507 c 0,0.45411 -0.16309,0.8379 -0.49023,1.1504 -0.4004,0.37109 -0.96973,0.55664 -1.70704,0.55664 l -1.46484,0 0,-1.91211 z m 34.54883,2.25 a 5.3149605,5.3149605 0 0 1 5.3164,5.31445 5.3149605,5.3149605 0 0 1 -5.3164,5.31445 5.3149605,5.3149605 0 0 1 -5.31445,-5.31445 5.3149605,5.3149605 0 0 1 5.31445,-5.31445 z m 99,0 a 5.3149605,5.3149605 0 0 1 5.3164,5.31445 5.3149605,5.3149605 0 0 1 -5.3164,5.31445 5.3149605,5.3149605 0 0 1 -5.31445,-5.31445 5.3149605,5.3149605 0 0 1 5.31445,-5.31445 z m -147.23047,0.6289 c 0.59082,0 1.0918,0.11719 1.50195,0.35157 0.42969,0.24414 0.64453,0.57324 0.64453,0.98828 0,0.41992 -0.19238,0.75488 -0.57812,1.0039 -0.37109,0.23926 -0.84961,0.35938 -1.43555,0.35938 -0.60547,0 -1.1123,-0.12012 -1.51758,-0.35938 -0.42968,-0.2539 -0.64453,-0.58594 -0.64453,-0.99609 0,-0.21485 0.0518,-0.40723 0.1543,-0.57813 0.10254,-0.16602 0.24512,-0.30566 0.42578,-0.41796 0.37598,-0.23438 0.8584,-0.35157 1.44922,-0.35157 z m 3.72852,5.83985 0,10.29101 -4.32227,0 0,-9.08984 4.32227,-1.20117 z m -28.380864,0.32226 0.914063,0 0,3.37696 -4.429688,0 0,-0.48438 c 0,-0.98145 0.341797,-1.72364 1.025391,-2.22656 0.610351,-0.44434 1.44043,-0.66602 2.490234,-0.66602 z m 1.851563,0 0.542969,0 c 1.518553,0 2.602539,0.24707 3.251953,0.74024 0.659179,0.49804 0.988281,1.32226 0.988281,2.47461 0,1.48925 -0.761719,2.39062 -2.285156,2.70312 -0.50293,0.10254 -1.085938,0.1543 -1.75,0.1543 l -0.748047,0 0,-6.07227 z m 11.960937,0 0.572266,0 0,9.96875 -0.572266,0 c -1.450195,0 -2.482422,-0.44921 -3.097656,-1.34765 -0.561523,-0.81544 -0.841797,-2.11036 -0.841797,-3.88282 0,-0.83007 0.0625,-1.5371 0.189453,-2.12304 0.131836,-0.59082 0.34961,-1.07911 0.652344,-1.46485 0.595703,-0.7666 1.62793,-1.15039 3.097656,-1.15039 z m 1.765625,0 0.570313,0 c 1.469726,0 2.503906,0.38379 3.099609,1.15039 0.561523,0.71778 0.841797,1.89941 0.841797,3.54493 0,1.80174 -0.280274,3.11034 -0.841797,3.92578 -0.615234,0.89844 -1.649414,1.34765 -3.099609,1.34765 l -0.570313,0 0,-9.96875 z m 22.513669,0 4.30078,0 -2.34375,9.95313 -4.30664,0 2.34961,-9.95313 z m -5.96093,0.008 4.36523,0 0,1.73437 c 0,0.54199 -0.0488,0.94824 -0.14648,1.2168 -0.0977,0.26367 -0.21778,0.48145 -0.35938,0.65234 -0.13672,0.1709 -0.32227,0.31738 -0.55664,0.43945 -0.50293,0.26856 -1.19336,0.40235 -2.07227,0.40235 l -1.23046,0 0,-4.44531 z m -32.130864,4.60742 0.914063,0 0,5.35351 -4.429688,0 0,-2.46093 c 0,-0.98146 0.341797,-1.72364 1.025391,-2.22657 0.610351,-0.44434 1.44043,-0.66601 2.490234,-0.66601 z m 1.947266,2.92968 4.314453,0 0,2.42383 -4.314453,0 0,-2.42383 z"
       style="color:#000000;clip-rule:nonzero;display:inline;overflow:visible;visibility:visible;opacity:1;isolation:auto;mix-blend-mode:normal;color-interpolation:sRGB;color-interpolation-filters:linearRGB;solid-color:#000000;solid-opacity:1;fill:#666666;fill-opacity:1;fill-rule:nonzero;stroke:none;stroke-width:3.54330707;stroke-linecap:butt;stroke-linejoin:miter;stroke-miterlimit:4;stroke-dasharray:none;stroke-dashoffset:0;stroke-opacity:1;color-rendering:auto;image-rendering:auto;shape-rendering:auto;text-rendering:auto;enable-background:accumulate" />
    <circle
       transform="matrix(0,1,-1,0,0,0)"
       style="fill:#ffffff;fill-opacity:1;stroke:none;stroke-width:0.5625;stroke-linecap:round;stroke-linejoin:round;stroke-miterlimit:4;stroke-dasharray:none;stroke-dashoffset:0;stroke-opacity:1"
       id="path4775"
       cx="392.28592"
       cy="-71.159653"
       r="5.6164284" />
    <circle
       transform="matrix(0,1,-1,0,0,0)"
       style="fill:#ffffff;fill-opacity:1;stroke:none;stroke-width:0.5625;stroke-linecap:round;stroke-linejoin:round;stroke-miterlimit:4;stroke-dasharray:none;stroke-dashoffset:0;stroke-opacity:1"
       id="path4777"
       cx="392.28592"
       cy="-170.15967"
       r="5.6164284" />
    <circle
       transform="matrix(0,1,-1,0,0,0)"
       id="path4925"
       style="fill:#ffffff;fill-opacity:1;stroke:none;stroke-width:0.5625;stroke-linecap:round;stroke-linejoin:round;stroke-miterlimit:4;stroke-dasharray:none;stroke-dashoffset:0;stroke-opacity:1"
       cx="212.28595"
       cy="-224.15967"
       r="5.6164284" />
    <circle
       transform="matrix(0,1,-1,0,0,0)"
       id="path5024"
       style="fill:#ffffff;fill-opacity:1;stroke:none;stroke-width:0.5625;stroke-linecap:round;stroke-linejoin:round;stroke-miterlimit:4;stroke-dasharray:none;stroke-dashoffset:0;stroke-opacity:1"
       cx="207.78595"
       cy="-53.159657"
       r="5.6164284" />
    <text
       id="text4367"
       y="439.0856"
       x="-26.040359"
       style="font-style:normal;font-weight:normal;font-size:20px;line-height:125%;font-family:sans-serif;letter-spacing:0px;word-spacing:0px;fill:#000000;fill-opacity:1;stroke:none;stroke-width:1px;stroke-linecap:butt;stroke-linejoin:miter;stroke-opacity:1"
       xml:space="preserve"><tspan
         y="439.0856"
         x="-26.040359"
         id="tspan4369"></tspan></text>
    <g
       id="g6765"
       transform="translate(0,7.8749428e-4)">
      <path
         style="color:#000000;clip-rule:nonzero;display:inline;overflow:visible;visibility:visible;opacity:1;isolation:auto;mix-blend-mode:normal;color-interpolation:sRGB;color-interpolation-filters:linearRGB;solid-color:#000000;solid-opacity:1;fill:#666666;fill-opacity:1;fill-rule:nonzero;stroke:none;stroke-width:0.35433072;stroke-linecap:butt;stroke-linejoin:miter;stroke-miterlimit:4;stroke-dasharray:none;stroke-dashoffset:0;stroke-opacity:1;color-rendering:auto;image-rendering:auto;shape-rendering:auto;text-rendering:auto;enable-background:accumulate"
         d="m -71.182937,131.42736 a 8.8582678,8.8582678 0 0 0 -8.857422,8.85938 8.8582678,8.8582678 0 0 0 8.857422,8.85742 8.8582678,8.8582678 0 0 0 8.859375,-8.85742 8.8582678,8.8582678 0 0 0 -8.859375,-8.85938 z m 0,3.54297 a 5.3149605,5.3149605 0 0 1 5.316406,5.31641 5.3149605,5.3149605 0 0 1 -5.316406,5.31445 5.3149605,5.3149605 0 0 1 -5.314454,-5.31445 5.3149605,5.3149605 0 0 1 5.314454,-5.31641 z"
         id="path6533" />
      <path
         id="path6538"
         d="m -49.582937,131.42736 a 8.8582678,8.8582678 0 0 0 -8.857422,8.85938 8.8582678,8.8582678 0 0 0 8.857422,8.85742 8.8582678,8.8582678 0 0 0 8.859375,-8.85742 8.8582678,8.8582678 0 0 0 -8.859375,-8.85938 z m 0,3.54297 a 5.3149605,5.3149605 0 0 1 5.316406,5.31641 5.3149605,5.3149605 0 0 1 -5.316406,5.31445 5.3149605,5.3149605 0 0 1 -5.314454,-5.31445 5.3149605,5.3149605 0 0 1 5.314454,-5.31641 z"
         style="color:#000000;clip-rule:nonzero;display:inline;overflow:visible;visibility:visible;opacity:1;isolation:auto;mix-blend-mode:normal;color-interpolation:sRGB;color-interpolation-filters:linearRGB;solid-color:#000000;solid-opacity:1;fill:#666666;fill-opacity:1;fill-rule:nonzero;stroke:none;stroke-width:0.35433072;stroke-linecap:butt;stroke-linejoin:miter;stroke-miterlimit:4;stroke-dasharray:none;stroke-dashoffset:0;stroke-opacity:1;color-rendering:auto;image-rendering:auto;shape-rendering:auto;text-rendering:auto;enable-background:accumulate" />
      <path
         style="color:#000000;clip-rule:nonzero;display:inline;overflow:visible;visibility:visible;opacity:1;isolation:auto;mix-blend-mode:normal;color-interpolation:sRGB;color-interpolation-filters:linearRGB;solid-color:#000000;solid-opacity:1;fill:#666666;fill-opacity:1;fill-rule:nonzero;stroke:none;stroke-width:0.35433072;stroke-linecap:butt;stroke-linejoin:miter;stroke-miterlimit:4;stroke-dasharray:none;stroke-dashoffset:0;stroke-opacity:1;color-rendering:auto;image-rendering:auto;shape-rendering:auto;text-rendering:auto;enable-background:accumulate"
         d="m -27.982937,131.42591 a 8.8582678,8.8582678 0 0 0 -8.857422,8.85938 8.8582678,8.8582678 0 0 0 8.857422,8.85742 8.8582678,8.8582678 0 0 0 8.859375,-8.85742 8.8582678,8.8582678 0 0 0 -8.859375,-8.85938 z m 0,3.54297 a 5.3149605,5.3149605 0 0 1 5.316406,5.31641 5.3149605,5.3149605 0 0 1 -5.316406,5.31445 5.3149605,5.3149605 0 0 1 -5.314454,-5.31445 5.3149605,5.3149605 0 0 1 5.314454,-5.31641 z"
         id="path6540" />
      <path
         id="path6542"
         d="m -6.3829369,131.42591 a 8.8582678,8.8582678 0 0 0 -8.8574221,8.85938 8.8582678,8.8582678 0 0 0 8.8574221,8.85742 8.8582678,8.8582678 0 0 0 8.859375,-8.85742 8.8582678,8.8582678 0 0 0 -8.859375,-8.85938 z m 0,3.54297 a 5.3149605,5.3149605 0 0 1 5.316406,5.31641 5.3149605,5.3149605 0 0 1 -5.316406,5.31445 5.3149605,5.3149605 0 0 1 -5.3144541,-5.31445 5.3149605,5.3149605 0 0 1 5.3144541,-5.31641 z"
         style="color:#000000;clip-rule:nonzero;display:inline;overflow:visible;visibility:visible;opacity:1;isolation:auto;mix-blend-mode:normal;color-interpolation:sRGB;color-interpolation-filters:linearRGB;solid-color:#000000;solid-opacity:1;fill:#666666;fill-opacity:1;fill-rule:nonzero;stroke:none;stroke-width:0.35433072;stroke-linecap:butt;stroke-linejoin:miter;stroke-miterlimit:4;stroke-dasharray:none;stroke-dashoffset:0;stroke-opacity:1;color-rendering:auto;image-rendering:auto;shape-rendering:auto;text-rendering:auto;enable-background:accumulate" />
      <path
         style="color:#000000;clip-rule:nonzero;display:inline;overflow:visible;visibility:visible;opacity:1;isolation:auto;mix-blend-mode:normal;color-interpolation:sRGB;color-interpolation-filters:linearRGB;solid-color:#000000;solid-opacity:1;fill:#666666;fill-opacity:1;fill-rule:nonzero;stroke:none;stroke-width:0.35433072;stroke-linecap:butt;stroke-linejoin:miter;stroke-miterlimit:4;stroke-dasharray:none;stroke-dashoffset:0;stroke-opacity:1;color-rendering:auto;image-rendering:auto;shape-rendering:auto;text-rendering:auto;enable-background:accumulate"
         d="m 15.217063,131.42736 a 8.8582678,8.8582678 0 0 0 -8.8574219,8.85938 8.8582678,8.8582678 0 0 0 8.8574219,8.85742 8.8582678,8.8582678 0 0 0 8.859375,-8.85742 8.8582678,8.8582678 0 0 0 -8.859375,-8.85938 z m 0,3.54297 a 5.3149605,5.3149605 0 0 1 5.316406,5.31641 5.3149605,5.3149605 0 0 1 -5.316406,5.31445 5.3149605,5.3149605 0 0 1 -5.3144539,-5.31445 5.3149605,5.3149605 0 0 1 5.3144539,-5.31641 z"
         id="path6544" />
      <path
         id="path6546"
         d="m 36.817063,131.42736 a 8.8582678,8.8582678 0 0 0 -8.857422,8.85938 8.8582678,8.8582678 0 0 0 8.857422,8.85742 8.8582678,8.8582678 0 0 0 8.859375,-8.85742 8.8582678,8.8582678 0 0 0 -8.859375,-8.85938 z m 0,3.54297 a 5.3149605,5.3149605 0 0 1 5.316406,5.31641 5.3149605,5.3149605 0 0 1 -5.316406,5.31445 5.3149605,5.3149605 0 0 1 -5.314454,-5.31445 5.3149605,5.3149605 0 0 1 5.314454,-5.31641 z"
         style="color:#000000;clip-rule:nonzero;display:inline;overflow:visible;visibility:visible;opacity:1;isolation:auto;mix-blend-mode:normal;color-interpolation:sRGB;color-interpolation-filters:linearRGB;solid-color:#000000;solid-opacity:1;fill:#666666;fill-opacity:1;fill-rule:nonzero;stroke:none;stroke-width:0.35433072;stroke-linecap:butt;stroke-linejoin:miter;stroke-miterlimit:4;stroke-dasharray:none;stroke-dashoffset:0;stroke-opacity:1;color-rendering:auto;image-rendering:auto;shape-rendering:auto;text-rendering:auto;enable-background:accumulate" />
      <path
         style="color:#000000;clip-rule:nonzero;display:inline;overflow:visible;visibility:visible;opacity:1;isolation:auto;mix-blend-mode:normal;color-interpolation:sRGB;color-interpolation-filters:linearRGB;solid-color:#000000;solid-opacity:1;fill:#666666;fill-opacity:1;fill-rule:nonzero;stroke:none;stroke-width:0.35433072;stroke-linecap:butt;stroke-linejoin:miter;stroke-miterlimit:4;stroke-dasharray:none;stroke-dashoffset:0;stroke-opacity:1;color-rendering:auto;image-rendering:auto;shape-rendering:auto;text-rendering:auto;enable-background:accumulate"
         d="m 58.417063,131.42591 a 8.8582678,8.8582678 0 0 0 -8.857422,8.85938 8.8582678,8.8582678 0 0 0 8.857422,8.85742 8.8582678,8.8582678 0 0 0 8.859375,-8.85742 8.8582678,8.8582678 0 0 0 -8.859375,-8.85938 z m 0,3.54297 a 5.3149605,5.3149605 0 0 1 5.316406,5.31641 5.3149605,5.3149605 0 0 1 -5.316406,5.31445 5.3149605,5.3149605 0 0 1 -5.314454,-5.31445 5.3149605,5.3149605 0 0 1 5.314454,-5.31641 z"
         id="path6548" />
      <path
         id="path6550"
         d="m 80.017063,131.42736 a 8.8582678,8.8582678 0 0 0 -8.857422,8.85938 8.8582678,8.8582678 0 0 0 8.857422,8.85742 8.8582678,8.8582678 0 0 0 8.859375,-8.85742 8.8582678,8.8582678 0 0 0 -8.859375,-8.85938 z m 0,3.54297 a 5.3149605,5.3149605 0 0 1 5.316406,5.31641 5.3149605,5.3149605 0 0 1 -5.316406,5.31445 5.3149605,5.3149605 0 0 1 -5.314454,-5.31445 5.3149605,5.3149605 0 0 1 5.314454,-5.31641 z"
         style="color:#000000;clip-rule:nonzero;display:inline;overflow:visible;visibility:visible;opacity:1;isolation:auto;mix-blend-mode:normal;color-interpolation:sRGB;color-interpolation-filters:linearRGB;solid-color:#000000;solid-opacity:1;fill:#666666;fill-opacity:1;fill-rule:nonzero;stroke:none;stroke-width:0.35433072;stroke-linecap:butt;stroke-linejoin:miter;stroke-miterlimit:4;stroke-dasharray:none;stroke-dashoffset:0;stroke-opacity:1;color-rendering:auto;image-rendering:auto;shape-rendering:auto;text-rendering:auto;enable-background:accumulate" />
      <path
         style="color:#000000;clip-rule:nonzero;display:inline;overflow:visible;visibility:visible;opacity:1;isolation:auto;mix-blend-mode:normal;color-interpolation:sRGB;color-interpolation-filters:linearRGB;solid-color:#000000;solid-opacity:1;fill:#666666;fill-opacity:1;fill-rule:nonzero;stroke:none;stroke-width:0.35433072;stroke-linecap:butt;stroke-linejoin:miter;stroke-miterlimit:4;stroke-dasharray:none;stroke-dashoffset:0;stroke-opacity:1;color-rendering:auto;image-rendering:auto;shape-rendering:auto;text-rendering:auto;enable-background:accumulate"
         d="m 101.61707,131.42736 a 8.8582678,8.8582678 0 0 0 -8.857429,8.85938 8.8582678,8.8582678 0 0 0 8.857429,8.85742 8.8582678,8.8582678 0 0 0 8.85937,-8.85742 8.8582678,8.8582678 0 0 0 -8.85937,-8.85938 z m 0,3.54297 a 5.3149605,5.3149605 0 0 1 5.3164,5.31641 5.3149605,5.3149605 0 0 1 -5.3164,5.31445 5.3149605,5.3149605 0 0 1 -5.314461,-5.31445 5.3149605,5.3149605 0 0 1 5.314461,-5.31641 z"
         id="path6552" />
      <path
         id="path6554"
         d="m 123.21707,131.42736 a 8.8582678,8.8582678 0 0 0 -8.85743,8.85938 8.8582678,8.8582678 0 0 0 8.85743,8.85742 8.8582678,8.8582678 0 0 0 8.85937,-8.85742 8.8582678,8.8582678 0 0 0 -8.85937,-8.85938 z m 0,3.54297 a 5.3149605,5.3149605 0 0 1 5.3164,5.31641 5.3149605,5.3149605 0 0 1 -5.3164,5.31445 5.3149605,5.3149605 0 0 1 -5.31446,-5.31445 5.3149605,5.3149605 0 0 1 5.31446,-5.31641 z"
         style="color:#000000;clip-rule:nonzero;display:inline;overflow:visible;visibility:visible;opacity:1;isolation:auto;mix-blend-mode:normal;color-interpolation:sRGB;color-interpolation-filters:linearRGB;solid-color:#000000;solid-opacity:1;fill:#666666;fill-opacity:1;fill-rule:nonzero;stroke:none;stroke-width:0.35433072;stroke-linecap:butt;stroke-linejoin:miter;stroke-miterlimit:4;stroke-dasharray:none;stroke-dashoffset:0;stroke-opacity:1;color-rendering:auto;image-rendering:auto;shape-rendering:auto;text-rendering:auto;enable-background:accumulate" />
      <path
         style="color:#000000;clip-rule:nonzero;display:inline;overflow:visible;visibility:visible;opacity:1;isolation:auto;mix-blend-mode:normal;color-interpolation:sRGB;color-interpolation-filters:linearRGB;solid-color:#000000;solid-opacity:1;fill:#666666;fill-opacity:1;fill-rule:nonzero;stroke:none;stroke-width:0.35433072;stroke-linecap:butt;stroke-linejoin:miter;stroke-miterlimit:4;stroke-dasharray:none;stroke-dashoffset:0;stroke-opacity:1;color-rendering:auto;image-rendering:auto;shape-rendering:auto;text-rendering:auto;enable-background:accumulate"
         d="m 123.21707,131.42736 a 8.8582678,8.8582678 0 0 0 -8.85743,8.85938 8.8582678,8.8582678 0 0 0 8.85743,8.85742 8.8582678,8.8582678 0 0 0 8.85937,-8.85742 8.8582678,8.8582678 0 0 0 -8.85937,-8.85938 z m 0,3.54297 a 5.3149605,5.3149605 0 0 1 5.3164,5.31641 5.3149605,5.3149605 0 0 1 -5.3164,5.31445 5.3149605,5.3149605 0 0 1 -5.31446,-5.31445 5.3149605,5.3149605 0 0 1 5.31446,-5.31641 z"
         id="path6556" />
      <path
         id="path6558"
         d="m 144.81707,131.42736 a 8.8582678,8.8582678 0 0 0 -8.85743,8.85938 8.8582678,8.8582678 0 0 0 8.85743,8.85742 8.8582678,8.8582678 0 0 0 8.85937,-8.85742 8.8582678,8.8582678 0 0 0 -8.85937,-8.85938 z m 0,3.54297 a 5.3149605,5.3149605 0 0 1 5.3164,5.31641 5.3149605,5.3149605 0 0 1 -5.3164,5.31445 5.3149605,5.3149605 0 0 1 -5.31446,-5.31445 5.3149605,5.3149605 0 0 1 5.31446,-5.31641 z"
         style="color:#000000;clip-rule:nonzero;display:inline;overflow:visible;visibility:visible;opacity:1;isolation:auto;mix-blend-mode:normal;color-interpolation:sRGB;color-interpolation-filters:linearRGB;solid-color:#000000;solid-opacity:1;fill:#666666;fill-opacity:1;fill-rule:nonzero;stroke:none;stroke-width:0.35433072;stroke-linecap:butt;stroke-linejoin:miter;stroke-miterlimit:4;stroke-dasharray:none;stroke-dashoffset:0;stroke-opacity:1;color-rendering:auto;image-rendering:auto;shape-rendering:auto;text-rendering:auto;enable-background:accumulate" />
      <path
         style="color:#000000;clip-rule:nonzero;display:inline;overflow:visible;visibility:visible;opacity:1;isolation:auto;mix-blend-mode:normal;color-interpolation:sRGB;color-interpolation-filters:linearRGB;solid-color:#000000;solid-opacity:1;fill:#666666;fill-opacity:1;fill-rule:nonzero;stroke:none;stroke-width:0.35433072;stroke-linecap:butt;stroke-linejoin:miter;stroke-miterlimit:4;stroke-dasharray:none;stroke-dashoffset:0;stroke-opacity:1;color-rendering:auto;image-rendering:auto;shape-rendering:auto;text-rendering:auto;enable-background:accumulate"
         d="m 144.81707,131.42736 a 8.8582678,8.8582678 0 0 0 -8.85743,8.85938 8.8582678,8.8582678 0 0 0 8.85743,8.85742 8.8582678,8.8582678 0 0 0 8.85937,-8.85742 8.8582678,8.8582678 0 0 0 -8.85937,-8.85938 z m 0,3.54297 a 5.3149605,5.3149605 0 0 1 5.3164,5.31641 5.3149605,5.3149605 0 0 1 -5.3164,5.31445 5.3149605,5.3149605 0 0 1 -5.31446,-5.31445 5.3149605,5.3149605 0 0 1 5.31446,-5.31641 z"
         id="path6560" />
      <path
         id="path6562"
         d="m 166.41707,131.42736 a 8.8582678,8.8582678 0 0 0 -8.85743,8.85938 8.8582678,8.8582678 0 0 0 8.85743,8.85742 8.8582678,8.8582678 0 0 0 8.85937,-8.85742 8.8582678,8.8582678 0 0 0 -8.85937,-8.85938 z m 0,3.54297 a 5.3149605,5.3149605 0 0 1 5.3164,5.31641 5.3149605,5.3149605 0 0 1 -5.3164,5.31445 5.3149605,5.3149605 0 0 1 -5.31446,-5.31445 5.3149605,5.3149605 0 0 1 5.31446,-5.31641 z"
         style="color:#000000;clip-rule:nonzero;display:inline;overflow:visible;visibility:visible;opacity:1;isolation:auto;mix-blend-mode:normal;color-interpolation:sRGB;color-interpolation-filters:linearRGB;solid-color:#000000;solid-opacity:1;fill:#666666;fill-opacity:1;fill-rule:nonzero;stroke:none;stroke-width:0.35433072;stroke-linecap:butt;stroke-linejoin:miter;stroke-miterlimit:4;stroke-dasharray:none;stroke-dashoffset:0;stroke-opacity:1;color-rendering:auto;image-rendering:auto;shape-rendering:auto;text-rendering:auto;enable-background:accumulate" />
      <path
         style="color:#000000;clip-rule:nonzero;display:inline;overflow:visible;visibility:visible;opacity:1;isolation:auto;mix-blend-mode:normal;color-interpolation:sRGB;color-interpolation-filters:linearRGB;solid-color:#000000;solid-opacity:1;fill:#666666;fill-opacity:1;fill-rule:nonzero;stroke:none;stroke-width:0.35433072;stroke-linecap:butt;stroke-linejoin:miter;stroke-miterlimit:4;stroke-dasharray:none;stroke-dashoffset:0;stroke-opacity:1;color-rendering:auto;image-rendering:auto;shape-rendering:auto;text-rendering:auto;enable-background:accumulate"
         d="m 188.01707,131.42736 a 8.8582678,8.8582678 0 0 0 -8.85743,8.85938 8.8582678,8.8582678 0 0 0 8.85743,8.85742 8.8582678,8.8582678 0 0 0 8.85937,-8.85742 8.8582678,8.8582678 0 0 0 -8.85937,-8.85938 z m 0,3.54297 a 5.3149605,5.3149605 0 0 1 5.3164,5.31641 5.3149605,5.3149605 0 0 1 -5.3164,5.31445 5.3149605,5.3149605 0 0 1 -5.31446,-5.31445 5.3149605,5.3149605 0 0 1 5.31446,-5.31641 z"
         id="path6564" />
      <path
         id="path6566"
         d="m 209.61707,131.42736 a 8.8582678,8.8582678 0 0 0 -8.85743,8.85938 8.8582678,8.8582678 0 0 0 8.85743,8.85742 8.8582678,8.8582678 0 0 0 8.85937,-8.85742 8.8582678,8.8582678 0 0 0 -8.85937,-8.85938 z m 0,3.54297 a 5.3149605,5.3149605 0 0 1 5.3164,5.31641 5.3149605,5.3149605 0 0 1 -5.3164,5.31445 5.3149605,5.3149605 0 0 1 -5.31446,-5.31445 5.3149605,5.3149605 0 0 1 5.31446,-5.31641 z"
         style="color:#000000;clip-rule:nonzero;display:inline;overflow:visible;visibility:visible;opacity:1;isolation:auto;mix-blend-mode:normal;color-interpolation:sRGB;color-interpolation-filters:linearRGB;solid-color:#000000;solid-opacity:1;fill:#666666;fill-opacity:1;fill-rule:nonzero;stroke:none;stroke-width:0.35433072;stroke-linecap:butt;stroke-linejoin:miter;stroke-miterlimit:4;stroke-dasharray:none;stroke-dashoffset:0;stroke-opacity:1;color-rendering:auto;image-rendering:auto;shape-rendering:auto;text-rendering:auto;enable-background:accumulate" />
      <path
         style="color:#000000;clip-rule:nonzero;display:inline;overflow:visible;visibility:visible;opacity:1;isolation:auto;mix-blend-mode:normal;color-interpolation:sRGB;color-interpolation-filters:linearRGB;solid-color:#000000;solid-opacity:1;fill:#666666;fill-opacity:1;fill-rule:nonzero;stroke:none;stroke-width:0.35433072;stroke-linecap:butt;stroke-linejoin:miter;stroke-miterlimit:4;stroke-dasharray:none;stroke-dashoffset:0;stroke-opacity:1;color-rendering:auto;image-rendering:auto;shape-rendering:auto;text-rendering:auto;enable-background:accumulate"
         d="m 231.21707,131.42736 a 8.8582678,8.8582678 0 0 0 -8.85743,8.85938 8.8582678,8.8582678 0 0 0 8.85743,8.85742 8.8582678,8.8582678 0 0 0 8.85937,-8.85742 8.8582678,8.8582678 0 0 0 -8.85937,-8.85938 z m 0,3.54297 a 5.3149605,5.3149605 0 0 1 5.3164,5.31641 5.3149605,5.3149605 0 0 1 -5.3164,5.31445 5.3149605,5.3149605 0 0 1 -5.31446,-5.31445 5.3149605,5.3149605 0 0 1 5.31446,-5.31641 z"
         id="path6568" />
    </g>
  </g>
</svg>
