<?xml version="1.0" encoding="UTF-8" standalone="no"?>
<svg
   xmlns:dc="http://purl.org/dc/elements/1.1/"
   xmlns:cc="http://creativecommons.org/ns#"
   xmlns:rdf="http://www.w3.org/1999/02/22-rdf-syntax-ns#"
   xmlns:svg="http://www.w3.org/2000/svg"
   xmlns="http://www.w3.org/2000/svg"
   version="1.1"
   id="svg2"
   height="3.46in"
   width="3.9199998in">
  <defs
     id="defs4">
    <marker
       style="overflow:visible"
       id="Arrow1Lend"
       refX="0"
       refY="0"
       orient="auto">
      <path
         transform="matrix(-0.8,0,0,-0.8,-10,0)"
         style="fill-rule:evenodd;stroke:#000000;stroke-width:1pt;marker-start:none"
         d="M 0,0 5,-5 -12.5,0 5,5 0,0 Z"
         id="path4521" />
    </marker>
  </defs>
  <metadata
     id="metadata7">
    <rdf:RDF>
      <cc:Work
         rdf:about="">
        <dc:format>image/svg+xml</dc:format>
        <dc:type
           rdf:resource="http://purl.org/dc/dcmitype/StillImage" />
        <dc:title></dc:title>
      </cc:Work>
    </rdf:RDF>
  </metadata>
  <g
     transform="translate(96.240356,-115.08562)"
     id="layer1">
    <path
       transform="translate(-96.240356,115.08562)"
       id="rect5564"
       d="M 9 21.599609 C 5.0112006 21.599609 1.8007812 24.811982 1.8007812 28.800781 L 1.8007812 302.40039 C 1.8007812 306.38919 5.0112006 309.59961 9 309.59961 L 343.80078 309.59961 C 347.78958 309.59961 351 306.38919 351 302.40039 L 351 28.800781 C 351 24.811982 347.78958 21.599609 343.80078 21.599609 L 9 21.599609 z M 149.40039 87.384766 A 5.3149605 5.3149605 0 0 1 154.71484 92.701172 A 5.3149605 5.3149605 0 0 1 149.40039 98.015625 A 5.3149605 5.3149605 0 0 1 144.08594 92.701172 A 5.3149605 5.3149605 0 0 1 149.40039 87.384766 z M 320.40039 91.884766 A 5.3149605 5.3149605 0 0 1 325.71484 97.201172 A 5.3149605 5.3149605 0 0 1 320.40039 102.51562 A 5.3149605 5.3149605 0 0 1 315.08594 97.201172 A 5.3149605 5.3149605 0 0 1 320.40039 91.884766 z M 37.396484 91.976562 A 4.6062994 4.4291339 0 0 1 42.001953 96.40625 A 4.6062994 4.4291339 0 0 1 37.396484 100.83594 A 4.6062994 4.4291339 0 0 1 32.789062 96.40625 A 4.6062994 4.4291339 0 0 1 37.396484 91.976562 z M 116.23438 141.58398 A 4.4291339 4.4291339 0 0 1 120.66406 146.01367 A 4.4291339 4.4291339 0 0 1 116.23438 150.44141 A 4.4291339 4.4291339 0 0 1 111.80469 146.01367 A 4.4291339 4.4291339 0 0 1 116.23438 141.58398 z M 37.572266 191.18945 A 4.4291339 4.4291339 0 0 1 42.001953 195.61914 A 4.4291339 4.4291339 0 0 1 37.572266 200.04883 A 4.4291339 4.4291339 0 0 1 33.144531 195.61914 A 4.4291339 4.4291339 0 0 1 37.572266 191.18945 z M 9.1484375 248.40039 L 12.703125 248.40039 L 12.703125 249.50391 C 12.703125 250.86336 12.456787 251.7893 11.964844 252.28125 C 11.562826 252.68327 10.920491 252.88281 10.037109 252.88281 L 9.1484375 252.88281 L 9.1484375 248.40039 z M 13.591797 248.40039 L 17.859375 248.40039 L 17.859375 259.19922 L 13.591797 259.19922 L 13.591797 248.40039 z M 18.724609 248.40039 L 22.279297 248.40039 L 22.279297 252.88281 L 21.390625 252.88281 C 20.808756 252.88281 20.380534 252.82284 20.105469 252.70117 C 19.830404 252.57422 19.613769 252.43465 19.455078 252.28125 C 19.301676 252.12256 19.169678 251.91602 19.058594 251.66211 C 18.836426 251.14372 18.724609 250.42432 18.724609 249.50391 L 18.724609 248.40039 z M 28.134766 248.40039 L 28.746094 248.40039 L 28.746094 259.19922 L 28.333984 259.19922 C 27.47705 259.19922 26.715332 258.88281 26.048828 258.24805 C 25.46167 257.68733 25.001221 256.94075 24.667969 256.00977 C 24.361165 255.15283 24.207031 254.30396 24.207031 253.46289 C 24.207031 252.19865 24.520345 251.07373 25.144531 250.08984 C 25.588867 249.3916 26.171794 248.90088 26.896484 248.61523 C 27.266764 248.47241 27.67985 248.40039 28.134766 248.40039 z M 30.332031 248.40039 L 34.300781 248.40039 L 34.300781 252.00195 L 32.712891 252.00195 C 31.914143 252.00195 31.29899 251.79988 30.865234 251.39258 C 30.510823 251.05932 30.332031 250.64624 30.332031 250.1543 L 30.332031 248.40039 z M 40.322266 248.40039 L 40.933594 248.40039 L 40.933594 259.19922 L 40.521484 259.19922 C 39.66455 259.19922 38.902832 258.88281 38.236328 258.24805 C 37.64917 257.68733 37.188721 256.94075 36.855469 256.00977 C 36.548665 255.15283 36.394531 254.30396 36.394531 253.46289 C 36.394531 252.19865 36.707845 251.07373 37.332031 250.08984 C 37.776367 249.3916 38.359294 248.90088 39.083984 248.61523 C 39.454264 248.47241 39.86735 248.40039 40.322266 248.40039 z M 42.519531 248.40039 L 46.488281 248.40039 L 46.488281 252.00195 L 44.900391 252.00195 C 44.101643 252.00195 43.48649 251.79988 43.052734 251.39258 C 42.698323 251.05932 42.519531 250.64624 42.519531 250.1543 L 42.519531 248.40039 z M 64.365234 248.40039 L 65.078125 248.40039 L 65.078125 259.19922 L 60.691406 259.19922 L 60.691406 251.86719 C 60.691406 250.69816 60.957923 249.84171 61.492188 249.29688 C 62.079345 248.69913 63.037516 248.40039 64.365234 248.40039 z M 66.546875 248.40039 L 67.259766 248.40039 C 69.20638 248.40039 70.368571 249.05982 70.744141 250.37695 C 70.871094 250.81071 70.933594 251.30648 70.933594 251.86719 L 70.933594 259.19922 L 66.546875 259.19922 L 66.546875 248.40039 z M 52.517578 251.10547 L 53.128906 251.10547 L 53.128906 259.19922 L 52.716797 259.19922 C 51.38379 259.19922 50.351074 258.83546 49.621094 258.10547 C 48.922852 257.40723 48.574219 256.4541 48.574219 255.24805 C 48.574219 254.66618 48.651286 254.12614 48.804688 253.62891 C 48.958089 253.12638 49.196859 252.68807 49.519531 252.3125 C 50.217774 251.50846 51.216309 251.10547 52.517578 251.10547 z M 54.302734 251.10547 L 58.683594 251.10547 L 58.683594 259.19922 L 58.183594 259.19922 C 56.808268 259.19922 55.817871 258.95793 55.214844 258.47656 C 54.606526 257.98991 54.302734 257.18587 54.302734 256.06445 L 54.302734 251.10547 z M 29.919922 254.15234 L 34.300781 254.15234 L 34.300781 256.08984 C 34.300781 257.22184 34.007081 258.02083 33.419922 258.48633 C 32.827474 258.96241 31.849121 259.19922 30.484375 259.19922 L 29.919922 259.19922 L 29.919922 254.15234 z M 42.107422 254.15234 L 46.488281 254.15234 L 46.488281 256.08984 C 46.488281 257.22184 46.194581 258.02083 45.607422 258.48633 C 45.014974 258.96241 44.036621 259.19922 42.671875 259.19922 L 42.107422 259.19922 L 42.107422 254.15234 z M 48.478516 263.7832 C 49.335449 263.7832 49.967692 263.90763 50.375 264.15625 C 50.782308 264.39958 50.986328 264.80509 50.986328 265.37109 C 50.986328 265.9318 50.796875 266.34294 50.416016 266.60742 C 50.040446 266.87191 49.42334 267.00391 48.566406 267.00391 C 46.815511 267.00391 45.939453 266.4563 45.939453 265.36133 C 45.939453 264.80062 46.148519 264.39958 46.566406 264.15625 C 46.984294 263.90763 47.621582 263.7832 48.478516 263.7832 z M 65.039062 265.125 L 69.298828 265.125 L 69.298828 277.27148 L 65.039062 277.27148 L 65.039062 265.125 z M 9.1484375 266.47266 L 13.416016 266.47266 L 13.416016 277.25586 L 9.1484375 277.25586 L 9.1484375 266.47266 z M 14.84375 266.47266 L 15.431641 266.47266 C 17.002686 266.47266 18.17749 266.85099 18.955078 267.60742 C 19.669189 268.30037 20.025391 269.28125 20.025391 270.55078 C 20.025391 271.67749 19.656576 272.58577 18.916016 273.27344 C 18.127848 274.00342 17.040202 274.36719 15.654297 274.36719 L 14.84375 274.36719 L 14.84375 266.47266 z M 80.623047 267.0293 L 81.8125 267.0293 L 81.8125 277.27148 L 81.193359 277.27148 C 78.574951 277.27148 77.265625 276.0765 77.265625 273.68555 L 77.265625 269.22656 L 80.623047 267.0293 z M 92.810547 267.0293 L 94 267.0293 L 94 277.27148 L 93.380859 277.27148 C 90.762451 277.27148 89.453125 276.0765 89.453125 273.68555 L 89.453125 269.22656 L 92.810547 267.0293 z M 72.861328 269.07617 C 73.924561 269.07617 74.648438 269.36483 75.029297 269.94141 C 75.16154 270.14242 75.22657 270.38175 75.226562 270.66211 C 75.226563 271.19637 74.999837 271.60693 74.544922 271.89258 C 74.132324 272.15706 73.589762 272.28906 72.917969 272.28906 C 71.844157 272.28906 71.095052 271.98779 70.671875 271.38477 C 70.529053 271.18376 70.458984 270.94246 70.458984 270.66211 C 70.458984 270.13314 70.700846 269.72957 71.1875 269.44922 C 71.621257 269.2006 72.178955 269.07617 72.861328 269.07617 z M 22.199219 269.17969 L 26.611328 269.17969 L 26.611328 277.27148 L 22.199219 277.27148 L 22.199219 269.17969 z M 30.666016 269.17969 L 31.777344 269.17969 L 31.777344 273.22461 L 27.753906 273.22461 L 27.753906 271.43164 C 27.753906 269.92936 28.724691 269.17969 30.666016 269.17969 z M 37.712891 269.17969 L 38.322266 269.17969 L 38.322266 277.27148 L 37.910156 277.27148 C 36.577148 277.27148 35.546387 276.90771 34.816406 276.17773 C 34.118164 275.47949 33.769531 274.52637 33.769531 273.32031 C 33.769531 272.73844 33.844645 272.1984 33.998047 271.70117 C 34.151449 271.19865 34.390218 270.76034 34.712891 270.38477 C 35.411133 269.58073 36.411621 269.17969 37.712891 269.17969 z M 39.609375 269.17969 L 40.21875 269.17969 C 41.52002 269.17969 42.520508 269.58073 43.21875 270.38477 C 43.848226 271.11475 44.162109 272.08301 44.162109 273.28906 C 44.162109 274.51628 43.813477 275.47949 43.115234 276.17773 C 42.385254 276.90771 41.354492 277.27148 40.021484 277.27148 L 39.609375 277.27148 L 39.609375 269.17969 z M 46.384766 269.17969 L 50.654297 269.17969 L 50.654297 277.56641 C 50.654297 278.84652 50.388346 279.80778 49.859375 280.45312 C 49.256348 281.1884 48.302653 281.55664 46.996094 281.55664 L 46.384766 281.55664 L 46.384766 269.17969 z M 56.826172 269.17969 L 57.4375 269.17969 L 57.4375 277.27148 L 57.025391 277.27148 C 55.692383 277.27148 54.659667 276.90771 53.929688 276.17773 C 53.231445 275.47949 52.882812 274.52637 52.882812 273.32031 C 52.882812 272.73844 52.95988 272.1984 53.113281 271.70117 C 53.266683 271.19865 53.505452 270.76034 53.828125 270.38477 C 54.526367 269.58073 55.524902 269.17969 56.826172 269.17969 z M 58.611328 269.17969 L 59.134766 269.17969 C 61.134277 269.17969 62.353923 269.85677 62.792969 271.21094 C 62.935791 271.66056 63.007814 272.18099 63.007812 272.77344 L 63.007812 273.64648 L 58.611328 273.64648 L 58.611328 269.17969 z M 82.962891 269.17969 L 86.763672 269.17969 L 86.763672 271.83594 L 82.962891 271.83594 L 82.962891 269.17969 z M 95.150391 269.17969 L 98.951172 269.17969 L 98.951172 271.83594 L 95.150391 271.83594 L 95.150391 269.17969 z M 105.58398 269.17969 L 106.19531 269.17969 L 106.19531 277.27148 L 105.7832 277.27148 C 104.4502 277.27148 103.41748 276.90771 102.6875 276.17773 C 101.98926 275.47949 101.64065 274.52637 101.64062 273.32031 C 101.64065 272.73844 101.71769 272.1984 101.87109 271.70117 C 102.0245 271.19865 102.26326 270.76034 102.58594 270.38477 C 103.28418 269.58073 104.28271 269.17969 105.58398 269.17969 z M 107.36914 269.17969 L 111.75 269.17969 L 111.75 277.27148 L 111.25 277.27148 C 109.87467 277.27148 108.88428 277.03215 108.28125 276.55078 C 107.67293 276.06413 107.36914 275.26009 107.36914 274.13867 L 107.36914 269.17969 z M 117.77148 269.17969 L 118.38281 269.17969 L 118.38281 277.27148 L 117.9707 277.27148 C 116.6377 277.27148 115.60498 276.90771 114.875 276.17773 C 114.17676 275.47949 113.82815 274.52637 113.82812 273.32031 C 113.82815 272.73844 113.90519 272.1984 114.05859 271.70117 C 114.212 271.19865 114.45076 270.76034 114.77344 270.38477 C 115.47168 269.58073 116.47021 269.17969 117.77148 269.17969 z M 119.69922 269.17969 L 123.9375 269.17969 L 123.9375 277.56641 C 123.9375 278.13241 123.90275 278.64526 123.83398 279.10547 C 123.76522 279.56567 123.62061 279.95915 123.39844 280.28711 C 122.93294 280.97477 122.05688 281.31836 120.77148 281.31836 L 119.69922 281.31836 L 119.69922 269.17969 z M 129.95117 269.17969 L 130.5625 269.17969 L 130.5625 277.27148 L 130.15039 277.27148 C 128.81738 277.27148 127.78467 276.90771 127.05469 276.17773 C 126.35645 275.47949 126.00781 274.52637 126.00781 273.32031 C 126.00781 272.73844 126.08488 272.1984 126.23828 271.70117 C 126.39168 271.19865 126.63045 270.76034 126.95312 270.38477 C 127.6514 269.58073 128.6499 269.17969 129.95117 269.17969 z M 131.73633 269.17969 L 132.25977 269.17969 C 134.25928 269.17969 135.47892 269.85677 135.91797 271.21094 C 136.06079 271.66056 136.13281 272.18099 136.13281 272.77344 L 136.13281 273.64648 L 131.73633 273.64648 L 131.73633 269.17969 z M 167.40039 271.88477 A 5.3149605 5.3149605 0 0 1 172.71484 277.20117 A 5.3149605 5.3149605 0 0 1 167.40039 282.51562 A 5.3149605 5.3149605 0 0 1 162.08594 277.20117 A 5.3149605 5.3149605 0 0 1 167.40039 271.88477 z M 266.40039 271.88477 A 5.3149605 5.3149605 0 0 1 271.71484 277.20117 A 5.3149605 5.3149605 0 0 1 266.40039 282.51562 A 5.3149605 5.3149605 0 0 1 261.08594 277.20117 A 5.3149605 5.3149605 0 0 1 266.40039 271.88477 z M 70.759766 273.23242 L 71.474609 273.23242 C 73.421224 273.23242 74.583984 273.89185 74.964844 275.20898 C 75.086507 275.64274 75.146484 276.14046 75.146484 276.70117 L 75.146484 277.27148 L 70.759766 277.27148 L 70.759766 273.23242 z M 82.970703 273.88477 L 87.375 273.88477 L 87.375 274.58203 C 87.375 275.48128 87.098958 276.14575 86.548828 276.57422 C 85.95109 277.03971 84.985352 277.27148 83.652344 277.27148 L 82.970703 277.27148 L 82.970703 273.88477 z M 95.158203 273.88477 L 99.5625 273.88477 L 99.5625 274.58203 C 99.5625 275.48128 99.286458 276.14575 98.736328 276.57422 C 98.13859 277.03971 97.172852 277.27148 95.839844 277.27148 L 95.158203 277.27148 L 95.158203 273.88477 z M 58.611328 275.20117 L 62.578125 275.20117 L 62.578125 275.42383 C 62.578125 275.91577 62.401286 276.33138 62.046875 276.66992 C 61.613118 277.07194 60.997965 277.27148 60.199219 277.27148 L 58.611328 277.27148 L 58.611328 275.20117 z M 131.73633 275.20117 L 135.70312 275.20117 L 135.70312 275.42383 C 135.70312 275.91577 135.52629 276.33138 135.17188 276.66992 C 134.73812 277.07194 134.12297 277.27148 133.32422 277.27148 L 131.73633 277.27148 L 131.73633 275.20117 z M 116.91406 278.32031 C 117.55412 278.32031 118.09668 278.44727 118.54102 278.70117 C 119.00651 278.96566 119.24023 279.32186 119.24023 279.77148 C 119.24023 280.2264 119.03117 280.5896 118.61328 280.85938 C 118.21126 281.11856 117.69336 281.24805 117.05859 281.24805 C 116.40267 281.24805 115.85506 281.11856 115.41602 280.85938 C 114.95052 280.58429 114.7168 280.22363 114.7168 279.7793 C 114.7168 279.54655 114.77173 279.33748 114.88281 279.15234 C 114.9939 278.97249 115.14803 278.82284 115.34375 278.70117 C 115.75106 278.44727 116.27401 278.32031 116.91406 278.32031 z M 120.95312 284.05664 L 120.95312 295.20508 L 116.27148 295.20508 L 116.27148 285.35742 L 120.95312 284.05664 z M 90.207031 284.4043 L 91.199219 284.4043 L 91.199219 288.0625 L 86.398438 288.0625 L 86.398438 287.53906 C 86.398437 286.47583 86.769206 285.67179 87.509766 285.12695 C 88.17098 284.64559 89.069743 284.4043 90.207031 284.4043 z M 92.214844 284.4043 L 92.802734 284.4043 C 94.447835 284.4043 95.620687 284.67277 96.324219 285.20703 C 97.03833 285.74658 97.396484 286.6403 97.396484 287.88867 C 97.396484 289.50204 96.570312 290.47787 94.919922 290.81641 C 94.375081 290.92749 93.742839 290.98242 93.023438 290.98242 L 92.214844 290.98242 L 92.214844 284.4043 z M 105.17188 284.4043 L 105.79102 284.4043 L 105.79102 295.20508 L 105.17188 295.20508 C 103.6008 295.20508 102.48291 294.71745 101.81641 293.74414 C 101.20809 292.86076 100.90234 291.45923 100.90234 289.53906 C 100.90234 288.63982 100.97183 287.87305 101.10938 287.23828 C 101.25217 286.59822 101.48844 286.06828 101.81641 285.65039 C 102.46175 284.81991 103.57963 284.4043 105.17188 284.4043 z M 107.08398 284.4043 L 107.70312 284.4043 C 109.29534 284.4043 110.41325 284.81991 111.05859 285.65039 C 111.66691 286.42798 111.97266 287.70955 111.97266 289.49219 C 111.97266 291.44409 111.66691 292.86076 111.05859 293.74414 C 110.39209 294.71745 109.27418 295.20508 107.70312 295.20508 L 107.08398 295.20508 L 107.08398 284.4043 z M 131.47461 284.4043 L 136.13281 284.4043 L 133.59375 295.1875 L 128.92773 295.1875 L 131.47461 284.4043 z M 125.01562 284.41406 L 129.74609 284.41406 L 129.74609 286.29297 C 129.74609 286.88013 129.69173 287.32039 129.58594 287.61133 C 129.48014 287.89697 129.35067 288.13127 129.19727 288.31641 C 129.04915 288.50155 128.84766 288.66073 128.59375 288.79297 C 128.04891 289.0839 127.30176 289.23047 126.34961 289.23047 L 125.01562 289.23047 L 125.01562 284.41406 z M 90.207031 289.4043 L 91.199219 289.4043 L 91.199219 295.20508 L 86.398438 295.20508 L 86.398438 292.53906 C 86.398437 291.47583 86.769206 290.67179 87.509766 290.12695 C 88.17098 289.64559 89.069743 289.4043 90.207031 289.4043 z M 92.318359 292.57812 L 96.992188 292.57812 L 96.992188 295.20508 L 92.318359 295.20508 L 92.318359 292.57812 z "
       style="color:#000000;clip-rule:nonzero;display:inline;overflow:visible;visibility:visible;opacity:1;isolation:auto;mix-blend-mode:normal;color-interpolation:sRGB;color-interpolation-filters:linearRGB;solid-color:#000000;solid-opacity:1;fill:#808080;fill-opacity:1;fill-rule:nonzero;stroke:none;stroke-width:3.54330707;stroke-linecap:butt;stroke-linejoin:miter;stroke-miterlimit:4;stroke-dasharray:none;stroke-dashoffset:0;stroke-opacity:1;color-rendering:auto;image-rendering:auto;shape-rendering:auto;text-rendering:auto;enable-background:accumulate" />
    <text
       id="text4367"
       y="439.0856"
       x="-26.040359"
       style="font-style:normal;font-weight:normal;font-size:20px;line-height:125%;font-family:sans-serif;letter-spacing:0px;word-spacing:0px;fill:#808080;fill-opacity:1;stroke:none;stroke-width:1px;stroke-linecap:butt;stroke-linejoin:miter;stroke-opacity:1;opacity:1;"
       xml:space="preserve"><tspan
         y="439.0856"
         x="-26.040359"
         id="tspan4369" /></text>
    <g
       style="fill:#808080;opacity:1"
       transform="translate(3.5036839,0)"
       id="g5748">
      <path
         style="color:#000000;clip-rule:nonzero;display:inline;overflow:visible;visibility:visible;opacity:1;isolation:auto;mix-blend-mode:normal;color-interpolation:sRGB;color-interpolation-filters:linearRGB;solid-color:#000000;solid-opacity:1;fill:#808080;fill-opacity:1;fill-rule:nonzero;stroke:none;stroke-width:0.35433072;stroke-linecap:butt;stroke-linejoin:miter;stroke-miterlimit:4;stroke-dasharray:none;stroke-dashoffset:0;stroke-opacity:1;color-rendering:auto;image-rendering:auto;shape-rendering:auto;text-rendering:auto;enable-background:accumulate"
         d="m -85.441339,117.02794 a 8.8582678,8.8582678 0 0 0 -8.85742,8.85938 8.8582678,8.8582678 0 0 0 8.85742,8.85742 8.8582678,8.8582678 0 0 0 8.85938,-8.85742 8.8582678,8.8582678 0 0 0 -8.85938,-8.85938 z m 0,3.54297 a 5.3149605,5.3149605 0 0 1 5.31641,5.31641 5.3149605,5.3149605 0 0 1 -5.31641,5.31445 5.3149605,5.3149605 0 0 1 -5.31445,-5.31445 5.3149605,5.3149605 0 0 1 5.31445,-5.31641 z"
         id="path6533" />
      <path
         id="path6538"
         d="m -63.841339,117.02794 a 8.8582678,8.8582678 0 0 0 -8.85742,8.85938 8.8582678,8.8582678 0 0 0 8.85742,8.85742 8.8582678,8.8582678 0 0 0 8.85938,-8.85742 8.8582678,8.8582678 0 0 0 -8.85938,-8.85938 z m 0,3.54297 a 5.3149605,5.3149605 0 0 1 5.31641,5.31641 5.3149605,5.3149605 0 0 1 -5.31641,5.31445 5.3149605,5.3149605 0 0 1 -5.31445,-5.31445 5.3149605,5.3149605 0 0 1 5.31445,-5.31641 z"
         style="color:#000000;clip-rule:nonzero;display:inline;overflow:visible;visibility:visible;opacity:1;isolation:auto;mix-blend-mode:normal;color-interpolation:sRGB;color-interpolation-filters:linearRGB;solid-color:#000000;solid-opacity:1;fill:#808080;fill-opacity:1;fill-rule:nonzero;stroke:none;stroke-width:0.35433072;stroke-linecap:butt;stroke-linejoin:miter;stroke-miterlimit:4;stroke-dasharray:none;stroke-dashoffset:0;stroke-opacity:1;color-rendering:auto;image-rendering:auto;shape-rendering:auto;text-rendering:auto;enable-background:accumulate" />
      <path
         style="color:#000000;clip-rule:nonzero;display:inline;overflow:visible;visibility:visible;opacity:1;isolation:auto;mix-blend-mode:normal;color-interpolation:sRGB;color-interpolation-filters:linearRGB;solid-color:#000000;solid-opacity:1;fill:#808080;fill-opacity:1;fill-rule:nonzero;stroke:none;stroke-width:0.35433072;stroke-linecap:butt;stroke-linejoin:miter;stroke-miterlimit:4;stroke-dasharray:none;stroke-dashoffset:0;stroke-opacity:1;color-rendering:auto;image-rendering:auto;shape-rendering:auto;text-rendering:auto;enable-background:accumulate"
         d="m -42.241339,117.02649 a 8.8582678,8.8582678 0 0 0 -8.85742,8.85938 8.8582678,8.8582678 0 0 0 8.85742,8.85742 8.8582678,8.8582678 0 0 0 8.85938,-8.85742 8.8582678,8.8582678 0 0 0 -8.85938,-8.85938 z m 0,3.54297 a 5.3149605,5.3149605 0 0 1 5.31641,5.31641 5.3149605,5.3149605 0 0 1 -5.31641,5.31445 5.3149605,5.3149605 0 0 1 -5.31445,-5.31445 5.3149605,5.3149605 0 0 1 5.31445,-5.31641 z"
         id="path6540" />
      <path
         id="path6542"
         d="m -20.641339,117.02649 a 8.8582678,8.8582678 0 0 0 -8.85742,8.85938 8.8582678,8.8582678 0 0 0 8.85742,8.85742 8.8582678,8.8582678 0 0 0 8.85938,-8.85742 8.8582678,8.8582678 0 0 0 -8.85938,-8.85938 z m 0,3.54297 a 5.3149605,5.3149605 0 0 1 5.31641,5.31641 5.3149605,5.3149605 0 0 1 -5.31641,5.31445 5.3149605,5.3149605 0 0 1 -5.31445,-5.31445 5.3149605,5.3149605 0 0 1 5.31445,-5.31641 z"
         style="color:#000000;clip-rule:nonzero;display:inline;overflow:visible;visibility:visible;opacity:1;isolation:auto;mix-blend-mode:normal;color-interpolation:sRGB;color-interpolation-filters:linearRGB;solid-color:#000000;solid-opacity:1;fill:#808080;fill-opacity:1;fill-rule:nonzero;stroke:none;stroke-width:0.35433072;stroke-linecap:butt;stroke-linejoin:miter;stroke-miterlimit:4;stroke-dasharray:none;stroke-dashoffset:0;stroke-opacity:1;color-rendering:auto;image-rendering:auto;shape-rendering:auto;text-rendering:auto;enable-background:accumulate" />
      <path
         style="color:#000000;clip-rule:nonzero;display:inline;overflow:visible;visibility:visible;opacity:1;isolation:auto;mix-blend-mode:normal;color-interpolation:sRGB;color-interpolation-filters:linearRGB;solid-color:#000000;solid-opacity:1;fill:#808080;fill-opacity:1;fill-rule:nonzero;stroke:none;stroke-width:0.35433072;stroke-linecap:butt;stroke-linejoin:miter;stroke-miterlimit:4;stroke-dasharray:none;stroke-dashoffset:0;stroke-opacity:1;color-rendering:auto;image-rendering:auto;shape-rendering:auto;text-rendering:auto;enable-background:accumulate"
         d="m 0.958661,117.02794 a 8.8582678,8.8582678 0 0 0 -8.85742,8.85938 8.8582678,8.8582678 0 0 0 8.85742,8.85742 8.8582678,8.8582678 0 0 0 8.85938,-8.85742 8.8582678,8.8582678 0 0 0 -8.85938,-8.85938 z m 0,3.54297 a 5.3149605,5.3149605 0 0 1 5.31641,5.31641 5.3149605,5.3149605 0 0 1 -5.31641,5.31445 5.3149605,5.3149605 0 0 1 -5.31445,-5.31445 5.3149605,5.3149605 0 0 1 5.31445,-5.31641 z"
         id="path6544" />
      <path
         id="path6546"
         d="m 22.558661,117.02794 a 8.8582678,8.8582678 0 0 0 -8.85742,8.85938 8.8582678,8.8582678 0 0 0 8.85742,8.85742 8.8582678,8.8582678 0 0 0 8.85938,-8.85742 8.8582678,8.8582678 0 0 0 -8.85938,-8.85938 z m 0,3.54297 a 5.3149605,5.3149605 0 0 1 5.31641,5.31641 5.3149605,5.3149605 0 0 1 -5.31641,5.31445 5.3149605,5.3149605 0 0 1 -5.31445,-5.31445 5.3149605,5.3149605 0 0 1 5.31445,-5.31641 z"
         style="color:#000000;clip-rule:nonzero;display:inline;overflow:visible;visibility:visible;opacity:1;isolation:auto;mix-blend-mode:normal;color-interpolation:sRGB;color-interpolation-filters:linearRGB;solid-color:#000000;solid-opacity:1;fill:#808080;fill-opacity:1;fill-rule:nonzero;stroke:none;stroke-width:0.35433072;stroke-linecap:butt;stroke-linejoin:miter;stroke-miterlimit:4;stroke-dasharray:none;stroke-dashoffset:0;stroke-opacity:1;color-rendering:auto;image-rendering:auto;shape-rendering:auto;text-rendering:auto;enable-background:accumulate" />
      <path
         style="color:#000000;clip-rule:nonzero;display:inline;overflow:visible;visibility:visible;opacity:1;isolation:auto;mix-blend-mode:normal;color-interpolation:sRGB;color-interpolation-filters:linearRGB;solid-color:#000000;solid-opacity:1;fill:#808080;fill-opacity:1;fill-rule:nonzero;stroke:none;stroke-width:0.35433072;stroke-linecap:butt;stroke-linejoin:miter;stroke-miterlimit:4;stroke-dasharray:none;stroke-dashoffset:0;stroke-opacity:1;color-rendering:auto;image-rendering:auto;shape-rendering:auto;text-rendering:auto;enable-background:accumulate"
         d="m 44.158662,117.02649 a 8.8582678,8.8582678 0 0 0 -8.857421,8.85938 8.8582678,8.8582678 0 0 0 8.857421,8.85742 8.8582678,8.8582678 0 0 0 8.85938,-8.85742 8.8582678,8.8582678 0 0 0 -8.85938,-8.85938 z m 0,3.54297 a 5.3149605,5.3149605 0 0 1 5.31641,5.31641 5.3149605,5.3149605 0 0 1 -5.31641,5.31445 5.3149605,5.3149605 0 0 1 -5.31445,-5.31445 5.3149605,5.3149605 0 0 1 5.31445,-5.31641 z"
         id="path6548" />
      <path
         id="path6550"
         d="m 65.758662,117.02794 a 8.8582678,8.8582678 0 0 0 -8.85742,8.85938 8.8582678,8.8582678 0 0 0 8.85742,8.85742 8.8582678,8.8582678 0 0 0 8.85938,-8.85742 8.8582678,8.8582678 0 0 0 -8.85938,-8.85938 z m 0,3.54297 a 5.3149605,5.3149605 0 0 1 5.31641,5.31641 5.3149605,5.3149605 0 0 1 -5.31641,5.31445 5.3149605,5.3149605 0 0 1 -5.31445,-5.31445 5.3149605,5.3149605 0 0 1 5.31445,-5.31641 z"
         style="color:#000000;clip-rule:nonzero;display:inline;overflow:visible;visibility:visible;opacity:1;isolation:auto;mix-blend-mode:normal;color-interpolation:sRGB;color-interpolation-filters:linearRGB;solid-color:#000000;solid-opacity:1;fill:#808080;fill-opacity:1;fill-rule:nonzero;stroke:none;stroke-width:0.35433072;stroke-linecap:butt;stroke-linejoin:miter;stroke-miterlimit:4;stroke-dasharray:none;stroke-dashoffset:0;stroke-opacity:1;color-rendering:auto;image-rendering:auto;shape-rendering:auto;text-rendering:auto;enable-background:accumulate" />
      <path
         style="color:#000000;clip-rule:nonzero;display:inline;overflow:visible;visibility:visible;opacity:1;isolation:auto;mix-blend-mode:normal;color-interpolation:sRGB;color-interpolation-filters:linearRGB;solid-color:#000000;solid-opacity:1;fill:#808080;fill-opacity:1;fill-rule:nonzero;stroke:none;stroke-width:0.35433072;stroke-linecap:butt;stroke-linejoin:miter;stroke-miterlimit:4;stroke-dasharray:none;stroke-dashoffset:0;stroke-opacity:1;color-rendering:auto;image-rendering:auto;shape-rendering:auto;text-rendering:auto;enable-background:accumulate"
         d="m 87.358671,117.02794 a 8.8582678,8.8582678 0 0 0 -8.857429,8.85938 8.8582678,8.8582678 0 0 0 8.857429,8.85742 8.8582678,8.8582678 0 0 0 8.85937,-8.85742 8.8582678,8.8582678 0 0 0 -8.85937,-8.85938 z m 0,3.54297 a 5.3149605,5.3149605 0 0 1 5.3164,5.31641 5.3149605,5.3149605 0 0 1 -5.3164,5.31445 5.3149605,5.3149605 0 0 1 -5.314459,-5.31445 5.3149605,5.3149605 0 0 1 5.314459,-5.31641 z"
         id="path6552" />
      <path
         id="path6554"
         d="m 108.95867,117.02794 a 8.8582678,8.8582678 0 0 0 -8.85743,8.85938 8.8582678,8.8582678 0 0 0 8.85743,8.85742 8.8582678,8.8582678 0 0 0 8.85937,-8.85742 8.8582678,8.8582678 0 0 0 -8.85937,-8.85938 z m 0,3.54297 a 5.3149605,5.3149605 0 0 1 5.3164,5.31641 5.3149605,5.3149605 0 0 1 -5.3164,5.31445 5.3149605,5.3149605 0 0 1 -5.31446,-5.31445 5.3149605,5.3149605 0 0 1 5.31446,-5.31641 z"
         style="color:#000000;clip-rule:nonzero;display:inline;overflow:visible;visibility:visible;opacity:1;isolation:auto;mix-blend-mode:normal;color-interpolation:sRGB;color-interpolation-filters:linearRGB;solid-color:#000000;solid-opacity:1;fill:#808080;fill-opacity:1;fill-rule:nonzero;stroke:none;stroke-width:0.35433072;stroke-linecap:butt;stroke-linejoin:miter;stroke-miterlimit:4;stroke-dasharray:none;stroke-dashoffset:0;stroke-opacity:1;color-rendering:auto;image-rendering:auto;shape-rendering:auto;text-rendering:auto;enable-background:accumulate" />
      <path
         style="color:#000000;clip-rule:nonzero;display:inline;overflow:visible;visibility:visible;opacity:1;isolation:auto;mix-blend-mode:normal;color-interpolation:sRGB;color-interpolation-filters:linearRGB;solid-color:#000000;solid-opacity:1;fill:#808080;fill-opacity:1;fill-rule:nonzero;stroke:none;stroke-width:0.35433072;stroke-linecap:butt;stroke-linejoin:miter;stroke-miterlimit:4;stroke-dasharray:none;stroke-dashoffset:0;stroke-opacity:1;color-rendering:auto;image-rendering:auto;shape-rendering:auto;text-rendering:auto;enable-background:accumulate"
         d="m 108.95867,117.02794 a 8.8582678,8.8582678 0 0 0 -8.85743,8.85938 8.8582678,8.8582678 0 0 0 8.85743,8.85742 8.8582678,8.8582678 0 0 0 8.85937,-8.85742 8.8582678,8.8582678 0 0 0 -8.85937,-8.85938 z m 0,3.54297 a 5.3149605,5.3149605 0 0 1 5.3164,5.31641 5.3149605,5.3149605 0 0 1 -5.3164,5.31445 5.3149605,5.3149605 0 0 1 -5.31446,-5.31445 5.3149605,5.3149605 0 0 1 5.31446,-5.31641 z"
         id="path6556" />
      <path
         id="path6558"
         d="m 130.55867,117.02794 a 8.8582678,8.8582678 0 0 0 -8.85743,8.85938 8.8582678,8.8582678 0 0 0 8.85743,8.85742 8.8582678,8.8582678 0 0 0 8.85937,-8.85742 8.8582678,8.8582678 0 0 0 -8.85937,-8.85938 z m 0,3.54297 a 5.3149605,5.3149605 0 0 1 5.3164,5.31641 5.3149605,5.3149605 0 0 1 -5.3164,5.31445 5.3149605,5.3149605 0 0 1 -5.31446,-5.31445 5.3149605,5.3149605 0 0 1 5.31446,-5.31641 z"
         style="color:#000000;clip-rule:nonzero;display:inline;overflow:visible;visibility:visible;opacity:1;isolation:auto;mix-blend-mode:normal;color-interpolation:sRGB;color-interpolation-filters:linearRGB;solid-color:#000000;solid-opacity:1;fill:#808080;fill-opacity:1;fill-rule:nonzero;stroke:none;stroke-width:0.35433072;stroke-linecap:butt;stroke-linejoin:miter;stroke-miterlimit:4;stroke-dasharray:none;stroke-dashoffset:0;stroke-opacity:1;color-rendering:auto;image-rendering:auto;shape-rendering:auto;text-rendering:auto;enable-background:accumulate" />
      <path
         style="color:#000000;clip-rule:nonzero;display:inline;overflow:visible;visibility:visible;opacity:1;isolation:auto;mix-blend-mode:normal;color-interpolation:sRGB;color-interpolation-filters:linearRGB;solid-color:#000000;solid-opacity:1;fill:#808080;fill-opacity:1;fill-rule:nonzero;stroke:none;stroke-width:0.35433072;stroke-linecap:butt;stroke-linejoin:miter;stroke-miterlimit:4;stroke-dasharray:none;stroke-dashoffset:0;stroke-opacity:1;color-rendering:auto;image-rendering:auto;shape-rendering:auto;text-rendering:auto;enable-background:accumulate"
         d="m 130.55867,117.02794 a 8.8582678,8.8582678 0 0 0 -8.85743,8.85938 8.8582678,8.8582678 0 0 0 8.85743,8.85742 8.8582678,8.8582678 0 0 0 8.85937,-8.85742 8.8582678,8.8582678 0 0 0 -8.85937,-8.85938 z m 0,3.54297 a 5.3149605,5.3149605 0 0 1 5.3164,5.31641 5.3149605,5.3149605 0 0 1 -5.3164,5.31445 5.3149605,5.3149605 0 0 1 -5.31446,-5.31445 5.3149605,5.3149605 0 0 1 5.31446,-5.31641 z"
         id="path6560" />
      <path
         id="path6562"
         d="m 152.15867,117.02794 a 8.8582678,8.8582678 0 0 0 -8.85743,8.85938 8.8582678,8.8582678 0 0 0 8.85743,8.85742 8.8582678,8.8582678 0 0 0 8.85937,-8.85742 8.8582678,8.8582678 0 0 0 -8.85937,-8.85938 z m 0,3.54297 a 5.3149605,5.3149605 0 0 1 5.3164,5.31641 5.3149605,5.3149605 0 0 1 -5.3164,5.31445 5.3149605,5.3149605 0 0 1 -5.31446,-5.31445 5.3149605,5.3149605 0 0 1 5.31446,-5.31641 z"
         style="color:#000000;clip-rule:nonzero;display:inline;overflow:visible;visibility:visible;opacity:1;isolation:auto;mix-blend-mode:normal;color-interpolation:sRGB;color-interpolation-filters:linearRGB;solid-color:#000000;solid-opacity:1;fill:#808080;fill-opacity:1;fill-rule:nonzero;stroke:none;stroke-width:0.35433072;stroke-linecap:butt;stroke-linejoin:miter;stroke-miterlimit:4;stroke-dasharray:none;stroke-dashoffset:0;stroke-opacity:1;color-rendering:auto;image-rendering:auto;shape-rendering:auto;text-rendering:auto;enable-background:accumulate" />
      <path
         id="path5608"
         d="m 173.75866,117.02794 a 8.8582678,8.8582678 0 0 0 -8.85742,8.85938 8.8582678,8.8582678 0 0 0 8.85742,8.85742 8.8582678,8.8582678 0 0 0 8.85938,-8.85742 8.8582678,8.8582678 0 0 0 -8.85938,-8.85938 z m 0,3.54297 a 5.3149605,5.3149605 0 0 1 5.31641,5.31641 5.3149605,5.3149605 0 0 1 -5.31641,5.31445 5.3149605,5.3149605 0 0 1 -5.31445,-5.31445 5.3149605,5.3149605 0 0 1 5.31445,-5.31641 z"
         style="color:#000000;clip-rule:nonzero;display:inline;overflow:visible;visibility:visible;opacity:1;isolation:auto;mix-blend-mode:normal;color-interpolation:sRGB;color-interpolation-filters:linearRGB;solid-color:#000000;solid-opacity:1;fill:#808080;fill-opacity:1;fill-rule:nonzero;stroke:none;stroke-width:0.35433072;stroke-linecap:butt;stroke-linejoin:miter;stroke-miterlimit:4;stroke-dasharray:none;stroke-dashoffset:0;stroke-opacity:1;color-rendering:auto;image-rendering:auto;shape-rendering:auto;text-rendering:auto;enable-background:accumulate" />
      <path
         style="color:#000000;clip-rule:nonzero;display:inline;overflow:visible;visibility:visible;opacity:1;isolation:auto;mix-blend-mode:normal;color-interpolation:sRGB;color-interpolation-filters:linearRGB;solid-color:#000000;solid-opacity:1;fill:#808080;fill-opacity:1;fill-rule:nonzero;stroke:none;stroke-width:0.35433072;stroke-linecap:butt;stroke-linejoin:miter;stroke-miterlimit:4;stroke-dasharray:none;stroke-dashoffset:0;stroke-opacity:1;color-rendering:auto;image-rendering:auto;shape-rendering:auto;text-rendering:auto;enable-background:accumulate"
         d="m 195.35866,117.02794 a 8.8582678,8.8582678 0 0 0 -8.85742,8.85938 8.8582678,8.8582678 0 0 0 8.85742,8.85742 8.8582678,8.8582678 0 0 0 8.85938,-8.85742 8.8582678,8.8582678 0 0 0 -8.85938,-8.85938 z m 0,3.54297 a 5.3149605,5.3149605 0 0 1 5.31641,5.31641 5.3149605,5.3149605 0 0 1 -5.31641,5.31445 5.3149605,5.3149605 0 0 1 -5.31445,-5.31445 5.3149605,5.3149605 0 0 1 5.31445,-5.31641 z"
         id="path5610" />
      <path
         id="path5612"
         d="m 216.95866,117.02649 a 8.8582678,8.8582678 0 0 0 -8.85742,8.85938 8.8582678,8.8582678 0 0 0 8.85742,8.85742 8.8582678,8.8582678 0 0 0 8.85938,-8.85742 8.8582678,8.8582678 0 0 0 -8.85938,-8.85938 z m 0,3.54297 a 5.3149605,5.3149605 0 0 1 5.31641,5.31641 5.3149605,5.3149605 0 0 1 -5.31641,5.31445 5.3149605,5.3149605 0 0 1 -5.31445,-5.31445 5.3149605,5.3149605 0 0 1 5.31445,-5.31641 z"
         style="color:#000000;clip-rule:nonzero;display:inline;overflow:visible;visibility:visible;opacity:1;isolation:auto;mix-blend-mode:normal;color-interpolation:sRGB;color-interpolation-filters:linearRGB;solid-color:#000000;solid-opacity:1;fill:#808080;fill-opacity:1;fill-rule:nonzero;stroke:none;stroke-width:0.35433072;stroke-linecap:butt;stroke-linejoin:miter;stroke-miterlimit:4;stroke-dasharray:none;stroke-dashoffset:0;stroke-opacity:1;color-rendering:auto;image-rendering:auto;shape-rendering:auto;text-rendering:auto;enable-background:accumulate" />
      <path
         style="color:#000000;clip-rule:nonzero;display:inline;overflow:visible;visibility:visible;opacity:1;isolation:auto;mix-blend-mode:normal;color-interpolation:sRGB;color-interpolation-filters:linearRGB;solid-color:#000000;solid-opacity:1;fill:#808080;fill-opacity:1;fill-rule:nonzero;stroke:none;stroke-width:0.35433072;stroke-linecap:butt;stroke-linejoin:miter;stroke-miterlimit:4;stroke-dasharray:none;stroke-dashoffset:0;stroke-opacity:1;color-rendering:auto;image-rendering:auto;shape-rendering:auto;text-rendering:auto;enable-background:accumulate"
         d="m 238.55866,117.02649 a 8.8582678,8.8582678 0 0 0 -8.85742,8.85938 8.8582678,8.8582678 0 0 0 8.85742,8.85742 8.8582678,8.8582678 0 0 0 8.85938,-8.85742 8.8582678,8.8582678 0 0 0 -8.85938,-8.85938 z m 0,3.54297 a 5.3149605,5.3149605 0 0 1 5.31641,5.31641 5.3149605,5.3149605 0 0 1 -5.31641,5.31445 5.3149605,5.3149605 0 0 1 -5.31445,-5.31445 5.3149605,5.3149605 0 0 1 5.31445,-5.31641 z"
         id="path5614" />
    </g>
  </g>
</svg>
