<?xml version="1.0" encoding="UTF-8" standalone="no"?>
<svg
   xmlns:dc="http://purl.org/dc/elements/1.1/"
   xmlns:cc="http://creativecommons.org/ns#"
   xmlns:rdf="http://www.w3.org/1999/02/22-rdf-syntax-ns#"
   xmlns:svg="http://www.w3.org/2000/svg"
   xmlns="http://www.w3.org/2000/svg"
   xmlns:sodipodi="http://sodipodi.sourceforge.net/DTD/sodipodi-0.dtd"
   xmlns:inkscape="http://www.inkscape.org/namespaces/inkscape"
   version="1.1"
   id="svg2"
   height="100mm"
   width="100mm"
   inkscape:version="0.91 r13725"
   sodipodi:docname="Design1.svg">
  <sodipodi:namedview
     pagecolor="#ffffff"
     bordercolor="#666666"
     borderopacity="1"
     objecttolerance="10"
     gridtolerance="10"
     guidetolerance="10"
     inkscape:pageopacity="0"
     inkscape:pageshadow="2"
     inkscape:window-width="1218"
     inkscape:window-height="811"
     id="namedview30"
     showgrid="false"
     inkscape:zoom="1.6949601"
     inkscape:cx="185.48502"
     inkscape:cy="172.37086"
     inkscape:window-x="3816"
     inkscape:window-y="1278"
     inkscape:window-maximized="0"
     inkscape:current-layer="svg2"
     units="mm"
     inkscape:document-units="mm" />
  <defs
     id="defs4">
    <marker
       style="overflow:visible"
       id="Arrow1Lend"
       refX="0"
       refY="0"
       orient="auto">
      <path
         transform="matrix(-0.8,0,0,-0.8,-10,0)"
         style="fill-rule:evenodd;stroke:#000000;stroke-width:1pt;marker-start:none"
         d="M 0,0 5,-5 -12.5,0 5,5 0,0 Z"
         id="path4521"
         inkscape:connector-curvature="0" />
    </marker>
  </defs>
  <metadata
     id="metadata7">
    <rdf:RDF>
      <cc:Work
         rdf:about="">
        <dc:format>image/svg+xml</dc:format>
        <dc:type
           rdf:resource="http://purl.org/dc/dcmitype/StillImage" />
        <dc:title></dc:title>
      </cc:Work>
    </rdf:RDF>
  </metadata>
  <path
     inkscape:connector-curvature="0"
     id="path6579"
     d="m 9.7649549,66.330665 c -3.9888,0 -7.19921,3.2124 -7.19921,7.2012 l 0,273.599595 c 0,3.98875 3.21041,7.19925 7.19921,7.19925 l 334.8007951,0 c 3.9888,0 7.19921,-3.2105 7.19921,-7.19925 l 0,-273.599595 c 0,-3.9888 -3.21041,-7.2012 -7.19921,-7.2012 l -334.8007951,0 z M 150.16536,132.11587 a 5.3149606,5.3149605 0 0 1 5.31445,5.3164 5.3149606,5.3149605 0 0 1 -5.31445,5.3144 5.3149606,5.3149605 0 0 1 -5.31446,-5.3144 5.3149606,5.3149605 0 0 1 5.31446,-5.3164 z m 171,4.5 a 5.3149606,5.3149605 0 0 1 5.31445,5.3164 5.3149606,5.3149605 0 0 1 -5.31445,5.31439 5.3149606,5.3149605 0 0 1 -5.31446,-5.31439 5.3149606,5.3149605 0 0 1 5.31446,-5.3164 z m -283.003915,0.092 a 4.6062995,4.4291339 0 0 1 4.60547,4.4296 4.6062995,4.4291339 0 0 1 -4.60547,4.42969 4.6062995,4.4291339 0 0 1 -4.60741,-4.42969 4.6062995,4.4291339 0 0 1 4.60741,-4.4296 z m 78.837895,49.60739 a 4.429134,4.4291339 0 0 1 4.42969,4.4297 4.429134,4.4291339 0 0 1 -4.42969,4.4277 4.429134,4.4291339 0 0 1 -4.4297,-4.4277 4.429134,4.4291339 0 0 1 4.4297,-4.4297 z m -78.662115,49.6054 a 4.429134,4.4291339 0 0 1 4.42969,4.4297 4.429134,4.4291339 0 0 1 -4.42969,4.4297 4.429134,4.4291339 0 0 1 -4.42772,-4.4297 4.429134,4.4291339 0 0 1 4.42772,-4.4297 z m -27.71484,57.91805 2.13671,0 0,0.3965 c 0,1.27387 -0.26998,2.014 -0.53124,2.27537 -0.21803,0.218 -0.64909,0.3945 -1.42579,0.3945 l -0.17968,0 0,-3.06637 z m 4.44336,0 2.84961,0 0,9.38275 -2.84961,0 0,-9.38275 z m 5.13281,0 2.13672,0 0,3.06637 -0.17969,0 c -0.53007,0 -0.88665,-0.075 -0.99413,-0.12125 -0.21293,-0.0987 -0.35386,-0.19675 -0.43555,-0.27337 -0.0794,-0.0825 -0.16886,-0.21138 -0.25195,-0.40038 0,0 -0.002,0 -0.002,0 -0.16175,-0.37987 -0.27345,-1.01287 -0.27345,-1.873 l 0,-0.3965 z m 11.60742,0 2.55079,0 0,2.1855 -0.8789,0 c -0.67923,0 -1.088,-0.1595 -1.3633,-0.418 -0.22819,-0.2145 -0.30859,-0.4005 -0.30859,-0.72063 l 0,-1.04687 z m 12.1875,0 2.55079,0 0,2.1855 -0.8789,0 c -0.67923,0 -1.088,-0.1595 -1.3633,-0.418 -0.22819,-0.2145 -0.30859,-0.4005 -0.30859,-0.72063 l 0,-1.04687 z m 21.13672,0 0.004,0 0,9.38275 -2.96874,0 0,-6.623 c 0,-1.06125 0.24087,-1.71038 0.59765,-2.07425 0.39978,-0.407 1.14575,-0.6855 2.36719,-0.6855 z m 2.89063,0 0.004,0 c 0.89328,0 1.54739,0.15662 1.98046,0.40237 0.43306,0.24563 0.67878,0.55725 0.82226,1.0605 l 0,0.0125 c 0.10362,0.35413 0.16211,0.783 0.16211,1.291 l 0,6.62313 -2.96875,0 0,-9.38288 z m -39.21876,0.0175 0,9.24012 c -0.53808,-0.0637 -1.03553,-0.1885 -1.5,-0.63075 -0.49383,-0.47175 -0.89915,-1.11575 -1.20312,-1.96487 -0.28214,-0.78813 -0.41797,-1.55213 -0.41797,-2.30663 0,-1.14712 0.27542,-2.126 0.82617,-2.99412 0.37379,-0.58738 0.82564,-0.96163 1.41211,-1.19338 0,0 0.002,0 0.002,0 0.25077,-0.0962 0.5508,-0.138 0.88086,-0.14837 z m 12.1875,0 0,9.24012 c -0.53808,-0.0637 -1.03553,-0.1885 -1.5,-0.63075 -0.49383,-0.47175 -0.89915,-1.11575 -1.20312,-1.96487 -0.28214,-0.78813 -0.41797,-1.55213 -0.41797,-2.30663 0,-1.14712 0.27542,-2.126 0.82617,-2.99412 0.37379,-0.58738 0.82564,-0.96163 1.41211,-1.19338 0,0 0.002,0 0.002,0 0.25077,-0.0962 0.5508,-0.138 0.88086,-0.14837 z m 14.78711,2.6875 2.96289,0 0,6.63087 c -1.11655,-0.0375 -1.95363,-0.23037 -2.31836,-0.5215 -0.40091,-0.32087 -0.64453,-0.864 -0.64453,-1.85737 l 0,-4.252 z m -2.59179,0.0162 0,6.61912 c -1.0206,-0.0538 -1.77776,-0.32262 -2.29882,-0.84375 -0.55367,-0.55375 -0.83789,-1.286 -0.83789,-2.3555 0,-0.51937 0.0668,-0.98712 0.19726,-1.41012 l 0.002,0 c 0.12677,-0.41525 0.31542,-0.75913 0.57226,-1.05863 l 0.002,0 c 0.53701,-0.61712 1.27409,-0.9245 2.36328,-0.94525 z m -21.79102,3.03125 2.9629,0 0,1.23037 c 0,1.00938 -0.24532,1.54825 -0.61328,1.83988 l -0.004,0 c -0.36257,0.2915 -1.18766,0.497 -2.34571,0.5235 l 0,-3.59763 z m 12.1875,0 2.9629,0 0,1.23037 c 0,1.00938 -0.24532,1.54825 -0.61328,1.83988 l -0.004,0 c -0.36257,0.2915 -1.18766,0.497 -2.34571,0.5235 l 0,-3.59763 z m 5.66212,9.62887 0,0 c 0.78834,0 1.30871,0.136 1.52734,0.2695 l 0.006,0 c 0.19914,0.11875 0.26563,0.21175 0.26563,0.60738 0,0.40112 -0.0769,0.52325 -0.26563,0.65437 l -0.004,0 c -0.16752,0.1175 -0.65725,0.26763 -1.44141,0.26763 -0.80158,0 -1.33785,-0.1415 -1.5957,-0.30275 -0.25785,-0.16125 -0.32227,-0.27238 -0.32227,-0.63088 0,-0.38462 0.0593,-0.469 0.27344,-0.59375 l 0.006,0 c 0.23504,-0.13987 0.76243,-0.2735 1.55078,-0.2735 z m 17.26952,1.34375 2.8418,0 0,10.7305 -2.8418,0 0,-10.7305 z m -55.89062,1.34763 2.84961,0 0,9.36725 -2.84961,0 0,-9.36725 z m 5.69531,0.0162 c 1.37796,0.0225 2.3217,0.34937 2.9082,0.92 0.55879,0.54212 0.85547,1.29862 0.85547,2.4355 0,0.9715 -0.28517,1.64562 -0.88281,2.20112 -0.63584,0.58888 -1.51741,0.90638 -2.7793,0.90638 l -0.10156,0 0,-6.463 z m 65.28125,0.541 0.26954,0 0,8.80087 c -1.12878,-0.0187 -1.9155,-0.26262 -2.37892,-0.68562 -0.48088,-0.439 -0.75,-1.09988 -0.75,-2.166 l 0,-4.07625 2.85938,-1.873 z m 12.1875,0 0.26954,0 0,8.80087 c -1.12878,-0.0187 -1.9155,-0.26262 -2.37892,-0.68562 -0.48088,-0.439 -0.75,-1.09988 -0.75,-2.166 l 0,-4.07625 2.85938,-1.873 z m -20.16016,2.047 c 0.935,0 1.36297,0.226 1.57617,0.54875 0.0484,0.0737 0.0801,0.16037 0.0801,0.33012 0,0.33388 -0.0637,0.44938 -0.34961,0.62888 l -0.006,0 c -0.26515,0.17 -0.66518,0.28512 -1.24414,0.28512 -0.94126,0 -1.40497,-0.23162 -1.66601,-0.6035 l -0.004,0 c -0.0511,-0.0725 -0.0801,-0.14812 -0.0801,-0.3105 0,-0.313 0.0532,-0.41537 0.37305,-0.59962 0.29485,-0.16863 0.72491,-0.27925 1.32031,-0.27925 z m -49.95312,0.10375 2.99414,0 0,6.67575 -2.99414,0 0,-6.67575 z m 7.75781,0 0.40234,0 0,2.62887 -2.60546,0 0,-1.084 c 0,-0.5985 0.14673,-0.89362 0.45117,-1.12887 0.30441,-0.2355 0.8725,-0.416 1.75195,-0.416 z m 16.42774,0 2.85157,0 0,7.67962 c 0,1.18113 -0.2512,1.96688 -0.63477,2.4355 -0.42907,0.52325 -1.11467,0.81025 -2.2168,0.83013 l 0,-10.94525 z m 36.57812,0 2.38281,0 0,1.24012 -2.38281,0 0,-1.24012 z m 12.18751,0 2.3828,0 0,1.24012 -2.3828,0 0,-1.24012 z m 12.218745,0 2.96289,0 0,6.62887 c -1.11705,-0.0375 -1.95433,-0.22887 -2.31837,-0.5195 -0.40091,-0.32075 -0.64452,-0.86412 -0.64452,-1.8575 l 0,-4.25187 z m 12.33007,0 2.82032,0 0,7.67962 c 0,0.537 -0.0332,1.01488 -0.0957,1.43363 -0.0561,0.37512 -0.16769,0.6605 -0.32228,0.88862 -0.29556,0.43663 -0.87995,0.72063 -2.03905,0.72063 l -0.36329,0 0,-10.7225 z m -80.089845,0.0162 c 1.08927,0.0213 1.82735,0.32862 2.36328,0.94525 0.50319,0.5835 0.77149,1.35825 0.77149,2.44137 0,1.09288 -0.28863,1.8355 -0.83984,2.38675 -0.52141,0.52138 -1.27494,0.79013 -2.29493,0.84375 l 0,-6.61712 z m -2.70507,0 0,6.61325 c -1.01998,-0.0538 -1.77545,-0.32238 -2.29687,-0.84375 -0.55361,-0.55363 -0.83789,-1.286 -0.83789,-2.3555 0,-0.52088 0.0653,-0.98888 0.19531,-1.41013 l 0.002,0 c 0.12678,-0.41537 0.31552,-0.76137 0.57226,-1.0605 l 0.002,0 c 0.53589,-0.616 1.27445,-0.92225 2.36328,-0.94337 z m 19.11523,0 0,6.61325 c -1.02059,-0.0538 -1.77773,-0.32275 -2.29883,-0.84375 -0.55361,-0.55363 -0.83789,-1.286 -0.83789,-2.3555 0,-0.51925 0.0668,-0.98713 0.19727,-1.41013 l 0.002,0 c 0.12677,-0.41537 0.31554,-0.76137 0.57227,-1.0605 l 0.002,0 c 0.53662,-0.61687 1.27345,-0.92262 2.36328,-0.94337 z m 48.757815,0 0,6.61325 c -1.02059,-0.0538 -1.77775,-0.32275 -2.29884,-0.84375 -0.55361,-0.55363 -0.83786,-1.286 -0.83789,-2.3555 3e-5,-0.51925 0.0667,-0.98725 0.19728,-1.41013 l 0.002,0 c 0.12679,-0.41537 0.31554,-0.76137 0.57226,-1.0605 l 0.002,0 c 0.53663,-0.61687 1.27345,-0.92262 2.36329,-0.94337 z m 12.1875,0 0,6.61325 c -1.02059,-0.0538 -1.77775,-0.32275 -2.29884,-0.84375 -0.55361,-0.55363 -0.83786,-1.286 -0.83789,-2.3555 3e-5,-0.51925 0.0667,-0.98725 0.19728,-1.41013 l 0.002,0 c 0.12679,-0.41537 0.31554,-0.76137 0.57226,-1.0605 l 0.002,0 c 0.53663,-0.61687 1.27345,-0.92262 2.36329,-0.94337 z m 12.17969,0 0,6.61325 c -1.02059,-0.0538 -1.77773,-0.32275 -2.29883,-0.84375 -0.55361,-0.55363 -0.8379,-1.286 -0.8379,-2.3555 0,-0.51925 0.0668,-0.98713 0.19728,-1.41013 l 0.002,0 c 0.12677,-0.41537 0.31553,-0.76137 0.57227,-1.0605 l 0.002,0 c 0.53668,-0.61687 1.27345,-0.92262 2.36328,-0.94337 z m -70.533205,0.02 c 0.79912,0.0263 1.4605,0.14712 1.88476,0.38275 0.46514,0.25825 0.74121,0.59387 0.91211,1.11912 0.11563,0.36463 0.18164,0.8135 0.18164,1.34763 l 0,0.16412 -2.97851,0 0,-3.01362 z m 73.124995,0 c 0.79913,0.0263 1.46049,0.14712 1.88477,0.38275 0.46512,0.25825 0.74121,0.59387 0.91211,1.11912 0.11562,0.36463 0.18164,0.8135 0.18164,1.34763 l 0,0.16412 -2.97852,0 0,-3.01362 z m 34.95509,1.959 a 5.3149606,5.3149605 0 0 1 5.31445,5.31637 5.3149606,5.3149605 0 0 1 -5.31445,5.31438 5.3149606,5.3149605 0 0 1 -5.31446,-5.31438 5.3149606,5.3149605 0 0 1 5.31446,-5.31637 z m 99,0 a 5.3149606,5.3149605 0 0 1 5.31445,5.31637 5.3149606,5.3149605 0 0 1 -5.31445,5.31438 5.3149606,5.3149605 0 0 1 -5.31446,-5.31438 5.3149606,5.3149605 0 0 1 5.31446,-5.31637 z m -194.931655,2.0565 0.006,0 c 0.89328,0 1.54823,0.1565 1.98243,0.4025 0.43335,0.2455 0.67836,0.55825 0.82421,1.0605 0.089,0.31787 0.12826,0.71962 0.13869,1.16012 l -2.95119,0 0,-2.62312 z m 12.21094,0.6525 2.98242,0 c -0.002,0.74425 -0.19078,1.143 -0.54882,1.42175 -0.39139,0.30475 -1.2062,0.53775 -2.4336,0.543 l 0,-1.96475 z m 12.1875,0 2.98242,0 c -0.002,0.74425 -0.19077,1.143 -0.54882,1.42175 -0.39139,0.30475 -1.2062,0.53775 -2.4336,0.543 l 0,-1.96475 z m -36.54687,1.31637 2.3418,0 c -0.0454,0.0725 -0.0283,0.16963 -0.1035,0.24213 -0.27454,0.2525 -0.68163,0.41212 -1.35939,0.41212 l -0.8789,0 0,-0.65425 z m 73.124995,0 2.34179,0 c -0.0454,0.0725 -0.0283,0.16963 -0.1035,0.24213 -0.27452,0.2525 -0.68161,0.41212 -1.35937,0.41212 l -0.8789,0 0,-0.65425 z m -15.53124,3.11913 c 0.54631,0 0.95841,0.1075 1.27538,0.289 0.31648,0.18 0.34179,0.25112 0.34179,0.455 0,0.23787 -0.0378,0.32125 -0.30272,0.49225 -0.25943,0.16725 -0.63155,0.27537 -1.16993,0.27537 -0.56262,0 -0.9773,-0.11 -1.2832,-0.291 -0.32136,-0.19 -0.34961,-0.27287 -0.34961,-0.46862 0,-0.12 0.0219,-0.19063 0.0644,-0.26188 0.0491,-0.0775 0.11363,-0.14462 0.22657,-0.21475 l 0.002,0 c 0.26626,-0.166 0.64901,-0.27337 1.19532,-0.27337 l 0,0 z m 3.33007,5.96087 0,9.50788 -3.26367,0 0,-8.60163 3.26367,-0.90625 z m -30.037105,0.12375 0.2832,0 0,2.24213 -3.34961,0 c 0.0401,-0.7665 0.27263,-1.275 0.78711,-1.65425 0,0 0.002,0 0.002,0 0.5052,-0.36675 1.24219,-0.586 2.27735,-0.586 l 0,0 z m 41.828115,0 3.20314,0 -2.20705,9.36713 -3.20897,0 2.21288,-9.36713 z m -24.24218,0.0125 c 1.40138,0.0175 2.24473,0.3665 2.70507,0.959 l 0.003,0 c 0.44649,0.57063 0.76369,1.70463 0.76369,3.40613 0,1.87787 -0.3186,3.1665 -0.78908,3.84962 l -0.002,0 c -0.50657,0.73975 -1.32257,1.11688 -2.67968,1.13675 l 0,-9.3515 z m 17.93163,0 3.3125,0 0,1.16988 c 0,0.5415 -0.0632,0.92237 -0.11712,1.07225 -0.0842,0.22737 -0.17848,0.38812 -0.26954,0.498 l -0.007,0.0125 c -0.0761,0.095 -0.19354,0.1955 -0.37695,0.291 l -0.006,0 c -0.39465,0.21075 -1.03075,0.35362 -1.91015,0.35362 l -0.625,0 0,-3.39462 z m -20.64257,0.0125 0,9.3495 c -1.35713,-0.02 -2.17506,-0.39687 -2.68164,-1.13662 -0.47261,-0.68625 -0.78906,-1.95788 -0.78906,-3.80288 0,-0.8605 0.0671,-1.57937 0.18945,-2.14637 0.12475,-0.55913 0.32186,-0.98563 0.57226,-1.30463 l 0.003,0 c 0.46035,-0.5925 1.30563,-0.941 2.70704,-0.959 z m -12.158195,0.0125 c 1.46635,0.0212 2.49746,0.27538 2.9707,0.63475 l 0.002,0 c 0.50476,0.38138 0.79101,1.00425 0.79101,2.11713 0,0.68562 -0.16265,1.1415 -0.45116,1.4825 -0.28851,0.341 -0.7423,0.603 -1.45899,0.75 -0.48446,0.0987 -1.07056,0.15225 -1.75391,0.15225 l -0.0996,0 0,-5.13663 z m -2.7168,4.9765 0.2832,0 0,4.38288 -3.38281,0 0,-1.95713 c 0,-0.89725 0.25858,-1.42562 0.82031,-1.83975 0,0 0.002,0 0.002,0 0.5052,-0.36675 1.2422,-0.584 2.27735,-0.584 l 0,0 z m 2.82031,3.17388 3.25586,0 0,1.209 -3.25586,0 0,-1.209 z"
     style="color:#000000;clip-rule:nonzero;display:inline;overflow:visible;visibility:visible;opacity:1;isolation:auto;mix-blend-mode:normal;color-interpolation:sRGB;color-interpolation-filters:linearRGB;solid-color:#000000;solid-opacity:1;fill:#e9afaf;fill-opacity:1;fill-rule:nonzero;stroke:#000000;stroke-width:0.35433071;stroke-linecap:round;stroke-linejoin:miter;stroke-miterlimit:4;stroke-dasharray:none;stroke-dashoffset:0;stroke-opacity:1;color-rendering:auto;image-rendering:auto;shape-rendering:auto;text-rendering:auto;enable-background:accumulate" />
  <path
     style="color:#000000;clip-rule:nonzero;display:inline;overflow:visible;visibility:visible;opacity:1;isolation:auto;mix-blend-mode:normal;color-interpolation:sRGB;color-interpolation-filters:linearRGB;solid-color:#000000;solid-opacity:1;fill:#e9afaf;fill-opacity:1;fill-rule:nonzero;stroke:#000000;stroke-width:0.35433071;stroke-linecap:butt;stroke-linejoin:miter;stroke-miterlimit:4;stroke-dasharray:none;stroke-dashoffset:0;stroke-opacity:1;color-rendering:auto;image-rendering:auto;shape-rendering:auto;text-rendering:auto;enable-background:accumulate"
     d="m 9.2727759,34.488865 c -3.600419,0.22949 -6.458799,3.07664 -6.707031,6.67188 l 0,18.49805 c 0.248232,3.59524 3.106612,6.44238 6.707031,6.67187 l 18.4277351,0 c 3.60042,-0.22949 6.4588,-3.07663 6.707032,-6.67187 l 0,-18.49805 c -0.248232,-3.59524 -3.106612,-6.44239 -6.707032,-6.67188 l -18.4277351,0 z"
     id="rect5564"
     inkscape:connector-curvature="0" />
  <text
     sodipodi:linespacing="125%"
     xml:space="preserve"
     style="font-style:normal;font-weight:normal;font-size:20px;line-height:125%;font-family:sans-serif;letter-spacing:0px;word-spacing:0px;opacity:1;fill:#e9afaf;fill-opacity:1;stroke:none;stroke-width:1px;stroke-linecap:butt;stroke-linejoin:miter;stroke-opacity:1;"
     x="70.199997"
     y="366.93066"
     id="text4367"><tspan
       id="tspan4369"
       x="70.199997"
       y="366.93066"
       style="fill:#e9afaf;" /></text>
  <path
     inkscape:connector-curvature="0"
     id="path4525"
     d="m 9.2727759,2.647065 c -3.600419,0.22949 -6.458799,3.07664 -6.707031,6.67188 l 0,18.49805 c 0.248232,3.59524 3.106612,6.44238 6.707031,6.67187 l 18.4277351,0 c 3.60042,-0.22949 6.4588,-3.07663 6.707032,-6.67187 l 0,-18.49805 c -0.248232,-3.59524 -3.106612,-6.44239 -6.707032,-6.67188 l -18.4277351,0 z"
     style="color:#000000;clip-rule:nonzero;display:inline;overflow:visible;visibility:visible;opacity:1;isolation:auto;mix-blend-mode:normal;color-interpolation:sRGB;color-interpolation-filters:linearRGB;solid-color:#000000;solid-opacity:1;fill:#e9afaf;fill-opacity:1;fill-rule:nonzero;stroke:#000000;stroke-width:0.35433071;stroke-linecap:butt;stroke-linejoin:miter;stroke-miterlimit:4;stroke-dasharray:none;stroke-dashoffset:0;stroke-opacity:1;color-rendering:auto;image-rendering:auto;shape-rendering:auto;text-rendering:auto;enable-background:accumulate" />
  <path
     inkscape:connector-curvature="0"
     id="path4527"
     d="m 41.114574,34.488865 c -3.600419,0.22949 -6.458799,3.07664 -6.707031,6.67188 l 0,18.49805 c 0.248232,3.59524 3.106612,6.44238 6.707031,6.67187 l 18.427735,0 c 3.60042,-0.22949 6.4588,-3.07663 6.70703,-6.67187 l 0,-18.49805 c -0.24823,-3.59524 -3.10661,-6.44239 -6.70703,-6.67188 l -18.427735,0 z"
     style="color:#000000;clip-rule:nonzero;display:inline;overflow:visible;visibility:visible;opacity:1;isolation:auto;mix-blend-mode:normal;color-interpolation:sRGB;color-interpolation-filters:linearRGB;solid-color:#000000;solid-opacity:1;fill:#e9afaf;fill-opacity:1;fill-rule:nonzero;stroke:#000000;stroke-width:0.35433071;stroke-linecap:butt;stroke-linejoin:miter;stroke-miterlimit:4;stroke-dasharray:none;stroke-dashoffset:0;stroke-opacity:1;color-rendering:auto;image-rendering:auto;shape-rendering:auto;text-rendering:auto;enable-background:accumulate" />
  <path
     style="color:#000000;clip-rule:nonzero;display:inline;overflow:visible;visibility:visible;opacity:1;isolation:auto;mix-blend-mode:normal;color-interpolation:sRGB;color-interpolation-filters:linearRGB;solid-color:#000000;solid-opacity:1;fill:#e9afaf;fill-opacity:1;fill-rule:nonzero;stroke:#000000;stroke-width:0.35433071;stroke-linecap:butt;stroke-linejoin:miter;stroke-miterlimit:4;stroke-dasharray:none;stroke-dashoffset:0;stroke-opacity:1;color-rendering:auto;image-rendering:auto;shape-rendering:auto;text-rendering:auto;enable-background:accumulate"
     d="m 41.114574,2.647065 c -3.600419,0.22949 -6.458799,3.07664 -6.707031,6.67188 l 0,18.49805 c 0.248232,3.59524 3.106612,6.44238 6.707031,6.67187 l 18.427735,0 c 3.60042,-0.22949 6.4588,-3.07663 6.70703,-6.67187 l 0,-18.49805 c -0.24823,-3.59524 -3.10661,-6.44239 -6.70703,-6.67188 l -18.427735,0 z"
     id="path4531"
     inkscape:connector-curvature="0" />
  <path
     inkscape:connector-curvature="0"
     id="path4533"
     d="m 72.95637,2.647065 c -3.600419,0.22949 -6.458799,3.07664 -6.707031,6.67188 l 0,18.49805 c 0.248232,3.59524 3.106612,6.44238 6.707031,6.67187 l 18.427735,0 c 3.60042,-0.22949 6.4588,-3.07663 6.70703,-6.67187 l 0,-18.49805 c -0.24823,-3.59524 -3.10661,-6.44239 -6.70703,-6.67188 l -18.427735,0 z"
     style="color:#000000;clip-rule:nonzero;display:inline;overflow:visible;visibility:visible;opacity:1;isolation:auto;mix-blend-mode:normal;color-interpolation:sRGB;color-interpolation-filters:linearRGB;solid-color:#000000;solid-opacity:1;fill:#e9afaf;fill-opacity:1;fill-rule:nonzero;stroke:#000000;stroke-width:0.35433071;stroke-linecap:butt;stroke-linejoin:miter;stroke-miterlimit:4;stroke-dasharray:none;stroke-dashoffset:0;stroke-opacity:1;color-rendering:auto;image-rendering:auto;shape-rendering:auto;text-rendering:auto;enable-background:accumulate" />
  <path
     style="color:#000000;clip-rule:nonzero;display:inline;overflow:visible;visibility:visible;opacity:1;isolation:auto;mix-blend-mode:normal;color-interpolation:sRGB;color-interpolation-filters:linearRGB;solid-color:#000000;solid-opacity:1;fill:#e9afaf;fill-opacity:1;fill-rule:nonzero;stroke:#000000;stroke-width:0.35433071;stroke-linecap:butt;stroke-linejoin:miter;stroke-miterlimit:4;stroke-dasharray:none;stroke-dashoffset:0;stroke-opacity:1;color-rendering:auto;image-rendering:auto;shape-rendering:auto;text-rendering:auto;enable-background:accumulate"
     d="m 72.95637,34.488865 c -3.600419,0.22949 -6.458799,3.07664 -6.707031,6.67188 l 0,18.49805 c 0.248232,3.59524 3.106612,6.44238 6.707031,6.67187 l 18.427735,0 c 3.60042,-0.22949 6.4588,-3.07663 6.70703,-6.67187 l 0,-18.49805 c -0.24823,-3.59524 -3.10661,-6.44239 -6.70703,-6.67188 l -18.427735,0 z"
     id="path4535"
     inkscape:connector-curvature="0" />
  <path
     inkscape:connector-curvature="0"
     id="path4537"
     d="m 104.79817,34.488865 c -3.60042,0.22949 -6.458803,3.07664 -6.707035,6.67188 l 0,18.49805 c 0.248232,3.59524 3.106615,6.44238 6.707035,6.67187 l 18.42773,0 c 3.60042,-0.22949 6.4588,-3.07663 6.70703,-6.67187 l 0,-18.49805 c -0.24823,-3.59524 -3.10661,-6.44239 -6.70703,-6.67188 l -18.42773,0 z"
     style="color:#000000;clip-rule:nonzero;display:inline;overflow:visible;visibility:visible;opacity:1;isolation:auto;mix-blend-mode:normal;color-interpolation:sRGB;color-interpolation-filters:linearRGB;solid-color:#000000;solid-opacity:1;fill:#e9afaf;fill-opacity:1;fill-rule:nonzero;stroke:#000000;stroke-width:0.35433071;stroke-linecap:butt;stroke-linejoin:miter;stroke-miterlimit:4;stroke-dasharray:none;stroke-dashoffset:0;stroke-opacity:1;color-rendering:auto;image-rendering:auto;shape-rendering:auto;text-rendering:auto;enable-background:accumulate" />
  <path
     style="color:#000000;clip-rule:nonzero;display:inline;overflow:visible;visibility:visible;opacity:1;isolation:auto;mix-blend-mode:normal;color-interpolation:sRGB;color-interpolation-filters:linearRGB;solid-color:#000000;solid-opacity:1;fill:#e9afaf;fill-opacity:1;fill-rule:nonzero;stroke:#000000;stroke-width:0.35433071;stroke-linecap:butt;stroke-linejoin:miter;stroke-miterlimit:4;stroke-dasharray:none;stroke-dashoffset:0;stroke-opacity:1;color-rendering:auto;image-rendering:auto;shape-rendering:auto;text-rendering:auto;enable-background:accumulate"
     d="m 104.79817,2.647065 c -3.60042,0.22949 -6.458803,3.07664 -6.707035,6.67188 l 0,18.49805 c 0.248232,3.59524 3.106615,6.44238 6.707035,6.67187 l 18.42773,0 c 3.60042,-0.22949 6.4588,-3.07663 6.70703,-6.67187 l 0,-18.49805 c -0.24823,-3.59524 -3.10661,-6.44239 -6.70703,-6.67188 l -18.42773,0 z"
     id="path4539"
     inkscape:connector-curvature="0" />
  <path
     inkscape:connector-curvature="0"
     style="color:#000000;clip-rule:nonzero;display:inline;overflow:visible;visibility:visible;opacity:1;isolation:auto;mix-blend-mode:normal;color-interpolation:sRGB;color-interpolation-filters:linearRGB;solid-color:#000000;solid-opacity:1;fill:#e9afaf;fill-opacity:1;fill-rule:nonzero;stroke:#000000;stroke-width:0.35433071;stroke-linecap:butt;stroke-linejoin:miter;stroke-miterlimit:4;stroke-dasharray:none;stroke-dashoffset:0;stroke-opacity:1;color-rendering:auto;image-rendering:auto;shape-rendering:auto;text-rendering:auto;enable-background:accumulate"
     d="m 138.79035,17.927416 a 8.8582678,8.8582678 0 0 0 -8.85742,8.85938 8.8582678,8.8582678 0 0 0 8.85742,8.85742 8.8582678,8.8582678 0 0 0 8.85938,-8.85742 8.8582678,8.8582678 0 0 0 -8.85938,-8.85938 z m 0,3.54297 a 5.3149605,5.3149605 0 0 1 5.31641,5.31641 5.3149605,5.3149605 0 0 1 -5.31641,5.31445 5.3149605,5.3149605 0 0 1 -5.31445,-5.31445 5.3149605,5.3149605 0 0 1 5.31445,-5.31641 z"
     id="path4543" />
  <path
     id="path6546"
     d="m 138.79035,48.613865 a 8.8582678,8.8582678 0 0 0 -8.85742,8.85938 8.8582678,8.8582678 0 0 0 8.85742,8.85742 8.8582678,8.8582678 0 0 0 8.85938,-8.85742 8.8582678,8.8582678 0 0 0 -8.85938,-8.85938 z m 0,3.54297 a 5.3149605,5.3149605 0 0 1 5.31641,5.31641 5.3149605,5.3149605 0 0 1 -5.31641,5.31445 5.3149605,5.3149605 0 0 1 -5.31445,-5.31445 5.3149605,5.3149605 0 0 1 5.31445,-5.31641 z"
     style="color:#000000;clip-rule:nonzero;display:inline;overflow:visible;visibility:visible;opacity:1;isolation:auto;mix-blend-mode:normal;color-interpolation:sRGB;color-interpolation-filters:linearRGB;solid-color:#000000;solid-opacity:1;fill:#e9afaf;fill-opacity:1;fill-rule:nonzero;stroke:#000000;stroke-width:0.35433071;stroke-linecap:butt;stroke-linejoin:miter;stroke-miterlimit:4;stroke-dasharray:none;stroke-dashoffset:0;stroke-opacity:1;color-rendering:auto;image-rendering:auto;shape-rendering:auto;text-rendering:auto;enable-background:accumulate"
     inkscape:connector-curvature="0" />
  <path
     inkscape:connector-curvature="0"
     style="color:#000000;clip-rule:nonzero;display:inline;overflow:visible;visibility:visible;opacity:1;isolation:auto;mix-blend-mode:normal;color-interpolation:sRGB;color-interpolation-filters:linearRGB;solid-color:#000000;solid-opacity:1;fill:#e9afaf;fill-opacity:1;fill-rule:nonzero;stroke:#000000;stroke-width:0.35433071;stroke-linecap:butt;stroke-linejoin:miter;stroke-miterlimit:4;stroke-dasharray:none;stroke-dashoffset:0;stroke-opacity:1;color-rendering:auto;image-rendering:auto;shape-rendering:auto;text-rendering:auto;enable-background:accumulate"
     d="m 139.97769,37.700665 a 8.8582678,8.8582678 0 0 0 3.24374,12.100441 8.8582678,8.8582678 0 0 0 12.09946,-3.242041 8.8582678,8.8582678 0 0 0 -3.24106,-12.101158 8.8582678,8.8582678 0 0 0 -12.10214,3.242758 z m 3.0683,1.771485 a 5.3149605,5.3149605 0 0 1 7.26235,-1.945941 5.3149605,5.3149605 0 0 1 1.94425,7.261371 5.3149605,5.3149605 0 0 1 -7.25968,1.945224 5.3149605,5.3149605 0 0 1 -1.94692,-7.260654 z"
     id="path4571" />
  <path
     id="path4545"
     d="m 156.50715,48.613865 a 8.8582678,8.8582678 0 0 0 -8.85742,8.85938 8.8582678,8.8582678 0 0 0 8.85742,8.85742 8.8582678,8.8582678 0 0 0 8.85938,-8.85742 8.8582678,8.8582678 0 0 0 -8.85938,-8.85938 z m 0,3.54297 a 5.3149605,5.3149605 0 0 1 5.31641,5.31641 5.3149605,5.3149605 0 0 1 -5.31641,5.31445 5.3149605,5.3149605 0 0 1 -5.31445,-5.31445 5.3149605,5.3149605 0 0 1 5.31445,-5.31641 z"
     style="color:#000000;clip-rule:nonzero;display:inline;overflow:visible;visibility:visible;opacity:1;isolation:auto;mix-blend-mode:normal;color-interpolation:sRGB;color-interpolation-filters:linearRGB;solid-color:#000000;solid-opacity:1;fill:#e9afaf;fill-opacity:1;fill-rule:nonzero;stroke:#000000;stroke-width:0.35433071;stroke-linecap:butt;stroke-linejoin:miter;stroke-miterlimit:4;stroke-dasharray:none;stroke-dashoffset:0;stroke-opacity:1;color-rendering:auto;image-rendering:auto;shape-rendering:auto;text-rendering:auto;enable-background:accumulate"
     inkscape:connector-curvature="0" />
  <path
     id="path4575"
     d="m 139.97769,37.700664 a 8.8582678,8.8582678 0 0 0 3.24374,12.100441 8.8582678,8.8582678 0 0 0 12.09946,-3.242041 8.8582678,8.8582678 0 0 0 -3.24106,-12.101158 8.8582678,8.8582678 0 0 0 -12.10214,3.242758 z m 3.0683,1.771485 a 5.3149605,5.3149605 0 0 1 7.26235,-1.945941 5.3149605,5.3149605 0 0 1 1.94425,7.261371 5.3149605,5.3149605 0 0 1 -7.25968,1.945224 5.3149605,5.3149605 0 0 1 -1.94692,-7.260654 z"
     style="color:#000000;clip-rule:nonzero;display:inline;overflow:visible;visibility:visible;opacity:1;isolation:auto;mix-blend-mode:normal;color-interpolation:sRGB;color-interpolation-filters:linearRGB;solid-color:#000000;solid-opacity:1;fill:#e9afaf;fill-opacity:1;fill-rule:nonzero;stroke:#000000;stroke-width:0.35433071;stroke-linecap:butt;stroke-linejoin:miter;stroke-miterlimit:4;stroke-dasharray:none;stroke-dashoffset:0;stroke-opacity:1;color-rendering:auto;image-rendering:auto;shape-rendering:auto;text-rendering:auto;enable-background:accumulate"
     inkscape:connector-curvature="0" />
  <path
     id="path4577"
     d="m 148.83609,22.357465 a 8.8582678,8.8582678 0 0 0 3.24374,12.100441 8.8582678,8.8582678 0 0 0 12.09946,-3.242041 8.8582678,8.8582678 0 0 0 -3.24106,-12.101158 8.8582678,8.8582678 0 0 0 -12.10214,3.242758 z m 3.0683,1.771485 a 5.3149605,5.3149605 0 0 1 7.26235,-1.945941 5.3149605,5.3149605 0 0 1 1.94425,7.261371 5.3149605,5.3149605 0 0 1 -7.25968,1.945224 5.3149605,5.3149605 0 0 1 -1.94692,-7.260654 z"
     style="color:#000000;clip-rule:nonzero;display:inline;overflow:visible;visibility:visible;opacity:1;isolation:auto;mix-blend-mode:normal;color-interpolation:sRGB;color-interpolation-filters:linearRGB;solid-color:#000000;solid-opacity:1;fill:#e9afaf;fill-opacity:1;fill-rule:nonzero;stroke:#000000;stroke-width:0.35433071;stroke-linecap:butt;stroke-linejoin:miter;stroke-miterlimit:4;stroke-dasharray:none;stroke-dashoffset:0;stroke-opacity:1;color-rendering:auto;image-rendering:auto;shape-rendering:auto;text-rendering:auto;enable-background:accumulate"
     inkscape:connector-curvature="0" />
  <path
     inkscape:connector-curvature="0"
     style="color:#000000;clip-rule:nonzero;display:inline;overflow:visible;visibility:visible;opacity:1;isolation:auto;mix-blend-mode:normal;color-interpolation:sRGB;color-interpolation-filters:linearRGB;solid-color:#000000;solid-opacity:1;fill:#e9afaf;fill-opacity:1;fill-rule:nonzero;stroke:#000000;stroke-width:0.35433071;stroke-linecap:butt;stroke-linejoin:miter;stroke-miterlimit:4;stroke-dasharray:none;stroke-dashoffset:0;stroke-opacity:1;color-rendering:auto;image-rendering:auto;shape-rendering:auto;text-rendering:auto;enable-background:accumulate"
     d="m 139.97769,7.0142153 a 8.8582678,8.8582678 0 0 0 3.24374,12.1004407 8.8582678,8.8582678 0 0 0 12.09946,-3.242041 8.8582678,8.8582678 0 0 0 -3.24106,-12.1011578 8.8582678,8.8582678 0 0 0 -12.10214,3.2427581 z m 3.0683,1.771485 a 5.3149605,5.3149605 0 0 1 7.26235,-1.9459411 5.3149605,5.3149605 0 0 1 1.94425,7.2613708 5.3149605,5.3149605 0 0 1 -7.25968,1.945224 5.3149605,5.3149605 0 0 1 -1.94692,-7.2606537 z"
     id="path4585" />
  <path
     inkscape:connector-curvature="0"
     style="color:#000000;clip-rule:nonzero;display:inline;overflow:visible;visibility:visible;opacity:1;isolation:auto;mix-blend-mode:normal;color-interpolation:sRGB;color-interpolation-filters:linearRGB;solid-color:#000000;solid-opacity:1;fill:#e9afaf;fill-opacity:1;fill-rule:nonzero;stroke:#000000;stroke-width:0.35433071;stroke-linecap:butt;stroke-linejoin:miter;stroke-miterlimit:4;stroke-dasharray:none;stroke-dashoffset:0;stroke-opacity:1;color-rendering:auto;image-rendering:auto;shape-rendering:auto;text-rendering:auto;enable-background:accumulate"
     d="m 174.22405,48.613865 a 8.8582678,8.8582678 0 0 0 -8.85742,8.85938 8.8582678,8.8582678 0 0 0 8.85742,8.85742 8.8582678,8.8582678 0 0 0 8.85938,-8.85742 8.8582678,8.8582678 0 0 0 -8.85938,-8.85938 z m 0,3.54297 a 5.3149605,5.3149605 0 0 1 5.31641,5.31641 5.3149605,5.3149605 0 0 1 -5.31641,5.31445 5.3149605,5.3149605 0 0 1 -5.31445,-5.31445 5.3149605,5.3149605 0 0 1 5.31445,-5.31641 z"
     id="path4607" />
  <path
     inkscape:connector-curvature="0"
     style="color:#000000;clip-rule:nonzero;display:inline;overflow:visible;visibility:visible;opacity:1;isolation:auto;mix-blend-mode:normal;color-interpolation:sRGB;color-interpolation-filters:linearRGB;solid-color:#000000;solid-opacity:1;fill:#e9afaf;fill-opacity:1;fill-rule:nonzero;stroke:#000000;stroke-width:0.35433071;stroke-linecap:butt;stroke-linejoin:miter;stroke-miterlimit:4;stroke-dasharray:none;stroke-dashoffset:0;stroke-opacity:1;color-rendering:auto;image-rendering:auto;shape-rendering:auto;text-rendering:auto;enable-background:accumulate"
     d="m 157.69459,37.700664 a 8.8582678,8.8582678 0 0 0 3.24374,12.100441 8.8582678,8.8582678 0 0 0 12.09946,-3.242041 8.8582678,8.8582678 0 0 0 -3.24106,-12.101158 8.8582678,8.8582678 0 0 0 -12.10214,3.242758 z m 3.0683,1.771485 a 5.3149605,5.3149605 0 0 1 7.26235,-1.945941 5.3149605,5.3149605 0 0 1 1.94425,7.261371 5.3149605,5.3149605 0 0 1 -7.25968,1.945224 5.3149605,5.3149605 0 0 1 -1.94692,-7.260654 z"
     id="path4609" />
  <path
     inkscape:connector-curvature="0"
     style="color:#000000;clip-rule:nonzero;display:inline;overflow:visible;visibility:visible;opacity:1;isolation:auto;mix-blend-mode:normal;color-interpolation:sRGB;color-interpolation-filters:linearRGB;solid-color:#000000;solid-opacity:1;fill:#e9afaf;fill-opacity:1;fill-rule:nonzero;stroke:#000000;stroke-width:0.35433071;stroke-linecap:butt;stroke-linejoin:miter;stroke-miterlimit:4;stroke-dasharray:none;stroke-dashoffset:0;stroke-opacity:1;color-rendering:auto;image-rendering:auto;shape-rendering:auto;text-rendering:auto;enable-background:accumulate"
     d="m 166.55299,22.357465 a 8.8582678,8.8582678 0 0 0 3.24374,12.100441 8.8582678,8.8582678 0 0 0 12.09946,-3.242041 8.8582678,8.8582678 0 0 0 -3.24106,-12.101158 8.8582678,8.8582678 0 0 0 -12.10214,3.242758 z m 3.0683,1.771485 a 5.3149605,5.3149605 0 0 1 7.26235,-1.945941 5.3149605,5.3149605 0 0 1 1.94425,7.261371 5.3149605,5.3149605 0 0 1 -7.25968,1.945224 5.3149605,5.3149605 0 0 1 -1.94692,-7.260654 z"
     id="path4611" />
  <path
     id="path4613"
     d="m 157.69459,7.0142153 a 8.8582678,8.8582678 0 0 0 3.24374,12.1004407 8.8582678,8.8582678 0 0 0 12.09946,-3.242041 8.8582678,8.8582678 0 0 0 -3.24106,-12.1011578 8.8582678,8.8582678 0 0 0 -12.10214,3.2427581 z m 3.0683,1.771485 a 5.3149605,5.3149605 0 0 1 7.26235,-1.9459411 5.3149605,5.3149605 0 0 1 1.94425,7.2613708 5.3149605,5.3149605 0 0 1 -7.25968,1.945224 5.3149605,5.3149605 0 0 1 -1.94692,-7.2606537 z"
     style="color:#000000;clip-rule:nonzero;display:inline;overflow:visible;visibility:visible;opacity:1;isolation:auto;mix-blend-mode:normal;color-interpolation:sRGB;color-interpolation-filters:linearRGB;solid-color:#000000;solid-opacity:1;fill:#e9afaf;fill-opacity:1;fill-rule:nonzero;stroke:#000000;stroke-width:0.35433071;stroke-linecap:butt;stroke-linejoin:miter;stroke-miterlimit:4;stroke-dasharray:none;stroke-dashoffset:0;stroke-opacity:1;color-rendering:auto;image-rendering:auto;shape-rendering:auto;text-rendering:auto;enable-background:accumulate"
     inkscape:connector-curvature="0" />
  <path
     id="path4621"
     d="m 191.94095,48.613865 a 8.8582678,8.8582678 0 0 0 -8.85742,8.85938 8.8582678,8.8582678 0 0 0 8.85742,8.85742 8.8582678,8.8582678 0 0 0 8.85938,-8.85742 8.8582678,8.8582678 0 0 0 -8.85938,-8.85938 z m 0,3.54297 a 5.3149605,5.3149605 0 0 1 5.31641,5.31641 5.3149605,5.3149605 0 0 1 -5.31641,5.31445 5.3149605,5.3149605 0 0 1 -5.31445,-5.31445 5.3149605,5.3149605 0 0 1 5.31445,-5.31641 z"
     style="color:#000000;clip-rule:nonzero;display:inline;overflow:visible;visibility:visible;opacity:1;isolation:auto;mix-blend-mode:normal;color-interpolation:sRGB;color-interpolation-filters:linearRGB;solid-color:#000000;solid-opacity:1;fill:#e9afaf;fill-opacity:1;fill-rule:nonzero;stroke:#000000;stroke-width:0.35433071;stroke-linecap:butt;stroke-linejoin:miter;stroke-miterlimit:4;stroke-dasharray:none;stroke-dashoffset:0;stroke-opacity:1;color-rendering:auto;image-rendering:auto;shape-rendering:auto;text-rendering:auto;enable-background:accumulate"
     inkscape:connector-curvature="0" />
  <path
     id="path4623"
     d="m 175.41149,37.700664 a 8.8582678,8.8582678 0 0 0 3.24374,12.100441 8.8582678,8.8582678 0 0 0 12.09946,-3.242041 8.8582678,8.8582678 0 0 0 -3.24106,-12.101158 8.8582678,8.8582678 0 0 0 -12.10214,3.242758 z m 3.0683,1.771485 a 5.3149605,5.3149605 0 0 1 7.26235,-1.945941 5.3149605,5.3149605 0 0 1 1.94425,7.261371 5.3149605,5.3149605 0 0 1 -7.25968,1.945224 5.3149605,5.3149605 0 0 1 -1.94692,-7.260654 z"
     style="color:#000000;clip-rule:nonzero;display:inline;overflow:visible;visibility:visible;opacity:1;isolation:auto;mix-blend-mode:normal;color-interpolation:sRGB;color-interpolation-filters:linearRGB;solid-color:#000000;solid-opacity:1;fill:#e9afaf;fill-opacity:1;fill-rule:nonzero;stroke:#000000;stroke-width:0.35433071;stroke-linecap:butt;stroke-linejoin:miter;stroke-miterlimit:4;stroke-dasharray:none;stroke-dashoffset:0;stroke-opacity:1;color-rendering:auto;image-rendering:auto;shape-rendering:auto;text-rendering:auto;enable-background:accumulate"
     inkscape:connector-curvature="0" />
  <path
     id="path4625"
     d="m 184.26989,22.357465 a 8.8582678,8.8582678 0 0 0 3.24374,12.100441 8.8582678,8.8582678 0 0 0 12.09946,-3.242041 8.8582678,8.8582678 0 0 0 -3.24106,-12.101158 8.8582678,8.8582678 0 0 0 -12.10214,3.242758 z m 3.0683,1.771485 a 5.3149605,5.3149605 0 0 1 7.26235,-1.945941 5.3149605,5.3149605 0 0 1 1.94425,7.261371 5.3149605,5.3149605 0 0 1 -7.25968,1.945224 5.3149605,5.3149605 0 0 1 -1.94692,-7.260654 z"
     style="color:#000000;clip-rule:nonzero;display:inline;overflow:visible;visibility:visible;opacity:1;isolation:auto;mix-blend-mode:normal;color-interpolation:sRGB;color-interpolation-filters:linearRGB;solid-color:#000000;solid-opacity:1;fill:#e9afaf;fill-opacity:1;fill-rule:nonzero;stroke:#000000;stroke-width:0.35433071;stroke-linecap:butt;stroke-linejoin:miter;stroke-miterlimit:4;stroke-dasharray:none;stroke-dashoffset:0;stroke-opacity:1;color-rendering:auto;image-rendering:auto;shape-rendering:auto;text-rendering:auto;enable-background:accumulate"
     inkscape:connector-curvature="0" />
  <path
     inkscape:connector-curvature="0"
     style="color:#000000;clip-rule:nonzero;display:inline;overflow:visible;visibility:visible;opacity:1;isolation:auto;mix-blend-mode:normal;color-interpolation:sRGB;color-interpolation-filters:linearRGB;solid-color:#000000;solid-opacity:1;fill:#e9afaf;fill-opacity:1;fill-rule:nonzero;stroke:#000000;stroke-width:0.35433071;stroke-linecap:butt;stroke-linejoin:miter;stroke-miterlimit:4;stroke-dasharray:none;stroke-dashoffset:0;stroke-opacity:1;color-rendering:auto;image-rendering:auto;shape-rendering:auto;text-rendering:auto;enable-background:accumulate"
     d="m 175.41149,7.0142153 a 8.8582678,8.8582678 0 0 0 3.24374,12.1004407 8.8582678,8.8582678 0 0 0 12.09946,-3.242041 8.8582678,8.8582678 0 0 0 -3.24106,-12.1011578 8.8582678,8.8582678 0 0 0 -12.10214,3.2427581 z m 3.0683,1.771485 a 5.3149605,5.3149605 0 0 1 7.26235,-1.9459411 5.3149605,5.3149605 0 0 1 1.94425,7.2613708 5.3149605,5.3149605 0 0 1 -7.25968,1.945224 5.3149605,5.3149605 0 0 1 -1.94692,-7.2606537 z"
     id="path4627" />
  <path
     inkscape:connector-curvature="0"
     style="color:#000000;clip-rule:nonzero;display:inline;overflow:visible;visibility:visible;opacity:1;isolation:auto;mix-blend-mode:normal;color-interpolation:sRGB;color-interpolation-filters:linearRGB;solid-color:#000000;solid-opacity:1;fill:#e9afaf;fill-opacity:1;fill-rule:nonzero;stroke:#000000;stroke-width:0.35433071;stroke-linecap:butt;stroke-linejoin:miter;stroke-miterlimit:4;stroke-dasharray:none;stroke-dashoffset:0;stroke-opacity:1;color-rendering:auto;image-rendering:auto;shape-rendering:auto;text-rendering:auto;enable-background:accumulate"
     d="m 245.09165,48.613865 a 8.8582678,8.8582678 0 0 0 -8.85742,8.85938 8.8582678,8.8582678 0 0 0 8.85742,8.85742 8.8582678,8.8582678 0 0 0 8.85938,-8.85742 8.8582678,8.8582678 0 0 0 -8.85938,-8.85938 z m 0,3.54297 a 5.3149605,5.3149605 0 0 1 5.31641,5.31641 5.3149605,5.3149605 0 0 1 -5.31641,5.31445 5.3149605,5.3149605 0 0 1 -5.31445,-5.31445 5.3149605,5.3149605 0 0 1 5.31445,-5.31641 z"
     id="path4631" />
  <path
     inkscape:connector-curvature="0"
     style="color:#000000;clip-rule:nonzero;display:inline;overflow:visible;visibility:visible;opacity:1;isolation:auto;mix-blend-mode:normal;color-interpolation:sRGB;color-interpolation-filters:linearRGB;solid-color:#000000;solid-opacity:1;fill:#e9afaf;fill-opacity:1;fill-rule:nonzero;stroke:#000000;stroke-width:0.35433071;stroke-linecap:butt;stroke-linejoin:miter;stroke-miterlimit:4;stroke-dasharray:none;stroke-dashoffset:0;stroke-opacity:1;color-rendering:auto;image-rendering:auto;shape-rendering:auto;text-rendering:auto;enable-background:accumulate"
     d="m 228.56219,37.700664 a 8.8582678,8.8582678 0 0 0 3.24374,12.100441 8.8582678,8.8582678 0 0 0 12.09946,-3.242041 8.8582678,8.8582678 0 0 0 -3.24106,-12.101158 8.8582678,8.8582678 0 0 0 -12.10214,3.242758 z m 3.0683,1.771485 a 5.3149605,5.3149605 0 0 1 7.26235,-1.945941 5.3149605,5.3149605 0 0 1 1.94425,7.261371 5.3149605,5.3149605 0 0 1 -7.25968,1.945224 5.3149605,5.3149605 0 0 1 -1.94692,-7.260654 z"
     id="path4633" />
  <path
     inkscape:connector-curvature="0"
     style="color:#000000;clip-rule:nonzero;display:inline;overflow:visible;visibility:visible;opacity:1;isolation:auto;mix-blend-mode:normal;color-interpolation:sRGB;color-interpolation-filters:linearRGB;solid-color:#000000;solid-opacity:1;fill:#e9afaf;fill-opacity:1;fill-rule:nonzero;stroke:#000000;stroke-width:0.35433071;stroke-linecap:butt;stroke-linejoin:miter;stroke-miterlimit:4;stroke-dasharray:none;stroke-dashoffset:0;stroke-opacity:1;color-rendering:auto;image-rendering:auto;shape-rendering:auto;text-rendering:auto;enable-background:accumulate"
     d="m 237.42059,22.357465 a 8.8582678,8.8582678 0 0 0 3.24374,12.100441 8.8582678,8.8582678 0 0 0 12.09946,-3.242041 8.8582678,8.8582678 0 0 0 -3.24106,-12.101158 8.8582678,8.8582678 0 0 0 -12.10214,3.242758 z m 3.0683,1.771485 a 5.3149605,5.3149605 0 0 1 7.26235,-1.945941 5.3149605,5.3149605 0 0 1 1.94425,7.261371 5.3149605,5.3149605 0 0 1 -7.25968,1.945224 5.3149605,5.3149605 0 0 1 -1.94692,-7.260654 z"
     id="path4635" />
  <path
     id="path4637"
     d="m 228.56219,7.0142153 a 8.8582678,8.8582678 0 0 0 3.24374,12.1004407 8.8582678,8.8582678 0 0 0 12.09946,-3.242041 8.8582678,8.8582678 0 0 0 -3.24106,-12.1011578 8.8582678,8.8582678 0 0 0 -12.10214,3.2427581 z m 3.0683,1.771485 a 5.3149605,5.3149605 0 0 1 7.26235,-1.9459411 5.3149605,5.3149605 0 0 1 1.94425,7.2613708 5.3149605,5.3149605 0 0 1 -7.25968,1.945224 5.3149605,5.3149605 0 0 1 -1.94692,-7.2606537 z"
     style="color:#000000;clip-rule:nonzero;display:inline;overflow:visible;visibility:visible;opacity:1;isolation:auto;mix-blend-mode:normal;color-interpolation:sRGB;color-interpolation-filters:linearRGB;solid-color:#000000;solid-opacity:1;fill:#e9afaf;fill-opacity:1;fill-rule:nonzero;stroke:#000000;stroke-width:0.35433071;stroke-linecap:butt;stroke-linejoin:miter;stroke-miterlimit:4;stroke-dasharray:none;stroke-dashoffset:0;stroke-opacity:1;color-rendering:auto;image-rendering:auto;shape-rendering:auto;text-rendering:auto;enable-background:accumulate"
     inkscape:connector-curvature="0" />
  <path
     id="path4649"
     d="m 333.67615,48.613865 a 8.8582678,8.8582678 0 0 0 -8.85742,8.85938 8.8582678,8.8582678 0 0 0 8.85742,8.85742 8.8582678,8.8582678 0 0 0 8.85938,-8.85742 8.8582678,8.8582678 0 0 0 -8.85938,-8.85938 z m 0,3.54297 a 5.3149605,5.3149605 0 0 1 5.31641,5.31641 5.3149605,5.3149605 0 0 1 -5.31641,5.31445 5.3149605,5.3149605 0 0 1 -5.31445,-5.31445 5.3149605,5.3149605 0 0 1 5.31445,-5.31641 z"
     style="color:#000000;clip-rule:nonzero;display:inline;overflow:visible;visibility:visible;opacity:1;isolation:auto;mix-blend-mode:normal;color-interpolation:sRGB;color-interpolation-filters:linearRGB;solid-color:#000000;solid-opacity:1;fill:#e9afaf;fill-opacity:1;fill-rule:nonzero;stroke:#000000;stroke-width:0.35433071;stroke-linecap:butt;stroke-linejoin:miter;stroke-miterlimit:4;stroke-dasharray:none;stroke-dashoffset:0;stroke-opacity:1;color-rendering:auto;image-rendering:auto;shape-rendering:auto;text-rendering:auto;enable-background:accumulate"
     inkscape:connector-curvature="0" />
  <path
     id="path4651"
     d="m 317.14669,37.700664 a 8.8582678,8.8582678 0 0 0 3.24374,12.100441 8.8582678,8.8582678 0 0 0 12.09946,-3.242041 8.8582678,8.8582678 0 0 0 -3.24106,-12.101158 8.8582678,8.8582678 0 0 0 -12.10214,3.242758 z m 3.0683,1.771485 a 5.3149605,5.3149605 0 0 1 7.26235,-1.945941 5.3149605,5.3149605 0 0 1 1.94425,7.261371 5.3149605,5.3149605 0 0 1 -7.25968,1.945224 5.3149605,5.3149605 0 0 1 -1.94692,-7.260654 z"
     style="color:#000000;clip-rule:nonzero;display:inline;overflow:visible;visibility:visible;opacity:1;isolation:auto;mix-blend-mode:normal;color-interpolation:sRGB;color-interpolation-filters:linearRGB;solid-color:#000000;solid-opacity:1;fill:#e9afaf;fill-opacity:1;fill-rule:nonzero;stroke:#000000;stroke-width:0.35433071;stroke-linecap:butt;stroke-linejoin:miter;stroke-miterlimit:4;stroke-dasharray:none;stroke-dashoffset:0;stroke-opacity:1;color-rendering:auto;image-rendering:auto;shape-rendering:auto;text-rendering:auto;enable-background:accumulate"
     inkscape:connector-curvature="0" />
  <path
     id="path4653"
     d="m 326.00509,22.357465 a 8.8582678,8.8582678 0 0 0 3.24374,12.100441 8.8582678,8.8582678 0 0 0 12.09946,-3.242041 8.8582678,8.8582678 0 0 0 -3.24106,-12.101158 8.8582678,8.8582678 0 0 0 -12.10214,3.242758 z m 3.0683,1.771485 a 5.3149605,5.3149605 0 0 1 7.26235,-1.945941 5.3149605,5.3149605 0 0 1 1.94425,7.261371 5.3149605,5.3149605 0 0 1 -7.25968,1.945224 5.3149605,5.3149605 0 0 1 -1.94692,-7.260654 z"
     style="color:#000000;clip-rule:nonzero;display:inline;overflow:visible;visibility:visible;opacity:1;isolation:auto;mix-blend-mode:normal;color-interpolation:sRGB;color-interpolation-filters:linearRGB;solid-color:#000000;solid-opacity:1;fill:#e9afaf;fill-opacity:1;fill-rule:nonzero;stroke:#000000;stroke-width:0.35433071;stroke-linecap:butt;stroke-linejoin:miter;stroke-miterlimit:4;stroke-dasharray:none;stroke-dashoffset:0;stroke-opacity:1;color-rendering:auto;image-rendering:auto;shape-rendering:auto;text-rendering:auto;enable-background:accumulate"
     inkscape:connector-curvature="0" />
  <path
     inkscape:connector-curvature="0"
     style="color:#000000;clip-rule:nonzero;display:inline;overflow:visible;visibility:visible;opacity:1;isolation:auto;mix-blend-mode:normal;color-interpolation:sRGB;color-interpolation-filters:linearRGB;solid-color:#000000;solid-opacity:1;fill:#e9afaf;fill-opacity:1;fill-rule:nonzero;stroke:#000000;stroke-width:0.35433071;stroke-linecap:butt;stroke-linejoin:miter;stroke-miterlimit:4;stroke-dasharray:none;stroke-dashoffset:0;stroke-opacity:1;color-rendering:auto;image-rendering:auto;shape-rendering:auto;text-rendering:auto;enable-background:accumulate"
     d="m 317.14669,7.0142153 a 8.8582678,8.8582678 0 0 0 3.24374,12.1004407 8.8582678,8.8582678 0 0 0 12.09946,-3.242041 8.8582678,8.8582678 0 0 0 -3.24106,-12.1011578 8.8582678,8.8582678 0 0 0 -12.10214,3.2427581 z m 3.0683,1.771485 a 5.3149605,5.3149605 0 0 1 7.26235,-1.9459411 5.3149605,5.3149605 0 0 1 1.94425,7.2613708 5.3149605,5.3149605 0 0 1 -7.25968,1.945224 5.3149605,5.3149605 0 0 1 -1.94692,-7.2606537 z"
     id="path4655" />
  <path
     inkscape:connector-curvature="0"
     style="color:#000000;clip-rule:nonzero;display:inline;overflow:visible;visibility:visible;opacity:1;isolation:auto;mix-blend-mode:normal;color-interpolation:sRGB;color-interpolation-filters:linearRGB;solid-color:#000000;solid-opacity:1;fill:#e9afaf;fill-opacity:1;fill-rule:nonzero;stroke:#000000;stroke-width:0.35433071;stroke-linecap:butt;stroke-linejoin:miter;stroke-miterlimit:4;stroke-dasharray:none;stroke-dashoffset:0;stroke-opacity:1;color-rendering:auto;image-rendering:auto;shape-rendering:auto;text-rendering:auto;enable-background:accumulate"
     d="m 280.52545,48.613865 a 8.8582678,8.8582678 0 0 0 -8.85742,8.85938 8.8582678,8.8582678 0 0 0 8.85742,8.85742 8.8582678,8.8582678 0 0 0 8.85938,-8.85742 8.8582678,8.8582678 0 0 0 -8.85938,-8.85938 z m 0,3.54297 a 5.3149605,5.3149605 0 0 1 5.31641,5.31641 5.3149605,5.3149605 0 0 1 -5.31641,5.31445 5.3149605,5.3149605 0 0 1 -5.31445,-5.31445 5.3149605,5.3149605 0 0 1 5.31445,-5.31641 z"
     id="path4659" />
  <path
     inkscape:connector-curvature="0"
     style="color:#000000;clip-rule:nonzero;display:inline;overflow:visible;visibility:visible;opacity:1;isolation:auto;mix-blend-mode:normal;color-interpolation:sRGB;color-interpolation-filters:linearRGB;solid-color:#000000;solid-opacity:1;fill:#e9afaf;fill-opacity:1;fill-rule:nonzero;stroke:#000000;stroke-width:0.35433071;stroke-linecap:butt;stroke-linejoin:miter;stroke-miterlimit:4;stroke-dasharray:none;stroke-dashoffset:0;stroke-opacity:1;color-rendering:auto;image-rendering:auto;shape-rendering:auto;text-rendering:auto;enable-background:accumulate"
     d="m 263.99599,37.700664 a 8.8582678,8.8582678 0 0 0 3.24374,12.100441 8.8582678,8.8582678 0 0 0 12.09946,-3.242041 8.8582678,8.8582678 0 0 0 -3.24106,-12.101158 8.8582678,8.8582678 0 0 0 -12.10214,3.242758 z m 3.0683,1.771485 a 5.3149605,5.3149605 0 0 1 7.26235,-1.945941 5.3149605,5.3149605 0 0 1 1.94425,7.261371 5.3149605,5.3149605 0 0 1 -7.25968,1.945224 5.3149605,5.3149605 0 0 1 -1.94692,-7.260654 z"
     id="path4661" />
  <path
     inkscape:connector-curvature="0"
     style="color:#000000;clip-rule:nonzero;display:inline;overflow:visible;visibility:visible;opacity:1;isolation:auto;mix-blend-mode:normal;color-interpolation:sRGB;color-interpolation-filters:linearRGB;solid-color:#000000;solid-opacity:1;fill:#e9afaf;fill-opacity:1;fill-rule:nonzero;stroke:#000000;stroke-width:0.35433071;stroke-linecap:butt;stroke-linejoin:miter;stroke-miterlimit:4;stroke-dasharray:none;stroke-dashoffset:0;stroke-opacity:1;color-rendering:auto;image-rendering:auto;shape-rendering:auto;text-rendering:auto;enable-background:accumulate"
     d="m 272.85439,22.357465 a 8.8582678,8.8582678 0 0 0 3.24374,12.100441 8.8582678,8.8582678 0 0 0 12.09946,-3.242041 8.8582678,8.8582678 0 0 0 -3.24106,-12.101158 8.8582678,8.8582678 0 0 0 -12.10214,3.242758 z m 3.0683,1.771485 a 5.3149605,5.3149605 0 0 1 7.26235,-1.945941 5.3149605,5.3149605 0 0 1 1.94425,7.261371 5.3149605,5.3149605 0 0 1 -7.25968,1.945224 5.3149605,5.3149605 0 0 1 -1.94692,-7.260654 z"
     id="path4663" />
  <path
     id="path4665"
     d="m 263.99599,7.0142153 a 8.8582678,8.8582678 0 0 0 3.24374,12.1004407 8.8582678,8.8582678 0 0 0 12.09946,-3.242041 8.8582678,8.8582678 0 0 0 -3.24106,-12.1011578 8.8582678,8.8582678 0 0 0 -12.10214,3.2427581 z m 3.0683,1.771485 a 5.3149605,5.3149605 0 0 1 7.26235,-1.9459411 5.3149605,5.3149605 0 0 1 1.94425,7.2613708 5.3149605,5.3149605 0 0 1 -7.25968,1.945224 5.3149605,5.3149605 0 0 1 -1.94692,-7.2606537 z"
     style="color:#000000;clip-rule:nonzero;display:inline;overflow:visible;visibility:visible;opacity:1;isolation:auto;mix-blend-mode:normal;color-interpolation:sRGB;color-interpolation-filters:linearRGB;solid-color:#000000;solid-opacity:1;fill:#e9afaf;fill-opacity:1;fill-rule:nonzero;stroke:#000000;stroke-width:0.35433071;stroke-linecap:butt;stroke-linejoin:miter;stroke-miterlimit:4;stroke-dasharray:none;stroke-dashoffset:0;stroke-opacity:1;color-rendering:auto;image-rendering:auto;shape-rendering:auto;text-rendering:auto;enable-background:accumulate"
     inkscape:connector-curvature="0" />
  <path
     id="path4669"
     d="m 315.95925,48.613865 a 8.8582678,8.8582678 0 0 0 -8.85742,8.85938 8.8582678,8.8582678 0 0 0 8.85742,8.85742 8.8582678,8.8582678 0 0 0 8.85938,-8.85742 8.8582678,8.8582678 0 0 0 -8.85938,-8.85938 z m 0,3.54297 a 5.3149605,5.3149605 0 0 1 5.31641,5.31641 5.3149605,5.3149605 0 0 1 -5.31641,5.31445 5.3149605,5.3149605 0 0 1 -5.31445,-5.31445 5.3149605,5.3149605 0 0 1 5.31445,-5.31641 z"
     style="color:#000000;clip-rule:nonzero;display:inline;overflow:visible;visibility:visible;opacity:1;isolation:auto;mix-blend-mode:normal;color-interpolation:sRGB;color-interpolation-filters:linearRGB;solid-color:#000000;solid-opacity:1;fill:#e9afaf;fill-opacity:1;fill-rule:nonzero;stroke:#000000;stroke-width:0.35433071;stroke-linecap:butt;stroke-linejoin:miter;stroke-miterlimit:4;stroke-dasharray:none;stroke-dashoffset:0;stroke-opacity:1;color-rendering:auto;image-rendering:auto;shape-rendering:auto;text-rendering:auto;enable-background:accumulate"
     inkscape:connector-curvature="0" />
  <path
     id="path4671"
     d="m 299.42979,37.700664 a 8.8582678,8.8582678 0 0 0 3.24374,12.100441 8.8582678,8.8582678 0 0 0 12.09946,-3.242041 8.8582678,8.8582678 0 0 0 -3.24106,-12.101158 8.8582678,8.8582678 0 0 0 -12.10214,3.242758 z m 3.0683,1.771485 a 5.3149605,5.3149605 0 0 1 7.26235,-1.945941 5.3149605,5.3149605 0 0 1 1.94425,7.261371 5.3149605,5.3149605 0 0 1 -7.25968,1.945224 5.3149605,5.3149605 0 0 1 -1.94692,-7.260654 z"
     style="color:#000000;clip-rule:nonzero;display:inline;overflow:visible;visibility:visible;opacity:1;isolation:auto;mix-blend-mode:normal;color-interpolation:sRGB;color-interpolation-filters:linearRGB;solid-color:#000000;solid-opacity:1;fill:#e9afaf;fill-opacity:1;fill-rule:nonzero;stroke:#000000;stroke-width:0.35433071;stroke-linecap:butt;stroke-linejoin:miter;stroke-miterlimit:4;stroke-dasharray:none;stroke-dashoffset:0;stroke-opacity:1;color-rendering:auto;image-rendering:auto;shape-rendering:auto;text-rendering:auto;enable-background:accumulate"
     inkscape:connector-curvature="0" />
  <path
     id="path4673"
     d="m 308.28819,22.357465 a 8.8582678,8.8582678 0 0 0 3.24374,12.100441 8.8582678,8.8582678 0 0 0 12.09946,-3.242041 8.8582678,8.8582678 0 0 0 -3.24106,-12.101158 8.8582678,8.8582678 0 0 0 -12.10214,3.242758 z m 3.0683,1.771485 a 5.3149605,5.3149605 0 0 1 7.26235,-1.945941 5.3149605,5.3149605 0 0 1 1.94425,7.261371 5.3149605,5.3149605 0 0 1 -7.25968,1.945224 5.3149605,5.3149605 0 0 1 -1.94692,-7.260654 z"
     style="color:#000000;clip-rule:nonzero;display:inline;overflow:visible;visibility:visible;opacity:1;isolation:auto;mix-blend-mode:normal;color-interpolation:sRGB;color-interpolation-filters:linearRGB;solid-color:#000000;solid-opacity:1;fill:#e9afaf;fill-opacity:1;fill-rule:nonzero;stroke:#000000;stroke-width:0.35433071;stroke-linecap:butt;stroke-linejoin:miter;stroke-miterlimit:4;stroke-dasharray:none;stroke-dashoffset:0;stroke-opacity:1;color-rendering:auto;image-rendering:auto;shape-rendering:auto;text-rendering:auto;enable-background:accumulate"
     inkscape:connector-curvature="0" />
  <path
     inkscape:connector-curvature="0"
     style="color:#000000;clip-rule:nonzero;display:inline;overflow:visible;visibility:visible;opacity:1;isolation:auto;mix-blend-mode:normal;color-interpolation:sRGB;color-interpolation-filters:linearRGB;solid-color:#000000;solid-opacity:1;fill:#e9afaf;fill-opacity:1;fill-rule:nonzero;stroke:#000000;stroke-width:0.35433071;stroke-linecap:butt;stroke-linejoin:miter;stroke-miterlimit:4;stroke-dasharray:none;stroke-dashoffset:0;stroke-opacity:1;color-rendering:auto;image-rendering:auto;shape-rendering:auto;text-rendering:auto;enable-background:accumulate"
     d="m 299.42979,7.0142153 a 8.8582678,8.8582678 0 0 0 3.24374,12.1004407 8.8582678,8.8582678 0 0 0 12.09946,-3.242041 8.8582678,8.8582678 0 0 0 -3.24106,-12.1011578 8.8582678,8.8582678 0 0 0 -12.10214,3.2427581 z m 3.0683,1.771485 a 5.3149605,5.3149605 0 0 1 7.26235,-1.9459411 5.3149605,5.3149605 0 0 1 1.94425,7.2613708 5.3149605,5.3149605 0 0 1 -7.25968,1.945224 5.3149605,5.3149605 0 0 1 -1.94692,-7.2606537 z"
     id="path4675" />
  <path
     inkscape:connector-curvature="0"
     style="color:#000000;clip-rule:nonzero;display:inline;overflow:visible;visibility:visible;opacity:1;isolation:auto;mix-blend-mode:normal;color-interpolation:sRGB;color-interpolation-filters:linearRGB;solid-color:#000000;solid-opacity:1;fill:#e9afaf;fill-opacity:1;fill-rule:nonzero;stroke:#000000;stroke-width:0.35433071;stroke-linecap:butt;stroke-linejoin:miter;stroke-miterlimit:4;stroke-dasharray:none;stroke-dashoffset:0;stroke-opacity:1;color-rendering:auto;image-rendering:auto;shape-rendering:auto;text-rendering:auto;enable-background:accumulate"
     d="m 334.86359,37.700664 a 8.8582678,8.8582678 0 0 0 3.24374,12.100441 8.8582678,8.8582678 0 0 0 12.09946,-3.242041 8.8582678,8.8582678 0 0 0 -3.24106,-12.101158 8.8582678,8.8582678 0 0 0 -12.10214,3.242758 z m 3.0683,1.771485 a 5.3149605,5.3149605 0 0 1 7.26235,-1.945941 5.3149605,5.3149605 0 0 1 1.94425,7.261371 5.3149605,5.3149605 0 0 1 -7.25968,1.945224 5.3149605,5.3149605 0 0 1 -1.94692,-7.260654 z"
     id="path4681" />
  <path
     id="path4685"
     d="m 334.86359,7.0142153 a 8.8582678,8.8582678 0 0 0 3.24374,12.1004407 8.8582678,8.8582678 0 0 0 12.09946,-3.242041 8.8582678,8.8582678 0 0 0 -3.24106,-12.1011578 8.8582678,8.8582678 0 0 0 -12.10214,3.2427581 z m 3.0683,1.771485 a 5.3149605,5.3149605 0 0 1 7.26235,-1.9459411 5.3149605,5.3149605 0 0 1 1.94425,7.2613708 5.3149605,5.3149605 0 0 1 -7.25968,1.945224 5.3149605,5.3149605 0 0 1 -1.94692,-7.2606537 z"
     style="color:#000000;clip-rule:nonzero;display:inline;overflow:visible;visibility:visible;opacity:1;isolation:auto;mix-blend-mode:normal;color-interpolation:sRGB;color-interpolation-filters:linearRGB;solid-color:#000000;solid-opacity:1;fill:#e9afaf;fill-opacity:1;fill-rule:nonzero;stroke:#000000;stroke-width:0.35433071;stroke-linecap:butt;stroke-linejoin:miter;stroke-miterlimit:4;stroke-dasharray:none;stroke-dashoffset:0;stroke-opacity:1;color-rendering:auto;image-rendering:auto;shape-rendering:auto;text-rendering:auto;enable-background:accumulate"
     inkscape:connector-curvature="0" />
  <path
     id="path4689"
     d="m 262.80855,48.613865 a 8.8582678,8.8582678 0 0 0 -8.85742,8.85938 8.8582678,8.8582678 0 0 0 8.85742,8.85742 8.8582678,8.8582678 0 0 0 8.85938,-8.85742 8.8582678,8.8582678 0 0 0 -8.85938,-8.85938 z m 0,3.54297 a 5.3149605,5.3149605 0 0 1 5.31641,5.31641 5.3149605,5.3149605 0 0 1 -5.31641,5.31445 5.3149605,5.3149605 0 0 1 -5.31445,-5.31445 5.3149605,5.3149605 0 0 1 5.31445,-5.31641 z"
     style="color:#000000;clip-rule:nonzero;display:inline;overflow:visible;visibility:visible;opacity:1;isolation:auto;mix-blend-mode:normal;color-interpolation:sRGB;color-interpolation-filters:linearRGB;solid-color:#000000;solid-opacity:1;fill:#e9afaf;fill-opacity:1;fill-rule:nonzero;stroke:#000000;stroke-width:0.35433071;stroke-linecap:butt;stroke-linejoin:miter;stroke-miterlimit:4;stroke-dasharray:none;stroke-dashoffset:0;stroke-opacity:1;color-rendering:auto;image-rendering:auto;shape-rendering:auto;text-rendering:auto;enable-background:accumulate"
     inkscape:connector-curvature="0" />
  <path
     id="path4691"
     d="m 246.27909,37.700664 a 8.8582678,8.8582678 0 0 0 3.24374,12.100441 8.8582678,8.8582678 0 0 0 12.09946,-3.242041 8.8582678,8.8582678 0 0 0 -3.24106,-12.101158 8.8582678,8.8582678 0 0 0 -12.10214,3.242758 z m 3.0683,1.771485 a 5.3149605,5.3149605 0 0 1 7.26235,-1.945941 5.3149605,5.3149605 0 0 1 1.94425,7.261371 5.3149605,5.3149605 0 0 1 -7.25968,1.945224 5.3149605,5.3149605 0 0 1 -1.94692,-7.260654 z"
     style="color:#000000;clip-rule:nonzero;display:inline;overflow:visible;visibility:visible;opacity:1;isolation:auto;mix-blend-mode:normal;color-interpolation:sRGB;color-interpolation-filters:linearRGB;solid-color:#000000;solid-opacity:1;fill:#e9afaf;fill-opacity:1;fill-rule:nonzero;stroke:#000000;stroke-width:0.35433071;stroke-linecap:butt;stroke-linejoin:miter;stroke-miterlimit:4;stroke-dasharray:none;stroke-dashoffset:0;stroke-opacity:1;color-rendering:auto;image-rendering:auto;shape-rendering:auto;text-rendering:auto;enable-background:accumulate"
     inkscape:connector-curvature="0" />
  <path
     id="path4693"
     d="m 255.13749,22.357465 a 8.8582678,8.8582678 0 0 0 3.24374,12.100441 8.8582678,8.8582678 0 0 0 12.09946,-3.242041 8.8582678,8.8582678 0 0 0 -3.24106,-12.101158 8.8582678,8.8582678 0 0 0 -12.10214,3.242758 z m 3.0683,1.771485 a 5.3149605,5.3149605 0 0 1 7.26235,-1.945941 5.3149605,5.3149605 0 0 1 1.94425,7.261371 5.3149605,5.3149605 0 0 1 -7.25968,1.945224 5.3149605,5.3149605 0 0 1 -1.94692,-7.260654 z"
     style="color:#000000;clip-rule:nonzero;display:inline;overflow:visible;visibility:visible;opacity:1;isolation:auto;mix-blend-mode:normal;color-interpolation:sRGB;color-interpolation-filters:linearRGB;solid-color:#000000;solid-opacity:1;fill:#e9afaf;fill-opacity:1;fill-rule:nonzero;stroke:#000000;stroke-width:0.35433071;stroke-linecap:butt;stroke-linejoin:miter;stroke-miterlimit:4;stroke-dasharray:none;stroke-dashoffset:0;stroke-opacity:1;color-rendering:auto;image-rendering:auto;shape-rendering:auto;text-rendering:auto;enable-background:accumulate"
     inkscape:connector-curvature="0" />
  <path
     inkscape:connector-curvature="0"
     style="color:#000000;clip-rule:nonzero;display:inline;overflow:visible;visibility:visible;opacity:1;isolation:auto;mix-blend-mode:normal;color-interpolation:sRGB;color-interpolation-filters:linearRGB;solid-color:#000000;solid-opacity:1;fill:#e9afaf;fill-opacity:1;fill-rule:nonzero;stroke:#000000;stroke-width:0.35433071;stroke-linecap:butt;stroke-linejoin:miter;stroke-miterlimit:4;stroke-dasharray:none;stroke-dashoffset:0;stroke-opacity:1;color-rendering:auto;image-rendering:auto;shape-rendering:auto;text-rendering:auto;enable-background:accumulate"
     d="m 246.27909,7.0142153 a 8.8582678,8.8582678 0 0 0 3.24374,12.1004407 8.8582678,8.8582678 0 0 0 12.09946,-3.242041 8.8582678,8.8582678 0 0 0 -3.24106,-12.1011578 8.8582678,8.8582678 0 0 0 -12.10214,3.2427581 z m 3.0683,1.771485 a 5.3149605,5.3149605 0 0 1 7.26235,-1.9459411 5.3149605,5.3149605 0 0 1 1.94425,7.2613708 5.3149605,5.3149605 0 0 1 -7.25968,1.945224 5.3149605,5.3149605 0 0 1 -1.94692,-7.2606537 z"
     id="path4695" />
  <path
     inkscape:connector-curvature="0"
     style="color:#000000;clip-rule:nonzero;display:inline;overflow:visible;visibility:visible;opacity:1;isolation:auto;mix-blend-mode:normal;color-interpolation:sRGB;color-interpolation-filters:linearRGB;solid-color:#000000;solid-opacity:1;fill:#e9afaf;fill-opacity:1;fill-rule:nonzero;stroke:#000000;stroke-width:0.35433071;stroke-linecap:butt;stroke-linejoin:miter;stroke-miterlimit:4;stroke-dasharray:none;stroke-dashoffset:0;stroke-opacity:1;color-rendering:auto;image-rendering:auto;shape-rendering:auto;text-rendering:auto;enable-background:accumulate"
     d="m 298.24235,48.613865 a 8.8582678,8.8582678 0 0 0 -8.85742,8.85938 8.8582678,8.8582678 0 0 0 8.85742,8.85742 8.8582678,8.8582678 0 0 0 8.85938,-8.85742 8.8582678,8.8582678 0 0 0 -8.85938,-8.85938 z m 0,3.54297 a 5.3149605,5.3149605 0 0 1 5.31641,5.31641 5.3149605,5.3149605 0 0 1 -5.31641,5.31445 5.3149605,5.3149605 0 0 1 -5.31445,-5.31445 5.3149605,5.3149605 0 0 1 5.31445,-5.31641 z"
     id="path4699" />
  <path
     inkscape:connector-curvature="0"
     style="color:#000000;clip-rule:nonzero;display:inline;overflow:visible;visibility:visible;opacity:1;isolation:auto;mix-blend-mode:normal;color-interpolation:sRGB;color-interpolation-filters:linearRGB;solid-color:#000000;solid-opacity:1;fill:#e9afaf;fill-opacity:1;fill-rule:nonzero;stroke:#000000;stroke-width:0.35433071;stroke-linecap:butt;stroke-linejoin:miter;stroke-miterlimit:4;stroke-dasharray:none;stroke-dashoffset:0;stroke-opacity:1;color-rendering:auto;image-rendering:auto;shape-rendering:auto;text-rendering:auto;enable-background:accumulate"
     d="m 281.71289,37.700664 a 8.8582678,8.8582678 0 0 0 3.24374,12.100441 8.8582678,8.8582678 0 0 0 12.09946,-3.242041 8.8582678,8.8582678 0 0 0 -3.24106,-12.101158 8.8582678,8.8582678 0 0 0 -12.10214,3.242758 z m 3.0683,1.771485 a 5.3149605,5.3149605 0 0 1 7.26235,-1.945941 5.3149605,5.3149605 0 0 1 1.94425,7.261371 5.3149605,5.3149605 0 0 1 -7.25968,1.945224 5.3149605,5.3149605 0 0 1 -1.94692,-7.260654 z"
     id="path4701" />
  <path
     inkscape:connector-curvature="0"
     style="color:#000000;clip-rule:nonzero;display:inline;overflow:visible;visibility:visible;opacity:1;isolation:auto;mix-blend-mode:normal;color-interpolation:sRGB;color-interpolation-filters:linearRGB;solid-color:#000000;solid-opacity:1;fill:#e9afaf;fill-opacity:1;fill-rule:nonzero;stroke:#000000;stroke-width:0.35433071;stroke-linecap:butt;stroke-linejoin:miter;stroke-miterlimit:4;stroke-dasharray:none;stroke-dashoffset:0;stroke-opacity:1;color-rendering:auto;image-rendering:auto;shape-rendering:auto;text-rendering:auto;enable-background:accumulate"
     d="m 290.57129,22.357465 a 8.8582678,8.8582678 0 0 0 3.24374,12.100441 8.8582678,8.8582678 0 0 0 12.09946,-3.242041 8.8582678,8.8582678 0 0 0 -3.24106,-12.101158 8.8582678,8.8582678 0 0 0 -12.10214,3.242758 z m 3.0683,1.771485 a 5.3149605,5.3149605 0 0 1 7.26235,-1.945941 5.3149605,5.3149605 0 0 1 1.94425,7.261371 5.3149605,5.3149605 0 0 1 -7.25968,1.945224 5.3149605,5.3149605 0 0 1 -1.94692,-7.260654 z"
     id="path4703" />
  <path
     id="path4705"
     d="m 281.71289,7.0142153 a 8.8582678,8.8582678 0 0 0 3.24374,12.1004407 8.8582678,8.8582678 0 0 0 12.09946,-3.242041 8.8582678,8.8582678 0 0 0 -3.24106,-12.1011578 8.8582678,8.8582678 0 0 0 -12.10214,3.2427581 z m 3.0683,1.771485 a 5.3149605,5.3149605 0 0 1 7.26235,-1.9459411 5.3149605,5.3149605 0 0 1 1.94425,7.2613708 5.3149605,5.3149605 0 0 1 -7.25968,1.945224 5.3149605,5.3149605 0 0 1 -1.94692,-7.2606537 z"
     style="color:#000000;clip-rule:nonzero;display:inline;overflow:visible;visibility:visible;opacity:1;isolation:auto;mix-blend-mode:normal;color-interpolation:sRGB;color-interpolation-filters:linearRGB;solid-color:#000000;solid-opacity:1;fill:#e9afaf;fill-opacity:1;fill-rule:nonzero;stroke:#000000;stroke-width:0.35433071;stroke-linecap:butt;stroke-linejoin:miter;stroke-miterlimit:4;stroke-dasharray:none;stroke-dashoffset:0;stroke-opacity:1;color-rendering:auto;image-rendering:auto;shape-rendering:auto;text-rendering:auto;enable-background:accumulate"
     inkscape:connector-curvature="0" />
  <path
     id="path4709"
     d="m 227.37475,48.613865 a 8.8582678,8.8582678 0 0 0 -8.85742,8.85938 8.8582678,8.8582678 0 0 0 8.85742,8.85742 8.8582678,8.8582678 0 0 0 8.85938,-8.85742 8.8582678,8.8582678 0 0 0 -8.85938,-8.85938 z m 0,3.54297 a 5.3149605,5.3149605 0 0 1 5.31641,5.31641 5.3149605,5.3149605 0 0 1 -5.31641,5.31445 5.3149605,5.3149605 0 0 1 -5.31445,-5.31445 5.3149605,5.3149605 0 0 1 5.31445,-5.31641 z"
     style="color:#000000;clip-rule:nonzero;display:inline;overflow:visible;visibility:visible;opacity:1;isolation:auto;mix-blend-mode:normal;color-interpolation:sRGB;color-interpolation-filters:linearRGB;solid-color:#000000;solid-opacity:1;fill:#e9afaf;fill-opacity:1;fill-rule:nonzero;stroke:#000000;stroke-width:0.35433071;stroke-linecap:butt;stroke-linejoin:miter;stroke-miterlimit:4;stroke-dasharray:none;stroke-dashoffset:0;stroke-opacity:1;color-rendering:auto;image-rendering:auto;shape-rendering:auto;text-rendering:auto;enable-background:accumulate"
     inkscape:connector-curvature="0" />
  <path
     id="path4711"
     d="m 210.84529,37.700664 a 8.8582678,8.8582678 0 0 0 3.24374,12.100441 8.8582678,8.8582678 0 0 0 12.09946,-3.242041 8.8582678,8.8582678 0 0 0 -3.24106,-12.101158 8.8582678,8.8582678 0 0 0 -12.10214,3.242758 z m 3.0683,1.771485 a 5.3149605,5.3149605 0 0 1 7.26235,-1.945941 5.3149605,5.3149605 0 0 1 1.94425,7.261371 5.3149605,5.3149605 0 0 1 -7.25968,1.945224 5.3149605,5.3149605 0 0 1 -1.94692,-7.260654 z"
     style="color:#000000;clip-rule:nonzero;display:inline;overflow:visible;visibility:visible;opacity:1;isolation:auto;mix-blend-mode:normal;color-interpolation:sRGB;color-interpolation-filters:linearRGB;solid-color:#000000;solid-opacity:1;fill:#e9afaf;fill-opacity:1;fill-rule:nonzero;stroke:#000000;stroke-width:0.35433071;stroke-linecap:butt;stroke-linejoin:miter;stroke-miterlimit:4;stroke-dasharray:none;stroke-dashoffset:0;stroke-opacity:1;color-rendering:auto;image-rendering:auto;shape-rendering:auto;text-rendering:auto;enable-background:accumulate"
     inkscape:connector-curvature="0" />
  <path
     id="path4713"
     d="m 219.70369,22.357465 a 8.8582678,8.8582678 0 0 0 3.24374,12.100441 8.8582678,8.8582678 0 0 0 12.09946,-3.242041 8.8582678,8.8582678 0 0 0 -3.24106,-12.101158 8.8582678,8.8582678 0 0 0 -12.10214,3.242758 z m 3.0683,1.771485 a 5.3149605,5.3149605 0 0 1 7.26235,-1.945941 5.3149605,5.3149605 0 0 1 1.94425,7.261371 5.3149605,5.3149605 0 0 1 -7.25968,1.945224 5.3149605,5.3149605 0 0 1 -1.94692,-7.260654 z"
     style="color:#000000;clip-rule:nonzero;display:inline;overflow:visible;visibility:visible;opacity:1;isolation:auto;mix-blend-mode:normal;color-interpolation:sRGB;color-interpolation-filters:linearRGB;solid-color:#000000;solid-opacity:1;fill:#e9afaf;fill-opacity:1;fill-rule:nonzero;stroke:#000000;stroke-width:0.35433071;stroke-linecap:butt;stroke-linejoin:miter;stroke-miterlimit:4;stroke-dasharray:none;stroke-dashoffset:0;stroke-opacity:1;color-rendering:auto;image-rendering:auto;shape-rendering:auto;text-rendering:auto;enable-background:accumulate"
     inkscape:connector-curvature="0" />
  <path
     inkscape:connector-curvature="0"
     style="color:#000000;clip-rule:nonzero;display:inline;overflow:visible;visibility:visible;opacity:1;isolation:auto;mix-blend-mode:normal;color-interpolation:sRGB;color-interpolation-filters:linearRGB;solid-color:#000000;solid-opacity:1;fill:#e9afaf;fill-opacity:1;fill-rule:nonzero;stroke:#000000;stroke-width:0.35433071;stroke-linecap:butt;stroke-linejoin:miter;stroke-miterlimit:4;stroke-dasharray:none;stroke-dashoffset:0;stroke-opacity:1;color-rendering:auto;image-rendering:auto;shape-rendering:auto;text-rendering:auto;enable-background:accumulate"
     d="m 210.84529,7.0142153 a 8.8582678,8.8582678 0 0 0 3.24374,12.1004407 8.8582678,8.8582678 0 0 0 12.09946,-3.242041 8.8582678,8.8582678 0 0 0 -3.24106,-12.1011578 8.8582678,8.8582678 0 0 0 -12.10214,3.2427581 z m 3.0683,1.771485 a 5.3149605,5.3149605 0 0 1 7.26235,-1.9459411 5.3149605,5.3149605 0 0 1 1.94425,7.2613708 5.3149605,5.3149605 0 0 1 -7.25968,1.945224 5.3149605,5.3149605 0 0 1 -1.94692,-7.2606537 z"
     id="path4715" />
  <path
     inkscape:connector-curvature="0"
     style="color:#000000;clip-rule:nonzero;display:inline;overflow:visible;visibility:visible;opacity:1;isolation:auto;mix-blend-mode:normal;color-interpolation:sRGB;color-interpolation-filters:linearRGB;solid-color:#000000;solid-opacity:1;fill:#e9afaf;fill-opacity:1;fill-rule:nonzero;stroke:#000000;stroke-width:0.35433071;stroke-linecap:butt;stroke-linejoin:miter;stroke-miterlimit:4;stroke-dasharray:none;stroke-dashoffset:0;stroke-opacity:1;color-rendering:auto;image-rendering:auto;shape-rendering:auto;text-rendering:auto;enable-background:accumulate"
     d="m 209.65785,48.613865 a 8.8582678,8.8582678 0 0 0 -8.85742,8.85938 8.8582678,8.8582678 0 0 0 8.85742,8.85742 8.8582678,8.8582678 0 0 0 8.85938,-8.85742 8.8582678,8.8582678 0 0 0 -8.85938,-8.85938 z m 0,3.54297 a 5.3149605,5.3149605 0 0 1 5.31641,5.31641 5.3149605,5.3149605 0 0 1 -5.31641,5.31445 5.3149605,5.3149605 0 0 1 -5.31445,-5.31445 5.3149605,5.3149605 0 0 1 5.31445,-5.31641 z"
     id="path4719" />
  <path
     inkscape:connector-curvature="0"
     style="color:#000000;clip-rule:nonzero;display:inline;overflow:visible;visibility:visible;opacity:1;isolation:auto;mix-blend-mode:normal;color-interpolation:sRGB;color-interpolation-filters:linearRGB;solid-color:#000000;solid-opacity:1;fill:#e9afaf;fill-opacity:1;fill-rule:nonzero;stroke:#000000;stroke-width:0.35433071;stroke-linecap:butt;stroke-linejoin:miter;stroke-miterlimit:4;stroke-dasharray:none;stroke-dashoffset:0;stroke-opacity:1;color-rendering:auto;image-rendering:auto;shape-rendering:auto;text-rendering:auto;enable-background:accumulate"
     d="m 193.12839,37.700664 a 8.8582678,8.8582678 0 0 0 3.24374,12.100441 8.8582678,8.8582678 0 0 0 12.09946,-3.242041 8.8582678,8.8582678 0 0 0 -3.24106,-12.101158 8.8582678,8.8582678 0 0 0 -12.10214,3.242758 z m 3.0683,1.771485 a 5.3149605,5.3149605 0 0 1 7.26235,-1.945941 5.3149605,5.3149605 0 0 1 1.94425,7.261371 5.3149605,5.3149605 0 0 1 -7.25968,1.945224 5.3149605,5.3149605 0 0 1 -1.94692,-7.260654 z"
     id="path4721" />
  <path
     inkscape:connector-curvature="0"
     style="color:#000000;clip-rule:nonzero;display:inline;overflow:visible;visibility:visible;opacity:1;isolation:auto;mix-blend-mode:normal;color-interpolation:sRGB;color-interpolation-filters:linearRGB;solid-color:#000000;solid-opacity:1;fill:#e9afaf;fill-opacity:1;fill-rule:nonzero;stroke:#000000;stroke-width:0.35433071;stroke-linecap:butt;stroke-linejoin:miter;stroke-miterlimit:4;stroke-dasharray:none;stroke-dashoffset:0;stroke-opacity:1;color-rendering:auto;image-rendering:auto;shape-rendering:auto;text-rendering:auto;enable-background:accumulate"
     d="m 201.98679,22.357465 a 8.8582678,8.8582678 0 0 0 3.24374,12.100441 8.8582678,8.8582678 0 0 0 12.09946,-3.242041 8.8582678,8.8582678 0 0 0 -3.24106,-12.101158 8.8582678,8.8582678 0 0 0 -12.10214,3.242758 z m 3.0683,1.771485 a 5.3149605,5.3149605 0 0 1 7.26235,-1.945941 5.3149605,5.3149605 0 0 1 1.94425,7.261371 5.3149605,5.3149605 0 0 1 -7.25968,1.945224 5.3149605,5.3149605 0 0 1 -1.94692,-7.260654 z"
     id="path4723" />
  <path
     id="path4725"
     d="m 193.12839,7.0142153 a 8.8582678,8.8582678 0 0 0 3.24374,12.1004407 8.8582678,8.8582678 0 0 0 12.09946,-3.242041 8.8582678,8.8582678 0 0 0 -3.24106,-12.1011578 8.8582678,8.8582678 0 0 0 -12.10214,3.2427581 z m 3.0683,1.771485 a 5.3149605,5.3149605 0 0 1 7.26235,-1.9459411 5.3149605,5.3149605 0 0 1 1.94425,7.2613708 5.3149605,5.3149605 0 0 1 -7.25968,1.945224 5.3149605,5.3149605 0 0 1 -1.94692,-7.2606537 z"
     style="color:#000000;clip-rule:nonzero;display:inline;overflow:visible;visibility:visible;opacity:1;isolation:auto;mix-blend-mode:normal;color-interpolation:sRGB;color-interpolation-filters:linearRGB;solid-color:#000000;solid-opacity:1;fill:#e9afaf;fill-opacity:1;fill-rule:nonzero;stroke:#000000;stroke-width:0.35433071;stroke-linecap:butt;stroke-linejoin:miter;stroke-miterlimit:4;stroke-dasharray:none;stroke-dashoffset:0;stroke-opacity:1;color-rendering:auto;image-rendering:auto;shape-rendering:auto;text-rendering:auto;enable-background:accumulate"
     inkscape:connector-curvature="0" />
</svg>
